<svg width="364" height="265" viewBox="0 0 264 165" fill="none" xmlns="http://www.w3.org/2000/svg">
<path fill-rule="evenodd" clip-rule="evenodd" d="M168.496 70.3467C168.584 66.1919 176.044 65.1552 182.985 65.2965C188.363 65.4054 199.165 66.6706 199.165 70.7237C199.165 73.6871 198.282 74.9766 194.5 75.6713C192.23 76.088 175.067 78.0363 170.855 75.1503C169.399 74.1523 168.447 72.6315 168.496 70.3467Z" fill="#E5FCFC" fill-opacity="0.4"/>
<path d="M79.5186 141.666C89.6711 137.145 87.436 134.035 100.039 131.369C113.208 128.598 139.249 147.024 170.434 144.724C194.644 142.921 239.428 124.704 242.795 77.4244C246.161 30.1448 207.705 -7.46466 173.019 4.1135C147.867 12.5031 133.028 28.2107 112.831 36.0514C94.0876 43.3172 67.831 37.123 50.4881 44.0751C22.5618 55.2874 19.6265 82.8607 22.508 102.28C25.2548 120.836 49.6264 155.022 79.5186 141.666Z" fill="#DEBCE4" fill-opacity="0.5"/>
<mask id="mask0_197_21683" style="mask-type:alpha" maskUnits="userSpaceOnUse" x="21" y="2" width="222" height="143">
<path d="M79.5186 141.666C89.6711 137.145 87.436 134.035 100.039 131.369C113.208 128.598 139.249 147.024 170.434 144.724C194.644 142.921 239.428 124.704 242.795 77.4244C246.161 30.1448 207.705 -7.46466 173.019 4.1135C147.867 12.5031 133.028 28.2107 112.831 36.0514C94.0876 43.3172 67.831 37.123 50.4881 44.0751C22.5618 55.2874 19.6265 82.8607 22.508 102.28C25.2548 120.836 49.6264 155.022 79.5186 141.666Z" fill="#E6F5FD"/>
</mask>
<g mask="url(#mask0_197_21683)">
<path opacity="0.89" d="M69.7261 38.2721C71.55 38.2721 73.4245 38.2229 75.3497 38.1C90.1433 37.1658 108.585 32.6669 130.116 24.6769C156.461 14.9169 191.19 17.1049 215.686 20.6451C242.258 24.5048 262.853 30.7493 263.055 30.7984C263.435 30.9214 263.866 30.7739 263.993 30.4543C264.145 30.1592 263.942 29.8151 263.562 29.6921C263.359 29.6184 242.638 23.3494 215.939 19.465C200.234 17.2032 185.567 16.1707 172.293 16.4657C155.701 16.8099 141.287 19.2192 129.483 23.5952C108.129 31.5114 89.8899 35.9858 75.2484 36.92C63.3173 37.6821 53.742 36.0595 46.7505 32.1506C39.0751 27.8483 35.934 21.4564 34.6421 16.8591C33.2489 11.8438 33.6795 7.76281 33.6795 7.73822C33.7049 7.41862 33.4262 7.12361 33.0209 7.09903C32.6156 7.07444 32.261 7.2957 32.2356 7.63989C32.2103 7.81198 31.7797 11.893 33.2236 17.0803C34.0848 20.1288 35.4021 22.956 37.1753 25.4144C39.4044 28.5121 42.3429 31.118 45.9146 33.1094C52.0195 36.5266 60.0242 38.2721 69.7261 38.2721Z" fill="white"/>
<path opacity="0.89" d="M80.7464 62.365C83.3302 62.365 86.0154 62.2667 88.7511 62.0946C101.493 61.2341 116.084 58.3086 132.144 53.4163C159.856 44.9838 192.306 46.336 214.648 48.9911C238.89 51.8429 256.8 56.7843 256.977 56.8335C257.357 56.9319 257.788 56.7843 257.914 56.4648C258.041 56.1697 257.838 55.8256 257.458 55.7272C257.281 55.678 239.27 50.712 214.876 47.8356C200.564 46.1393 186.86 45.5001 174.194 45.8934C158.311 46.3851 143.999 48.5731 131.612 52.3346C102.202 61.2833 78.1879 63.4713 60.228 58.8249C45.3838 54.9897 37.987 47.516 33.098 42.5745C30.4635 39.9194 28.7157 38.1493 26.8158 38.1002C26.0052 38.0756 25.2453 38.346 24.536 38.9606C24.2574 39.2065 24.2574 39.5752 24.5613 39.7965C24.8653 40.0178 25.3213 40.0178 25.5999 39.7719C26.1319 39.3294 26.5118 39.2802 26.7398 39.2802C27.9811 39.3294 29.7289 41.0749 31.9328 43.3121C34.2633 45.6722 37.4804 48.9173 41.9134 51.9658C47.1823 55.6043 53.0338 58.2102 59.7467 59.9557C66.0542 61.5537 73.071 62.365 80.7464 62.365Z" fill="white"/>
<path opacity="0.89" d="M94.1966 87.2692C96.1471 87.2692 98.0976 87.22 100.073 87.1463C110.687 86.7038 122.137 85.032 134.144 82.1802C163.402 75.2474 193.572 75.8128 213.736 77.4846C235.622 79.3038 250.745 82.8194 250.897 82.844C251.277 82.9423 251.682 82.7457 251.809 82.4507C251.935 82.1311 251.707 81.8115 251.302 81.7131C251.15 81.6885 235.901 78.1484 213.913 76.3045C200.994 75.2228 188.303 74.9278 176.194 75.4441C161.046 76.0833 146.759 77.9517 133.714 81.0493C82.9747 93.0711 57.2887 81.0248 40.266 73.0594C35.0984 70.6255 30.9947 68.7079 27.2456 67.995C23.0913 67.2083 19.7222 68.0196 16.6571 70.6009C16.3784 70.8468 16.3784 71.2156 16.6824 71.4368C16.9864 71.6581 17.4424 71.6581 17.721 71.4122C23.4966 66.5691 29.5254 69.3963 39.5314 74.0674C48.0681 78.0746 58.6819 83.0407 73.8554 85.5975C80.3149 86.7038 87.1291 87.2692 94.1966 87.2692Z" fill="white"/>
<path opacity="0.89" d="M109.903 108.977C118.49 108.977 127.103 108.264 135.969 106.814C166.899 101.749 194.814 101.454 212.799 102.118C232.279 102.831 244.59 104.773 244.717 104.773C245.122 104.847 245.502 104.626 245.578 104.306C245.654 103.986 245.401 103.691 244.995 103.618C244.869 103.593 232.482 101.651 212.9 100.938C201.4 100.52 189.722 100.594 178.171 101.184C163.732 101.897 149.42 103.421 135.69 105.658C99.0863 111.657 73.5522 103.937 53.0338 97.7419C43.7371 94.9392 35.7071 92.5054 28.4876 92.0383C20.5336 91.522 14.226 93.4396 8.6278 98.1352C8.34915 98.3811 8.34915 98.7498 8.65313 98.9711C8.9571 99.1923 9.41307 99.1923 9.69172 98.9465C14.9353 94.5213 20.8629 92.702 28.361 93.1937C35.3778 93.6608 43.3065 96.0455 52.5018 98.8236C62.6597 101.897 74.1855 105.363 87.8898 107.354C95.2359 108.436 102.531 108.977 109.903 108.977Z" fill="white"/>
<path opacity="0.89" d="M127.178 140.125C130.75 140.125 134.398 140.002 138.071 139.683C200.69 134.668 238.484 134.938 238.839 134.938C239.244 134.938 239.574 134.692 239.574 134.348C239.574 134.028 239.244 133.758 238.839 133.758C238.459 133.758 200.589 133.488 137.893 138.527C112.866 140.543 90.2956 135.036 70.3851 130.193C56.8835 126.899 44.1418 123.801 32.616 123.555C26.4098 123.433 20.9635 124.121 15.9479 125.645C10.4003 127.341 5.46071 130.07 0.825061 133.955C0.546415 134.201 0.546417 134.569 0.850394 134.791C1.15437 135.012 1.61033 135.012 1.88898 134.766C20.3556 119.229 42.2419 124.563 69.9545 131.3C87.1292 135.479 106.204 140.125 127.178 140.125Z" fill="white"/>
</g>
<path fill-rule="evenodd" clip-rule="evenodd" d="M94 150.5C94 151.881 114.37 153 139.5 153C164.629 153 185 151.881 185 150.5C185 149.12 164.629 148 139.5 148C114.37 148 94 149.12 94 150.5Z" fill="#0B2739"/>
<path fill-rule="evenodd" clip-rule="evenodd" d="M60.0556 29.5461C60.4974 30.0492 61.1376 30.3642 61.8183 30.4109C62.4928 30.4586 63.1744 30.2355 63.6883 29.7999C64.2041 29.3554 64.5287 28.7102 64.5756 28.0379C64.6225 27.3648 64.3907 26.6962 63.9525 26.1833C63.068 25.1556 61.3459 25.0359 60.327 25.9295C59.8221 26.3776 59.4984 27.0076 59.4515 27.6798C59.4037 28.3529 59.6354 29.0359 60.0736 29.547L60.0556 29.5461Z" fill="#DAE7EF"/>
<path fill-rule="evenodd" clip-rule="evenodd" d="M68.3864 21.3723C68.702 21.7304 69.1582 21.9554 69.6433 21.9896C70.1239 22.0229 70.6099 21.8636 70.9768 21.5532C71.3438 21.2364 71.5746 20.7765 71.6089 20.2969C71.6423 19.8173 71.4764 19.3412 71.1653 18.975C70.5341 18.2425 69.307 18.157 68.5803 18.795C68.2196 19.1135 67.9897 19.5626 67.9554 20.0422C67.922 20.5219 68.0871 21.0087 68.399 21.3732L68.3864 21.3723Z" fill="#EDF2F6"/>
<path fill-rule="evenodd" clip-rule="evenodd" d="M177.706 134.213H95.7198C91.1754 134.213 87.457 130.502 87.457 125.967V12.6684C87.457 11.1773 88.6679 9.96875 90.162 9.96875H183.264C184.758 9.96875 185.969 11.1773 185.969 12.6684V125.967C185.969 130.502 182.25 134.213 177.706 134.213Z" fill="#86888C"/>
<path fill-rule="evenodd" clip-rule="evenodd" d="M172.987 21.4199C172.559 21.4406 172.222 21.7627 172.145 22.1839C171.886 23.6003 170.677 24.7054 169.174 24.7783C167.671 24.8512 166.361 23.8685 165.966 22.4836C165.848 22.0723 165.482 21.7843 165.054 21.805L160.298 22.0354C159.87 22.0561 159.533 22.3783 159.456 22.7994C159.198 24.2159 157.988 25.3209 156.485 25.3947C154.981 25.4676 153.671 24.484 153.277 23.0991C153.159 22.6878 152.793 22.3999 152.365 22.4206L147.609 22.6509C147.18 22.6716 146.844 22.9947 146.766 23.4149C146.509 24.8323 145.299 25.9373 143.796 26.0102C142.292 26.0831 140.982 25.0995 140.587 23.7146C140.47 23.3034 140.103 23.0154 139.676 23.0361L134.919 23.2665C134.491 23.2881 134.155 23.6102 134.078 24.0305C133.82 25.4478 132.611 26.5529 131.107 26.6258C129.604 26.6987 128.293 25.7151 127.898 24.3301C127.78 23.9189 127.414 23.6309 126.986 23.6516L122.23 23.882C121.802 23.9036 121.465 24.2258 121.389 24.646C121.13 26.0633 119.922 27.1684 118.419 27.2413C116.915 27.3142 115.604 26.3315 115.21 24.9457C115.091 24.5344 114.725 24.2464 114.297 24.2671L109.541 24.4975C109.113 24.5191 108.776 24.8413 108.699 25.2615C108.441 26.6789 107.232 27.7839 105.729 27.8568C104.225 27.9297 102.915 26.947 102.521 25.5612C102.402 25.1499 102.036 24.862 101.608 24.8827L100.274 24.9475C99.7769 24.9718 99.3928 25.3938 99.4171 25.8906L103.741 114.679C103.905 118.015 106.745 120.588 110.087 120.426L173.832 117.333C177.175 117.171 179.753 114.335 179.589 111L175.265 22.21C175.242 21.7142 174.818 21.3308 174.321 21.3551L172.987 21.4199Z" fill="#0B2739" fill-opacity="0.6"/>
<path fill-rule="evenodd" clip-rule="evenodd" d="M170.973 20.2456C170.545 20.2663 170.208 20.5884 170.131 21.0096C169.873 22.426 168.664 23.5311 167.161 23.604C165.657 23.6769 164.347 22.6942 163.952 21.3092C163.834 20.898 163.468 20.61 163.04 20.6307L158.284 20.8611C157.856 20.8827 157.519 21.204 157.442 21.6251C157.184 23.0415 155.975 24.1466 154.472 24.2204C152.968 24.2933 151.658 23.3097 151.263 21.9248C151.146 21.5135 150.779 21.2256 150.351 21.2463L145.595 21.4766C145.167 21.4982 144.829 21.8204 144.753 22.2406C144.494 23.658 143.286 24.763 141.783 24.8359C140.279 24.9088 138.969 23.9252 138.573 22.5403C138.457 22.129 138.09 21.8411 137.662 21.8618L132.905 22.0922C132.478 22.1137 132.14 22.4359 132.064 22.8562C131.805 24.2735 130.597 25.3786 129.094 25.4514C127.59 25.5243 126.28 24.5408 125.884 23.1558C125.767 22.7446 125.401 22.4566 124.972 22.4773L120.216 22.7077C119.788 22.7293 119.451 23.0514 119.374 23.4717C119.115 24.889 117.907 25.9941 116.405 26.067C114.901 26.1399 113.59 25.1572 113.195 23.7713C113.078 23.3601 112.712 23.0721 112.283 23.0928L107.527 23.3241C107.099 23.3448 106.762 23.667 106.685 24.0872C106.426 25.5045 105.218 26.6096 103.714 26.6825C102.211 26.7554 100.901 25.7727 100.506 24.3869C100.389 23.9765 100.023 23.6877 99.5945 23.7084L98.26 23.7731C97.7632 23.7974 97.3791 24.2195 97.4034 24.7162L101.728 113.505C101.89 116.841 104.731 119.414 108.074 119.252L171.818 116.159C175.161 115.997 177.739 113.161 177.576 109.825L173.251 21.0357C173.227 20.5398 172.804 20.1565 172.306 20.1808L170.973 20.2456Z" fill="white"/>
<path fill-rule="evenodd" clip-rule="evenodd" d="M177.706 134.213H95.7198C91.1754 134.213 87.457 130.502 87.457 125.967V130.576C87.457 135.111 91.1754 138.823 95.7198 138.823H177.706C182.25 138.823 185.969 135.111 185.969 130.576V125.968C185.968 130.502 182.25 134.213 177.706 134.213Z" fill="#0B2739"/>
<path fill-rule="evenodd" clip-rule="evenodd" d="M117.101 34.3357C116.871 34.3357 116.639 34.3231 116.407 34.2979C114.744 34.1161 113.251 33.299 112.203 31.9969C111.155 30.6947 110.678 29.0632 110.86 27.402L112.755 9.96484L114.584 9.96844L112.653 27.5982C112.524 28.7807 112.863 29.9424 113.609 30.8702C114.355 31.798 115.419 32.3793 116.603 32.5089C117.79 32.6376 118.952 32.2992 119.882 31.555C120.811 30.8099 121.394 29.7481 121.523 28.5665L123.572 9.96484H125.361L123.317 28.7618C123.134 30.4221 122.316 31.9123 121.011 32.958C119.888 33.8579 118.52 34.3357 117.101 34.3357Z" fill="#0B2739" fill-opacity="0.6" style="mix-blend-mode:multiply"/>
<path fill-rule="evenodd" clip-rule="evenodd" d="M119.163 9.96496L116.466 9.96856L116.799 6.92603C116.861 6.3537 116.719 5.79936 116.4 5.36562C116.104 4.96517 115.691 4.7177 115.235 4.6682C114.249 4.56111 113.344 5.39801 113.219 6.53458L113.032 8.23447L110.344 7.94021L110.53 6.24121C110.817 3.62433 113.06 1.71296 115.529 1.98473C116.746 2.11791 117.829 2.74963 118.579 3.76561C119.301 4.74559 119.624 5.97214 119.487 7.21939L119.163 9.96496Z" fill="#A13EA1"/>
<path fill-rule="evenodd" clip-rule="evenodd" d="M95.7198 134.244C91.1754 134.244 87.457 130.533 87.457 125.998V12.6997C87.457 11.2086 88.6679 10 90.162 10H183.264C184.39 10 185.356 10.6875 185.762 11.6639C185.988 12.2056 185.721 12.8293 185.207 13.1127C177.501 17.3548 113.963 54.0245 113.963 109.674C113.963 124.92 124.748 130.351 132.458 132.906C133.824 133.359 133.329 134.244 133.329 134.244H95.7198Z" fill="#B7B9B9" fill-opacity="0.1" style="mix-blend-mode:multiply"/>
<path fill-rule="evenodd" clip-rule="evenodd" d="M114.913 34.646C114.669 34.646 114.426 34.6325 114.179 34.6064C112.394 34.4112 110.794 33.5356 109.671 32.1389C108.548 30.7432 108.037 28.9938 108.232 27.2138L110.379 7.61691C110.461 6.8763 111.13 6.34266 111.87 6.42185C112.613 6.50374 113.149 7.16966 113.068 7.91117L110.921 27.5072C110.805 28.5709 111.109 29.6157 111.78 30.4489C112.451 31.2831 113.407 31.806 114.473 31.9221C116.674 32.1668 118.654 30.5713 118.895 28.3774L121.168 7.61961C121.249 6.8781 121.922 6.34266 122.661 6.42455C123.403 6.50554 123.939 7.17146 123.858 7.91297L121.584 28.6708C121.208 32.0985 118.291 34.646 114.913 34.646Z" fill="#A13EA1"/>
<path d="M106 44.91L129 44" stroke="#A13EA1" stroke-width="2" stroke-linecap="round"/>
<path d="M106.242 53.9746L112.813 53.6479" stroke="#A13EA1" stroke-width="2" stroke-linecap="round"/>
<path d="M141 87L171 85" stroke="#DDDDDD" stroke-width="2" stroke-linecap="round"/>
<path d="M160.91 101.77L170.504 101.294" stroke="#A13EA1" stroke-width="4" stroke-linecap="round"/>
<circle cx="110.5" cy="81.5" r="3.5" fill="#5BC500"/>
<path d="M144.87 91.7264C144.87 106.784 132.442 118.991 117.111 118.991C101.78 118.991 89.3516 106.784 89.3516 91.7264C89.3516 76.6687 101.78 64.4619 117.111 64.4619C132.442 64.4619 144.87 76.6687 144.87 91.7264Z" fill="white"/>
<path fill-rule="evenodd" clip-rule="evenodd" d="M129.325 81.2961C129.746 81.8623 129.762 82.5792 129.362 82.8975L109.503 98.6684C109.102 98.9867 108.436 98.7857 108.015 98.2196C107.594 97.6534 107.578 96.9365 107.979 96.6182L127.838 80.8473C128.238 80.529 128.904 80.73 129.325 81.2961Z" fill="#E63780"/>
<path fill-rule="evenodd" clip-rule="evenodd" d="M128.916 98.7107C128.435 99.2268 127.733 99.3722 127.348 99.0355L108.251 82.3491C107.866 82.0124 107.943 81.321 108.424 80.8048C108.905 80.2887 109.607 80.1433 109.993 80.4801L129.089 97.1665C129.474 97.5032 129.397 98.1946 128.916 98.7107Z" fill="#E63780"/>
<path fill-rule="evenodd" clip-rule="evenodd" d="M105.192 107.069C95.3842 99.8257 93.4117 86.1457 100.786 76.513C106.91 68.5128 117.55 65.842 126.602 69.3097C128.448 70.0173 130.234 70.9592 131.895 72.1863C141.702 79.4286 143.675 93.1087 136.301 102.741C134.613 104.946 132.57 106.727 130.323 108.108C122.755 112.759 112.754 112.653 105.192 107.069ZM135.921 66.9284C123.262 57.5801 104.58 61.0006 94.193 74.5684C83.8064 88.1361 85.6488 106.713 98.3075 116.062C110.966 125.41 129.648 121.99 140.034 108.422C150.421 94.8541 148.58 76.2767 135.921 66.9284Z" fill="#642A72"/>
<path fill-rule="evenodd" clip-rule="evenodd" d="M130.324 108.108C122.755 112.758 112.754 112.653 105.193 107.069C95.3851 99.826 93.4125 86.146 100.787 76.5133C106.911 68.5131 117.551 65.8423 126.602 69.3096C128.448 70.0172 130.235 70.9595 131.896 72.1866C141.703 79.4289 143.675 93.1085 136.301 102.741C134.613 104.946 132.571 106.727 130.324 108.108ZM136.874 67.6625C124.628 57.7974 106.558 59.5509 96.5138 71.5778C86.4703 83.6058 88.255 101.354 100.5 111.218C112.747 121.083 130.817 119.329 140.86 107.302C150.905 95.2747 149.119 77.5271 136.874 67.6625Z" fill="#A13EA1"/>
<path fill-rule="evenodd" clip-rule="evenodd" d="M131.968 72.1898C130.302 70.96 128.513 70.0158 126.663 69.3062C117.592 65.8289 106.933 68.4995 100.801 76.5101C93.4168 86.1555 95.3993 99.8589 105.229 107.118C112.807 112.715 122.828 112.825 130.408 108.17C132.659 106.787 134.705 105.004 136.395 102.796C143.779 93.1518 141.796 79.4483 131.968 72.1898Z" fill="#DEBCE4" fill-opacity="0.2"/>
<path fill-rule="evenodd" clip-rule="evenodd" d="M124.624 81.2418C125.776 79.738 125.467 77.6031 123.936 76.4725C122.405 75.3418 120.231 75.6437 119.08 77.1474C117.929 78.6511 118.237 80.786 119.768 81.9167C121.299 83.0473 123.473 82.7455 124.624 81.2418Z" fill="white" fill-opacity="0.5"/>
<path fill-rule="evenodd" clip-rule="evenodd" d="M128.478 78.4635C128.752 78.1059 128.678 77.5976 128.314 77.3283C127.95 77.0595 127.432 77.1315 127.158 77.489C126.885 77.8466 126.958 78.3549 127.322 78.6238C127.687 78.8931 128.204 78.8211 128.478 78.4635Z" fill="white" fill-opacity="0.5"/>
<path fill-rule="evenodd" clip-rule="evenodd" d="M97.3323 114.248C97.819 113.612 98.5225 113.19 99.1353 113.216C99.7806 113.244 100.631 113.422 101.447 114.025C102.217 114.593 102.627 115.295 102.844 115.878C103.068 116.479 102.89 117.294 102.369 117.976L95.3156 127.189C94.5967 128.128 93.4775 128.493 92.8162 128.005L90.1709 126.052C89.5096 125.563 89.5563 124.406 90.2752 123.467L97.3323 114.248Z" fill="#DDDDDD"/>
<path fill-rule="evenodd" clip-rule="evenodd" d="M78.9524 129.565C88.0243 117.715 92.1399 117.238 96.1354 120.188C100.131 123.139 100.806 127.154 91.7343 139.004C82.6624 150.855 78.5474 151.333 74.5519 148.382C70.5565 145.431 69.8805 141.415 78.9524 129.565Z" fill="#A13EA1"/>
<path fill-rule="evenodd" clip-rule="evenodd" d="M79.1581 142.365C75.5274 139.684 74.6407 136.121 81.3159 126.601C80.5664 127.499 79.7812 128.483 78.9531 129.565C69.8812 141.415 70.5572 145.431 74.5526 148.381C78.5487 151.333 82.6637 150.855 91.7356 139.004C92.5637 137.923 93.3084 136.908 93.9783 135.952C86.5204 144.894 82.7889 145.047 79.1581 142.365Z" fill="#642A72"/>
<path fill-rule="evenodd" clip-rule="evenodd" d="M170.26 17.5924C155.583 17.757 148.849 25.6742 149.003 39.2173C149.156 52.7615 156.064 60.5256 170.741 60.3599C185.418 60.1952 192.151 52.2781 191.997 38.735C191.845 25.1908 184.937 17.4278 170.26 17.5924Z" fill="#A13EA1"/>
<path opacity="0.4" fill-rule="evenodd" clip-rule="evenodd" d="M181.742 51.3986C167.065 51.5632 160.156 43.8002 160.004 30.256C159.952 25.7413 160.685 21.8682 162.205 18.6821C153.117 21.2793 148.882 28.4672 149.002 39.2179C149.155 52.7621 156.063 60.5251 170.741 60.3605C180.525 60.2518 186.76 56.6795 189.796 50.3095C187.437 50.9828 184.768 51.3648 181.742 51.3986Z" fill="#642A72"/>
<path d="M169.57 20.2583C159.489 20.2583 154.291 26.0951 152.463 29.9408C152.172 30.5533 152.647 31.2107 153.325 31.2107H187.324C188.018 31.2107 188.503 30.5206 188.226 29.8841C186.392 25.6664 182.279 20.2583 169.57 20.2583Z" fill="white"/>
<rect x="159.781" y="14" width="5.48069" height="13.2993" rx="2.74034" fill="#C4C4C4"/>
<rect x="175.441" y="14" width="5.48069" height="13.2993" rx="2.74034" fill="#C4C4C4"/>
<path d="M161.472 41.4512H163.352C163.954 41.4512 164.451 41.3494 164.841 41.146C165.232 40.9344 165.521 40.6414 165.708 40.2671C165.903 39.8846 166.001 39.4411 166.001 38.9365C166.001 38.4808 165.911 38.078 165.732 37.728C165.562 37.37 165.297 37.0933 164.939 36.8979C164.581 36.6945 164.129 36.5928 163.584 36.5928C163.153 36.5928 162.754 36.6782 162.388 36.8491C162.021 37.02 161.729 37.2601 161.509 37.5693C161.289 37.8786 161.179 38.2529 161.179 38.6924H157.651C157.651 37.7158 157.912 36.8654 158.433 36.1411C158.962 35.4168 159.67 34.8512 160.557 34.4443C161.444 34.0374 162.42 33.834 163.486 33.834C164.691 33.834 165.745 34.0293 166.648 34.4199C167.551 34.8024 168.255 35.368 168.76 36.1167C169.264 36.8654 169.517 37.7931 169.517 38.8999C169.517 39.4614 169.386 40.0067 169.126 40.5356C168.866 41.0565 168.491 41.5285 168.003 41.9517C167.523 42.3667 166.937 42.7004 166.245 42.9526C165.553 43.1968 164.776 43.3188 163.914 43.3188H161.472V41.4512ZM161.472 44.1245V42.3057H163.914C164.882 42.3057 165.732 42.4155 166.465 42.6353C167.197 42.855 167.812 43.1724 168.308 43.5874C168.805 43.9943 169.179 44.4785 169.431 45.04C169.683 45.5934 169.81 46.2078 169.81 46.8833C169.81 47.7134 169.651 48.4539 169.333 49.105C169.016 49.7479 168.569 50.2931 167.991 50.7407C167.421 51.1883 166.754 51.5301 165.989 51.7661C165.224 51.994 164.39 52.1079 163.486 52.1079C162.738 52.1079 162.001 52.0062 161.277 51.8027C160.561 51.5911 159.91 51.2778 159.324 50.8628C158.746 50.4396 158.282 49.9106 157.932 49.2759C157.59 48.633 157.419 47.8721 157.419 46.9932H160.947C160.947 47.4489 161.061 47.8558 161.289 48.2139C161.517 48.5719 161.83 48.8527 162.229 49.0562C162.636 49.2596 163.088 49.3613 163.584 49.3613C164.146 49.3613 164.626 49.2596 165.024 49.0562C165.431 48.8446 165.741 48.5516 165.952 48.1772C166.172 47.7948 166.282 47.3512 166.282 46.8467C166.282 46.1956 166.164 45.6748 165.928 45.2842C165.692 44.8854 165.354 44.5924 164.915 44.4053C164.475 44.2181 163.954 44.1245 163.352 44.1245H161.472ZM180.796 34.0537V51.8638H177.28V38.1064L173.057 39.4492V36.6782L180.417 34.0537H180.796Z" fill="white"/>
</svg>
