<svg width="208" height="178" viewBox="0 0 208 178" fill="none" xmlns="http://www.w3.org/2000/svg">
<path d="M88.6949 32.1765C95.833 35.5276 109.003 34.8012 116.77 33.4654C124.511 32.1296 131.925 29.7627 139.843 29.0363C147.76 28.3098 156.708 29.5284 162.539 34.2856C170.657 40.8941 169.777 51.2991 173.975 59.8527C176.538 65.0551 181.012 69.578 184.456 74.4992C187.874 79.4205 190.287 85.2557 188.15 90.3644C185.712 96.1762 178.197 99.293 173.497 104.027C167.138 110.401 166.183 119.376 166.234 127.813C166.309 136.249 167.088 145.014 163.444 152.747C159.774 160.48 150.022 166.855 139.667 164.933C132.78 163.644 127.376 159.121 123.103 154.481C118.831 149.841 115.136 144.709 109.556 141.053C101.84 135.991 91.4848 134.421 81.9338 135.077C72.3829 135.71 63.41 138.335 54.4623 140.772C47.3242 142.717 39.7337 144.568 32.1181 143.28C24.5024 141.991 17.0879 136.39 17.7916 130.273C18.3446 125.446 23.4217 122.024 25.4827 117.572C27.7447 112.744 26.2618 107.073 23.5725 102.129C20.8831 97.1839 17.0125 92.661 14.1723 87.7397C4.29463 70.6091 8.89417 49.4009 25.1559 37.2852C41.4177 25.1696 68.1352 22.9902 88.7703 32.1062" fill="#019DF4"/>
<ellipse opacity="0.3" cx="98.7856" cy="169.904" rx="67.3872" ry="8.09567" fill="#0B2739"/>
<path d="M68.7738 172.558C62.5953 172.949 57.5037 167.719 57.9504 161.544C59.6624 137.88 62.2714 82.3259 54.2816 30.2903C53.3306 24.0965 58.05 18.4004 64.3165 18.4004H147.999C152.974 18.4004 157.18 22.0591 157.759 27.0009C160.398 49.4924 166.332 111.628 158.091 159.54C157.33 163.965 153.568 167.185 149.088 167.469L68.7738 172.558Z" fill="white"/>
<path opacity="0.05" d="M60.0228 119.79C60.0228 134.496 59.0222 150.942 58.2279 161.682C57.7743 167.814 62.8259 172.994 68.9623 172.604L149.352 167.488C153.851 167.202 157.565 163.937 158.181 159.471C159.532 149.667 161.008 135.289 161.27 129.952C125.005 144.831 83.2785 134.208 60.0228 119.79Z" fill="black"/>
<path fill-rule="evenodd" clip-rule="evenodd" d="M126.789 18.3996L126.537 6.78007C126.448 2.66144 128.869 0.24049 133.179 0.147348C137.488 0.0542052 140.012 2.36248 140.101 6.48687L140.646 29.216C140.698 31.6123 139.175 33.1321 136.674 33.1861C134.172 33.2402 132.585 31.7876 132.533 29.3971L132.083 8.66572C132.068 7.96872 132.647 7.3972 133.37 7.38157C134.099 7.36582 134.696 7.91768 134.711 8.60892L135.161 29.3346C135.183 30.3541 135.552 30.6862 136.613 30.6632C137.68 30.6402 138.029 30.2926 138.007 29.273L137.456 6.54405C137.397 3.8367 136.05 2.60371 133.222 2.66486C130.393 2.726 129.101 4.01604 129.159 6.72339L129.413 18.3997L126.789 18.3996Z" fill="#019DF4"/>
<path fill-rule="evenodd" clip-rule="evenodd" d="M141.651 18.3997L141.488 9.70056C141.476 8.98948 142.06 8.4098 142.785 8.398C143.516 8.38612 144.113 8.95249 144.125 9.66358L144.259 18.4174L141.651 18.3997Z" fill="#019DF4"/>
<rect opacity="0.2" x="78.123" y="80.8521" width="75.3037" height="6.16813" rx="3.08407" fill="#0B2739"/>
<rect opacity="0.2" x="78.123" y="107.067" width="54.4504" height="6.16813" rx="3.08407" fill="#0B2739"/>
<path fill-rule="evenodd" clip-rule="evenodd" d="M146.984 95.3923C163.395 80.3058 164.477 54.7821 149.39 38.3705C134.32 21.9596 108.786 20.8811 92.3747 35.9675C75.9568 51.0505 74.8818 76.5777 89.9619 92.9858C105.042 109.394 130.576 110.472 146.984 95.3923ZM143.197 91.269C157.331 78.277 158.26 56.2866 145.268 42.1523C132.275 28.0181 110.285 27.0894 96.1508 40.0814C82.0165 53.0735 81.0879 75.0639 94.0799 89.1981C107.072 103.332 129.062 104.261 143.197 91.269Z" fill="#093B59"/>
<path d="M145.268 42.1517C158.26 56.2859 157.331 78.2764 143.197 91.2684C129.063 104.26 107.072 103.332 94.0802 89.1975C81.0881 75.0633 82.0168 53.0728 96.1511 40.0808C110.285 27.0887 132.276 28.0174 145.268 42.1517Z" fill="#61B9D9" fill-opacity="0.5"/>
<path d="M146.025 86.3196C131.89 99.3116 109.9 98.3829 96.9079 84.2487C87.0886 73.5638 85.2311 58.3959 91.0099 46.0143C82.0363 59.069 82.8987 77.0393 94.0761 89.1969C107.068 103.331 129.059 104.26 143.193 91.2678C146.642 88.095 149.303 84.3935 151.168 80.3889C149.707 82.5095 148.001 84.505 146.025 86.3196Z" fill="#2A95B4"/>
<path d="M146.968 95.3869L155.467 104.636" stroke="#093B59" stroke-width="10.1651" stroke-miterlimit="10"/>
<path d="M154.123 102.985L185.973 137.644" stroke="#093B59" stroke-width="16.9418" stroke-miterlimit="10" stroke-linecap="round"/>
<path d="M86.3432 56.5781C84.0386 53.4913 81.0483 50.967 77.3635 49.0085C73.6697 47.0533 69.2139 45.9514 63.9749 45.7003C58.7359 45.4493 52.6112 46.6021 45.6065 49.1467C40.0134 51.1785 34.5947 53.9964 29.3358 57.616C24.0768 61.2356 19.8199 65.2194 16.5561 69.5706L20.9465 75.3195L17.8411 76.4726L23.173 83.2729C24.6284 85.129 27.0374 85.9586 29.327 85.392C30.2082 85.174 31.0008 84.6955 31.6324 84.0434C34.6918 80.8844 37.3977 78.9851 40.2494 76.9127C43.385 74.6308 46.929 72.7771 50.8781 71.3425C54.8182 69.9112 58.1464 69.7742 60.8659 70.9405C63.5853 72.1068 65.4291 74.0363 66.4028 76.7166C67.5809 79.9599 67.5807 83.2166 66.4231 86.4891C65.2477 89.7681 63.8765 93.1486 62.2917 96.637C61.1896 99.0601 60.1639 101.526 59.208 104.018C58.2554 106.518 57.539 109.084 57.0834 111.727C56.6155 114.365 56.4595 117.081 56.6064 119.88C56.7533 122.679 57.3947 125.642 58.5307 128.769C58.8975 129.778 59.3535 130.978 59.9223 132.349C60.0254 132.605 60.1342 132.849 60.234 133.096L56.1419 134.582L61.6973 135.982L81.0317 128.959C82.2636 128.511 82.8146 127.046 82.3671 125.814C82.0425 124.92 81.7991 124.25 81.6336 123.795C80.9423 121.892 80.6449 119.876 80.7446 117.756C80.8412 115.628 81.1578 113.52 81.7002 111.422C82.2425 109.323 82.9425 107.269 83.8235 105.24C84.6956 103.214 85.5522 101.284 86.3787 99.4671C87.4808 97.044 88.5943 94.4853 89.7313 91.7967C90.8562 89.1024 91.7399 86.3845 92.3458 83.6259C92.9518 80.8673 93.2483 78.0086 93.2201 75.0354C93.195 72.0711 92.6235 69.0221 91.4843 65.8861C90.367 62.7825 88.639 59.6682 86.3432 56.5781Z" fill="#922859"/>
<path d="M45.8978 71.9686C41.9934 73.3869 38.4876 75.2066 35.3837 77.4365C34.282 78.2269 33.1606 79.1093 32.0188 80.0835C28.3767 83.1912 22.8356 83.1307 19.7346 79.4828L19.3785 79.0639C15.1114 74.0444 14.8484 66.5923 19.9237 62.3917C21.4232 61.1507 23.0294 59.9467 24.7427 58.7791C29.9497 55.239 35.3123 52.4617 40.8428 50.4526C47.7671 47.9373 53.8106 46.7836 58.9733 46.9916C64.136 47.1995 68.5269 48.234 72.1524 50.1129C75.7748 51.9828 78.7082 54.4063 80.956 57.3925C83.2039 60.3786 84.8808 63.38 85.981 66.4089C87.0845 69.4466 87.6326 72.403 87.6341 75.2747C87.6388 78.1553 87.3342 80.936 86.7079 83.611C86.0817 86.2859 85.2021 88.9316 84.0724 91.5569C82.9394 94.1732 81.8211 96.6628 80.7264 99.0226C79.8958 100.801 79.0465 102.667 78.176 104.642C77.2934 106.611 76.5862 108.617 76.0422 110.656C75.4982 112.694 75.1621 114.748 75.0608 116.807C74.9504 118.87 75.2341 120.82 75.9027 122.661C76.0617 123.098 76.2954 123.742 76.6102 124.608C77.0433 125.801 76.5101 127.214 75.3178 127.647L56.1524 134.609C55.5364 133.609 54.9609 132.442 54.414 131.104C53.8614 129.777 53.4183 128.614 53.0645 127.64C51.9643 124.611 51.3464 121.741 51.2198 119.026C51.0931 116.311 51.2605 113.681 51.7454 111.118C52.2181 108.549 52.9425 106.061 53.8967 103.621C54.8542 101.19 55.8848 98.7927 56.9828 96.4419C58.57 93.0436 59.9468 89.7623 61.1247 86.5734C62.2936 83.3877 62.3084 80.2269 61.1692 77.0909C60.2247 74.4909 58.4191 72.6387 55.7459 71.5162C53.0727 70.3938 49.7933 70.5535 45.8978 71.9686Z" fill="#E63780"/>
<path d="M92.5318 148.65C93.9534 152.563 93.7817 156.044 92.0257 159.089C90.2729 162.143 87.7912 164.248 84.6015 165.406C81.4029 166.568 78.1487 166.547 74.8445 165.33C71.5436 164.122 69.1779 161.563 67.7563 157.65C66.3379 153.745 66.5096 150.265 68.2624 147.211C70.9635 142.508 76.4691 139.678 81.872 140.325C86.6659 140.91 90.8733 144.084 92.5318 148.65Z" fill="#922859"/>
<path d="M88.2891 150.191C89.7107 154.104 89.539 157.585 87.783 160.63C86.0302 163.684 83.5484 165.789 80.3588 166.947C77.1602 168.109 73.906 168.088 70.6018 166.871C67.3008 165.663 64.9351 163.104 63.5135 159.191C62.0952 155.286 62.2669 151.806 64.0197 148.752C65.7757 145.707 68.2542 143.593 71.4528 142.431C74.6514 141.269 77.8967 141.294 81.2009 142.51C84.514 143.724 86.8708 146.286 88.2891 150.191Z" fill="#E63780"/>
</svg>
