<svg width="170" height="110" viewBox="0 0 170 110" fill="none" xmlns="http://www.w3.org/2000/svg">
<circle cx="86" cy="60" r="50" fill="#7ADFF0" fill-opacity="0.15"/>
<circle cx="86.5" cy="59.5" r="29.5" fill="#7ADFF0"/>
<path fill-rule="evenodd" clip-rule="evenodd" d="M86.0705 68.1544C85.042 69.2819 83.377 69.2819 82.3511 68.1544L76.7694 62.0386C75.7435 60.9141 75.7435 59.0859 76.7694 57.9614C77.7979 56.834 79.4629 56.834 80.4888 57.9614L84.2108 62.0386L93.5093 51.8456C94.5377 50.7181 96.2028 50.7181 97.2286 51.8456C98.2571 52.9701 98.2571 54.7954 97.2286 55.9228L86.0705 68.1544Z" fill="white"/>
<path fill-rule="evenodd" clip-rule="evenodd" d="M148.995 25.8471C151.858 23.5939 151.954 22.5982 151.207 21.6506C150.462 20.7021 149.471 20.5603 146.608 22.8134C143.745 25.0666 143.648 26.0614 144.395 27.0099C145.141 27.9584 146.131 28.1002 148.995 25.8471Z" fill="#3AD5F1"/>
<path fill-rule="evenodd" clip-rule="evenodd" d="M142.581 47.7672C140.331 48.8434 139.502 49.7954 140.292 51.4483C141.083 53.1003 142.345 53.0522 144.594 51.9759C146.844 50.8997 147.674 49.9477 146.883 48.2957C146.092 46.6428 144.831 46.6909 142.581 47.7672Z" fill="#FF7C9A"/>
<path fill-rule="evenodd" clip-rule="evenodd" d="M130.19 13.1089C130.19 10.9861 129.055 10 127.095 10C125.134 10 124 10.9861 124 13.1089C124 15.2316 125.134 16.2178 127.095 16.2178C129.055 16.2178 130.19 15.2316 130.19 13.1089Z" fill="#5AD73C"/>
<path fill-rule="evenodd" clip-rule="evenodd" d="M127 101.565C127 99.814 127.935 99 129.549 99C131.163 99 132.097 99.814 132.097 101.565C132.097 103.316 131.163 104.13 129.549 104.13C127.935 104.13 127 103.316 127 101.565Z" fill="#FF9BA7"/>
<path fill-rule="evenodd" clip-rule="evenodd" d="M21.6321 70.0785C19.4229 71.9202 19.3803 73.9565 21.0803 75.9956C22.7788 78.035 24.7884 78.36 26.9967 76.5177C29.2059 74.6761 29.2485 72.6397 27.5495 70.6012C25.851 68.5618 23.8414 68.2369 21.6321 70.0785Z" fill="#FF7C9A"/>
<path fill-rule="evenodd" clip-rule="evenodd" d="M37.8676 17.5739C36.6922 18.5539 36.6701 19.6371 37.5743 20.7222C38.4769 21.8077 39.5474 21.9808 40.7217 21.0002C41.8971 20.0202 41.9207 18.9366 41.0166 17.8515C40.1124 16.7664 39.0429 16.5939 37.8676 17.5739Z" fill="#94E37A"/>
<path fill-rule="evenodd" clip-rule="evenodd" d="M34.8676 88.5739C33.6922 89.5539 33.6701 90.6371 34.5743 91.7222C35.4769 92.8077 36.5474 92.9808 37.7217 92.0002C38.8971 91.0202 38.9207 89.9366 38.0166 88.8515C37.1124 87.7664 36.0429 87.5939 34.8676 88.5739Z" fill="#F8C366"/>
<rect opacity="0.01" width="170" height="110" fill="#D8D8D8"/>
</svg>
