<svg width="101" height="76" viewBox="0 0 101 76" fill="none" xmlns="http://www.w3.org/2000/svg">
<g id="ico-error">
<g id="Group 3">
<g id="Group 2">
<path id="Fill 12" fill-rule="evenodd" clip-rule="evenodd" d="M98.3253 12.5999C100.475 10.9086 100.547 10.1611 99.9864 9.4498C99.4268 8.73781 98.6833 8.63141 96.5335 10.3227C94.3844 12.014 94.3122 12.7608 94.8724 13.4728C95.4327 14.1848 96.1756 14.2912 98.3253 12.5999Z" fill="#FF7C9A"/>
<path id="Fill 14" fill-rule="evenodd" clip-rule="evenodd" d="M93.5092 29.0544C91.8206 29.8623 91.1979 30.5769 91.791 31.8176C92.3848 33.0577 93.3319 33.0216 95.0206 32.2137C96.7092 31.4058 97.3319 30.6912 96.7388 29.4511C96.145 28.2104 95.1979 28.2465 93.5092 29.0544Z" fill="#FF6173"/>
<path id="Fill 16" fill-rule="evenodd" clip-rule="evenodd" d="M84.2083 3.03875C84.2083 1.44531 83.3564 0.705078 81.8852 0.705078C80.4132 0.705078 79.562 1.44531 79.562 3.03875C79.562 4.63218 80.4132 5.37242 81.8852 5.37242C83.3564 5.37242 84.2083 4.63218 84.2083 3.03875Z" fill="#FF6173"/>
</g>
<path id="Fill 16 Copy 2" fill-rule="evenodd" clip-rule="evenodd" d="M81.8154 69.438C81.8154 68.1236 82.5174 67.5126 83.7289 67.5126C84.9404 67.5126 85.6415 68.1236 85.6415 69.438C85.6415 70.7524 84.9404 71.3634 83.7289 71.3634C82.5174 71.3634 81.8154 70.7524 81.8154 69.438Z" fill="#FF374A"/>
<path id="Fill 6" fill-rule="evenodd" clip-rule="evenodd" d="M2.72034 45.8024C1.06199 47.1848 1.03004 48.7134 2.30614 50.244C3.58106 51.7749 5.08961 52.0188 6.74723 50.6359C8.40558 49.2535 8.43754 47.7249 7.16217 46.1947C5.88725 44.6639 4.37869 44.4199 2.72034 45.8024Z" fill="#FF7C9A"/>
<path id="Fill 8" fill-rule="evenodd" clip-rule="evenodd" d="M14.9101 6.39203C14.0278 7.12765 14.0113 7.94076 14.69 8.75531C15.3675 9.57014 16.171 9.70005 17.0526 8.96397C17.9348 8.22835 17.9526 7.41497 17.2739 6.60041C16.5952 5.78586 15.7924 5.6564 14.9101 6.39203Z" fill="#FF6173"/>
<path id="Fill 8 Copy" fill-rule="evenodd" clip-rule="evenodd" d="M12.6586 59.6875C11.7764 60.4231 11.7598 61.2362 12.4385 62.0508C13.1161 62.8656 13.9196 62.9955 14.8011 62.2594C15.6834 61.5238 15.7011 60.7104 15.0224 59.8959C14.3437 59.0813 13.5409 58.9518 12.6586 59.6875Z" fill="#E9426D"/>
</g>
<g id="group-14">
<g id="Group">
<path id="Oval" d="M50.2828 75.7698C71.0114 75.7698 87.8152 58.966 87.8152 38.2374C87.8152 17.5089 71.0114 0.705078 50.2828 0.705078C29.5543 0.705078 12.7505 17.5089 12.7505 38.2374C12.7505 58.966 29.5543 75.7698 50.2828 75.7698Z" fill="#E9426D" fill-opacity="0.15"/>
<path id="Oval_2" d="M50.6583 60.0075C62.8881 60.0075 72.8023 50.0932 72.8023 37.8634C72.8023 25.6335 62.8881 15.7193 50.6583 15.7193C38.4284 15.7193 28.5142 25.6335 28.5142 37.8634C28.5142 50.0932 38.4284 60.0075 50.6583 60.0075Z" fill="#E9426D"/>
</g>
<path id="Shape" fill-rule="evenodd" clip-rule="evenodd" d="M60.4684 43.7798L53.2547 29.3531C52.7727 28.3573 51.7637 27.7248 50.6574 27.7248C49.5511 27.7248 48.5422 28.3573 48.0602 29.3531L40.8472 43.7806C40.3787 44.6852 40.4219 45.7697 40.9608 46.6342C41.4997 47.4987 42.4545 48.0149 43.473 47.9925H57.9004C58.9087 47.9942 59.8448 47.4696 60.3695 46.6086C60.8942 45.7476 60.9314 44.6751 60.4676 43.7798H60.4684ZM50.2838 31.4783H51.0345C51.449 31.4783 51.7851 31.8144 51.7851 32.229V40.4861C51.7851 40.9007 51.449 41.2368 51.0345 41.2368H50.2838C49.8692 41.2368 49.5332 40.9007 49.5332 40.4861V32.229C49.5332 31.8144 49.8692 31.4783 50.2838 31.4783ZM50.6591 44.9909C51.281 44.9909 51.7851 44.4868 51.7851 43.865C51.7851 43.2431 51.281 42.739 50.6591 42.739C50.0373 42.739 49.5332 43.2431 49.5332 43.865C49.5332 44.4868 50.0373 44.9909 50.6591 44.9909Z" fill="white"/>
</g>
</g>
</svg>
