<svg width="170" height="44" viewBox="0 0 170 44" fill="none" xmlns="http://www.w3.org/2000/svg">
<g id="Group 20">
<path id="Fill 1" fill-rule="evenodd" clip-rule="evenodd" d="M69.3853 12.7949H79.5628L79.3555 14.5929H71.6961V20.5495H77.9013V22.3986H71.6961V28.5616H79.7192V30.3589H69.3853V12.7949Z" fill="white"/>
<g id="Group 19">
<path id="Fill 2" fill-rule="evenodd" clip-rule="evenodd" d="M82.7948 18.2367H84.5306L84.6321 19.1413C85.974 18.3043 87.2997 17.8848 88.6085 17.8848C90.1352 17.8848 91.2511 18.3462 91.9555 19.2669C93.4822 18.3462 94.9588 17.8848 96.3853 17.8848C97.7442 17.8848 98.7762 18.2455 99.4813 18.9656C100.168 19.6526 100.513 20.7247 100.513 22.1812V30.5477H98.4236V22.4318C98.4236 21.9137 98.3776 21.4901 98.2855 21.1638C98.1928 20.8375 98.0379 20.5653 97.82 20.3471C97.4004 19.9289 96.7541 19.7188 95.8818 19.7188C95.3784 19.7188 94.8329 19.7911 94.2455 19.933C93.6581 20.0755 93.0965 20.2802 92.5598 20.5484C92.6769 21.0672 92.7351 21.6124 92.7351 22.1812V30.5477H90.6474V22.4318C90.6474 21.9137 90.6001 21.4901 90.508 21.1638C90.416 20.8375 90.2603 20.5653 90.0431 20.3471C89.6236 19.9289 88.9773 19.7188 88.105 19.7188C87.0811 19.7188 86.0072 19.9877 84.8838 20.5234V30.5477H82.7948V18.2367Z" fill="white"/>
<path id="Fill 4" fill-rule="evenodd" clip-rule="evenodd" d="M111.485 28.0479C111.971 27.3028 112.215 26.0591 112.215 24.3169C112.215 22.7429 111.971 21.5742 111.485 20.8129C110.998 20.0509 110.243 19.6692 109.22 19.6692C108.75 19.6692 108.23 19.7442 107.66 19.8955C107.089 20.0462 106.561 20.2475 106.074 20.4988V28.4127C106.443 28.6302 106.904 28.8099 107.458 28.9524C108.012 29.095 108.548 29.1659 109.069 29.1659C110.193 29.1659 110.998 28.7937 111.485 28.0479ZM103.986 18.237H105.721L105.823 19.1416C106.443 18.7234 107.094 18.4093 107.773 18.1992C108.453 17.9905 109.085 17.8857 109.673 17.8857C111.234 17.8857 112.412 18.4593 113.209 19.6063C114.006 20.7541 114.404 22.3328 114.404 24.3425C114.404 26.5867 113.985 28.2411 113.146 29.3043C112.307 30.3676 111.124 30.8993 109.598 30.8993C108.96 30.8993 108.327 30.8155 107.697 30.648C107.069 30.4811 106.527 30.2548 106.075 29.9698V36.2009H103.986V18.237Z" fill="white"/>
<path id="Fill 6" fill-rule="evenodd" clip-rule="evenodd" d="M117.274 18.2367H119.01L119.136 19.2919C120.26 18.3543 121.426 17.8848 122.634 17.8848C122.886 17.8848 123.154 17.9104 123.439 17.9604V19.8202C123.07 19.7864 122.71 19.7695 122.357 19.7695C121.25 19.7695 120.251 20.0458 119.363 20.5984V30.5477H117.274V18.2367Z" fill="white"/>
<path id="Fill 8" fill-rule="evenodd" clip-rule="evenodd" d="M132.878 23.5887C132.844 22.3491 132.576 21.3695 132.073 20.6487C131.569 19.9293 130.823 19.5692 129.833 19.5692C128.809 19.5692 128.034 19.9205 127.506 20.6238C126.977 21.3277 126.704 22.316 126.688 23.5887H132.878ZM126.108 29.4172C125.034 28.3458 124.498 26.6785 124.498 24.4182C124.498 22.2909 124.979 20.6703 125.944 19.5563C126.909 18.4431 128.205 17.8857 129.833 17.8857C131.527 17.8857 132.803 18.4512 133.658 19.5813C134.514 20.7122 134.942 22.3078 134.942 24.3675V24.8445C134.942 25.0295 134.841 25.1214 134.64 25.1214H126.687C126.687 26.5448 127.047 27.5919 127.769 28.2613C128.104 28.5802 128.524 28.8139 129.028 28.9652C129.531 29.1159 130.16 29.1915 130.916 29.1915C131.905 29.1915 132.92 29.0828 133.961 28.8646L134.161 30.4224C133.641 30.573 133.05 30.6899 132.387 30.7743C131.724 30.8574 131.1 30.8993 130.512 30.8993C128.566 30.8993 127.098 30.4061 126.108 29.4172Z" fill="white"/>
<path id="Fill 10" fill-rule="evenodd" clip-rule="evenodd" d="M139.232 30.7483C138.553 30.6477 137.977 30.522 137.508 30.3707L137.609 28.7636C138.113 28.898 138.678 29.0061 139.307 29.0899C139.937 29.1743 140.519 29.2156 141.056 29.2156C142.063 29.2156 142.831 29.0521 143.36 28.7258C143.888 28.3988 144.152 27.9178 144.152 27.2808C144.152 26.7451 143.926 26.3432 143.473 26.075C143.02 25.8075 142.306 25.5224 141.333 25.2204C140.461 24.936 139.761 24.6726 139.232 24.4294C138.704 24.1869 138.246 23.8227 137.861 23.3364C137.474 22.8513 137.282 22.215 137.282 21.4273C137.282 20.2714 137.688 19.3919 138.503 18.7893C139.316 18.1861 140.402 17.8848 141.761 17.8848C142.365 17.8848 142.991 17.9348 143.637 18.0361C144.282 18.1361 144.858 18.2617 145.36 18.4124L145.184 19.9452C144.01 19.677 142.928 19.5432 141.938 19.5432C140.142 19.5432 139.245 20.1215 139.245 21.2766C139.245 21.8292 139.475 22.2481 139.937 22.5331C140.398 22.8182 141.115 23.11 142.089 23.412C142.928 23.6633 143.619 23.9146 144.165 24.1659C144.71 24.4172 145.172 24.7813 145.549 25.2589C145.927 25.7359 146.116 26.3601 146.116 27.1308C146.116 28.3867 145.671 29.3284 144.781 29.9566C143.892 30.5849 142.676 30.899 141.132 30.899C140.544 30.899 139.911 30.8483 139.232 30.7483Z" fill="white"/>
<path id="Fill 12" fill-rule="evenodd" clip-rule="evenodd" d="M154.647 28.9903C155.218 28.8389 155.738 28.6471 156.208 28.4127V24.7445H153.943C152.65 24.7445 151.736 24.9539 151.2 25.3728C150.746 25.7409 150.52 26.2854 150.52 27.0055C150.52 27.7426 150.738 28.2958 151.175 28.664C151.611 29.0322 152.24 29.2166 153.062 29.2166C153.548 29.2166 154.077 29.1409 154.647 28.9903ZM149.388 29.7185C148.734 29.0321 148.406 28.1445 148.406 27.0555C148.406 25.9341 148.759 25.0458 149.463 24.3925C150.319 23.6055 151.711 23.2117 153.641 23.2117H156.208V22.4321C156.208 21.9309 156.157 21.512 156.057 21.177C155.956 20.8412 155.797 20.5656 155.579 20.3474C155.076 19.8617 154.22 19.6192 153.012 19.6192C152.005 19.6192 150.898 19.7192 149.69 19.9205L149.615 18.3127C150.805 18.0276 152.056 17.8857 153.365 17.8857C155.126 17.8857 156.41 18.262 157.215 19.0159C157.6 19.3848 157.877 19.8326 158.045 20.3602C158.213 20.8878 158.297 21.5532 158.297 22.3578V30.548H156.611L156.485 29.7185C155.277 30.5061 153.985 30.8993 152.609 30.8993C151.217 30.8993 150.143 30.5061 149.388 29.7185Z" fill="white"/>
<g id="Group 16">
<mask id="mask0_18234_172944" style="mask-type:alpha" maskUnits="userSpaceOnUse" x="161" y="17" width="10" height="14">
<path id="Clip 15" fill-rule="evenodd" clip-rule="evenodd" d="M161.166 17.8857H170V30.9H161.166V17.8857Z" fill="white"/>
</mask>
<g mask="url(#mask0_18234_172944)">
<path id="Fill 14" fill-rule="evenodd" clip-rule="evenodd" d="M163.117 30.7493C162.437 30.6487 161.862 30.523 161.393 30.3717L161.494 28.7646C161.997 28.899 162.563 29.0071 163.192 29.0909C163.822 29.1753 164.404 29.2165 164.941 29.2165C165.948 29.2165 166.715 29.053 167.245 28.7268C167.772 28.3998 168.037 27.9188 168.037 27.2818C168.037 26.7461 167.811 26.3441 167.358 26.076C166.905 25.8084 166.191 25.5234 165.218 25.2214C164.345 24.937 163.645 24.6735 163.117 24.4303C162.588 24.1878 162.131 23.8237 161.746 23.3373C161.358 22.8523 161.166 22.2159 161.166 21.4283C161.166 20.2724 161.573 19.3929 162.387 18.7903C163.2 18.187 164.287 17.8857 165.645 17.8857C166.25 17.8857 166.875 17.9357 167.521 18.0371C168.167 18.137 168.742 18.2627 169.245 18.4133L169.069 19.9461C167.894 19.6779 166.812 19.5442 165.822 19.5442C164.027 19.5442 163.129 20.1224 163.129 21.2776C163.129 21.8302 163.36 22.249 163.822 22.5341C164.283 22.8192 165 23.111 165.974 23.413C166.812 23.6643 167.504 23.9156 168.049 24.1669C168.595 24.4182 169.056 24.7823 169.434 25.2599C169.811 25.7368 170 26.361 170 27.1318C170 28.3876 169.556 29.3293 168.666 29.9576C167.776 30.5858 166.56 30.9 165.017 30.9C164.429 30.9 163.796 30.8493 163.117 30.7493Z" fill="white"/>
</g>
</g>
<path id="Fill 17" fill-rule="evenodd" clip-rule="evenodd" d="M11.1284 5.04205C8.38567 5.08528 3.32247 6.43298 1.01013 15.8439C0.00249424 19.9444 -0.386618 24.2178 0.47552 29.3053C1.27066 33.9976 2.67959 38.0474 3.62902 40.2794C3.95655 41.0482 4.46342 41.85 4.85524 42.3439C5.98265 43.7632 7.85783 43.6726 8.64688 43.2862C9.50631 42.8647 10.4936 41.8467 10.1357 39.5228C9.9631 38.4007 9.46503 36.7585 9.1842 35.8459C8.32341 33.0444 7.17773 29.6647 7.07825 27.2564C6.94426 24.0361 8.21852 23.6146 9.06577 23.4288C10.4882 23.1174 11.682 24.6738 12.8155 26.6255C14.1682 28.9547 16.4867 33.0822 18.3774 36.2343C20.0854 39.0797 23.2362 42.1263 28.2961 41.9169C33.4547 41.7041 37.2571 39.743 39.2156 33.5693C40.6813 28.9507 41.6809 25.4987 43.2881 21.9643C45.1375 17.8995 47.6035 15.7236 49.6803 16.3877C51.6083 17.0045 52.0894 18.8825 52.1124 21.6427C52.1334 24.0841 51.8499 26.7761 51.6293 28.7541C51.5487 29.4715 51.4039 30.9144 51.4635 31.7163C51.5799 33.2917 52.2647 34.8657 54.0452 35.1176C55.942 35.3852 57.4639 33.8753 58.0716 32.0493C58.3112 31.3299 58.5155 30.2288 58.6259 29.4472C59.1835 25.502 59.3283 22.8499 59.0765 18.8129C58.7829 14.0922 57.8558 9.78702 56.2384 6.06211C54.6914 2.49933 52.2052 0.21601 49.0178 0.0147C45.4887 -0.208903 41.4399 2.12373 39.3157 6.64983C37.358 10.8213 35.7914 15.1042 34.8413 17.2895C33.8769 19.5066 32.4613 20.8726 30.2836 21.1002C27.6207 21.3799 25.3266 19.454 23.6463 16.7086C22.1812 14.3145 19.2781 9.7573 17.725 8.22585C16.2654 6.78764 14.5986 4.98665 11.1284 5.04205Z" fill="white"/>
</g>
</g>
</svg>
