<svg width="32" height="32" viewBox="0 0 32 32" fill="none" xmlns="http://www.w3.org/2000/svg">
<path fill-rule="evenodd" clip-rule="evenodd" d="M16.0002 0C26.1336 0 32 5.07628 32 16C32 26.9237 26.1336 32 16.0002 32C5.86639 32 0 26.9237 0 16C0 5.07628 5.86639 0 16.0002 0Z" fill="#0B2739"/>
<path d="M6.56835 12.8696C6.42305 12.8696 6.27776 12.8175 6.16666 12.7107C5.94445 12.4971 5.94445 12.1493 6.16666 11.9356L6.18375 11.9165C7.46573 10.6922 8.95283 9.73091 10.6052 9.05717C12.3259 8.35604 14.1548 8 16.0436 8C17.9153 8 19.7357 8.35056 21.4507 9.04348C23.0888 9.70627 24.5645 10.6511 25.8294 11.8507C26.0545 12.0644 26.0573 12.4095 25.8351 12.6258C25.6129 12.8422 25.2539 12.8449 25.0289 12.6313C23.8666 11.5303 22.5133 10.6621 21.0092 10.0541C19.4337 9.41869 17.7615 9.09552 16.0436 9.09552C14.3087 9.09552 12.6307 9.42143 11.0496 10.065C9.53115 10.684 8.1637 11.5659 6.98713 12.6915L6.97003 12.708C6.85893 12.8148 6.71364 12.8696 6.56835 12.8696Z" fill="white"/>
<path d="M9.08103 15.8631C8.93573 15.8631 8.79329 15.811 8.68219 15.7069C8.45713 15.4961 8.45428 15.1482 8.67649 14.9319L8.69643 14.9127C9.64225 14.0089 10.7419 13.2968 11.9612 12.7956C13.2517 12.267 14.6249 11.9986 16.0408 11.9986C17.4395 11.9986 18.7956 12.2616 20.0776 12.7792C21.2883 13.2694 22.3766 13.9651 23.3167 14.8524C23.5418 15.0633 23.5446 15.4112 23.3253 15.6275C23.1059 15.8439 22.7441 15.8466 22.519 15.6357C21.6815 14.847 20.7129 14.2253 19.636 13.7898C18.4965 13.3269 17.2857 13.0941 16.0408 13.0941C14.7787 13.0941 13.5566 13.3324 12.4085 13.8035C11.3202 14.2499 10.3402 14.8853 9.49696 15.6905L9.48556 15.7015C9.37446 15.8083 9.22917 15.8631 9.08103 15.8631ZM11.5937 18.8538C11.4484 18.8538 11.3031 18.799 11.192 18.6922C10.9698 18.4786 10.9698 18.1308 11.192 17.9172C11.8074 17.3256 12.5196 16.8572 13.3144 16.5286C14.1748 16.1698 15.0921 15.989 16.0351 15.989C16.9581 15.989 17.8555 16.1643 18.7016 16.5067C19.4822 16.8216 20.1887 17.2735 20.8012 17.8432C21.0262 18.0541 21.0319 18.4019 20.8126 18.6183C20.5932 18.8346 20.2314 18.8401 20.0064 18.6292C19.4964 18.1527 18.9067 17.7775 18.2572 17.5145C17.5535 17.227 16.8043 17.0818 16.0351 17.0818C15.2459 17.0818 14.4824 17.2325 13.7674 17.531C13.1064 17.8049 12.511 18.1965 11.9982 18.6895C11.8871 18.8018 11.7419 18.8538 11.5937 18.8538Z" fill="white"/>
<path d="M15.998 24C15.3171 24 14.7759 23.8192 14.3884 23.4605C13.9867 23.088 13.7816 22.5512 13.7816 21.8692C13.7816 21.1873 13.9867 20.6505 14.3884 20.278C14.7759 19.9192 15.3171 19.7384 15.998 19.7384C16.6789 19.7384 17.2202 19.9192 17.6076 20.278C18.0093 20.6505 18.2144 21.1873 18.2144 21.8692C18.2144 22.5512 18.0093 23.088 17.6076 23.4605C17.223 23.8192 16.6817 24 15.998 24ZM15.998 20.834C15.2345 20.834 14.9212 21.1352 14.9212 21.8692C14.9212 22.6032 15.2345 22.9045 15.998 22.9045C16.7615 22.9045 17.0749 22.6032 17.0749 21.8692C17.0749 21.494 16.9894 21.2256 16.8156 21.0668C16.6504 20.9106 16.3769 20.834 15.998 20.834Z" fill="white"/>
</svg>
