<svg width="32" height="32" viewBox="0 0 32 32" fill="none" xmlns="http://www.w3.org/2000/svg">
<path d="M0 16.0009C0 5.0769 5.86644 0 16 0C26.1336 0 32 5.0769 32 16.0009C32 26.9248 26.1336 32 16 32C5.86644 32 0 26.9231 0 16.0009Z" fill="#0B2739"/>
<path d="M25.6547 8.98604C25.743 8.98604 25.8313 8.95413 25.8988 8.88863C26.0337 8.75764 26.0337 8.54435 25.8988 8.41335L25.8884 8.4016C25.1096 7.65089 24.2062 7.0614 23.2025 6.64826C22.1572 6.21833 21.0462 6 19.8988 6C18.7618 6 17.6559 6.21497 16.6141 6.63987C15.619 7.04629 14.7226 7.6257 13.9542 8.36129C13.8175 8.49229 13.8158 8.7039 13.9507 8.83657C14.0857 8.96925 14.3038 8.97093 14.4405 8.83993C15.1466 8.1648 15.9686 7.63241 16.8824 7.25958C17.8394 6.86995 18.8552 6.67178 19.8988 6.67178C20.9527 6.67178 21.972 6.87163 22.9325 7.2663C23.8549 7.64585 24.6856 8.18663 25.4004 8.87688L25.4107 8.88695C25.4782 8.95245 25.5665 8.98604 25.6547 8.98604Z" fill="white"/>
<path d="M24.1284 10.8217C24.2166 10.8217 24.3032 10.7898 24.3706 10.7259C24.5074 10.5966 24.5091 10.3833 24.3741 10.2507L24.362 10.2389C23.7874 9.68468 23.1194 9.24803 22.3787 8.94069C21.5948 8.61656 20.7606 8.45198 19.9005 8.45198C19.0508 8.45198 18.227 8.6132 17.4483 8.93062C16.7128 9.23124 16.0517 9.65781 15.4806 10.202C15.3439 10.3313 15.3421 10.5446 15.4754 10.6772C15.6087 10.8099 15.8284 10.8116 15.9652 10.6823C16.474 10.1986 17.0624 9.81736 17.7165 9.55033C18.4088 9.2665 19.1443 9.12375 19.9005 9.12375C20.6672 9.12375 21.4096 9.26986 22.107 9.55873C22.7681 9.83247 23.3634 10.2221 23.8757 10.7159L23.8826 10.7226C23.9501 10.7881 24.0384 10.8217 24.1284 10.8217ZM22.602 12.6556C22.6902 12.6556 22.7785 12.622 22.846 12.5565C22.981 12.4255 22.981 12.2122 22.846 12.0812C22.4722 11.7185 22.0395 11.4313 21.5567 11.2298C21.0341 11.0098 20.4768 10.8989 19.904 10.8989C19.3433 10.8989 18.7981 11.0064 18.2842 11.2163C17.81 11.4095 17.3808 11.6866 17.0087 12.0359C16.872 12.1652 16.8685 12.3785 17.0018 12.5112C17.135 12.6439 17.3548 12.6472 17.4915 12.5179C17.8013 12.2257 18.1595 11.9956 18.5541 11.8344C18.9816 11.658 19.4367 11.569 19.904 11.569C20.3834 11.569 20.8472 11.6614 21.2815 11.8444C21.683 12.0124 22.0447 12.2525 22.3562 12.5548C22.4237 12.6237 22.512 12.6556 22.602 12.6556Z" fill="white"/>
<path d="M19.9265 15.8113C20.3401 15.8113 20.6689 15.7004 20.9043 15.4804C21.1483 15.252 21.2729 14.9229 21.2729 14.5047C21.2729 14.0865 21.1483 13.7573 20.9043 13.5289C20.6689 13.3089 20.3401 13.1981 19.9265 13.1981C19.5129 13.1981 19.1841 13.3089 18.9487 13.5289C18.7047 13.7573 18.5801 14.0865 18.5801 14.5047C18.5801 14.9229 18.7047 15.252 18.9487 15.4804C19.1823 15.7004 19.5111 15.8113 19.9265 15.8113ZM19.9265 13.8698C20.3903 13.8698 20.5807 14.0546 20.5807 14.5047C20.5807 14.9548 20.3903 15.1395 19.9265 15.1395C19.4627 15.1395 19.2723 14.9548 19.2723 14.5047C19.2723 14.2746 19.3242 14.11 19.4298 14.0126C19.5302 13.9169 19.6963 13.8698 19.9265 13.8698Z" fill="white"/>
<path d="M16.0261 24.6494L8.12337 24.6443C7.4318 24.6443 6.89661 24.4535 6.52997 24.0789C6.17724 23.7181 6 23.2026 6 22.5445V18.8845C6 17.5408 6.75413 16.8019 8.12337 16.8019L16.0261 16.8071C17.3953 16.8071 18.1494 17.546 18.1494 18.8897V22.5497C18.1494 23.206 17.9704 23.7215 17.6194 24.0841C17.2528 24.4604 16.7176 24.6494 16.0261 24.6494ZM8.12337 17.4858C7.62467 17.4858 7.2563 17.6044 7.02693 17.8363C6.80452 18.0614 6.69157 18.4137 6.69157 18.8845V22.5445C6.69157 23.5102 7.14683 23.9604 8.12337 23.9604L16.0261 23.9655C17.0026 23.9655 17.4579 23.5153 17.4579 22.5497V18.8897C17.4579 18.4189 17.3449 18.0666 17.1225 17.8415C16.8931 17.6095 16.523 17.491 16.0261 17.491L8.12337 17.4858Z" fill="white"/>
<path d="M13.5513 26L10.5981 25.9948C10.4069 25.9948 10.2523 25.8419 10.2523 25.6529C10.2523 25.4639 10.4069 25.311 10.5981 25.311L13.5513 25.3161C13.7425 25.3161 13.8971 25.469 13.8971 25.6581C13.8971 25.8471 13.7425 26 13.5513 26Z" fill="white"/>
</svg>
