<svg width="32" height="32" viewBox="0 0 32 32" fill="none" xmlns="http://www.w3.org/2000/svg">
<path d="M0 16.0009C0 5.0769 5.86644 0 16 0C26.1336 0 32 5.0769 32 16.0009C32 26.9248 26.1336 32 16 32C5.86644 32 0 26.9231 0 16.0009Z" fill="#0B2739"/>
<path d="M21.7227 26C20.8423 26 19.8336 25.7834 18.748 25.3503C16.5284 24.464 14.098 22.7399 11.7217 20.3632L11.716 20.3575L11.6391 20.2834L11.6334 20.2777C9.25705 17.901 7.53323 15.4701 6.6471 13.2502C5.80371 11.1242 5.78377 9.30893 6.59296 8.13768L6.61006 8.11203L6.62146 8.09493C6.72118 7.95814 7.01751 7.54492 7.32808 7.24855C8.21136 6.40502 9.11459 5.9861 10.0064 6.00035C10.8669 6.01745 11.7188 6.43922 12.5366 7.2571C12.8443 7.55917 13.115 7.90114 13.3372 8.27446C13.776 8.98121 13.9356 9.71075 13.8102 10.4431C13.6849 11.1755 13.2774 11.8908 12.5936 12.5748C12.434 12.7343 12.2659 12.8854 12.0892 13.025C12.0237 13.1447 12.0636 13.5209 12.5936 14.296C13.2062 15.1908 14.2319 16.2481 14.9499 16.9662L15.0354 17.0517C15.7534 17.7699 16.8105 18.7929 17.7052 19.4085C18.4774 19.9386 18.8563 19.9784 18.976 19.9129C19.1156 19.7362 19.2638 19.5681 19.4262 19.4085C20.11 18.7246 20.8252 18.317 21.5574 18.1916C22.2897 18.0663 23.0191 18.2258 23.7258 18.6647C24.0962 18.887 24.4381 19.1549 24.743 19.4655C25.5607 20.2834 25.9824 21.1326 25.9995 21.9961C26.0166 22.8881 25.5977 23.7914 24.7515 24.6749C24.4552 24.9855 24.042 25.2819 23.9053 25.3816L23.8882 25.393C23.8796 25.3987 23.8711 25.4044 23.8625 25.4129C23.287 25.8034 22.5604 26 21.7227 26ZM12.528 19.5624C14.7932 21.8279 17.0898 23.4637 19.1669 24.293C20.8936 24.9798 22.3638 25.0453 23.2015 24.4754L23.2357 24.4526C23.5434 24.2303 23.7742 24.0394 23.9224 23.8855C25.1647 22.586 25.1675 21.5031 23.9309 20.2691C23.6944 20.0269 23.4294 19.8189 23.1417 19.645L23.1246 19.6365C22.6516 19.3429 22.1985 19.2375 21.7427 19.3145C21.2497 19.3971 20.7397 19.6992 20.2268 20.2121C20.0815 20.3546 19.9476 20.5057 19.8251 20.6681C19.8051 20.6909 19.7852 20.7137 19.7652 20.7336C19.5231 20.9588 19.0871 21.1896 18.3976 21.0129C18.0072 20.9132 17.5684 20.6966 17.0584 20.3461C16.0868 19.6792 14.9784 18.6049 14.2291 17.8554L14.1436 17.7699C13.3942 17.0204 12.32 15.9118 11.6533 14.9372C11.3028 14.4271 11.0834 13.9882 10.9866 13.5978C10.8128 12.9082 11.0436 12.4722 11.2658 12.2299C11.2857 12.2071 11.3085 12.1872 11.3313 12.1701C11.4937 12.0476 11.6448 11.9136 11.7872 11.7683C12.3001 11.2553 12.6021 10.7452 12.6848 10.2522C12.7617 9.79339 12.6563 9.34313 12.3628 8.87006L12.3542 8.85297C12.1804 8.56514 11.9724 8.29726 11.7302 8.06358C10.4965 6.82963 9.41376 6.83248 8.11449 8.07498C7.96062 8.22317 7.76972 8.454 7.54748 8.76177L7.52183 8.79597C6.95198 9.6338 7.02036 11.1043 7.70704 12.8312C8.53618 14.9087 10.1717 17.2056 12.4369 19.4712L12.4768 19.5111L12.4882 19.5225L12.528 19.5624Z" fill="white"/>
</svg>
