<svg width="119" height="100" viewBox="0 0 119 100" fill="none" xmlns="http://www.w3.org/2000/svg">
<g clip-path="url(#clip0_4372_25225)">
<path fill-rule="evenodd" clip-rule="evenodd" d="M59.8381 100.006C86.4954 100.006 108.075 78.4268 108.075 51.7695C108.075 25.1123 86.4954 3.67361 59.8381 3.67361C33.3219 3.67361 11.7422 25.2533 11.7422 51.9106C11.7422 78.5678 33.3219 100.006 59.8381 100.006Z" fill="#FCC986"/>
<path fill-rule="evenodd" clip-rule="evenodd" d="M59.8377 79.9783C75.3525 79.9783 88.0464 67.4254 88.0464 51.7695C88.0464 36.2547 75.4935 23.5608 59.8377 23.5608C44.3228 23.5608 31.6289 36.1137 31.6289 51.7695C31.7699 67.4254 44.3228 79.9783 59.8377 79.9783Z" fill="#F59C00"/>
<path fill-rule="evenodd" clip-rule="evenodd" d="M24.013 9.17431C24.7182 8.32804 24.5772 7.34074 21.8974 5.22508C19.0765 3.10943 18.0892 3.25047 17.384 4.09673C16.6788 4.94299 16.6788 5.9303 19.4996 8.04596C22.3205 10.3027 23.3078 10.1616 24.013 9.17431Z" fill="#EF9B1D"/>
<path fill-rule="evenodd" clip-rule="evenodd" d="M108.921 78.2857C106.665 79.273 105.959 80.1193 106.665 81.6708C107.37 83.2223 108.639 83.2223 110.896 82.2349C113.153 81.2476 113.858 80.4014 113.153 78.8499C112.306 77.1574 111.037 77.1574 108.921 78.2857Z" fill="#EF9B1D"/>
<path fill-rule="evenodd" clip-rule="evenodd" d="M13.8574 76.5932C13.8574 74.6186 12.7291 73.6313 10.8955 73.6313C8.9209 73.6313 7.93359 74.6186 7.93359 76.5932C7.93359 78.5678 9.06194 79.5551 10.8955 79.5551C12.7291 79.5551 13.8574 78.5678 13.8574 76.5932Z" fill="#EFB05E"/>
<path fill-rule="evenodd" clip-rule="evenodd" d="M0.0351562 57.6933C0.0351562 56.0008 0.881418 55.2956 2.57394 55.2956C4.12542 55.2956 5.11273 56.0008 5.11273 57.6933C5.11273 59.3859 4.26647 60.0911 2.57394 60.0911C0.881418 60.0911 0.0351562 59.3859 0.0351562 57.6933Z" fill="#FCCA8E"/>
<path fill-rule="evenodd" clip-rule="evenodd" d="M111.459 29.6257C109.343 31.3182 109.202 33.2928 110.895 35.1264C112.587 37.101 114.562 37.3831 116.677 35.5495C118.793 33.857 118.934 31.8824 117.242 30.0488C115.549 28.2152 113.574 27.7921 111.459 29.6257Z" fill="#EFB05E"/>
<path fill-rule="evenodd" clip-rule="evenodd" d="M114.422 44.1532C113.294 45.1405 113.294 46.1278 114.14 47.1151C114.987 48.1024 116.115 48.2434 117.243 47.3972C118.372 46.4099 118.372 45.4226 117.525 44.4353C116.679 43.3069 115.692 43.1659 114.422 44.1532Z" fill="#EF9B1D"/>
<path fill-rule="evenodd" clip-rule="evenodd" d="M33.8853 0.570656C32.757 1.55796 32.757 2.54527 33.6032 3.53257C34.4495 4.51988 35.5778 4.66092 36.7062 3.81466C37.8345 2.82736 37.8345 1.84005 36.9883 0.852743C36.001 -0.134563 35.0137 -0.275606 33.8853 0.570656Z" fill="#F8C366"/>
<path fill-rule="evenodd" clip-rule="evenodd" d="M59.8379 32.0234C46.8619 32.0234 40.0918 38.9345 40.0918 51.7695C40.0918 64.6045 47.0029 71.5156 59.8379 71.5156C72.6729 71.5156 79.584 64.6045 79.584 51.7695C79.7251 38.9345 72.8139 32.0234 59.8379 32.0234ZM59.8379 69.4C48.2723 69.4 42.3485 63.4762 42.3485 51.9106C42.3485 40.345 48.2723 34.4211 59.8379 34.4211C71.4035 34.4211 77.3273 40.345 77.3273 51.9106C77.4684 63.4762 71.5446 69.4 59.8379 69.4ZM59.8379 43.1659C60.5431 43.1659 61.1073 42.6017 61.1073 41.8965C61.1073 41.1912 60.5431 40.6271 59.8379 40.6271C59.1327 40.6271 58.5685 41.1912 58.5685 41.8965C58.5685 42.6017 59.2737 43.1659 59.8379 43.1659ZM58.9917 46.1278C59.2737 45.8457 59.5558 45.7046 59.8379 45.7046C60.12 45.7046 60.5431 45.8457 60.6842 46.1278C60.8252 46.4099 61.1073 46.692 60.9663 47.1151V63.053C60.9663 63.1941 60.9663 63.3351 60.8252 63.4762C60.8252 63.6172 60.6842 63.7582 60.5431 63.8993C60.4021 64.0403 60.2611 64.0403 60.12 64.1814C59.979 64.1814 59.8379 64.3224 59.6969 64.3224C59.5558 64.3224 59.4148 64.3224 59.2737 64.1814C59.1327 64.1814 58.9917 64.0403 58.8506 63.8993C58.7096 63.7582 58.7096 63.6172 58.5685 63.4762C58.5685 63.3351 58.4275 63.1941 58.4275 63.053V46.974C58.5685 46.692 58.7096 46.4099 58.9917 46.1278Z" fill="white"/>
</g>
<defs>
<clipPath id="clip0_4372_25225">
<rect width="118.336" height="100" fill="white" transform="translate(0.0351562 0.00646973)"/>
</clipPath>
</defs>
</svg>
