<svg width="264" height="165" viewBox="0 0 264 165" fill="none" xmlns="http://www.w3.org/2000/svg">
<path d="M231.085 110.777C231.488 86.1007 234.688 58.5799 188.519 42.6912C142.327 26.8236 94.5236 54.5762 78.6116 75.8173C62.6996 97.0373 42.6249 87.365 34.5682 108.353C26.5115 129.341 29.6447 152.289 106.676 155.471C183.707 158.653 230.481 147.927 231.085 110.777Z" fill="#DEBCE4" fill-opacity="0.5"/>
<path d="M19 97.8353C19 97.8353 32.3159 83.417 34.4132 85.7755C36.5106 88.134 34.7073 91.0392 36.5793 90.2953C38.4516 89.5504 48.283 80.8057 49.8192 81.4251C51.3551 82.0455 49.3951 87.9329 51.7637 86.8998C54.1323 85.8668 83.5879 58.4141 88.8589 61.1982C94.1292 63.981 80.2309 91.8109 85.7501 90.5276C91.2706 89.2436 102.281 81.8084 103.647 85.0039C105.012 88.1994 100.668 98 100.668 98L19 97.8353Z" fill="white"/>
<path d="M175.316 60C179.547 56.4019 183.934 52.5094 188.418 50.2773C190.784 49.0993 193.396 48.159 195.597 50.1863C196.709 51.2119 197.624 53.5669 198.773 54.4351C202.383 57.1664 206.302 50.5961 210.141 51.7354C212.419 52.4121 214.223 55.6721 216.34 57.408C218.517 59.194 220.956 59.3138 223.328 59.4072C228.124 59.5974 234.205 59.7864 239.001 59.9742L175.316 60Z" fill="white"/>
<path fill-rule="evenodd" clip-rule="evenodd" d="M44.0925 106.06C41.1987 103.852 40.2261 104.028 39.5186 105.018C38.8112 106.009 38.9355 107.021 41.8293 109.229C44.7232 111.437 45.6967 111.262 46.4032 110.271C47.1107 109.28 46.9864 108.268 44.0925 106.06Z" fill="#FF7C9A"/>
<path fill-rule="evenodd" clip-rule="evenodd" d="M215.574 123.272C215.602 123.276 215.631 123.278 215.659 123.281C215.675 123.28 215.69 123.278 215.706 123.277C215.658 123.276 215.614 123.274 215.574 123.272Z" fill="#E1F4F4"/>
<path fill-rule="evenodd" clip-rule="evenodd" d="M44.4983 90.05C44.4664 90.0467 44.4336 90.0443 44.4025 90.041C44.3829 90.0427 44.3665 90.0443 44.3477 90.0451C44.4025 90.0467 44.4533 90.0484 44.4983 90.05Z" fill="#E1F4F4"/>
<path d="M74.4421 132L74.2715 131.974C75.3412 125.129 82.3306 123.731 82.4028 123.718L82.4356 123.888C82.3634 123.902 75.4922 125.28 74.4421 132Z" fill="#483680"/>
<path d="M75.3687 133.726L75.1981 133.687C76.5697 127.577 73.0914 124.984 73.0586 124.958L73.157 124.82C73.1964 124.847 76.76 127.504 75.3687 133.726Z" fill="#483680"/>
<path d="M77.854 139.842H73.3191L71.6719 130.005H79.5013L77.854 139.842Z" fill="#B6B7B7"/>
<path d="M77.828 139.843H73.3522C73.3325 139.843 73.3128 139.836 73.2997 139.823L72.7353 139.423C72.6106 139.331 72.65 139.049 72.7878 139.049H78.3924C78.5302 139.049 78.5696 139.338 78.4449 139.423L77.8805 139.823C77.8608 139.836 77.8412 139.843 77.828 139.843Z" fill="#86888C"/>
<path d="M80.7417 131.022C81.0567 130.412 82.7696 131.291 83.6425 131.928C83.4587 130.674 82.9468 129.218 82.0346 128.312C81.1814 127.426 80.092 127.19 79.147 127.583C79.0879 127.61 79.0223 127.636 78.9632 127.675C78.5826 127.872 78.2282 128.181 77.9394 128.588V128.594C77.9329 128.594 77.9329 128.594 77.9329 128.594C76.1215 128.154 74.7631 129.355 74.6777 131.173C75.1306 130.747 75.7147 130.543 76.4234 130.569C75.1371 130.622 75.1371 133.884 75.7343 134.875C76.0494 133.851 76.64 133.037 77.5063 132.42C76.7122 133.011 76.7581 136.364 78.1757 137.008C78.1691 137.067 78.7992 134.586 79.3111 134.822C80.2823 135.275 79.0157 138.038 81.8246 137.848C82.4677 136.43 81.444 135.564 81.6736 135.124C81.9624 134.573 83.0912 135.236 83.0912 135.236C83.0912 135.236 80.4136 131.646 80.7417 131.022ZM82.1462 129.572C82.1462 129.572 79.4489 130.93 79.2979 129.145C79.147 127.354 82.1462 129.572 82.1462 129.572Z" fill="#5CAF15"/>
<path d="M80.7437 131.022C81.0587 130.412 82.7716 131.291 83.6445 131.928C83.4607 130.674 82.9488 129.218 82.0366 128.312C81.1834 127.426 80.094 127.19 79.149 127.583C79.0899 127.61 79.0243 127.636 78.9652 127.675C78.5846 127.872 78.2302 128.181 77.9414 128.588V128.594C78.0727 131.954 80.4943 134.855 81.8331 137.854C82.4763 136.437 81.4525 135.57 81.6822 135.131C81.9709 134.579 83.0997 135.242 83.0997 135.242C83.0997 135.242 80.4156 131.646 80.7437 131.022ZM79.2999 129.145C79.149 127.36 82.1481 129.572 82.1481 129.572C82.1481 129.572 79.4508 130.93 79.2999 129.145Z" fill="#3C7521"/>
<path d="M72.539 128.804C74.0812 128.607 74.7047 127.747 74.4028 126.231C75.5775 125.247 75.0263 123.619 74.4881 123.029C73.9894 122.478 71.7711 121.821 71.7711 121.821C71.7711 121.821 72.8081 123.377 72.7162 124.558C72.2305 122.832 70.0189 121.946 68.8113 122.53C68.8113 122.53 70.3142 123.265 69.5726 123.514C67.9385 122.74 67.9647 123.994 67 123.961C67.466 124.112 69.0673 125.811 69.7498 125.372C69.1395 125.582 68.5291 125.792 67.9122 126.008C68.5226 127.131 71.3117 126.212 71.5743 126.704C71.8433 127.203 70.2617 127.551 69.5989 127.971C70.4783 128.515 71.4561 128.798 72.539 128.804ZM71.7383 128.246C72.0599 127.492 72.6112 127.006 73.3987 126.776C73.0771 127.531 72.5193 128.023 71.7383 128.246Z" fill="#5CAF15"/>
<path d="M72.539 128.804C74.0878 128.712 74.6981 127.754 74.4094 126.238C72.1255 125.083 69.5726 124.302 67 123.954C67.466 124.105 69.0673 125.805 69.7498 125.365C69.1395 125.575 68.5291 125.785 67.9122 126.002C68.5226 127.124 71.3117 126.205 71.5743 126.697C71.8433 127.196 70.2617 127.544 69.5989 127.964C70.4783 128.515 71.4561 128.87 72.539 128.804ZM71.7383 128.246C72.0599 127.491 72.6112 127.006 73.3987 126.776C73.0771 127.531 72.5193 128.023 71.7383 128.246Z" fill="#3C7521"/>
<path d="M75.4863 123.035C75.4863 123.035 75.7751 119.76 78.0589 120.069C80.3362 120.377 80.7037 119.426 80.7037 119.426C80.7037 119.426 79.7849 122.3 75.4863 123.035Z" fill="#B6DD9D"/>
<path d="M75.4863 123.036C75.4863 123.036 76.3132 121.881 77.2648 121.69C80.1 121.126 80.3362 120.174 80.7037 119.433C80.7037 119.433 80.835 121.336 79.1943 122.307C76.7529 123.751 75.4863 123.036 75.4863 123.036Z" fill="#3C7521"/>
<path d="M85.579 125.791C85.4149 124.61 83.0064 124.091 84.9161 123.973C84.0761 122.858 83.2492 122.74 82.442 123.606C80.7422 123.16 80.5519 124.643 80.985 126.093C81.2279 125.719 81.7266 125.509 82.0876 125.463C82.3632 125.43 82.442 125.548 82.2057 125.745C81.8841 126.008 81.4838 126.402 81.2672 126.815C81.5757 127.498 82.0023 128.082 82.442 128.338C83.2361 127.176 84.5224 125.404 83.0195 128.62C83.6889 128.902 84.273 129 84.273 129C84.3058 128.574 84.5486 128.219 84.7783 127.97C85.0671 127.655 85.1983 127.215 85.1458 126.789C85.0802 126.224 84.9883 125.561 84.9227 125.542C85.1327 125.614 85.3755 125.699 85.579 125.791Z" fill="#3C7521"/>
<path d="M84.2606 129.007C84.2606 129.007 84.1884 126.586 82.4361 123.606C80.7364 123.16 80.546 124.643 80.9792 126.093C81.222 125.719 81.7208 125.509 82.0817 125.463C82.3574 125.431 82.4361 125.549 82.1999 125.746C81.8783 126.008 81.478 126.402 81.2614 126.815C81.5698 127.498 81.9964 128.082 82.4361 128.338C83.2302 127.176 84.5165 125.404 83.0136 128.62C83.683 128.909 84.2606 129.007 84.2606 129.007Z" fill="#B6DD9D"/>
<path d="M74.7051 131.652C74.7117 131.881 74.7051 132.137 74.6789 132.361C75.7486 131.849 75.5189 129.394 76.208 131.173C77.0086 130.031 76.8774 129.21 75.8077 128.705C75.6567 125.778 71.6534 128.482 71.2925 130.142C71.9816 130.352 73.9438 131.133 71.2006 130.779C71.135 131.507 71.2203 132.085 71.2203 132.085C72.0472 131.895 73.5369 131.521 72.8741 132.564C73.3072 132.623 74.7051 131.763 74.7051 131.652Z" fill="#3C7521"/>
<path d="M71.2125 132.085C71.2125 132.085 73.4963 131.278 75.7998 128.705C75.6489 125.778 71.6456 128.476 71.2847 130.143C71.9738 130.353 73.936 131.134 71.1928 130.779C71.1272 131.508 71.2125 132.085 71.2125 132.085Z" fill="#B6DD9D"/>
<path d="M77.4028 128.45C77.7309 128.345 77.9934 128.095 78.1772 127.754C78.5644 127.787 78.9122 127.702 79.1813 127.485C79.9754 126.842 79.7719 125.267 78.7219 123.974C77.7112 122.727 75.4667 122.74 75.4667 122.74C75.4667 122.74 75.1452 123.232 74.8892 123.915C75.4339 124.092 77.2649 125.949 77.3437 126.133C77.4421 126.356 75.3289 124.624 74.7055 124.532C74.5873 125.05 74.548 125.615 74.7186 126.14C75.2239 127.728 76.4249 128.765 77.4028 128.45Z" fill="#3C7521"/>
<path d="M77.4028 128.45C77.7309 128.345 77.9934 128.095 78.1772 127.754C77.1862 124.44 75.4667 122.74 75.4667 122.74C75.4667 122.74 75.1452 123.232 74.8892 123.915C75.4339 124.092 77.2649 125.949 77.3437 126.133C77.4421 126.356 75.3289 124.624 74.7055 124.532C74.5873 125.05 74.548 125.615 74.7186 126.14C75.2239 127.728 76.4249 128.765 77.4028 128.45Z" fill="#B6DD9D"/>
<path fill-rule="evenodd" clip-rule="evenodd" d="M157.763 137.536H99.0394C95.7844 137.536 93.1211 134.861 93.1211 131.593V49.9455C93.1211 48.8709 93.9884 48 95.0585 48H161.744C162.814 48 163.681 48.8709 163.681 49.9455V131.593C163.681 134.861 161.018 137.536 157.763 137.536Z" fill="#A13EA1"/>
<path fill-rule="evenodd" clip-rule="evenodd" d="M152.473 56.4155C152.159 56.4303 151.911 56.6616 151.855 56.9639C151.665 57.9807 150.779 58.774 149.676 58.8264C148.574 58.8787 147.613 58.1733 147.324 57.179C147.237 56.8838 146.969 56.6771 146.655 56.692L143.167 56.8573C142.853 56.8722 142.606 57.1035 142.55 57.4058C142.36 58.4226 141.473 59.2159 140.371 59.2689C139.268 59.3212 138.307 58.6151 138.018 57.6209C137.932 57.3257 137.663 57.119 137.349 57.1338L133.861 57.2992C133.547 57.3141 133.301 57.546 133.244 57.8477C133.055 58.8651 132.168 59.6584 131.066 59.7108C129.963 59.7631 129.002 59.057 128.712 58.0628C128.626 57.7676 128.357 57.5608 128.044 57.5757L124.555 57.7411C124.242 57.7566 123.995 57.9878 123.938 58.2895C123.749 59.307 122.863 60.1003 121.76 60.1526C120.657 60.205 119.697 59.4989 119.407 58.5047C119.32 58.2094 119.052 58.0027 118.738 58.0176L115.25 58.1829C114.936 58.1984 114.689 58.4297 114.633 58.7314C114.443 59.7489 113.557 60.5422 112.455 60.5945C111.352 60.6468 110.391 59.9414 110.102 58.9465C110.015 58.6513 109.747 58.4446 109.432 58.4594L105.945 58.6248C105.63 58.6403 105.384 58.8716 105.327 59.1733C105.138 60.1907 104.251 60.984 103.149 61.0364C102.046 61.0887 101.085 60.3832 100.796 59.3884C100.71 59.0932 100.441 58.8864 100.127 58.9013L99.1485 58.9478C98.7842 58.9653 98.5025 59.2682 98.5203 59.6248L101.692 123.364C101.811 125.759 103.894 127.606 106.345 127.489L153.092 125.269C155.543 125.153 157.434 123.117 157.314 120.722L154.143 56.9827C154.126 56.6267 153.815 56.3515 153.451 56.3689L152.473 56.4155Z" fill="#B3E1FB"/>
<path fill-rule="evenodd" clip-rule="evenodd" d="M153.792 55.5785C153.478 55.5934 153.232 55.8247 153.175 56.127C152.986 57.1438 152.099 57.9371 150.997 57.9895C149.894 58.0418 148.933 57.3363 148.643 56.3421C148.558 56.0469 148.289 55.8402 147.975 55.855L144.487 56.0204C144.173 56.0359 143.926 56.2665 143.869 56.5689C143.68 57.5857 142.794 58.379 141.691 58.432C140.588 58.4843 139.628 57.7782 139.338 56.784C139.252 56.4888 138.984 56.2821 138.67 56.2969L135.182 56.4623C134.868 56.4778 134.62 56.7091 134.564 57.0107C134.374 58.0282 133.488 58.8215 132.386 58.8738C131.283 58.9262 130.322 58.2201 130.032 57.2259C129.947 56.9306 129.678 56.7239 129.364 56.7388L125.876 56.9042C125.562 56.9197 125.315 57.1509 125.259 57.4526C125.069 58.4701 124.183 59.2634 123.081 59.3157C121.978 59.368 121.017 58.6619 120.727 57.6677C120.641 57.3725 120.372 57.1658 120.058 57.1806L116.57 57.346C116.256 57.3615 116.009 57.5928 115.953 57.8945C115.763 58.912 114.877 59.7053 113.775 59.7576C112.672 59.8099 111.711 59.1045 111.421 58.1096C111.335 57.8144 111.067 57.6077 110.753 57.6225L107.265 57.7885C106.951 57.8034 106.703 58.0347 106.647 58.3364C106.457 59.3538 105.571 60.1471 104.469 60.1994C103.366 60.2518 102.406 59.5463 102.116 58.5515C102.03 58.2569 101.761 58.0495 101.447 58.0644L100.469 58.1109C100.104 58.1283 99.8228 58.4313 99.8406 58.7879L103.012 122.527C103.131 124.922 105.214 126.769 107.666 126.652L154.412 124.432C156.864 124.316 158.754 122.28 158.635 119.885L155.463 56.1457C155.445 55.7898 155.135 55.5146 154.77 55.532L153.792 55.5785Z" fill="white"/>
<line x1="0.75" y1="-0.75" x2="2.24465" y2="-0.75" transform="matrix(0.707009 0.707204 -0.707009 0.707204 145 85.6943)" stroke="#A13EA1" stroke-width="1.5" stroke-linecap="round"/>
<line x1="0.75" y1="-0.75" x2="4.94762" y2="-0.75" transform="matrix(0.743202 -0.669067 0.668863 0.743386 147.117 87.8125)" stroke="#A13EA1" stroke-width="1.5" stroke-linecap="round"/>
<line x1="0.75" y1="-0.75" x2="2.24465" y2="-0.75" transform="matrix(0.707009 0.707204 -0.707009 0.707204 145.99 91.6396)" stroke="#A13EA1" stroke-width="1.5" stroke-linecap="round"/>
<line x1="0.75" y1="-0.75" x2="4.94762" y2="-0.75" transform="matrix(0.743202 -0.669067 0.668863 0.743386 148.107 93.7578)" stroke="#A13EA1" stroke-width="1.5" stroke-linecap="round"/>
<line x1="0.75" y1="-0.75" x2="4.94762" y2="-0.75" transform="matrix(0.743202 -0.669067 0.668863 0.743386 147.809 101.077)" stroke="#0B2739" stroke-width="1.5" stroke-linecap="round"/>
<line x1="0.75" y1="-0.75" x2="4.94763" y2="-0.75" transform="matrix(0.734952 0.678119 -0.675099 0.737727 146.98 97.2441)" stroke="#0B2739" stroke-width="1.5" stroke-linecap="round"/>
<path fill-rule="evenodd" clip-rule="evenodd" d="M157.763 137.045H99.0394C95.7844 137.045 93.1211 134.63 93.1211 131.678V134.678C93.1211 137.63 95.7844 140.046 99.0394 140.046H157.763C161.018 140.046 163.681 137.63 163.681 134.678V131.678C163.681 134.63 161.018 137.045 157.763 137.045Z" fill="#0B2739"/>
<path fill-rule="evenodd" clip-rule="evenodd" d="M99.0469 137.536C95.7879 137.536 93.1211 134.861 93.1211 131.593V49.9455C93.1211 48.8709 93.9895 48 95.061 48H161.831C162.639 48 163.332 48.4955 163.623 49.1991C163.785 49.5895 163.594 50.0389 163.225 50.2432C157.699 53.3002 112.13 79.7258 112.13 119.829C112.13 130.816 119.866 134.73 125.394 136.571C126.375 136.897 126.02 137.536 126.02 137.536H99.0469Z" fill="#B7B9B9" fill-opacity="0.1" style="mix-blend-mode:multiply"/>
<path d="M105.721 73.0281L118.321 72.2666" stroke="#A13EA1" stroke-width="2" stroke-linecap="round"/>
<path d="M106.561 79.2647L110.761 78.9609" stroke="#A13EA1" stroke-width="2" stroke-linecap="round"/>
<path d="M106.561 88.1657L138.481 86.4922" stroke="#A13EA1" stroke-width="2" stroke-linecap="round"/>
<path d="M107.4 94.0233L139.32 93.1865" stroke="#A13EA1" stroke-width="2" stroke-linecap="round"/>
<path d="M107.4 100.718L139.32 99.0439" stroke="#0B2739" stroke-width="2" stroke-linecap="round"/>
<path d="M145.199 113.711L151.919 113.269" stroke="#A13EA1" stroke-width="4" stroke-linecap="round"/>
<g opacity="0.7">
<g opacity="0.4">
<g opacity="0.4">
<path opacity="0.4" fill-rule="evenodd" clip-rule="evenodd" d="M134.239 42.7036L102.622 139.757L90.4265 139.757L121.14 42.7037L134.239 42.7036Z" fill="white"/>
<path opacity="0.4" fill-rule="evenodd" clip-rule="evenodd" d="M150.048 42.7036L152.758 42.7036L122.948 139.757L117.076 139.757L145.983 42.7036L150.048 42.7036Z" fill="white"/>
</g>
</g>
</g>
<path d="M166.953 117.039C166.953 117.039 170.813 130.101 186.132 134.289C187 134.526 187.901 134.037 188.148 133.189L188.149 133.186C188.378 132.401 187.965 131.577 187.196 131.266C184.337 130.109 177.833 126.416 175.531 116.203L166.953 117.039Z" fill="#0B2739"/>
<path d="M188.74 134.783L187.376 134.332C187.376 134.332 187.321 132.995 188.058 132.58L189.581 133.17L188.74 134.783Z" fill="#EC624B"/>
<path d="M189.673 138.649C189.673 138.649 188.816 137.839 188.551 135.918C188.551 135.918 188.315 135.197 188.075 134.46C187.836 133.723 188.173 132.89 189.218 132.645C189.218 132.645 189.786 132.555 190.611 132.902C190.611 132.902 190.475 138.535 190.411 138.545C190.347 138.554 189.673 138.649 189.673 138.649Z" fill="#019DF4"/>
<path d="M190.316 132.943C190.316 132.943 189.007 133.389 189.333 135.193C189.659 136.997 189.115 138.742 190.087 138.928C191.058 139.113 191.707 138.217 191.308 135.78C190.909 133.342 191.136 132.949 190.316 132.943Z" fill="white"/>
<path d="M190.611 132.901C190.611 132.901 189.302 133.347 189.628 135.151C189.954 136.955 189.41 138.7 190.382 138.886C191.353 139.071 192.002 138.175 191.603 135.738C191.205 133.3 191.431 132.907 190.611 132.901Z" fill="#86888C"/>
<path opacity="0.2" d="M186.13 134.289C186.629 134.424 187.138 134.321 187.528 134.047C171.844 126.288 175.521 116.274 175.521 116.274H174.789L166.951 117.039C166.952 117.038 170.811 130.101 186.13 134.289Z" fill="black"/>
<path d="M175.522 116.273C175.522 116.273 175.471 119.975 172.086 124.558C166.957 131.503 165.843 141.318 165.843 141.318L164.648 140.741C164.648 140.741 162.777 131.461 167.354 118.617L175.522 116.273Z" fill="#0B2739"/>
<path opacity="0.4" d="M172.088 124.558C173.541 122.589 174.38 120.783 174.864 119.363C173.294 119.328 171.018 120.152 168.629 124.065C167.286 126.264 166.231 128.67 165.66 131.761C165.135 134.612 165.055 137.198 165.101 138.652C165.117 139.153 165.219 139.704 165.324 140.057C165.437 140.441 165.649 140.718 165.896 140.91C166.171 138.991 167.577 130.666 172.088 124.558Z" fill="black"/>
<path d="M175.81 112.713L177.33 114.105C177.396 114.166 177.496 114.17 177.568 114.116C177.639 114.063 177.661 113.967 177.619 113.89L177.08 112.875L179.018 113.236C179.307 113.29 179.479 112.932 179.252 112.748L178.386 112.047C178.165 111.867 177.881 111.779 177.595 111.8L176.093 111.909L174.097 111.057L173.754 112.027L175.81 112.713Z" fill="#EC624B"/>
<path d="M166.99 105.944L175.548 111.247L175.505 111.459C175.349 112.224 174.533 112.674 173.784 112.406L170.516 111.234L166.99 105.944Z" fill="#F8D2B3"/>
<path opacity="0.1" d="M171.236 111.494L168.924 107.717L175.275 111.968C174.945 112.406 174.345 112.609 173.783 112.407L171.236 111.494Z" fill="black"/>
<path d="M175.246 115.429C175.246 115.429 178.036 121.432 167.06 118.693C167.06 118.693 165.669 114.523 163.699 111.339V104C163.699 104.001 172.421 107.561 175.246 115.429Z" fill="#F8D2B3"/>
<path opacity="0.15" d="M171.645 116.929C170.188 117.08 168.932 116.043 168.012 114.565C167.21 113.277 165.621 110.825 164.771 110C164.451 109.69 164.112 109.349 163.699 109.053V111.341C165.669 114.523 167.06 118.694 167.06 118.694C178.036 121.433 175.246 115.43 175.246 115.43C175.049 114.881 174.823 114.354 174.573 113.847C174.411 114.245 174.265 114.595 174.139 114.879C173.612 116.071 172.838 116.806 171.645 116.929Z" fill="black"/>
<path d="M164.922 108.523C164.854 108.364 164.751 108.232 164.629 108.133C163.838 107.489 163.804 106.884 163.666 107.019C163.584 107.1 163.615 107.482 163.695 107.836C162.833 107.73 161.082 107.796 161.312 108.028C161.428 108.145 162.033 108.256 162.562 108.333C161.831 108.366 160.891 108.444 161.01 108.628C161.104 108.772 161.734 108.858 162.357 108.909C161.788 109.039 161.307 109.191 161.509 109.304C161.749 109.439 162.476 109.363 163.07 109.269C162.402 109.499 161.784 109.801 161.883 109.929C162.055 110.148 163.041 109.789 163.758 109.811C165.114 109.528 165.084 108.901 164.922 108.523Z" fill="#EC624B"/>
<rect x="-0.5" y="0.5" width="10.3427" height="10.3427" transform="matrix(-1 0 0 1 65.6895 128.5)" fill="#D9D9D9" stroke="#0B2739"/>
<path d="M65.5547 129.634L56.4806 138.708" stroke="#0B2739"/>
<path d="M56.4811 129.634L65.5553 138.708" stroke="#0B2739"/>
<rect x="-0.5" y="0.5" width="10.3427" height="10.3427" transform="matrix(-1 0 0 1 65.6895 117.157)" fill="#D9D9D9" stroke="#0B2739"/>
<path d="M65.5547 118.291L56.4806 127.365" stroke="#0B2739"/>
<path d="M56.4811 118.291L65.5553 127.365" stroke="#0B2739"/>
<rect x="-0.5" y="0.5" width="10.3427" height="10.3427" transform="matrix(-1 0 0 1 65.6895 105.814)" fill="#D9D9D9" stroke="#0B2739"/>
<path d="M65.5547 106.948L56.4806 116.022" stroke="#0B2739"/>
<path d="M56.4811 106.949L65.5553 116.023" stroke="#0B2739"/>
<rect x="-0.5" y="0.5" width="10.3427" height="10.3427" transform="matrix(-1 0 0 1 65.6895 94.4717)" fill="#D9D9D9" stroke="#0B2739"/>
<path d="M65.5547 95.6055L56.4806 104.68" stroke="#0B2739"/>
<path d="M56.4811 95.6057L65.5553 104.68" stroke="#0B2739"/>
<rect x="-0.5" y="0.5" width="10.3427" height="10.3427" transform="matrix(-1 0 0 1 65.6895 83.1289)" fill="#D9D9D9" stroke="#0B2739"/>
<path d="M65.5547 84.2627L56.4806 93.3368" stroke="#0B2739"/>
<path d="M56.4811 84.263L65.5553 93.3371" stroke="#0B2739"/>
<rect x="-0.5" y="0.5" width="10.3427" height="10.3427" transform="matrix(-1 0 0 1 65.6895 71.7861)" fill="#D9D9D9" stroke="#0B2739"/>
<path d="M65.5547 72.9199L56.4806 81.9941" stroke="#0B2739"/>
<path d="M56.4811 72.9202L65.5553 81.9943" stroke="#0B2739"/>
<rect x="-0.5" y="0.5" width="10.3427" height="10.3427" transform="matrix(-1 0 0 1 65.6895 60.4434)" fill="#D9D9D9" stroke="#0B2739"/>
<path d="M65.5547 61.5771L56.4806 70.6513" stroke="#0B2739"/>
<path d="M56.4811 61.5774L65.5553 70.6515" stroke="#0B2739"/>
<rect x="-0.5" y="0.5" width="10.3427" height="10.3427" transform="matrix(-1 0 0 1 65.6895 49.1016)" fill="#D9D9D9" stroke="#0B2739"/>
<path d="M65.5547 50.2354L56.4806 59.3095" stroke="#0B2739"/>
<path d="M56.4811 50.2356L65.5553 59.3097" stroke="#0B2739"/>
<rect x="-0.5" y="0.5" width="10.3427" height="10.3427" transform="matrix(-1 0 0 1 65.6895 37.7588)" fill="#D9D9D9" stroke="#0B2739"/>
<path d="M65.5547 38.8926L56.4806 47.9667" stroke="#0B2739"/>
<path d="M56.4811 38.8928L65.5553 47.967" stroke="#0B2739"/>
<rect x="-0.5" y="0.5" width="10.3427" height="10.3427" transform="matrix(-1 0 0 1 65.6895 26.416)" fill="#D9D9D9" stroke="#0B2739"/>
<path d="M65.5547 27.5498L56.4806 36.6239" stroke="#0B2739"/>
<path d="M56.4811 27.5501L65.5553 36.6242" stroke="#0B2739"/>
<rect x="-0.5" y="0.5" width="10.3427" height="10.3427" transform="matrix(-1 0 0 1 65.6895 15.0732)" fill="#D9D9D9" stroke="#0B2739"/>
<path d="M65.5547 16.207L56.4806 25.2812" stroke="#0B2739"/>
<path d="M56.4811 16.2073L65.5553 25.2814" stroke="#0B2739"/>
<rect x="-0.5" y="0.5" width="10.3427" height="10.3427" transform="matrix(-1 0 0 1 77.0312 15.0732)" fill="#D9D9D9" stroke="#0B2739"/>
<path d="M76.8965 16.207L67.8224 25.2812" stroke="#0B2739"/>
<path d="M67.8229 16.2073L76.8971 25.2814" stroke="#0B2739"/>
<rect x="-0.5" y="0.5" width="10.3427" height="10.3427" transform="matrix(-1 0 0 1 54.3477 15.0732)" fill="#D9D9D9" stroke="#0B2739"/>
<path d="M54.2129 16.207L45.1388 25.2812" stroke="#0B2739"/>
<path d="M45.1393 16.2073L54.2135 25.2814" stroke="#0B2739"/>
<rect x="-0.5" y="0.5" width="10.3427" height="10.3427" transform="matrix(-1 0 0 1 43.0039 15.0732)" fill="#D9D9D9" stroke="#0B2739"/>
<path d="M42.8691 16.207L33.795 25.2812" stroke="#0B2739"/>
<path d="M33.7956 16.2073L42.8697 25.2814" stroke="#0B2739"/>
<rect x="-0.5" y="0.5" width="10.3427" height="10.3427" transform="matrix(-1 0 0 1 88.375 15.0732)" fill="#D9D9D9" stroke="#0B2739"/>
<path d="M88.2402 16.207L79.1661 25.2812" stroke="#0B2739"/>
<path d="M79.1666 16.2073L88.2408 25.2814" stroke="#0B2739"/>
<rect x="-0.5" y="0.5" width="10.3427" height="10.3427" transform="matrix(-1 0 0 1 99.7188 15.0732)" fill="#D9D9D9" stroke="#0B2739"/>
<path d="M99.584 16.207L90.5099 25.2812" stroke="#0B2739"/>
<path d="M90.5104 16.2073L99.5846 25.2814" stroke="#0B2739"/>
<path d="M104.901 19.9639L101.218 16.2803V25.9159H110.853L104.901 19.9639Z" fill="#D9D9D9" stroke="#0B2739"/>
<rect x="-0.5" y="0.5" width="10.3427" height="10.3427" transform="matrix(-1 0 0 1 65.6895 3.73047)" fill="#D9D9D9" stroke="#0B2739"/>
<path d="M65.5547 4.86426L56.4806 13.9384" stroke="#0B2739"/>
<path d="M56.4811 4.86453L65.5553 13.9386" stroke="#0B2739"/>
<path d="M157.611 26.416H79.1665V30.9531H157.611V26.416Z" fill="#ACD1FC"/>
<path d="M144.939 28.6846H143.805V49.5182H144.939V28.6846Z" fill="#ACD1FC"/>
<circle cx="3.96993" cy="3.96993" r="3.96993" transform="matrix(-1 0 0 1 148.342 39.3096)" fill="#ACD1FC"/>
<path d="M142.038 51.2195C142.038 51.6814 142.175 52.133 142.431 52.5171C142.688 52.9012 143.053 53.2005 143.479 53.3773C143.906 53.5541 144.376 53.6004 144.829 53.5102C145.282 53.4201 145.698 53.1977 146.025 52.871C146.352 52.5444 146.574 52.1282 146.664 51.6751C146.754 51.222 146.708 50.7524 146.531 50.3256C146.354 49.8988 146.055 49.5341 145.671 49.2774C145.287 49.0208 144.835 48.8838 144.373 48.8838" stroke="#ACD1FC"/>
<path d="M143.498 54L140.998 64.5" stroke="#999999" stroke-width="0.5"/>
<path d="M145.998 51.5L151.998 67" stroke="#999999" stroke-width="0.5"/>
<path d="M143.106 63.9476C142.494 63.6479 141.209 63.3956 139.562 65.361C138.782 66.2747 138.189 67.3401 137.822 68.4868C137.51 69.4496 137.301 70.4399 137.197 71.4396C137.179 71.65 137.187 71.8606 137.219 72.0665C137.297 72.5298 137.724 72.7202 137.945 72.7175C138.186 72.7148 138.527 72.5856 138.728 71.9956C138.825 71.6741 138.903 71.3476 138.962 71.0181C139.109 70.2581 139.263 69.3286 139.531 68.7494C139.89 67.9719 140.223 68.0166 140.433 68.0678C140.785 68.1546 140.86 68.6573 140.878 69.2477C140.896 69.9512 140.911 71.1895 140.95 72.1491C140.985 73.0151 141.315 74.0922 142.461 74.6138C143.628 75.1457 144.707 75.1111 145.885 73.8718C146.768 72.9445 147.404 72.2425 148.188 71.5859C149.088 70.8327 149.896 70.5958 150.276 70.988C150.628 71.3516 150.508 71.8502 150.18 72.5058C149.888 73.0655 149.566 73.609 149.215 74.1338C149.069 74.3519 148.937 74.5798 148.821 74.8159C148.657 75.2021 148.618 75.6517 148.982 75.9124C149.371 76.1882 149.889 76.0043 150.244 75.641C150.403 75.4681 150.549 75.2833 150.681 75.088C151.228 74.3187 151.692 73.4916 152.064 72.6226C152.568 71.4723 152.882 70.3491 152.973 69.2864C153.058 68.2645 152.782 67.443 152.102 67.036C151.348 66.5849 150.171 66.6804 149.153 67.5107C148.217 68.2741 147.352 69.1127 146.878 69.5229C146.404 69.9332 145.919 70.1019 145.409 69.9099C144.786 69.6751 144.51 68.9604 144.47 68.1213C144.434 67.3897 144.342 65.9838 144.182 65.4456C144.032 64.9405 143.884 64.3281 143.106 63.9476Z" fill="#0B2739"/>
<path d="M93.498 97.9317C93.2829 98.0247 91.9492 98.6011 90.7323 97.9255C90.1176 97.5846 89.2326 96.7665 89.3985 95.9669C89.4416 95.75 89.5583 95.5764 89.6628 95.4587C89.4969 93.8534 89.7243 93.3141 90.0254 93.1778C90.4311 92.9918 91.3161 93.3885 91.3161 93.3885C91.5497 92.8555 92.0906 92.6075 92.4839 92.7439C92.951 92.8988 93.2645 93.6116 92.9265 94.2438C93.117 95.4711 93.3075 96.6983 93.498 97.9317Z" fill="#922859" fill-opacity="0.7"/>
<path d="M94.3328 96.7539C94.3328 96.7539 95.4206 97.3179 95.7402 98.6691L93.2818 98.9294C93.2818 98.9294 93.2818 97.9625 92.4274 97.0762L94.3328 96.7539Z" fill="#E95D4E"/>
<path opacity="0.1" d="M95.7402 98.6633L95.5374 98.6818C95.224 98.279 94.6032 97.6902 93.4969 97.2997L94.1791 96.7728L94.3328 96.748C94.3328 96.7542 95.4206 97.3121 95.7402 98.6633Z" fill="#0B2739"/>
<path d="M101.526 114.512C101.526 114.512 101.882 121.776 96.7749 137.141H94.7528C94.7528 137.141 95.939 127.112 95.5825 122.606L96.4061 114.512H101.526Z" fill="#0B2739"/>
<path opacity="0.1" d="M94.8691 136.074C95.0842 134.072 95.5328 129.61 95.6312 125.965C95.9508 125.426 96.0799 124.601 96.1352 123.56C96.2089 122.122 96.1598 120.536 96.1167 119.37C96.0983 118.949 96.0737 118.093 96.1229 117.622C96.2151 116.699 96.5654 115.788 97.3644 115.676C98.2126 115.558 98.8518 116.476 99.0731 117.567C99.1591 117.994 99.2206 118.645 99.2452 119.11C99.3865 121.44 99.3742 123.002 99.153 125.37C98.8948 128.141 98.3601 130.651 97.5365 132.808C96.885 134.512 95.9692 135.69 94.8691 136.074Z" fill="black"/>
<path d="M93.9473 116.675C93.9473 116.675 92.6689 126.102 88.0162 137.141H89.565C89.565 137.141 98.4402 128.941 100.057 115.156L93.9473 116.675Z" fill="#0B2739"/>
<path opacity="0.1" d="M88.4521 136.08C92.7483 125.507 93.9468 116.674 93.9468 116.674L95.4035 116.309L96.2763 116.68C96.2763 116.68 96.3992 121.007 94.0329 125.085C91.6727 129.17 93.0802 130.577 92.1767 132.046C91.4576 133.223 89.3741 134.686 88.4521 136.08Z" fill="white"/>
<path d="M91.4401 93.8349C91.6061 93.7482 91.7659 93.6552 91.9503 93.6056C92.5465 93.4197 93.0812 93.7234 93.5729 94.0395C94.1015 94.3804 94.587 94.808 94.9927 95.3039C95.3 95.6634 95.5212 96.1096 95.3922 96.5869C95.3369 96.7852 95.1525 96.934 95.0234 97.0827C95.0234 97.0827 94.0892 97.7211 92.7616 97.8823C92.3928 97.9257 92.0302 97.7645 91.7044 97.5786C91.348 97.374 91.0284 97.0641 90.7948 96.7232C90.0265 95.5642 90.5428 94.3556 91.4401 93.8349Z" fill="#E95D4E"/>
<path opacity="0.1" d="M93.2273 93.8284C93.2518 93.9958 93.2211 94.2561 92.9998 94.6466C92.9998 94.6466 93.2457 95.9048 91.8382 96.3697L91.8075 94.752L92.9261 93.6797C93.0306 93.7231 93.1289 93.7727 93.2273 93.8284Z" fill="black"/>
<path d="M93.2832 98.0184L92.4289 97.0701L91.7712 96.754L91.8388 96.3697C91.8388 96.3697 92.644 95.4958 92.3674 94.7768C92.3674 94.7768 93.1541 94.3864 93.0619 93.5496L92.3859 93.1777L89.9765 94.5413L90.2347 96.6673L91.1873 97.4606L92.2875 97.9813L93.2832 98.0184Z" fill="#692B53"/>
<path d="M91.8377 96.3691L92.1143 96.4931C92.1143 96.4931 92.102 96.6233 92.0897 96.6666L92.4277 97.0757C92.3355 97.1005 92.2126 97.1253 92.1266 97.1377C91.893 97.1563 91.6472 97.0633 91.5857 96.834C91.5304 96.6109 91.6717 96.4621 91.8377 96.3691Z" fill="#E95D4E"/>
<path d="M100.929 92.4523C100.99 92.3904 101.31 92.4709 101.568 92.5515C101.433 92.0928 101.285 91.6466 101.187 91.3429C101.119 91.1197 101.347 90.9276 101.55 91.0268L102.33 91.4111C102.662 91.5722 102.871 91.9193 102.859 92.2974L102.791 93.9089L101.888 93.8655C101.863 93.6796 101.808 93.4378 101.74 93.1775C101.525 93.0226 100.843 92.5453 100.929 92.4523Z" fill="#E95D4E"/>
<path d="M94.1868 98.396C95.5574 97.8754 96.4793 98.4952 96.6944 98.6625C99.5954 97.1068 100.573 95.1854 100.898 94.1627C101.028 93.7599 101.427 93.5119 101.839 93.5739H101.857C101.925 93.5057 102.011 93.4562 102.109 93.4252C102.503 93.3012 102.908 93.5801 102.939 93.9954L103.222 97.9064C103.32 99.2514 102.736 100.547 101.667 101.359C100.941 101.904 100.247 102.338 99.6016 102.673C102.109 108.127 101.98 115.503 101.98 115.503C96.5408 118.701 93.732 116.662 93.732 116.662C94.1438 113.736 93.1911 106.212 92.5642 104.005C91.6976 100.987 92.3306 99.1026 94.1868 98.396Z" fill="#F8D2B3"/>
<path opacity="0.1" d="M101.678 98.4395C101.678 98.4395 97.4 101.117 95.427 98.9229C95.427 98.9229 94.6526 104.811 101.678 98.4395Z" fill="white"/>
<path opacity="0.1" d="M99.6028 102.686C100.008 103.572 100.346 104.508 100.629 105.45C100.734 106.981 100.402 108.332 98.5948 107.359C95.2451 105.555 93.8684 102.927 93.7577 102.717C94.526 103.795 96.6342 104.229 99.6028 102.686Z" fill="black"/>
<path opacity="0.1" d="M92.5595 104.018C91.8589 101.563 92.1477 99.8526 93.2725 98.9229C93.2786 98.9229 93.2848 98.9229 93.2848 98.9291C94.262 99.3443 91.5761 104.557 93.7642 107.018C94.7845 108.164 96.9971 108.858 97.5503 110.234C97.8146 110.885 97.8391 111.555 97.8391 111.555C97.8822 112.732 97.4396 114.889 93.7765 116.178C94.0408 112.968 93.1557 106.106 92.5595 104.018Z" fill="white"/>
<path d="M92.429 97.0698L92.9207 96.9893L93.6152 98.0677L93.1911 98.4086C93.0989 98.0491 92.89 97.5471 92.429 97.0698Z" fill="#E95D4E"/>
<path opacity="0.1" d="M100.352 98.1981C99.8233 98.8799 98.4896 98.8861 97.119 99.0411C96.9961 98.9233 96.8731 98.8118 96.7441 98.7064C96.7441 98.7064 99.2148 98.787 100.278 97.1383C100.923 96.1404 100.948 95.0123 100.862 94.2686C100.874 94.2314 100.887 94.2004 100.893 94.1632C101.022 93.7603 101.421 93.5124 101.833 93.5806H101.852C101.753 93.6735 101.686 93.7913 101.661 93.9339C101.501 94.8884 101.01 97.349 100.352 98.1981Z" fill="black"/>
<path d="M94.8318 138.095C94.8318 138.095 94.5368 138.677 94.6044 139.309C94.6044 139.309 94.9118 139.582 95.7476 139.458C95.7476 139.458 98.1385 139.836 98.8576 139.644C99.5767 139.452 97.8496 138.969 97.5362 138.863C96.8601 138.64 96.6143 138.305 96.3438 138.008L94.8318 138.095Z" fill="#313235"/>
<path d="M94.9054 138.095L95.0222 137.135H96.4297L96.2883 138.015L94.9054 138.095Z" fill="#E95D4E"/>
<path d="M89.0474 137.822L89.7603 139.13L90.4549 139.372C90.5593 139.403 90.627 139.496 90.627 139.601C90.627 139.731 90.5225 139.843 90.3872 139.843H88.5557L87.8427 139.787C87.3326 139.75 87.0437 139.173 87.3141 138.74L87.8734 137.828H89.0474V137.822Z" fill="#313235"/>
<path d="M89.0488 137.823L89.5098 137.135H88.2252L87.8872 137.823H89.0488Z" fill="#E95D4E"/>
<path fill-rule="evenodd" clip-rule="evenodd" d="M224.883 109.473C225.856 106.307 226.669 105.9 227.717 106.223C228.766 106.547 229.21 107.34 228.237 110.506C227.265 113.672 226.451 114.079 225.403 113.756C224.355 113.432 223.911 112.639 224.883 109.473Z" fill="#0B2739"/>
<path fill-rule="evenodd" clip-rule="evenodd" d="M236 126.516C233.997 127.575 232.853 127.666 232.073 126.193C231.293 124.72 232.011 123.826 234.014 122.765C236.018 121.706 237.161 121.615 237.941 123.088C238.721 124.56 238.003 125.456 236 126.516Z" fill="#A13EA1"/>
<rect x="36" y="140" width="185" height="11" rx="2" fill="#0B2739"/>
<path d="M36 142C36 140.895 36.8954 140 38 140H129L122 151H38C36.8954 151 36 150.105 36 149V142Z" fill="#103B57"/>
<path d="M210.275 101C210.275 100.724 210.499 100.5 210.775 100.5C211.052 100.5 211.275 100.724 211.275 101L210.275 101ZM211.275 101L211.275 140.699L210.275 140.699L210.275 101L211.275 101Z" fill="#734015"/>
<path d="M201.501 100.975C201.515 100.699 201.749 100.487 202.025 100.501C202.301 100.515 202.513 100.749 202.499 101.025L201.501 100.975ZM202.499 101.025L200.499 140.724L199.501 140.674L201.501 100.975L202.499 101.025Z" fill="#734015"/>
<path d="M202 106.037C201.724 106.037 201.5 105.813 201.5 105.537C201.5 105.261 201.724 105.037 202 105.037L202 106.037ZM202 105.037L211.343 105.037L211.343 106.037L202 106.037L202 105.037Z" fill="#734015"/>
<path d="M202 110.574C201.724 110.574 201.5 110.35 201.5 110.074C201.5 109.798 201.724 109.574 202 109.574L202 110.574ZM202 109.574L211.343 109.574L211.343 110.574L202 110.574L202 109.574Z" fill="#734015"/>
<path d="M201.342 115.111C201.066 115.111 200.842 114.887 200.842 114.611C200.842 114.335 201.066 114.111 201.342 114.111L201.342 115.111ZM201.342 114.111L211.342 114.111L211.342 115.111L201.342 115.111L201.342 114.111Z" fill="#734015"/>
<path d="M201.342 119.648C201.066 119.648 200.842 119.425 200.842 119.148C200.842 118.872 201.066 118.648 201.342 118.648L201.342 119.648ZM201.342 118.648L211.342 118.648L211.342 119.648L201.342 119.648L201.342 118.648Z" fill="#734015"/>
<path d="M200.842 124.186C200.566 124.186 200.342 123.962 200.342 123.686C200.342 123.409 200.566 123.186 200.842 123.186L200.842 124.186ZM200.842 123.186L211.342 123.186L211.342 124.186L200.842 124.186L200.842 123.186Z" fill="#734015"/>
<path d="M200.842 128.723C200.566 128.723 200.342 128.499 200.342 128.223C200.342 127.947 200.566 127.723 200.842 127.723L200.842 128.723ZM200.842 127.723L211.342 127.723L211.342 128.723L200.842 128.723L200.842 127.723Z" fill="#734015"/>
<path d="M200.842 133.26C200.566 133.26 200.342 133.036 200.342 132.76C200.342 132.484 200.566 132.26 200.842 132.26L200.842 133.26ZM200.842 132.26L211.342 132.26L211.342 133.26L200.842 133.26L200.842 132.26Z" fill="#734015"/>
<path d="M200.342 137.797C200.066 137.797 199.842 137.573 199.842 137.297C199.842 137.021 200.066 136.797 200.342 136.797L200.342 137.797ZM200.342 136.797L211.342 136.797L211.342 137.797L200.342 137.797L200.342 136.797Z" fill="#734015"/>
<path d="M202.566 101C202.566 100.724 202.343 100.5 202.066 100.5C201.79 100.5 201.566 100.724 201.566 101L202.566 101ZM201.566 101L201.566 140.699L202.566 140.699L202.566 101L201.566 101Z" fill="#9F591F"/>
<path d="M211.341 100.975C211.327 100.699 211.092 100.487 210.817 100.501C210.541 100.515 210.329 100.749 210.342 101.025L211.341 100.975ZM210.342 101.025L212.342 140.724L213.341 140.674L211.341 100.975L210.342 101.025Z" fill="#9F591F"/>
<path d="M210.842 106.037C211.118 106.037 211.342 105.813 211.342 105.537C211.342 105.261 211.118 105.037 210.842 105.037L210.842 106.037ZM210.842 105.037L201.499 105.037L201.499 106.037L210.842 106.037L210.842 105.037Z" fill="#9F591F"/>
<path d="M210.842 110.574C211.118 110.574 211.342 110.35 211.342 110.074C211.342 109.798 211.118 109.574 210.842 109.574L210.842 110.574ZM210.842 109.574L201.499 109.574L201.499 110.574L210.842 110.574L210.842 109.574Z" fill="#9F591F"/>
<path d="M211.5 115.111C211.776 115.111 212 114.887 212 114.611C212 114.335 211.776 114.111 211.5 114.111L211.5 115.111ZM211.5 114.111L201.5 114.111L201.5 115.111L211.5 115.111L211.5 114.111Z" fill="#9F591F"/>
<path d="M211.5 119.648C211.776 119.648 212 119.425 212 119.148C212 118.872 211.776 118.648 211.5 118.648L211.5 119.648ZM211.5 118.648L201.5 118.648L201.5 119.648L211.5 119.648L211.5 118.648Z" fill="#9F591F"/>
<path d="M212 124.186C212.276 124.186 212.5 123.962 212.5 123.686C212.5 123.409 212.276 123.186 212 123.186L212 124.186ZM212 123.186L201.5 123.186L201.5 124.186L212 124.186L212 123.186Z" fill="#9F591F"/>
<path d="M212 128.723C212.276 128.723 212.5 128.499 212.5 128.223C212.5 127.947 212.276 127.723 212 127.723L212 128.723ZM212 127.723L201.5 127.723L201.5 128.723L212 128.723L212 127.723Z" fill="#9F591F"/>
<path d="M212 133.26C212.276 133.26 212.5 133.036 212.5 132.76C212.5 132.484 212.276 132.26 212 132.26L212 133.26ZM212 132.26L201.5 132.26L201.5 133.26L212 133.26L212 132.26Z" fill="#9F591F"/>
<path d="M212.5 137.797C212.776 137.797 213 137.573 213 137.297C213 137.021 212.776 136.797 212.5 136.797L212.5 137.797ZM212.5 136.797L201.5 136.797L201.5 137.797L212.5 137.797L212.5 136.797Z" fill="#9F591F"/>
<path fill-rule="evenodd" clip-rule="evenodd" d="M203.778 152.751L204.065 150.542C204.151 149.883 203.864 149.366 203.405 149.366H202.602C202.602 149.366 201.627 141.966 197.582 141.421C194.57 141.019 179.138 139.183 177.847 137.835C172.798 132.5 164.167 129 161.327 129C159.176 129 157.739 129 154.411 129C153.436 129 133.996 129 131.551 129C131.551 129 127.189 129.489 124.054 132.26C120.918 135.03 119.674 138.925 119.674 138.925C119.359 138.925 119.043 139.183 118.986 139.527L117.408 150.055C117.408 150.055 115.486 149.309 115.228 151.919C114.97 154.558 117.609 154.185 117.609 154.185L124.178 156.279L198.271 156.623H199.475C200.135 156.623 201.053 156.279 201.541 155.82L202.745 154.73C203.233 154.271 203.692 153.382 203.778 152.751Z" fill="white"/>
<path d="M175.059 132.684C168.993 129.316 161.204 128.848 158.068 129.035V156.087L182.36 155.14C182.782 152.333 183.343 147 189.241 146.579C193.959 146.242 195.606 150.087 195.84 152.052L203.844 150.368C203.657 151.397 203.451 152.81 204.125 150.228C204.799 147.645 203.844 145.316 203.282 144.474C202.768 143.819 201.513 142.424 200.614 142.088C199.491 141.667 190.926 140.263 187.696 140.123C184.467 139.982 182.641 136.895 175.059 132.684Z" fill="white"/>
<path fill-rule="evenodd" clip-rule="evenodd" d="M205.783 151.816L204.933 153.516C204.897 153.78 204.608 153.657 204.402 153.569C204.116 153.447 203.992 153.394 204.933 154.545L204.076 154.887C202.781 154.166 202.44 154.828 202.166 155.359C202.026 155.63 201.904 155.868 201.681 155.868H200.476L195.433 155.975C194.729 154.894 193.982 154.136 193.118 154.325C192.61 154.436 191.89 154.664 191.709 156.054L186.579 156.164C186.414 153.701 186.643 151.222 187.261 148.82C188.439 144.029 190.598 142.112 192.472 141.385C194.552 141.689 196.581 141.959 198.206 142.17C198.607 142.487 198.955 142.832 199.285 143.158C199.327 143.201 199.37 143.243 199.412 143.284C201.014 145.219 202.453 147.282 203.715 149.452C204.307 150.418 205.003 151.244 205.783 151.816Z" fill="#0B2739"/>
<path fill-rule="evenodd" clip-rule="evenodd" d="M128.142 130.035C126.807 130.528 125.324 131.268 124.08 132.368C120.944 135.139 119.7 139.033 119.7 139.033C119.385 139.033 119.069 139.292 119.012 139.636L117.434 150.163C117.434 150.163 115.512 149.417 115.254 152.028C114.996 154.667 117.635 154.294 117.635 154.294L118.212 154.478C117.932 152.724 117.772 150.952 117.733 149.174C117.942 146.068 119.207 145.796 120.038 145.706C121.434 145.555 122.414 147.175 123.296 149.167C123.64 149.943 124.062 150.913 124.526 151.981C125.126 153.361 125.796 154.904 126.459 156.398L148.738 156.502C150.01 153.56 151.425 150.681 152.978 147.875C155.175 144.164 157.765 142.333 159.684 143.187C161.467 143.981 161.731 145.834 161.461 148.487C161.188 150.768 160.784 153.031 160.252 155.265C160.149 155.692 160.06 156.122 159.986 156.554L166.903 156.586C167.79 153.291 168.302 149.906 168.427 146.495C168.694 142.268 168.227 138.026 167.047 133.956C166.51 132.223 165.732 130.753 164.727 129.639C163.645 129.388 162.516 129.211 161.327 129.108H154.438L154.128 129.108C152.868 130 151.708 131.218 150.773 132.757C149.25 135.26 147.887 137.826 146.807 139.86C146.246 140.916 145.762 141.828 145.371 142.513C144.216 144.541 142.717 145.704 140.606 145.696C138.026 145.687 136.03 143.598 134.706 140.785C133.356 137.735 131.756 134.801 129.924 132.013C129.874 131.952 129.825 131.89 129.774 131.828C129.296 131.237 128.784 130.603 128.142 130.035Z" fill="#A13EA1"/>
<path d="M165.839 130.832C172.182 132.203 177.325 136.489 179.725 138.204C180.754 138.939 184.628 141.838 185.04 142.661C185.451 143.484 184.525 143.69 184.011 143.69C179.839 143.576 170.193 143.176 164.981 142.49C158.467 141.633 157.438 139.232 157.267 139.061C157.095 138.89 155.381 133.061 155.038 131.518C154.764 130.283 155.609 129.86 156.067 129.803C156.638 129.632 159.424 129.445 165.839 130.832Z" fill="#191919"/>
<path d="M165.839 130.832C172.182 132.203 177.325 136.489 179.725 138.204C180.754 138.939 184.628 141.838 185.04 142.661C185.451 143.484 184.525 143.69 184.011 143.69C179.839 143.576 170.193 143.176 164.981 142.49C158.467 141.633 157.438 139.232 157.267 139.061C157.095 138.89 155.381 133.061 155.038 131.518C154.764 130.283 155.609 129.86 156.067 129.803C156.638 129.632 159.424 129.445 165.839 130.832Z" fill="#191919"/>
<path d="M166.034 131.5C171.659 132.709 176.22 136.486 178.349 137.997C179.261 138.645 182.697 141.201 183.062 141.926C183.427 142.651 182.606 142.833 182.149 142.833C178.45 142.732 169.896 142.379 165.274 141.775C159.496 141.02 158.584 138.904 158.432 138.753C158.28 138.602 156.76 133.464 156.456 132.104C156.212 131.016 156.962 130.643 157.368 130.593C157.875 130.442 160.345 130.277 166.034 131.5Z" fill="#191919"/>
<path d="M166.034 131.5C171.659 132.709 176.22 136.486 178.349 137.997C179.261 138.645 182.697 141.201 183.062 141.926C183.427 142.651 182.606 142.833 182.149 142.833C178.45 142.732 169.896 142.379 165.274 141.775C159.496 141.02 158.584 138.904 158.432 138.753C158.28 138.602 156.76 133.464 156.456 132.104C156.212 131.016 156.962 130.643 157.368 130.593C157.875 130.442 160.345 130.277 166.034 131.5Z" fill="#233036"/>
<path d="M166.034 131.5C171.659 132.709 176.22 136.486 178.349 137.997C179.261 138.645 182.697 141.201 183.062 141.926C183.427 142.651 182.606 142.833 182.149 142.833C178.45 142.732 169.896 142.379 165.274 141.775C159.496 141.02 158.584 138.904 158.432 138.753C158.28 138.602 156.76 133.464 156.456 132.104C156.212 131.016 156.962 130.643 157.368 130.593C157.875 130.442 160.345 130.277 166.034 131.5Z" fill="#191919"/>
<path d="M166.034 131.5C171.659 132.709 176.22 136.486 178.349 137.997C179.261 138.645 182.697 141.201 183.062 141.926C183.427 142.651 182.606 142.833 182.149 142.833C178.45 142.732 169.896 142.379 165.274 141.775C159.496 141.02 158.584 138.904 158.432 138.753C158.28 138.602 156.76 133.464 156.456 132.104C156.212 131.016 156.962 130.643 157.368 130.593C157.875 130.442 160.345 130.277 166.034 131.5Z" fill="#233036"/>
<path fill-rule="evenodd" clip-rule="evenodd" d="M198.496 149.631L200.319 145.569C200.319 145.569 203.905 145.895 204.231 146.384C204.557 146.873 205.037 149.446 205.037 149.446C205.037 149.446 205.409 149.446 205.84 149.446C206.27 149.446 206.586 149.962 206.499 150.622L206.213 152.83C206.127 153.49 205.668 154.379 205.18 154.81L203.975 155.9C203.488 156.33 202.541 156.703 201.91 156.703H200.705L191.359 156.674L190.642 149.631H198.496Z" fill="url(#paint0_linear_197_21151)"/>
<path fill-rule="evenodd" clip-rule="evenodd" d="M117.725 154.265C117.725 154.265 115.086 154.638 115.345 151.999C115.603 149.36 117.525 150.135 117.525 150.135L117.553 149.905C118.442 150.508 119.647 151.311 120.364 151.626C121.626 152.171 126.273 153.061 126.273 153.061C126.273 153.061 126.159 154.954 126.044 156.359H124.266L117.725 154.265Z" fill="url(#paint1_linear_197_21151)"/>
<path fill-rule="evenodd" clip-rule="evenodd" d="M183.988 156.646L133.819 156.416V154.638H183.988V156.646Z" fill="url(#paint2_linear_197_21151)"/>
<path fill-rule="evenodd" clip-rule="evenodd" d="M189.213 147.858C193.942 147.858 195.957 150.468 196.721 151.932L197.485 153.404C197.54 153.786 197.486 156.026 197.486 156.435C196.558 156.435 195.957 156.435 195.957 156.435H181.385C181.357 151.987 184.764 147.858 189.213 147.858Z" fill="#010101"/>
<path fill-rule="evenodd" clip-rule="evenodd" d="M182.529 156.436C182.529 160.256 185.613 163.34 189.434 163.34C193.254 163.34 196.338 160.256 196.338 156.436C196.338 152.615 193.254 149.531 189.434 149.531C185.613 149.531 182.529 152.615 182.529 156.436Z" fill="url(#paint3_radial_197_21151)"/>
<path fill-rule="evenodd" clip-rule="evenodd" d="M189.435 160.938C191.918 160.938 193.938 158.919 193.938 156.435C193.938 153.952 191.918 151.933 189.435 151.933C186.951 151.933 184.932 153.952 184.932 156.435C184.932 158.919 186.951 160.938 189.435 160.938Z" fill="url(#paint4_radial_197_21151)"/>
<path fill-rule="evenodd" clip-rule="evenodd" d="M191.265 152.778L189.982 155.016C189.682 155.507 189.218 155.507 188.918 155.016L187.635 152.778C187.608 152.751 188.427 152.26 189.464 152.26C190.501 152.26 191.32 152.751 191.265 152.778Z" fill="#5A5A5A"/>
<path fill-rule="evenodd" clip-rule="evenodd" d="M193.501 157.199L190.991 156.626C190.418 156.49 190.281 156.053 190.69 155.617L192.464 153.734C192.492 153.679 193.201 154.334 193.501 155.316C193.774 156.299 193.529 157.227 193.501 157.199Z" fill="#5A5A5A"/>
<path fill-rule="evenodd" clip-rule="evenodd" d="M189.927 160.61L189.736 158.018C189.709 157.445 190.091 157.172 190.609 157.418L192.929 158.536C192.983 158.536 192.574 159.41 191.701 159.983C190.855 160.61 189.9 160.665 189.927 160.61Z" fill="#5A5A5A"/>
<path fill-rule="evenodd" clip-rule="evenodd" d="M185.616 158.182L188.045 157.254C188.59 157.036 188.945 157.336 188.863 157.909L188.454 160.474C188.454 160.529 187.499 160.392 186.707 159.737C185.889 159.082 185.561 158.182 185.616 158.182Z" fill="#5A5A5A"/>
<path fill-rule="evenodd" clip-rule="evenodd" d="M186.652 153.461L188.235 155.507C188.59 155.971 188.426 156.408 187.853 156.49L185.288 156.845C185.233 156.872 185.097 155.917 185.479 154.962C185.888 153.979 186.652 153.406 186.652 153.461Z" fill="#5A5A5A"/>
<g opacity="0.5">
<path fill-rule="evenodd" clip-rule="evenodd" d="M189.901 152.37L189.46 154.911C189.346 155.476 188.91 155.634 188.46 155.275L186.49 153.61C186.455 153.594 187.057 152.852 188.031 152.498C189.006 152.144 189.943 152.326 189.901 152.37Z" fill="#5A5A5A"/>
<path fill-rule="evenodd" clip-rule="evenodd" d="M193.512 155.761L190.957 156.08C190.372 156.148 190.094 155.784 190.33 155.234L191.354 152.858C191.361 152.797 192.251 153.17 192.869 153.991C193.461 154.821 193.547 155.777 193.512 155.761Z" fill="#5A5A5A"/>
<path fill-rule="evenodd" clip-rule="evenodd" d="M191.319 160.188L190.254 157.817C190.033 157.288 190.299 156.901 190.87 156.954L193.432 157.213C193.483 157.195 193.397 158.155 192.772 158.992C192.191 159.871 191.312 160.249 191.319 160.188Z" fill="#5A5A5A"/>
<path fill-rule="evenodd" clip-rule="evenodd" d="M186.437 159.379L188.402 157.677C188.841 157.285 189.276 157.446 189.395 158.013L189.887 160.564C189.906 160.615 188.961 160.813 187.994 160.468C187.001 160.132 186.385 159.397 186.437 159.379Z" fill="#5A5A5A"/>
<path fill-rule="evenodd" clip-rule="evenodd" d="M185.797 154.586L187.984 155.969C188.476 156.284 188.471 156.75 187.961 157.023L185.671 158.233C185.629 158.277 185.174 157.426 185.207 156.398C185.256 155.335 185.779 154.535 185.797 154.586Z" fill="#5A5A5A"/>
</g>
<path fill-rule="evenodd" clip-rule="evenodd" d="M132.656 148.021C136.245 148.021 138.825 149.203 140.108 151.932L141.172 155.234C141.227 155.616 141.254 156.026 141.254 156.435C140.326 156.435 139.726 156.435 139.726 156.435H125.153C125.153 151.987 128.235 148.021 132.656 148.021Z" fill="#010101"/>
<path fill-rule="evenodd" clip-rule="evenodd" d="M126.299 156.435C126.299 160.255 129.383 163.339 133.203 163.339C137.024 163.339 140.107 160.255 140.107 156.435C140.107 152.614 137.024 149.53 133.203 149.53C129.383 149.53 126.299 152.614 126.299 156.435Z" fill="url(#paint5_radial_197_21151)"/>
<path fill-rule="evenodd" clip-rule="evenodd" d="M133.202 160.938C135.686 160.938 137.705 158.919 137.705 156.435C137.705 153.952 135.686 151.933 133.202 151.933C130.719 151.933 128.699 153.952 128.699 156.435C128.699 158.919 130.719 160.938 133.202 160.938Z" fill="url(#paint6_radial_197_21151)"/>
<path fill-rule="evenodd" clip-rule="evenodd" d="M135.06 152.778L133.777 155.016C133.477 155.507 133.013 155.507 132.713 155.016L131.43 152.778C131.403 152.751 132.222 152.26 133.259 152.26C134.268 152.233 135.087 152.751 135.06 152.778Z" fill="#5A5A5A"/>
<path fill-rule="evenodd" clip-rule="evenodd" d="M137.27 157.199L134.759 156.626C134.186 156.49 134.05 156.053 134.459 155.617L136.233 153.734C136.26 153.679 136.97 154.334 137.27 155.316C137.543 156.299 137.325 157.227 137.27 157.199Z" fill="#5A5A5A"/>
<path fill-rule="evenodd" clip-rule="evenodd" d="M133.694 160.61L133.503 158.018C133.476 157.445 133.858 157.172 134.377 157.418L136.696 158.536C136.751 158.536 136.342 159.41 135.468 159.983C134.65 160.61 133.694 160.665 133.694 160.61Z" fill="#5A5A5A"/>
<path fill-rule="evenodd" clip-rule="evenodd" d="M129.383 158.182L131.812 157.254C132.358 157.036 132.713 157.336 132.631 157.909L132.222 160.474C132.222 160.529 131.266 160.392 130.475 159.737C129.656 159.082 129.329 158.182 129.383 158.182Z" fill="#5A5A5A"/>
<path fill-rule="evenodd" clip-rule="evenodd" d="M130.447 153.461L132.03 155.507C132.385 155.971 132.221 156.408 131.648 156.49L129.083 156.845C129.028 156.872 128.892 155.917 129.274 154.962C129.656 153.979 130.42 153.406 130.447 153.461Z" fill="#5A5A5A"/>
<g opacity="0.6">
<path fill-rule="evenodd" clip-rule="evenodd" d="M137.272 155.845L134.704 156.085C134.13 156.122 133.862 155.743 134.091 155.215L135.182 152.878C135.189 152.84 136.062 153.226 136.659 154.074C137.263 154.884 137.31 155.852 137.272 155.845Z" fill="#5A5A5A"/>
<path fill-rule="evenodd" clip-rule="evenodd" d="M134.93 160.198L133.953 157.815C133.735 157.268 134.013 156.905 134.606 156.988L137.167 157.355C137.227 157.346 137.1 158.303 136.47 159.114C135.823 159.903 134.939 160.258 134.93 160.198Z" fill="#5A5A5A"/>
<path fill-rule="evenodd" clip-rule="evenodd" d="M130.082 159.239L132.092 157.59C132.545 157.238 132.988 157.393 133.086 157.958L133.507 160.499C133.538 160.544 132.588 160.712 131.617 160.328C130.632 160.02 130.038 159.27 130.082 159.239Z" fill="#5A5A5A"/>
<path fill-rule="evenodd" clip-rule="evenodd" d="M129.586 154.315L131.743 155.766C132.236 156.087 132.194 156.55 131.679 156.813L129.346 157.955C129.301 157.987 128.863 157.127 128.942 156.103C129.007 155.056 129.554 154.27 129.586 154.315Z" fill="#5A5A5A"/>
<path fill-rule="evenodd" clip-rule="evenodd" d="M134.058 152.467L133.296 154.94C133.121 155.497 132.67 155.615 132.273 155.193L130.506 153.3C130.452 153.271 131.155 152.61 132.156 152.372C133.179 152.119 134.087 152.414 134.058 152.467Z" fill="#5A5A5A"/>
</g>
<g opacity="0.5">
<path fill-rule="evenodd" clip-rule="evenodd" d="M135.984 153.417L134.143 155.223C133.721 155.615 133.274 155.489 133.118 154.935L132.49 152.434C132.471 152.4 133.392 152.149 134.39 152.43C135.37 152.677 136.017 153.398 135.984 153.417Z" fill="#5A5A5A"/>
<path fill-rule="evenodd" clip-rule="evenodd" d="M136.913 158.272L134.652 157.04C134.137 156.753 134.124 156.296 134.636 155.986L136.854 154.654C136.895 154.609 137.401 155.432 137.423 156.459C137.42 157.479 136.958 158.313 136.913 158.272Z" fill="#5A5A5A"/>
<path fill-rule="evenodd" clip-rule="evenodd" d="M132.546 160.586L133.065 158.039C133.194 157.48 133.636 157.321 134.068 157.697L135.998 159.403C136.05 159.418 135.42 160.147 134.424 160.462C133.466 160.845 132.531 160.639 132.546 160.586Z" fill="#5A5A5A"/>
<path fill-rule="evenodd" clip-rule="evenodd" d="M129.055 157.08L131.644 156.845C132.229 156.782 132.489 157.168 132.255 157.697L131.166 160.055C131.151 160.108 130.268 159.718 129.684 158.873C129.074 158.021 129.002 157.065 129.055 157.08Z" fill="#5A5A5A"/>
<path fill-rule="evenodd" clip-rule="evenodd" d="M131.358 152.824L132.327 155.223C132.543 155.766 132.267 156.141 131.693 156.065L129.128 155.711C129.068 155.723 129.195 154.767 129.822 153.951C130.456 153.108 131.347 152.764 131.358 152.824Z" fill="#5A5A5A"/>
</g>
<path fill-rule="evenodd" clip-rule="evenodd" d="M183.27 138.772C183.27 138.772 177.441 134.829 171.441 131.229C169.555 130.2 174.012 132.086 175.898 132.943C177.955 134.143 179.498 134.486 185.27 139.261C185.413 139.405 185.7 139.548 186.102 139.692C184.438 139.806 183.27 138.772 183.27 138.772Z" fill="url(#paint7_linear_197_21151)"/>
<path fill-rule="evenodd" clip-rule="evenodd" d="M121.812 138.214C121.812 138.214 123.781 133.114 129.782 129.514C131.667 128.486 127.039 130.042 125.324 131.229C123.095 132.772 121.21 134.829 119.813 138.703C119.669 138.846 119.495 138.772 119.152 139.115C120.816 139.229 121.812 138.214 121.812 138.214Z" fill="url(#paint8_linear_197_21151)"/>
<path fill-rule="evenodd" clip-rule="evenodd" d="M119.182 139.077C120.301 138.589 122.337 137.958 122.452 138.417C122.567 138.905 120.674 141.056 118.637 142.691L119.182 139.077Z" fill="url(#paint9_linear_197_21151)"/>
<path fill-rule="evenodd" clip-rule="evenodd" d="M119.223 139.606C119.567 139.52 119.911 139.549 120.055 139.778C120.284 140.094 120.026 140.667 119.481 141.04C119.309 141.155 119.137 141.241 118.965 141.299L119.223 139.606Z" fill="url(#paint10_linear_197_21151)"/>
<path fill-rule="evenodd" clip-rule="evenodd" d="M203.913 144.14C203.139 142.878 201.274 141.988 198.377 141.988C197.545 141.988 199.41 146.75 204.516 146.865C204.516 146.893 204.286 144.742 203.913 144.14Z" fill="url(#paint11_linear_197_21151)"/>
<path fill-rule="evenodd" clip-rule="evenodd" d="M204.172 146.578C204.057 145.775 203.856 144.656 203.656 144.312C202.881 143.05 200.988 142.332 198.464 142.304C198.464 142.505 198.578 143.021 199.066 143.738C199.64 144.541 201.189 146.348 204.172 146.578Z" fill="white"/>
<path fill-rule="evenodd" clip-rule="evenodd" d="M200.815 144.656C200.643 144.627 200.299 144.254 200.586 144.025C200.872 143.795 200.786 143.394 200.815 143.222C200.844 143.05 201.188 143.021 201.446 143.336C201.676 143.652 202.077 144.943 200.815 144.656Z" fill="white"/>
<path fill-rule="evenodd" clip-rule="evenodd" d="M200.814 144.627C200.642 144.598 200.355 144.254 200.613 144.053C200.872 143.824 200.814 143.48 200.814 143.308C200.843 143.164 201.158 143.135 201.388 143.394C201.617 143.68 201.99 144.857 200.814 144.627Z" fill="#FAF8F6"/>
<path fill-rule="evenodd" clip-rule="evenodd" d="M200.842 144.57C200.699 144.542 200.412 144.226 200.642 144.025C200.9 143.825 200.814 143.48 200.842 143.337C200.871 143.193 201.158 143.165 201.359 143.423C201.56 143.681 201.904 144.8 200.842 144.57Z" fill="#F7F3F0"/>
<path fill-rule="evenodd" clip-rule="evenodd" d="M200.843 144.512C200.7 144.484 200.441 144.197 200.671 144.025C200.9 143.853 200.843 143.537 200.843 143.394C200.843 143.25 201.13 143.25 201.331 143.48C201.531 143.709 201.847 144.713 200.843 144.512Z" fill="#F4EFEA"/>
<path fill-rule="evenodd" clip-rule="evenodd" d="M200.873 144.455C200.759 144.427 200.5 144.168 200.73 144.025C200.931 143.853 200.873 143.595 200.873 143.451C200.873 143.336 201.131 143.308 201.304 143.537C201.476 143.738 201.763 144.656 200.873 144.455Z" fill="#F1ECE5"/>
<path fill-rule="evenodd" clip-rule="evenodd" d="M200.872 144.397C200.757 144.369 200.556 144.139 200.728 143.996C200.9 143.852 200.872 143.594 200.872 143.479C200.872 143.365 201.101 143.365 201.273 143.537C201.417 143.766 201.675 144.569 200.872 144.397Z" fill="#EEE8E0"/>
<path fill-rule="evenodd" clip-rule="evenodd" d="M200.902 144.369C200.816 144.34 200.615 144.139 200.787 144.024C200.96 143.881 200.902 143.68 200.902 143.565C200.902 143.479 201.103 143.451 201.246 143.623C201.39 143.795 201.619 144.512 200.902 144.369Z" fill="#ECE4DB"/>
<path fill-rule="evenodd" clip-rule="evenodd" d="M200.93 144.312C200.844 144.283 200.672 144.111 200.816 143.996C200.959 143.881 200.902 143.681 200.93 143.623C200.93 143.537 201.103 143.537 201.217 143.681C201.332 143.795 201.533 144.426 200.93 144.312Z" fill="#E9E0D6"/>
<path fill-rule="evenodd" clip-rule="evenodd" d="M200.929 144.255C200.843 144.226 200.728 144.083 200.843 143.997C200.958 143.911 200.929 143.738 200.929 143.681C200.929 143.624 201.073 143.595 201.187 143.71C201.302 143.824 201.445 144.369 200.929 144.255Z" fill="#E7DDD1"/>
<path fill-rule="evenodd" clip-rule="evenodd" d="M200.959 144.197C200.902 144.197 200.787 144.054 200.873 143.996C200.959 143.91 200.931 143.796 200.959 143.738C200.959 143.681 201.074 143.681 201.16 143.767C201.246 143.853 201.39 144.283 200.959 144.197Z" fill="#E4D9CC"/>
<path fill-rule="evenodd" clip-rule="evenodd" d="M200.958 144.139C200.9 144.139 200.814 144.025 200.9 143.967C200.987 143.91 200.958 143.795 200.958 143.767C200.958 143.709 201.044 143.709 201.13 143.795C201.187 143.881 201.302 144.226 200.958 144.139Z" fill="#E2D6C7"/>
<path fill-rule="evenodd" clip-rule="evenodd" d="M200.988 144.111C200.959 144.111 200.902 144.025 200.959 143.996C201.016 143.939 200.988 143.881 200.988 143.853C200.988 143.824 201.045 143.824 201.102 143.881C201.16 143.91 201.217 144.139 200.988 144.111Z" fill="#DFD2C3"/>
<path fill-rule="evenodd" clip-rule="evenodd" d="M203.111 145.172C202.853 145.717 202.279 146.004 201.82 145.775C201.361 145.545 201.189 144.943 201.419 144.398C201.677 143.853 202.25 143.566 202.738 143.795C203.168 143.996 203.34 144.627 203.111 145.172Z" fill="white"/>
<path fill-rule="evenodd" clip-rule="evenodd" d="M203.054 145.144C202.825 145.66 202.251 145.918 201.821 145.717C201.391 145.516 201.219 144.943 201.448 144.398C201.678 143.881 202.251 143.623 202.682 143.824C203.141 144.053 203.284 144.627 203.054 145.144Z" fill="#FAF8F6"/>
<path fill-rule="evenodd" clip-rule="evenodd" d="M202.997 145.144C202.767 145.631 202.251 145.89 201.85 145.689C201.448 145.488 201.276 144.943 201.505 144.455C201.735 143.968 202.251 143.71 202.653 143.91C203.083 144.082 203.226 144.627 202.997 145.144Z" fill="#F7F3F0"/>
<path fill-rule="evenodd" clip-rule="evenodd" d="M202.966 145.115C202.765 145.574 202.277 145.803 201.876 145.631C201.474 145.459 201.331 144.943 201.56 144.484C201.761 144.025 202.249 143.795 202.65 143.967C203.023 144.139 203.167 144.656 202.966 145.115Z" fill="#F4EFEA"/>
<path fill-rule="evenodd" clip-rule="evenodd" d="M202.908 145.087C202.707 145.517 202.248 145.718 201.904 145.546C201.531 145.374 201.417 144.886 201.617 144.484C201.818 144.054 202.277 143.853 202.621 144.025C202.966 144.169 203.109 144.656 202.908 145.087Z" fill="#F1ECE5"/>
<path fill-rule="evenodd" clip-rule="evenodd" d="M202.58 144.072C202.911 144.224 203.035 144.662 202.856 145.051C202.678 145.439 202.265 145.631 201.934 145.479C201.602 145.327 201.479 144.889 201.657 144.5C201.836 144.112 202.249 143.92 202.58 144.072Z" fill="#EEE8E0"/>
<path fill-rule="evenodd" clip-rule="evenodd" d="M202.56 144.124C202.862 144.263 202.973 144.667 202.808 145.027C202.643 145.387 202.264 145.566 201.962 145.427C201.659 145.288 201.548 144.884 201.713 144.524C201.879 144.164 202.258 143.985 202.56 144.124Z" fill="#ECE4DB"/>
<path fill-rule="evenodd" clip-rule="evenodd" d="M202.531 144.18C202.819 144.312 202.929 144.688 202.777 145.019C202.625 145.35 202.268 145.511 201.98 145.379C201.692 145.247 201.582 144.871 201.734 144.54C201.886 144.209 202.243 144.048 202.531 144.18Z" fill="#E9E0D6"/>
<path fill-rule="evenodd" clip-rule="evenodd" d="M202.511 144.227C202.77 144.346 202.868 144.688 202.729 144.99C202.59 145.293 202.267 145.441 202.008 145.322C201.749 145.203 201.652 144.861 201.791 144.559C201.929 144.257 202.252 144.108 202.511 144.227Z" fill="#E7DDD1"/>
<path fill-rule="evenodd" clip-rule="evenodd" d="M202.482 144.278C202.712 144.384 202.797 144.692 202.671 144.965C202.545 145.239 202.257 145.375 202.026 145.269C201.796 145.163 201.711 144.855 201.837 144.582C201.963 144.308 202.251 144.173 202.482 144.278Z" fill="#E4D9CC"/>
<path fill-rule="evenodd" clip-rule="evenodd" d="M202.622 144.943C202.508 145.172 202.25 145.315 202.049 145.201C201.848 145.115 201.762 144.828 201.877 144.598C201.991 144.369 202.25 144.225 202.45 144.34C202.651 144.455 202.737 144.713 202.622 144.943Z" fill="#E2D6C7"/>
<path fill-rule="evenodd" clip-rule="evenodd" d="M202.567 144.943C202.481 145.143 202.251 145.258 202.079 145.172C201.907 145.086 201.85 144.857 201.936 144.656C202.022 144.455 202.251 144.34 202.423 144.426C202.596 144.484 202.682 144.713 202.567 144.943Z" fill="#DFD2C3"/>
<path fill-rule="evenodd" clip-rule="evenodd" d="M199.87 142.993C199.87 142.878 199.64 142.218 199.382 142.792C199.095 143.366 199.411 143.968 199.784 143.911C200.099 143.853 199.898 143.28 199.87 142.993Z" fill="#FABBAC"/>
<path fill-rule="evenodd" clip-rule="evenodd" d="M162.502 144.426C162.502 145.115 161.613 145.631 160.523 145.631C159.404 145.631 158.543 145.115 158.543 144.426C158.543 143.738 159.433 143.222 160.523 143.222C161.641 143.222 162.502 143.767 162.502 144.426ZM162.128 144.427C162.128 143.968 161.411 143.595 160.522 143.595C159.633 143.595 158.887 143.968 158.916 144.427C158.916 144.886 159.633 145.258 160.522 145.258C161.383 145.258 162.128 144.886 162.128 144.427Z" fill="#C9C9C9"/>
<path fill-rule="evenodd" clip-rule="evenodd" d="M158.717 144.427C158.717 145.001 159.52 145.459 160.524 145.459C161.528 145.459 162.303 145.001 162.303 144.427C162.303 143.853 161.5 143.423 160.524 143.423C159.52 143.423 158.717 143.882 158.717 144.427Z" fill="url(#paint12_linear_197_21151)"/>
<path fill-rule="evenodd" clip-rule="evenodd" d="M158.001 144.426C158.001 144.627 158.174 144.799 158.346 144.799L162.82 144.828C163.021 144.828 163.193 144.656 163.193 144.455C163.193 144.254 163.021 144.082 162.849 144.082L158.374 143.881C158.174 143.853 157.829 143.996 158.001 144.426Z" fill="url(#paint13_linear_197_21151)"/>
<path d="M153.783 129L154.812 153.859H180.528C180.528 151.287 180.733 145.732 181.556 144.087" stroke="#979797" stroke-width="0.5"/>
<path d="M153.953 129L154.982 153.859H180.697C180.697 151.287 180.903 145.732 181.726 144.087" stroke="#B0B0B0" stroke-width="0.5"/>
<path d="M129.412 133.463C130.216 131.568 132.075 130.337 134.133 130.337H147.585C150.272 130.337 152.503 132.41 152.7 135.09C152.918 138.062 150.565 140.594 147.585 140.594H134.133C130.46 140.594 127.978 136.845 129.412 133.463Z" stroke="#979797" stroke-width="0.5"/>
<path d="M129.238 133.458C130.038 131.61 131.86 130.413 133.874 130.413H147.758C150.458 130.413 152.681 132.536 152.805 135.234V135.234C152.937 138.112 150.639 140.518 147.758 140.518H133.874C130.239 140.518 127.794 136.794 129.238 133.458V133.458Z" stroke="#B0B0B0"/>
<path fill-rule="evenodd" clip-rule="evenodd" d="M183.665 142.418L184.641 143.479L184.038 144.082L182.69 143.651L183.665 142.418Z" fill="url(#paint14_linear_197_21151)"/>
<path fill-rule="evenodd" clip-rule="evenodd" d="M180.023 143.078L180.454 139.98C180.54 139.435 181.199 139.119 181.945 139.378C183.494 139.951 184.097 143.221 184.039 143.365C183.638 144.168 182.576 144.111 181.343 144.111C180.511 144.111 179.937 143.652 180.023 143.078Z" fill="url(#paint15_linear_197_21151)"/>
<path fill-rule="evenodd" clip-rule="evenodd" d="M180.023 143.078L180.454 139.98C180.54 139.435 181.199 139.119 181.945 139.378C183.494 139.951 184.097 143.221 184.039 143.365C183.638 144.168 182.576 144.111 181.343 144.111C180.511 144.111 179.937 143.652 180.023 143.078Z" fill="url(#paint16_radial_197_21151)"/>
<path fill-rule="evenodd" clip-rule="evenodd" d="M180.023 143.078L180.454 139.98C180.54 139.435 181.199 139.119 181.945 139.378C183.494 139.951 184.097 143.221 184.039 143.365C183.638 144.168 182.576 144.111 181.343 144.111C180.511 144.111 179.937 143.652 180.023 143.078Z" fill="url(#paint17_linear_197_21151)"/>
<path d="M172.931 149.482C172.931 149.743 172.28 150.677 171.954 151.112H145.876C144.084 151.112 143.758 148.341 145.225 148.504C146.691 148.667 172.931 149.156 172.931 149.482Z" fill="#2D2C2F"/>
<defs>
<linearGradient id="paint0_linear_197_21151" x1="207.794" y1="149.169" x2="207.794" y2="158.141" gradientUnits="userSpaceOnUse">
<stop stop-color="#605B5F"/>
<stop offset="0.2754" stop-color="#262529"/>
<stop offset="0.4267" stop-color="#28272B"/>
<stop offset="0.5415" stop-color="#2D2C2F"/>
<stop offset="0.6444" stop-color="#353337"/>
<stop offset="0.7396" stop-color="#403E41"/>
<stop offset="0.8093" stop-color="#4B494C"/>
</linearGradient>
<linearGradient id="paint1_linear_197_21151" x1="127.274" y1="149.962" x2="127.274" y2="157.579" gradientUnits="userSpaceOnUse">
<stop stop-color="#605B5F"/>
<stop offset="0.2754" stop-color="#262529"/>
<stop offset="0.4267" stop-color="#28272B"/>
<stop offset="0.5415" stop-color="#2D2C2F"/>
<stop offset="0.6444" stop-color="#353337"/>
<stop offset="0.7396" stop-color="#403E41"/>
<stop offset="0.8093" stop-color="#4B494C"/>
</linearGradient>
<linearGradient id="paint2_linear_197_21151" x1="188.471" y1="154.655" x2="188.471" y2="157.022" gradientUnits="userSpaceOnUse">
<stop stop-color="#605B5F"/>
<stop offset="0.2754" stop-color="#262529"/>
<stop offset="0.4267" stop-color="#28272B"/>
<stop offset="0.5415" stop-color="#2D2C2F"/>
<stop offset="0.6444" stop-color="#353337"/>
<stop offset="0.7396" stop-color="#403E41"/>
<stop offset="0.8093" stop-color="#4B494C"/>
</linearGradient>
<radialGradient id="paint3_radial_197_21151" cx="0" cy="0" r="1" gradientUnits="userSpaceOnUse" gradientTransform="translate(189.423 156.435) rotate(180) scale(6.90304)">
<stop offset="0.8558" stop-color="#303030"/>
<stop offset="0.8635" stop-color="#333332"/>
<stop offset="0.9211" stop-color="#434243"/>
<stop offset="0.9687" stop-color="#4D4B4E"/>
<stop offset="1" stop-color="#514F52"/>
</radialGradient>
<radialGradient id="paint4_radial_197_21151" cx="0" cy="0" r="1" gradientUnits="userSpaceOnUse" gradientTransform="translate(189.425 156.435) rotate(180) scale(4.49729)">
<stop stop-color="white"/>
<stop offset="0.0310329" stop-color="#FAFAFA"/>
<stop offset="0.1737" stop-color="#F1F0F0"/>
<stop offset="0.6285" stop-color="#F1F0F0"/>
<stop offset="0.7034" stop-color="#F1F0F0"/>
<stop offset="0.843" stop-color="#EFEEEE"/>
<stop offset="0.8933" stop-color="#E8E7E7"/>
<stop offset="0.9292" stop-color="#DDDCDB"/>
<stop offset="0.9581" stop-color="#CDCCCC"/>
<stop offset="0.9827" stop-color="#BAB9B9"/>
<stop offset="1" stop-color="#A9A8A8"/>
</radialGradient>
<radialGradient id="paint5_radial_197_21151" cx="0" cy="0" r="1" gradientUnits="userSpaceOnUse" gradientTransform="translate(133.206 156.434) rotate(180) scale(6.90304)">
<stop offset="0.8558" stop-color="#303030"/>
<stop offset="0.8635" stop-color="#333332"/>
<stop offset="0.9211" stop-color="#434243"/>
<stop offset="0.9687" stop-color="#4D4B4E"/>
<stop offset="1" stop-color="#514F52"/>
</radialGradient>
<radialGradient id="paint6_radial_197_21151" cx="0" cy="0" r="1" gradientUnits="userSpaceOnUse" gradientTransform="translate(133.206 156.435) rotate(180) scale(4.4972)">
<stop stop-color="white"/>
<stop offset="0.0310329" stop-color="#FAFAFA"/>
<stop offset="0.1737" stop-color="#F1F0F0"/>
<stop offset="0.6285" stop-color="#F1F0F0"/>
<stop offset="0.7034" stop-color="#F1F0F0"/>
<stop offset="0.843" stop-color="#EFEEEE"/>
<stop offset="0.8933" stop-color="#E8E7E7"/>
<stop offset="0.9292" stop-color="#DDDCDB"/>
<stop offset="0.9581" stop-color="#CDCCCC"/>
<stop offset="0.9827" stop-color="#BAB9B9"/>
<stop offset="1" stop-color="#A9A8A8"/>
</radialGradient>
<linearGradient id="paint7_linear_197_21151" x1="186.274" y1="130.89" x2="186.274" y2="139.836" gradientUnits="userSpaceOnUse">
<stop stop-color="#605B5F"/>
<stop offset="0.2754" stop-color="#262529"/>
<stop offset="0.4267" stop-color="#28272B"/>
<stop offset="0.5415" stop-color="#2D2C2F"/>
<stop offset="0.6444" stop-color="#353337"/>
<stop offset="0.7396" stop-color="#403E41"/>
<stop offset="0.8093" stop-color="#4B494C"/>
</linearGradient>
<linearGradient id="paint8_linear_197_21151" x1="118.809" y1="130.332" x2="118.809" y2="139.277" gradientUnits="userSpaceOnUse">
<stop stop-color="#605B5F"/>
<stop offset="0.2754" stop-color="#262529"/>
<stop offset="0.4267" stop-color="#28272B"/>
<stop offset="0.5415" stop-color="#2D2C2F"/>
<stop offset="0.6444" stop-color="#353337"/>
<stop offset="0.7396" stop-color="#403E41"/>
<stop offset="0.8093" stop-color="#4B494C"/>
</linearGradient>
<linearGradient id="paint9_linear_197_21151" x1="122.464" y1="142.699" x2="118.632" y2="142.699" gradientUnits="userSpaceOnUse">
<stop stop-color="#DB2E27"/>
<stop offset="1" stop-color="#A01D20"/>
</linearGradient>
<linearGradient id="paint10_linear_197_21151" x1="120.135" y1="141.299" x2="118.973" y2="141.299" gradientUnits="userSpaceOnUse">
<stop stop-color="#DB2E27"/>
<stop offset="1" stop-color="#A01D20"/>
</linearGradient>
<linearGradient id="paint11_linear_197_21151" x1="204.513" y1="146.88" x2="198.184" y2="146.88" gradientUnits="userSpaceOnUse">
<stop stop-color="white"/>
<stop offset="0.1611" stop-color="#B3AFAF"/>
<stop offset="0.3578" stop-color="#787473"/>
<stop offset="0.5449" stop-color="#524F4E"/>
<stop offset="0.7175" stop-color="#3B3A39"/>
<stop offset="0.8703" stop-color="#2E2D2D"/>
<stop offset="0.9873" stop-color="#292929"/>
</linearGradient>
<linearGradient id="paint12_linear_197_21151" x1="162.772" y1="143.212" x2="162.772" y2="145.771" gradientUnits="userSpaceOnUse">
<stop stop-color="#A9A8A8"/>
<stop offset="0.1251" stop-color="#ABAAAA"/>
<stop offset="0.1721" stop-color="#B1B0B0"/>
<stop offset="0.206" stop-color="#BBBAB9"/>
<stop offset="0.2336" stop-color="#C9C9C8"/>
<stop offset="0.257" stop-color="#DDDDDD"/>
<stop offset="0.2669" stop-color="#E9E9E9"/>
<stop offset="0.5381" stop-color="#F3F3F3"/>
<stop offset="0.6992" stop-color="#E0E0DF"/>
<stop offset="0.766" stop-color="#BDBBBB"/>
<stop offset="0.8592" stop-color="#999797"/>
<stop offset="0.9334" stop-color="#858585"/>
<stop offset="0.9788" stop-color="#7E7E7E"/>
</linearGradient>
<linearGradient id="paint13_linear_197_21151" x1="163.124" y1="143.858" x2="163.124" y2="144.781" gradientUnits="userSpaceOnUse">
<stop stop-color="#989898"/>
<stop offset="0.2585" stop-color="#EBEBEB"/>
<stop offset="0.6907" stop-color="#5D5D5D"/>
</linearGradient>
<linearGradient id="paint14_linear_197_21151" x1="184.635" y1="142.431" x2="184.635" y2="144.085" gradientUnits="userSpaceOnUse">
<stop stop-color="#605B5F"/>
<stop offset="0.2754" stop-color="#010101"/>
<stop offset="0.7541" stop-color="#010101"/>
<stop offset="0.8093" stop-color="#010101"/>
</linearGradient>
<linearGradient id="paint15_linear_197_21151" x1="183.959" y1="144.456" x2="179.985" y2="144.08" gradientUnits="userSpaceOnUse">
<stop offset="0.2119" stop-color="#782C16"/>
<stop offset="0.3983" stop-color="#CB4827"/>
<stop offset="0.6034" stop-color="#CD4927"/>
<stop offset="0.7017" stop-color="#D44C26"/>
<stop offset="0.7771" stop-color="#E05225"/>
<stop offset="0.8256" stop-color="#F15822"/>
<stop offset="0.9915" stop-color="#D04A27"/>
</linearGradient>
<radialGradient id="paint16_radial_197_21151" cx="0" cy="0" r="1" gradientUnits="userSpaceOnUse" gradientTransform="translate(181.472 141.726) rotate(-172.277) scale(2.37823 2.83335)">
<stop stop-color="white"/>
<stop offset="0.225" stop-color="#F9F8F8"/>
<stop offset="0.4449" stop-color="#ECEBEA"/>
<stop offset="0.6628" stop-color="#D9D8D8"/>
<stop offset="0.8782" stop-color="#C1C0C0"/>
<stop offset="1" stop-color="#B0B1B1"/>
</radialGradient>
<linearGradient id="paint17_linear_197_21151" x1="183.551" y1="140.195" x2="182.764" y2="141.817" gradientUnits="userSpaceOnUse">
<stop stop-color="#717171"/>
<stop offset="0.339" stop-color="#959494"/>
<stop offset="0.372" stop-color="#898888"/>
<stop offset="0.5012" stop-color="#5F5F5E"/>
<stop offset="0.625" stop-color="#404140"/>
<stop offset="0.7401" stop-color="#2A2A2A"/>
<stop offset="0.8444" stop-color="#171818"/>
<stop offset="0.9345" stop-color="#080808"/>
<stop offset="1" stop-color="#010101"/>
</linearGradient>
</defs>
</svg>
