<svg width="30" height="30" viewBox="0 0 30 30" fill="none" xmlns="http://www.w3.org/2000/svg">
<path d="M0 6.5C0 2.91015 2.81627 0 6.29032 0L22.7419 0C26.216 0 29.0323 2.91015 29.0323 6.5L29.0323 23.5C29.0323 27.0899 26.216 30 22.7419 30L6.29032 30C2.81627 30 0 27.0899 0 23.5L0 6.5Z" fill="#019DF4"/>
<path d="M4.04541 4.38612C3.68556 4.38933 3.0225 4.56248 2.72263 5.7489C2.58935 6.26835 2.53937 6.80705 2.65265 7.45155C2.75595 8.04476 2.94253 8.55783 3.06582 8.83678C3.10913 8.93299 3.17577 9.03558 3.22575 9.09651C3.37236 9.27608 3.61892 9.26324 3.72221 9.21515C3.8355 9.16065 3.96545 9.03237 3.91547 8.74058C3.89214 8.59949 3.82884 8.39107 3.79219 8.27563C3.6789 7.92291 3.52896 7.49324 3.51563 7.19182C3.49897 6.78461 3.66557 6.7301 3.77552 6.70765C3.96211 6.66917 4.11872 6.86478 4.26532 7.11167C4.44192 7.40667 4.74513 7.92612 4.99169 8.32693C5.21493 8.68607 5.6281 9.07086 6.28782 9.04521C6.96421 9.01956 7.46067 8.76944 7.71723 7.99026C7.91048 7.40667 8.04045 6.97058 8.25036 6.52488C8.49358 6.01183 8.81345 5.73607 9.08667 5.81944C9.33989 5.8964 9.4032 6.13368 9.40655 6.48319C9.40986 6.79102 9.37322 7.13093 9.34324 7.38102C9.33323 7.47081 9.31325 7.65359 9.31991 7.75618C9.33658 7.95498 9.42321 8.15378 9.65645 8.18585C9.90301 8.22113 10.1029 8.02875 10.1829 7.79788C10.2129 7.70809 10.2395 7.56701 10.2562 7.4676C10.3295 6.97058 10.3495 6.6339 10.3162 6.12406C10.2762 5.52765 10.1562 4.98254 9.94631 4.51118C9.74309 4.06226 9.41987 3.77368 9.00004 3.74803C8.53691 3.71917 8.00712 4.01417 7.73055 4.58814C7.47399 5.114 7.27077 5.65591 7.14414 5.93167C7.01752 6.21064 6.83427 6.38379 6.54773 6.41265C6.19787 6.44792 5.89798 6.20422 5.67807 5.85792C5.48482 5.5565 5.10498 4.97933 4.90173 4.78694C4.71847 4.60737 4.49856 4.37971 4.04541 4.38612Z" fill="white"/>
<path d="M23.8065 17.0007C23.8065 23.4421 20.1126 25.6673 14.918 25.6673C7.64559 25.6673 5.91406 21.334 5.91406 17.0007C5.91406 12.6673 7.81875 8.33398 14.918 8.33398C21.7287 8.33398 23.8065 12.2142 23.8065 17.0007Z" fill="white"/>
<path d="M11.3554 20.9844C10.9941 18.8839 11.0149 14.848 11.3566 12.8829C11.4454 12.3717 11.9789 12.1296 12.4695 12.3366C14.7159 13.2845 18.0246 15.2268 19.7208 16.3869C20.1475 16.6788 20.1993 17.2113 19.7832 17.5173C18.2452 18.6484 14.5955 20.6417 12.5121 21.5524C12.0059 21.7736 11.4466 21.5151 11.3554 20.9844Z" fill="#5CB615"/>
</svg>
