<svg width="45" height="36" viewBox="0 0 45 36" fill="none" xmlns="http://www.w3.org/2000/svg">
<path fill-rule="evenodd" clip-rule="evenodd" d="M23.4798 35.0366C33.0171 35.0366 40.7487 27.1934 40.7487 17.5183C40.7487 7.84321 33.0171 0 23.4798 0C13.9425 0 6.21094 7.84321 6.21094 17.5183C6.21094 27.1934 13.9425 35.0366 23.4798 35.0366Z" fill="#7ADFF0" fill-opacity="0.15"/>
<path fill-rule="evenodd" clip-rule="evenodd" d="M23.2138 27.4902C28.7895 27.4902 33.3094 22.905 33.3094 17.2488C33.3094 11.5926 28.7895 7.00732 23.2138 7.00732C17.6381 7.00732 13.1182 11.5926 13.1182 17.2488C13.1182 22.905 17.6381 27.4902 23.2138 27.4902Z" fill="#7ADFF0"/>
<path d="M28.0568 22.939H23.6787V18.3784H28.3694V22.6349C28.3694 22.8028 28.2293 22.939 28.0568 22.939Z" fill="white"/>
<path d="M18.128 22.939C17.9555 22.939 17.8154 22.8028 17.8154 22.6349V18.3784H22.5061V22.939H18.128Z" fill="white"/>
<path d="M29.034 17.2384H23.6787V14.578H29.034C29.2065 14.578 29.3466 14.7142 29.3466 14.882V16.9344C29.3466 17.102 29.2065 17.2384 29.034 17.2384Z" fill="white"/>
<path d="M17.1505 17.2384C16.978 17.2384 16.8379 17.102 16.8379 16.9344V14.882C16.8379 14.7142 16.978 14.578 17.1505 14.578H22.5057V17.2384H17.1505Z" fill="white"/>
<path d="M20.6273 14.5781H25.5563C26.3091 14.2412 26.9016 13.7151 27.1844 13.2056C27.4493 12.7287 27.4619 12.2686 27.2141 11.902C26.9501 11.5317 26.4647 11.3195 25.8835 11.3195C24.8161 11.3195 23.597 12.0269 23.0919 13.5518C22.5867 12.0269 21.3676 11.3195 20.3002 11.3195C19.7188 11.3195 19.2336 11.5317 18.9639 11.9104C18.7217 12.2687 18.7344 12.7287 18.9993 13.2054C19.2821 13.715 19.8746 14.2412 20.6273 14.5781ZM25.8834 12.0796C26.1952 12.0796 26.4594 12.1775 26.5662 12.3271C26.6738 12.4867 26.5533 12.7421 26.4964 12.8445C26.1109 13.5381 24.932 14.2534 23.7289 14.1686C24.0357 12.7363 25.0293 12.0796 25.8834 12.0796ZM19.6115 12.3355C19.7242 12.1775 19.9883 12.0796 20.3002 12.0796C21.1542 12.0796 22.1478 12.7363 22.4547 14.1685C22.3863 14.1734 22.3181 14.1757 22.2497 14.1757C22.2493 14.1757 22.2493 14.1757 22.2493 14.1757C21.1082 14.1757 20.0506 13.4987 19.687 12.8442C19.6303 12.7421 19.5098 12.4867 19.6115 12.3355Z" fill="white"/>
<path fill-rule="evenodd" clip-rule="evenodd" d="M44.0887 6.76556C45.0903 5.99666 45.1237 5.65685 44.8626 5.33346C44.6019 5.00978 44.2555 4.9614 43.2538 5.7303C42.2524 6.49921 42.2188 6.83872 42.4798 7.1624C42.7409 7.48609 43.087 7.53446 44.0887 6.76556Z" fill="#3AD5F1"/>
<path fill-rule="evenodd" clip-rule="evenodd" d="M41.8441 14.2461C41.0573 14.6133 40.7672 14.9382 41.0436 15.5023C41.3202 16.066 41.7615 16.0496 42.5483 15.6823C43.3351 15.315 43.6253 14.9902 43.3489 14.4264C43.0723 13.8623 42.631 13.8788 41.8441 14.2461Z" fill="#FF7C9A"/>
<path fill-rule="evenodd" clip-rule="evenodd" d="M37.5106 2.4186C37.5106 1.69419 37.1137 1.35767 36.4282 1.35767C35.7423 1.35767 35.3457 1.69419 35.3457 2.4186C35.3457 3.14301 35.7423 3.47954 36.4282 3.47954C37.1137 3.47954 37.5106 3.14301 37.5106 2.4186Z" fill="#5AD73C"/>
<path fill-rule="evenodd" clip-rule="evenodd" d="M37.9893 30.9881C37.9893 30.3906 38.3164 30.1128 38.8808 30.1128C39.4453 30.1128 39.772 30.3906 39.772 30.9881C39.772 31.5857 39.4453 31.8635 38.8808 31.8635C38.3164 31.8635 37.9893 31.5857 37.9893 30.9881Z" fill="#FF9BA7"/>
<path fill-rule="evenodd" clip-rule="evenodd" d="M1.13647 20.243C0.363779 20.8715 0.348888 21.5665 0.943474 22.2623C1.53751 22.9583 2.2404 23.0692 3.01275 22.4405C3.78544 21.812 3.80033 21.1171 3.20608 20.4214C2.61205 19.7254 1.90916 19.6146 1.13647 20.243Z" fill="#FF7C9A"/>
<path fill-rule="evenodd" clip-rule="evenodd" d="M6.81465 2.32521C6.40357 2.65964 6.39585 3.02929 6.71209 3.39961C7.02778 3.77004 7.40218 3.82911 7.81292 3.49447C8.22399 3.16004 8.23227 2.79026 7.91603 2.41994C7.59979 2.04963 7.22573 1.99078 6.81465 2.32521Z" fill="#94E37A"/>
<path fill-rule="evenodd" clip-rule="evenodd" d="M5.76583 26.5547C5.35475 26.8891 5.34702 27.2588 5.66326 27.6291C5.97896 27.9995 6.35335 28.0586 6.76409 27.724C7.17517 27.3895 7.18345 27.0197 6.8672 26.6494C6.55096 26.2791 6.1769 26.2203 5.76583 26.5547Z" fill="#F8C366"/>
</svg>
