<svg width="45" height="35" viewBox="0 0 45 35" fill="none" xmlns="http://www.w3.org/2000/svg">
<g id="Group 85">
<path id="Fill 1" fill-rule="evenodd" clip-rule="evenodd" d="M38.2994 5.13525L38.4798 32.0858C38.6603 33.2543 37.6958 34.2024 36.5074 34.2024H3.02382C1.8354 34.2024 0.871094 33.2543 0.871094 32.0858V5.13525C0.871094 3.96448 1.8354 3.01868 3.02382 3.01868H36.5074C37.6958 3.01868 38.4798 3.96448 38.2994 5.13525Z" fill="#E1EEEF"/>
<path id="Fill 3" fill-rule="evenodd" clip-rule="evenodd" d="M37.789 4.66083V31.6114C37.789 32.7799 36.8247 33.728 35.6363 33.728H2.15273C0.964308 33.728 0 32.7799 0 31.6114V4.66083C0 3.49006 0.964308 2.54425 2.15273 2.54425H35.6363C36.8247 2.54425 37.789 3.49006 37.789 4.66083Z" fill="#CAEFFB"/>
<path id="Fill 5" fill-rule="evenodd" clip-rule="evenodd" d="M37.789 4.66083V8.42879H0V4.66083C0 3.49006 0.964308 2.54425 2.15273 2.54425H35.6363C36.8247 2.54425 37.789 3.49006 37.789 4.66083Z" fill="#A8E5F9"/>
<path id="Fill 7" fill-rule="evenodd" clip-rule="evenodd" d="M10.2338 16.75H5.69314C5.46612 16.75 5.28223 16.569 5.28223 16.3462V11.8822C5.28223 11.659 5.46612 11.478 5.69314 11.478H10.2338C10.4608 11.478 10.6445 11.659 10.6445 11.8822V16.3462C10.6445 16.569 10.4608 16.75 10.2338 16.75Z" fill="#EBFBFF"/>
<path id="Fill 9" fill-rule="evenodd" clip-rule="evenodd" d="M17.8734 16.75H13.3328C13.1058 16.75 12.9219 16.569 12.9219 16.3462V11.8822C12.9219 11.659 13.1058 11.478 13.3328 11.478H17.8734C18.1003 11.478 18.2842 11.659 18.2842 11.8822V16.3462C18.2842 16.569 18.1003 16.75 17.8734 16.75Z" fill="#EBFBFF"/>
<path id="Fill 11" fill-rule="evenodd" clip-rule="evenodd" d="M25.5121 16.75H20.9713C20.7444 16.75 20.5605 16.569 20.5605 16.3462V11.8822C20.5605 11.659 20.7444 11.478 20.9713 11.478H25.5121C25.739 11.478 25.9228 11.659 25.9228 11.8822V16.3462C25.9228 16.569 25.739 16.75 25.5121 16.75Z" fill="#EBFBFF"/>
<path id="Fill 13" fill-rule="evenodd" clip-rule="evenodd" d="M33.1526 16.75H28.6119C28.3851 16.75 28.2012 16.569 28.2012 16.3462V11.8822C28.2012 11.659 28.3851 11.478 28.6119 11.478H33.1526C33.3796 11.478 33.5635 11.659 33.5635 11.8822V16.3462C33.5635 16.569 33.3796 16.75 33.1526 16.75Z" fill="#EBFBFF"/>
<path id="Fill 15" fill-rule="evenodd" clip-rule="evenodd" d="M10.2338 23.8236H5.69314C5.46612 23.8236 5.28223 23.6426 5.28223 23.4198V18.9556C5.28223 18.7326 5.46612 18.5516 5.69314 18.5516H10.2338C10.4608 18.5516 10.6445 18.7326 10.6445 18.9556V23.4198C10.6445 23.6426 10.4608 23.8236 10.2338 23.8236Z" fill="#EBFBFF"/>
<path id="Fill 17" fill-rule="evenodd" clip-rule="evenodd" d="M17.8734 23.8236H13.3328C13.1058 23.8236 12.9219 23.6426 12.9219 23.4198V18.9556C12.9219 18.7326 13.1058 18.5516 13.3328 18.5516H17.8734C18.1003 18.5516 18.2842 18.7326 18.2842 18.9556V23.4198C18.2842 23.6426 18.1003 23.8236 17.8734 23.8236Z" fill="#EBFBFF"/>
<path id="Fill 19" fill-rule="evenodd" clip-rule="evenodd" d="M25.5121 23.8236H20.9713C20.7444 23.8236 20.5605 23.6426 20.5605 23.4198V18.9556C20.5605 18.7326 20.7444 18.5516 20.9713 18.5516H25.5121C25.739 18.5516 25.9228 18.7326 25.9228 18.9556V23.4198C25.9228 23.6426 25.739 23.8236 25.5121 23.8236Z" fill="#EBFBFF"/>
<path id="Fill 21" fill-rule="evenodd" clip-rule="evenodd" d="M33.1526 23.8236H28.6119C28.3851 23.8236 28.2012 23.6426 28.2012 23.4198V18.9556C28.2012 18.7326 28.3851 18.5516 28.6119 18.5516H33.1526C33.3796 18.5516 33.5635 18.7326 33.5635 18.9556V23.4198C33.5635 23.6426 33.3796 23.8236 33.1526 23.8236Z" fill="#EBFBFF"/>
<path id="Fill 23" fill-rule="evenodd" clip-rule="evenodd" d="M10.2338 30.8972H5.69314C5.46612 30.8972 5.28223 30.7163 5.28223 30.4933V26.0293C5.28223 25.8063 5.46612 25.6253 5.69314 25.6253H10.2338C10.4608 25.6253 10.6445 25.8063 10.6445 26.0293V30.4933C10.6445 30.7163 10.4608 30.8972 10.2338 30.8972Z" fill="#EBFBFF"/>
<path id="Fill 25" fill-rule="evenodd" clip-rule="evenodd" d="M17.8734 30.8972H13.3328C13.1058 30.8972 12.9219 30.7163 12.9219 30.4933V26.0293C12.9219 25.8063 13.1058 25.6253 13.3328 25.6253H17.8734C18.1003 25.6253 18.2842 25.8063 18.2842 26.0293V30.4933C18.2842 30.7163 18.1003 30.8972 17.8734 30.8972Z" fill="#EBFBFF"/>
<path id="Fill 27" fill-rule="evenodd" clip-rule="evenodd" d="M25.5121 30.8972H20.9713C20.7444 30.8972 20.5605 30.7163 20.5605 30.4933V26.0293C20.5605 25.8063 20.7444 25.6253 20.9713 25.6253H25.5121C25.739 25.6253 25.9228 25.8063 25.9228 26.0293V30.4933C25.9228 30.7163 25.739 30.8972 25.5121 30.8972Z" fill="#EBFBFF"/>
<path id="Fill 29" fill-rule="evenodd" clip-rule="evenodd" d="M33.1526 30.8972H28.6119C28.3851 30.8972 28.2012 30.7163 28.2012 30.4933V26.0293C28.2012 25.8063 28.3851 25.6253 28.6119 25.6253H33.1526C33.3796 25.6253 33.5635 25.8063 33.5635 26.0293V30.4933C33.5635 30.7163 33.3796 30.8972 33.1526 30.8972Z" fill="#EBFBFF"/>
<path id="Fill 31" fill-rule="evenodd" clip-rule="evenodd" d="M7.97718 5.86367C7.97718 6.46369 7.48252 6.94981 6.87238 6.94981C6.26223 6.94981 5.76758 6.46369 5.76758 5.86367C5.76758 5.26382 6.26223 4.77753 6.87238 4.77753C7.48252 4.77753 7.97718 5.26382 7.97718 5.86367Z" fill="#1B6677"/>
<path id="Stroke 33" d="M6.9056 5.61503V2" stroke="#5EC6DE" stroke-width="2.79515" stroke-linecap="round"/>
<path id="Fill 35" fill-rule="evenodd" clip-rule="evenodd" d="M16.4137 5.86367C16.4137 6.46369 15.919 6.94981 15.3089 6.94981C14.6988 6.94981 14.2041 6.46369 14.2041 5.86367C14.2041 5.26382 14.6988 4.77753 15.3089 4.77753C15.919 4.77753 16.4137 5.26382 16.4137 5.86367Z" fill="#1B6677"/>
<path id="Stroke 37" d="M15.3421 5.61503V2" stroke="#5EC6DE" stroke-width="2.79515" stroke-linecap="round"/>
<path id="Fill 39" fill-rule="evenodd" clip-rule="evenodd" d="M24.8502 5.86367C24.8502 6.46369 24.3558 6.94981 23.7454 6.94981C23.1353 6.94981 22.6406 6.46369 22.6406 5.86367C22.6406 5.26382 23.1353 4.77753 23.7454 4.77753C24.3558 4.77753 24.8502 5.26382 24.8502 5.86367Z" fill="#1B6677"/>
<path id="Stroke 41" d="M23.7796 5.61503V2" stroke="#5EC6DE" stroke-width="2.79515" stroke-linecap="round"/>
<path id="Fill 43" fill-rule="evenodd" clip-rule="evenodd" d="M33.2869 5.86367C33.2869 6.46369 32.7923 6.94981 32.1821 6.94981C31.5718 6.94981 31.0771 6.46369 31.0771 5.86367C31.0771 5.26382 31.5718 4.77753 32.1821 4.77753C32.7923 4.77753 33.2869 5.26382 33.2869 5.86367Z" fill="#1B6677"/>
<path id="Stroke 45" d="M32.2152 5.61503V2" stroke="#5EC6DE" stroke-width="2.79515" stroke-linecap="round"/>
<path id="Stroke 47" d="M6.39062 14.4798L7.68365 15.5427L9.54675 12.9973" stroke="#7CD7F4" stroke-width="1.35938" stroke-linecap="round" stroke-linejoin="round"/>
<path id="Stroke 49" d="M13.7637 14.4798L15.0567 15.5427L16.9198 12.9973" stroke="#7CD7F4" stroke-width="1.35938" stroke-linecap="round" stroke-linejoin="round"/>
<path id="Stroke 51" d="M21.498 14.4798L22.7911 15.5427L24.6542 12.9973" stroke="#7CD7F4" stroke-width="1.35938" stroke-linecap="round" stroke-linejoin="round"/>
<path id="Stroke 53" d="M29.0527 14.4798L30.3458 15.5427L32.2089 12.9973" stroke="#7CD7F4" stroke-width="1.35938" stroke-linecap="round" stroke-linejoin="round"/>
<path id="Stroke 55" d="M6.39062 21.399L7.68365 22.4619L9.54675 19.9165" stroke="#7CD7F4" stroke-width="1.35938" stroke-linecap="round" stroke-linejoin="round"/>
<path id="Stroke 57" d="M13.7637 21.399L15.0567 22.4619L16.9198 19.9165" stroke="#7CD7F4" stroke-width="1.35938" stroke-linecap="round" stroke-linejoin="round"/>
<path id="Fill 59" fill-rule="evenodd" clip-rule="evenodd" d="M44.2366 25.7202C44.2366 30.4902 40.3036 34.357 35.4521 34.357C30.6008 34.357 26.668 30.4902 26.668 25.7202C26.668 20.9502 30.6008 17.0833 35.4521 17.0833C40.3036 17.0833 44.2366 20.9502 44.2366 25.7202Z" fill="white"/>
<path id="Fill 61" fill-rule="evenodd" clip-rule="evenodd" d="M30.4897 22.0682C30.4335 22.0682 30.3768 22.0471 30.3337 22.0047L29.9671 21.6438C29.8807 21.5592 29.8807 21.4213 29.9671 21.3367C30.0533 21.2515 30.1929 21.2515 30.2793 21.3367L30.6459 21.6974C30.7323 21.7822 30.7323 21.9199 30.6459 22.0047C30.6028 22.0471 30.5462 22.0682 30.4897 22.0682Z" fill="#B8E8F4"/>
<path id="Fill 63" fill-rule="evenodd" clip-rule="evenodd" d="M39.8688 30.2721C39.8124 30.2721 39.7557 30.251 39.7127 30.2086L39.346 29.8478C39.2597 29.763 39.2597 29.6253 39.346 29.5405C39.4322 29.4555 39.572 29.4555 39.6584 29.5405L40.025 29.9012C40.1112 29.9862 40.1112 30.1236 40.025 30.2086C39.9819 30.251 39.9253 30.2721 39.8688 30.2721Z" fill="#B8E8F4"/>
<path id="Fill 65" fill-rule="evenodd" clip-rule="evenodd" d="M31.1231 30.2721C31.0669 30.2721 31.0102 30.251 30.9671 30.2086C30.8807 30.1236 30.8807 29.9862 30.9671 29.9012L31.3337 29.5405C31.4199 29.4555 31.5597 29.4555 31.6459 29.5405C31.7323 29.6253 31.7323 29.763 31.6459 29.8478L31.2793 30.2086C31.2362 30.251 31.1796 30.2721 31.1231 30.2721Z" fill="#B8E8F4"/>
<path id="Fill 67" fill-rule="evenodd" clip-rule="evenodd" d="M40.5022 22.0682C40.4458 22.0682 40.3891 22.0471 40.346 22.0047C40.2597 21.9199 40.2597 21.7822 40.346 21.6974L40.7127 21.3367C40.799 21.2515 40.9388 21.2515 41.025 21.3367C41.1112 21.4213 41.1112 21.5592 41.025 21.6438L40.6584 22.0047C40.6153 22.0471 40.5586 22.0682 40.5022 22.0682Z" fill="#B8E8F4"/>
<path id="Fill 69" fill-rule="evenodd" clip-rule="evenodd" d="M35.994 19.4894C35.994 19.764 35.7677 19.9867 35.4885 19.9867C35.2094 19.9867 34.9834 19.764 34.9834 19.4894C34.9834 19.2147 35.2094 18.9921 35.4885 18.9921C35.7677 18.9921 35.994 19.2147 35.994 19.4894Z" fill="#55D5F2"/>
<path id="Fill 71" fill-rule="evenodd" clip-rule="evenodd" d="M35.994 31.9559C35.994 32.2303 35.7677 32.453 35.4885 32.453C35.2094 32.453 34.9834 32.2303 34.9834 31.9559C34.9834 31.6812 35.2094 31.4586 35.4885 31.4586C35.7677 31.4586 35.994 31.6812 35.994 31.9559Z" fill="#55D5F2"/>
<path id="Fill 73" fill-rule="evenodd" clip-rule="evenodd" d="M29.1314 26.2253C29.4106 26.2253 29.6369 26.4479 29.6369 26.7226C29.6369 26.9972 29.4106 27.2197 29.1314 27.2197C28.8523 27.2197 28.626 26.9972 28.626 26.7226C28.626 26.4479 28.8523 26.2253 29.1314 26.2253Z" fill="#55D5F2"/>
<path id="Fill 75" fill-rule="evenodd" clip-rule="evenodd" d="M41.8463 26.2253C42.1254 26.2253 42.3518 26.4479 42.3518 26.7226C42.3518 26.9972 42.1254 27.2197 41.8463 27.2197C41.5671 27.2197 41.3408 26.9972 41.3408 26.7226C41.3408 26.4479 41.5671 26.2253 41.8463 26.2253Z" fill="#55D5F2"/>
<path id="Fill 77" fill-rule="evenodd" clip-rule="evenodd" d="M31.3806 22.8107L34.9689 26.9897C35.0626 27.1155 35.2072 27.2035 35.3775 27.2177C35.6904 27.2438 35.9656 27.0157 35.9924 26.708C36.0126 26.4752 35.8843 26.2641 35.6852 26.1635L31.4896 22.703C31.4171 22.6431 31.3194 22.7394 31.3806 22.8107Z" fill="#019DF4"/>
<path id="Stroke 79" d="M30.4307 18.6763C31.846 17.6232 33.6002 17 35.4999 17C40.1943 17 44 20.8055 44 25.4999C44 30.1943 40.1943 34 35.4999 34C31.8415 34 28.7226 31.6885 27.5244 28.4462C27.1853 27.5284 27 26.5358 27 25.4999C27 24.746 27.098 24.0151 27.2823 23.319" stroke="#019DF4" stroke-width="2" stroke-linecap="round"/>
<path id="Stroke 81" d="M27.4133 21.5165L25.4316 23.5032" stroke="#019DF4" stroke-width="2" stroke-linecap="round"/>
<path id="Stroke 83" d="M27.459 21.5565L29.4407 23.5432" stroke="#019DF4" stroke-width="2" stroke-linecap="round"/>
</g>
</svg>
