<svg width="117" height="30" viewBox="0 0 117 30" fill="none" xmlns="http://www.w3.org/2000/svg">
<path fill-rule="evenodd" clip-rule="evenodd" d="M56.9087 12.5677H58.1018L58.1715 13.1911C59.0939 12.6143 60.0051 12.3252 60.9047 12.3252C61.9541 12.3252 62.7211 12.6432 63.2053 13.2777C64.2547 12.6432 65.2696 12.3252 66.2501 12.3252C67.1841 12.3252 67.8935 12.5738 68.3781 13.0701C68.8503 13.5435 69.087 14.2823 69.087 15.2861V21.0518H67.6511V15.4588C67.6511 15.1017 67.6195 14.8098 67.5562 14.5849C67.4925 14.3601 67.386 14.1725 67.2362 14.0221C66.9478 13.7339 66.5036 13.5891 65.9041 13.5891C65.558 13.5891 65.1831 13.639 64.7793 13.7367C64.3756 13.835 63.9895 13.976 63.6207 14.1608C63.7011 14.5184 63.7411 14.8941 63.7411 15.2861V21.0518H62.3062V15.4588C62.3062 15.1017 62.2736 14.8098 62.2104 14.5849C62.1471 14.3601 62.0401 14.1725 61.8908 14.0221C61.6024 13.7339 61.1582 13.5891 60.5587 13.5891C59.8549 13.5891 59.1167 13.7744 58.3446 14.1436V21.0518H56.9087V12.5677Z" fill="white"/>
<path fill-rule="evenodd" clip-rule="evenodd" d="M76.6301 19.3294C76.9645 18.8159 77.1319 17.9589 77.1319 16.7582C77.1319 15.6735 76.9645 14.8681 76.6301 14.3435C76.2956 13.8183 75.7765 13.5553 75.0732 13.5553C74.7504 13.5553 74.3927 13.607 74.0011 13.7113C73.6085 13.8151 73.2457 13.9538 72.9113 14.127V19.5808C73.1648 19.7307 73.4815 19.8546 73.8625 19.9528C74.243 20.051 74.6118 20.0999 74.9695 20.0999C75.7421 20.0999 76.2956 19.8434 76.6301 19.3294ZM71.4756 12.5678H72.6687L72.7384 13.1911C73.165 12.903 73.612 12.6865 74.079 12.5417C74.546 12.3978 74.9809 12.3257 75.3846 12.3257C76.4577 12.3257 77.2675 12.7209 77.8155 13.5114C78.3634 14.3024 78.6369 15.3904 78.6369 16.7754C78.6369 18.3219 78.3485 19.462 77.7722 20.1948C77.1954 20.9275 76.3824 21.2939 75.333 21.2939C74.8948 21.2939 74.4595 21.2362 74.0269 21.1207C73.5948 21.0057 73.2227 20.8498 72.9115 20.6533V24.9475H71.4756V12.5678Z" fill="white"/>
<path fill-rule="evenodd" clip-rule="evenodd" d="M80.6084 12.5677H81.8015L81.8885 13.2949C82.6611 12.6487 83.4625 12.3252 84.2928 12.3252C84.4658 12.3252 84.65 12.3429 84.8463 12.3773V13.659C84.5923 13.6357 84.3449 13.6241 84.1025 13.6241C83.3416 13.6241 82.655 13.8145 82.0443 14.1953V21.0518H80.6084V12.5677Z" fill="white"/>
<path fill-rule="evenodd" clip-rule="evenodd" d="M91.3342 16.2563C91.311 15.402 91.1268 14.727 90.7807 14.2303C90.4346 13.7345 89.9216 13.4863 89.2411 13.4863C88.5373 13.4863 88.0043 13.7284 87.6415 14.213C87.2777 14.6981 87.0903 15.3792 87.0791 16.2563H91.3342ZM86.6803 20.2725C85.9421 19.5342 85.5732 18.3852 85.5732 16.8275C85.5732 15.3615 85.9044 14.2447 86.5677 13.477C87.231 12.7098 88.1218 12.3257 89.2404 12.3257C90.4051 12.3257 91.2819 12.7153 91.8699 13.4942C92.4583 14.2735 92.7522 15.3731 92.7522 16.7926V17.1212C92.7522 17.2488 92.6829 17.3121 92.5448 17.3121H87.0784C87.0784 18.293 87.3259 19.0146 87.8217 19.476C88.0524 19.6957 88.3408 19.8568 88.6869 19.9611C89.033 20.0649 89.4651 20.117 89.9846 20.117C90.6647 20.117 91.3624 20.0421 92.0778 19.8917L92.2155 20.9652C91.8582 21.0691 91.4517 21.1496 90.9963 21.2078C90.5405 21.2651 90.1112 21.2939 89.7074 21.2939C88.3697 21.2939 87.3608 20.9541 86.6803 20.2725Z" fill="white"/>
<path fill-rule="evenodd" clip-rule="evenodd" d="M95.7009 21.1901C95.2339 21.1207 94.8385 21.0341 94.5162 20.9298L94.5855 19.8223C94.9315 19.915 95.3204 19.9894 95.7525 20.0472C96.1856 20.1054 96.5856 20.1338 96.9549 20.1338C97.647 20.1338 98.1745 20.0211 98.5382 19.7962C98.9011 19.5709 99.0829 19.2395 99.0829 18.8004C99.0829 18.4313 98.9276 18.1543 98.6159 17.9694C98.3047 17.7851 97.814 17.5886 97.1452 17.3805C96.5456 17.1845 96.0642 17.003 95.7009 16.8354C95.3376 16.6683 95.0232 16.4173 94.7585 16.0821C94.4925 15.7479 94.3604 15.3093 94.3604 14.7665C94.3604 13.97 94.6399 13.3638 95.1995 12.9486C95.7586 12.5328 96.5051 12.3252 97.4391 12.3252C97.8545 12.3252 98.2843 12.3596 98.7285 12.4295C99.1722 12.4984 99.5676 12.585 99.9132 12.6888L99.7923 13.7451C98.9848 13.5603 98.241 13.4681 97.5605 13.4681C96.3265 13.4681 95.7097 13.8666 95.7097 14.6627C95.7097 15.0435 95.8679 15.3321 96.1856 15.5286C96.5023 15.7251 96.9954 15.9262 97.6647 16.1343C98.241 16.3075 98.7164 16.4806 99.0913 16.6538C99.4662 16.827 99.7834 17.0779 100.043 17.4071C100.303 17.7357 100.432 18.1659 100.432 18.6971C100.432 19.5625 100.127 20.2115 99.515 20.6445C98.9038 21.0774 98.068 21.2939 97.007 21.2939C96.6028 21.2939 96.1679 21.259 95.7009 21.1901Z" fill="white"/>
<path fill-rule="evenodd" clip-rule="evenodd" d="M106.296 19.9785C106.688 19.8742 107.045 19.742 107.368 19.5805V17.0526H105.811C104.923 17.0526 104.295 17.1969 103.926 17.4855C103.614 17.7392 103.459 18.1145 103.459 18.6107C103.459 19.1186 103.609 19.4999 103.909 19.7536C104.209 20.0074 104.641 20.1345 105.206 20.1345C105.54 20.1345 105.904 20.0823 106.296 19.9785ZM102.681 20.4801C102.231 20.0072 102.006 19.3954 102.006 18.645C102.006 17.8722 102.248 17.26 102.732 16.8098C103.321 16.2674 104.278 15.996 105.604 15.996H107.368V15.4588C107.368 15.1134 107.334 14.8247 107.265 14.5938C107.195 14.3624 107.086 14.1725 106.936 14.0221C106.59 13.6874 106.002 13.5203 105.172 13.5203C104.479 13.5203 103.719 13.5892 102.888 13.7279L102.837 12.6199C103.655 12.4234 104.514 12.3257 105.414 12.3257C106.625 12.3257 107.507 12.585 108.061 13.1045C108.325 13.3587 108.516 13.6674 108.631 14.031C108.747 14.3946 108.804 14.8531 108.804 15.4076V21.0518H107.645L107.559 20.4801C106.728 21.023 105.84 21.2939 104.894 21.2939C103.938 21.2939 103.199 21.023 102.681 20.4801Z" fill="white"/>
<mask id="mask0_16_9228" style="mask-type:luminance" maskUnits="userSpaceOnUse" x="110" y="12" width="7" height="10">
<path fill-rule="evenodd" clip-rule="evenodd" d="M110.776 12.3252H116.848V21.2939H110.776V12.3252Z" fill="white"/>
</mask>
<g mask="url(#mask0_16_9228)">
<path fill-rule="evenodd" clip-rule="evenodd" d="M112.117 21.1901C111.65 21.1207 111.255 21.0341 110.932 20.9298L111.001 19.8223C111.348 19.915 111.736 19.9894 112.169 20.0472C112.602 20.1054 113.002 20.1338 113.371 20.1338C114.063 20.1338 114.591 20.0211 114.954 19.7962C115.317 19.5709 115.499 19.2395 115.499 18.8004C115.499 18.4313 115.344 18.1543 115.032 17.9694C114.721 17.7851 114.23 17.5886 113.561 17.3805C112.962 17.1845 112.48 17.003 112.117 16.8354C111.754 16.6683 111.439 16.4173 111.175 16.0821C110.908 15.7479 110.776 15.3093 110.776 14.7665C110.776 13.97 111.056 13.3638 111.615 12.9486C112.175 12.5328 112.921 12.3252 113.855 12.3252C114.271 12.3252 114.7 12.3596 115.145 12.4295C115.588 12.4984 115.984 12.585 116.329 12.6888L116.208 13.7451C115.401 13.5603 114.657 13.4681 113.977 13.4681C112.743 13.4681 112.126 13.8666 112.126 14.6627C112.126 15.0435 112.284 15.3321 112.602 15.5286C112.918 15.7251 113.411 15.9262 114.081 16.1343C114.657 16.3075 115.132 16.4806 115.507 16.6538C115.882 16.827 116.199 17.0779 116.459 17.4071C116.719 17.7357 116.848 18.1659 116.848 18.6971C116.848 19.5625 116.543 20.2115 115.931 20.6445C115.32 21.0774 114.484 21.2939 113.423 21.2939C113.019 21.2939 112.584 21.259 112.117 21.1901Z" fill="white"/>
</g>
<path fill-rule="evenodd" clip-rule="evenodd" d="M7.6491 3.47471C5.76388 3.5045 2.2837 4.43326 0.69431 10.9188C0.00171437 13.7446 -0.265742 16.6896 0.326848 20.1956C0.873389 23.4293 1.84181 26.2202 2.49441 27.7584C2.71953 28.2882 3.06792 28.8408 3.33724 29.1811C4.11217 30.1592 5.40107 30.0968 5.94343 29.8305C6.53416 29.54 7.2128 28.8385 6.96674 27.237C6.84813 26.4637 6.50578 25.332 6.31275 24.703C5.72109 22.7724 4.93361 20.4433 4.86523 18.7836C4.77313 16.5644 5.64899 16.2739 6.23135 16.1459C7.20908 15.9313 8.02958 17.0039 8.8087 18.3488C9.73851 19.954 11.3321 22.7985 12.6317 24.9707C13.8057 26.9316 15.9714 29.0312 19.4493 28.8869C22.995 28.7402 25.6087 27.3888 26.9548 23.1342C27.9623 19.9512 28.6493 17.5723 29.754 15.1366C31.0252 12.3354 32.7202 10.8359 34.1477 11.2935C35.4729 11.7186 35.8036 13.0128 35.8194 14.915C35.8339 16.5975 35.639 18.4526 35.4873 19.8158C35.432 20.3102 35.3324 21.3046 35.3734 21.8572C35.4534 22.9428 35.9241 24.0275 37.1479 24.2012C38.4517 24.3855 39.4978 23.345 39.9155 22.0867C40.0801 21.5909 40.2206 20.832 40.2964 20.2934C40.6797 17.5746 40.7792 15.7469 40.6062 12.9648C40.4043 9.7116 39.7671 6.74469 38.6554 4.17768C37.5921 1.7224 35.8832 0.148862 33.6924 0.0101304C31.2666 -0.143965 28.4837 1.46356 27.0236 4.5827C25.678 7.45743 24.6012 10.409 23.9481 11.915C23.2853 13.4429 22.3122 14.3843 20.8154 14.5411C18.9851 14.7339 17.4082 13.4066 16.2533 11.5146C15.2463 9.86476 13.2508 6.7242 12.1833 5.66882C11.18 4.67767 10.0343 3.43653 7.6491 3.47471Z" fill="white"/>
<path fill-rule="evenodd" clip-rule="evenodd" d="M47.3306 9.05054H54.208L54.0679 10.3214H48.8921V14.5316H53.0852V15.8385H48.8921V20.1947H54.3137V21.465H47.3306V9.05054Z" fill="white"/>
</svg>
