<svg width="22" height="20" viewBox="0 0 22 20" fill="none" xmlns="http://www.w3.org/2000/svg">
<g id="Group 13">
<path id="Fill 24" fill-rule="evenodd" clip-rule="evenodd" d="M11.9995 16.6657C16.7863 16.6657 20.6664 13.0842 20.6664 8.66585C20.6664 4.24748 16.7863 0.666016 11.9995 0.666016C7.21275 0.666016 3.33263 4.24748 3.33263 8.66585C3.33263 8.66585 3.95785 12.6658 0.666016 12.6658C0.666016 15.9994 6.6663 16.6657 11.9995 16.6657Z" fill="#BBDEFB"/>
<path id="Fill 26" fill-rule="evenodd" clip-rule="evenodd" d="M1.43427 13.2641C2.06933 15.0577 5.69018 15.9997 11.9998 15.9997C16.4116 15.9997 19.9996 12.7095 19.9996 8.6669C19.9996 4.62267 16.4116 1.33331 11.9998 1.33331C7.58799 1.33331 3.99996 4.62267 3.99996 8.6669C4.00816 8.6669 4.33964 10.9077 3.15649 12.291C2.71506 12.8055 2.13825 13.132 1.43427 13.2641ZM11.9998 17.333C3.92525 17.333 0 15.8069 0 12.6668C0 12.2984 0.29866 11.9998 0.666243 11.9998C1.32756 11.9998 1.81083 11.811 2.14231 11.4238C2.92097 10.513 2.67728 8.78669 2.67482 8.76946C2.66661 3.88833 6.85278 0 11.9998 0C17.1451 0 21.3329 3.88833 21.3329 8.6669C21.3329 13.4455 17.1451 17.333 11.9998 17.333Z" fill="#455A64"/>
<path id="Fill 28" fill-rule="evenodd" clip-rule="evenodd" d="M14.6666 19.9992C16.1394 19.9992 17.3332 18.8054 17.3332 17.3326C17.3332 15.8598 16.1394 14.666 14.6666 14.666C13.1938 14.666 12 15.8598 12 17.3326C12 18.8054 13.1938 19.9992 14.6666 19.9992Z" fill="#37474F"/>
<path id="Fill 30" fill-rule="evenodd" clip-rule="evenodd" d="M6.66661 19.9992C8.1394 19.9992 9.33322 18.8054 9.33322 17.3326C9.33322 15.8598 8.1394 14.666 6.66661 14.666C5.19382 14.666 4 15.8598 4 17.3326C4 18.8054 5.19382 19.9992 6.66661 19.9992Z" fill="#37474F"/>
<path id="Fill 32" fill-rule="evenodd" clip-rule="evenodd" d="M9.36031 7.33331C8.99272 7.33331 8.6875 7.03465 8.6875 6.66706C8.6875 6.29866 8.97878 6 9.34718 6H9.36031C9.72789 6 10.0265 6.29866 10.0265 6.66706C10.0265 7.03465 9.72789 7.33331 9.36031 7.33331Z" fill="#455A64"/>
<path id="Fill 34" fill-rule="evenodd" clip-rule="evenodd" d="M14.6943 7.33331C14.3283 7.33331 14.0215 7.03465 14.0215 6.66706C14.0215 6.29866 14.3128 6 14.6812 6H14.6943C15.0627 6 15.3605 6.29866 15.3605 6.66706C15.3605 7.03465 15.0627 7.33331 14.6943 7.33331Z" fill="#455A64"/>
<path id="Fill 36" fill-rule="evenodd" clip-rule="evenodd" d="M11.9998 13.3338C10.0774 13.3338 8.43886 12.0242 8.0163 10.1469C7.93589 9.78675 8.16071 9.43147 8.52009 9.35025C8.87946 9.2723 9.23638 9.49383 9.31679 9.85403C9.6015 11.1176 10.7051 12.0004 11.9998 12.0004C13.2954 12.0004 14.3989 11.1176 14.6828 9.85403C14.7649 9.49547 15.1169 9.26984 15.4795 9.35025C15.8397 9.43147 16.0654 9.78675 15.985 10.1469C15.5624 12.0234 13.9239 13.3338 11.9998 13.3338Z" fill="#455A64"/>
</g>
</svg>
