<svg width="21" height="20" viewBox="0 0 21 20" fill="none" xmlns="http://www.w3.org/2000/svg">
<g id="Group 26">
<g id="Group 11">
<mask id="mask0" mask-type="alpha" maskUnits="userSpaceOnUse" x="0" y="0" width="21" height="20">
<path id="Clip 10" fill-rule="evenodd" clip-rule="evenodd" d="M0.0761719 0H20.0735V20H0.0761719V0Z" fill="white"/>
</mask>
<g mask="url(#mask0)">
<path id="Fill 9" fill-rule="evenodd" clip-rule="evenodd" d="M10.0752 0.00195805C4.67147 -0.104963 0.200016 4.18034 0.0761719 9.58408C0.090787 12.3348 1.30846 14.9409 3.40918 16.7163V19.5831C3.40918 19.8131 3.59533 20 3.8261 20C3.90379 20 3.97994 19.9777 4.04686 19.9362L6.36913 18.4854C7.55218 18.9385 8.80831 19.1685 10.0752 19.1662C15.479 19.2731 19.9504 14.9871 20.0735 9.58408C19.9504 4.18034 15.479 -0.104963 10.0752 0.00195805Z" fill="#2196F3"/>
</g>
</g>
<path id="Fill 12" fill-rule="evenodd" clip-rule="evenodd" d="M16.658 6.83371C16.5334 6.66756 16.3064 6.61756 16.1249 6.71679L11.7919 9.07905L9.09659 6.76756C8.93121 6.62602 8.68506 6.63525 8.53121 6.7891L3.53131 11.789C3.36901 11.9521 3.36978 12.2159 3.53362 12.3782C3.66285 12.5074 3.86361 12.5367 4.02515 12.449L8.35814 10.0867L11.0565 12.3982C11.2219 12.5405 11.4681 12.5313 11.6219 12.3775L16.6211 7.37755C16.7672 7.23063 16.7826 6.99909 16.658 6.83371Z" fill="#FAFAFA"/>
</g>
</svg>
