<svg width="20" height="20" viewBox="0 0 20 20" fill="none" xmlns="http://www.w3.org/2000/svg">
<g id="Group 24">
<path id="Fill 1" fill-rule="evenodd" clip-rule="evenodd" d="M10.0021 0H9.99673C4.48376 0 0 4.4853 0 9.99981C0 12.1875 0.704602 14.2143 1.90381 15.8612L0.65768 19.5758L4.50068 18.3473C6.08219 19.3942 7.96831 19.9996 10.0021 19.9996C15.5151 19.9996 19.9996 15.5135 19.9996 9.99981C19.9996 4.48607 15.5151 0 10.0021 0Z" fill="#4CAF50"/>
<path id="Fill 3" fill-rule="evenodd" clip-rule="evenodd" d="M15.8208 14.1198C15.5792 14.8013 14.6216 15.3659 13.8585 15.5313C13.3362 15.6421 12.6531 15.7313 10.3563 14.7782C7.41708 13.5613 5.52481 10.5752 5.37712 10.3814C5.23559 10.1875 4.18945 8.79988 4.18945 7.36529C4.18945 5.92993 4.91867 5.23148 5.21174 4.93149C5.45327 4.68534 5.8525 4.57227 6.2348 4.57227C6.35864 4.57227 6.46941 4.57919 6.56941 4.5838C6.86325 4.59611 7.01094 4.6138 7.20478 5.07764C7.44554 5.6584 8.03323 7.09376 8.10322 7.24145C8.17476 7.38913 8.24553 7.58913 8.14553 7.7822C8.05169 7.9822 7.96938 8.07143 7.82246 8.24143C7.67477 8.41142 7.53477 8.54142 7.38708 8.72372C7.2517 8.88218 7.0994 9.05295 7.26939 9.34602C7.43939 9.63371 8.02707 10.5929 8.89244 11.3629C10.0086 12.356 10.9132 12.6736 11.237 12.8083C11.4778 12.909 11.7662 12.8852 11.9424 12.6975C12.1662 12.456 12.4416 12.056 12.7231 11.6621C12.9231 11.3798 13.1762 11.3452 13.4408 11.4444C13.7108 11.5391 15.1392 12.2444 15.4331 12.3913C15.7269 12.5383 15.9208 12.609 15.9923 12.7321C16.0615 12.856 16.0615 13.4375 15.8208 14.1198Z" fill="#FAFAFA"/>
</g>
</svg>
