<svg width="20" height="20" viewBox="0 0 20 20" fill="none" xmlns="http://www.w3.org/2000/svg">
<g id="Group 41">
<g id="Group 40">
<mask id="mask0" mask-type="alpha" maskUnits="userSpaceOnUse" x="0" y="0" width="20" height="20">
<path id="Clip 39" fill-rule="evenodd" clip-rule="evenodd" d="M0 0H19.9999V20H0V0Z" fill="white"/>
</mask>
<g mask="url(#mask0)">
<path id="Fill 38" fill-rule="evenodd" clip-rule="evenodd" d="M16.4041 9.47136C16.2341 9.47136 16.0618 9.42752 15.9041 9.33521C10.8433 6.37829 4.2787 8.13598 4.21255 8.15444C3.68409 8.29983 3.13716 7.98906 2.99101 7.4606C2.84562 6.93137 3.15639 6.38444 3.68562 6.23829C3.76101 6.21752 5.57178 5.72598 8.0887 5.6429C9.57255 5.59367 11.0002 5.69752 12.3318 5.94983C14.0187 6.26983 15.5579 6.83137 16.9064 7.61983C17.3802 7.89675 17.5402 8.50521 17.2633 8.97906C17.0787 9.29521 16.7456 9.47136 16.4041 9.47136ZM15.622 11.8718C15.4728 12.1295 15.2013 12.2733 14.9228 12.2733C14.7843 12.2733 14.6436 12.2372 14.5151 12.1625C12.3859 10.9179 9.92741 10.7187 8.23895 10.7695C6.36895 10.8264 4.99664 11.1956 4.98357 11.1995C4.55203 11.3172 4.10664 11.0633 3.98741 10.6325C3.87049 10.2018 4.1228 9.75638 4.55357 9.63715C4.61587 9.62023 6.09203 9.21946 8.14433 9.15177C9.35357 9.11177 10.5174 9.19638 11.6028 9.40254C12.9789 9.66331 14.2336 10.121 15.332 10.7633C15.7182 10.9895 15.849 11.4856 15.622 11.8718ZM14.3516 14.5126C14.2239 14.7303 13.9955 14.8518 13.7593 14.8518C13.6432 14.8518 13.5247 14.8218 13.4162 14.7587C11.6193 13.708 9.54316 13.5395 8.11778 13.5826C6.53854 13.6311 5.38085 13.9426 5.36931 13.9457C5.00547 14.0449 4.62854 13.8311 4.52854 13.4664C4.42931 13.1026 4.64239 12.7272 5.00624 12.6272C5.05854 12.6126 6.3047 12.2741 8.03778 12.2164C9.05855 12.1834 10.0409 12.2541 10.9578 12.428C12.1185 12.6487 13.1778 13.0349 14.1062 13.5772C14.4324 13.768 14.5416 14.1864 14.3516 14.5126ZM10 0C4.47692 0 0 4.47692 0 10C0 15.5231 4.47692 20 10 20C15.5231 20 20 15.5231 20 10C20 4.47692 15.5231 0 10 0Z" fill="#00D95F"/>
</g>
</g>
</g>
</svg>
