<svg width="51" height="40" viewBox="0 0 51 40" fill="none" xmlns="http://www.w3.org/2000/svg">
<path fill-rule="evenodd" clip-rule="evenodd" d="M50.9473 38.3158C50.9473 39.2459 39.5425 40 25.4738 40C11.4049 40 0 39.2459 0 38.3158C0 37.3857 11.4049 36.6316 25.4738 36.6316C39.5425 36.6316 50.9473 37.3857 50.9473 38.3158Z" fill="#E7EFF5"/>
<path fill-rule="evenodd" clip-rule="evenodd" d="M14.7372 36.2105C14.7372 36.6755 15.1142 37.0526 15.5793 37.0526H29.8951C30.3602 37.0526 30.7372 36.6755 30.7372 36.2105V6.31574C30.7372 5.85066 30.3602 5.47363 29.8951 5.47363H15.5793C15.1142 5.47363 14.7372 5.85066 14.7372 6.31574V36.2105Z" fill="#7ADFF0"/>
<path fill-rule="evenodd" clip-rule="evenodd" d="M18.1051 5.47349C18.1051 5.93857 18.4821 6.31559 18.9472 6.31559H26.9472C27.4123 6.31559 27.7893 5.93857 27.7893 5.47349V3.36823C27.7893 2.90315 27.4123 2.52612 26.9472 2.52612H18.9472C18.4821 2.52612 18.1051 2.90315 18.1051 3.36823V5.47349Z" fill="#7ADFF0"/>
<path fill-rule="evenodd" clip-rule="evenodd" d="M15.714 35.1767C15.714 36.1069 16.468 36.8609 17.3982 36.8609H28.4935C29.4237 36.8609 30.1777 36.1069 30.1777 35.1767V7.34936C30.1777 6.4192 29.4237 5.66515 28.4935 5.66515H17.3982C16.468 5.66515 15.714 6.4192 15.714 7.34936V35.1767ZM14.3143 36.6315C14.3143 37.5617 15.0684 38.3157 15.9985 38.3157H29.8933C30.8234 38.3157 31.5775 37.5616 31.5775 36.6315V5.89466C31.5775 4.96449 30.8234 4.21045 29.8933 4.21045H15.9985C15.0684 4.21045 14.3143 4.9645 14.3143 5.89466V36.6315Z" fill="#7ADFF0"/>
<path fill-rule="evenodd" clip-rule="evenodd" d="M2.10461 9.89476C2.10461 10.2436 2.38738 10.5263 2.73619 10.5263H5.68356C6.03237 10.5263 6.31514 10.2436 6.31514 9.89476C6.31514 9.54595 6.03237 9.26318 5.68356 9.26318H2.73619C2.38738 9.26318 2.10461 9.54595 2.10461 9.89476Z" fill="#5AD73C"/>
<path fill-rule="evenodd" clip-rule="evenodd" d="M31.157 1.47362C31.157 1.82243 31.4397 2.1052 31.7886 2.1052H34.7359C35.0847 2.1052 35.3675 1.82243 35.3675 1.47362C35.3675 1.12481 35.0847 0.842041 34.7359 0.842041H31.7886C31.4397 0.842041 31.157 1.12481 31.157 1.47362Z" fill="#FF7C9A"/>
<path fill-rule="evenodd" clip-rule="evenodd" d="M3.78906 3.57884C3.78906 3.92766 4.07183 4.21042 4.42064 4.21042H9.05222C9.40103 4.21042 9.6838 3.92766 9.6838 3.57884C9.6838 3.23003 9.40103 2.94727 9.05222 2.94727H4.42064C4.07183 2.94727 3.78906 3.23003 3.78906 3.57884Z" fill="#3AD5F1"/>
<path fill-rule="evenodd" clip-rule="evenodd" d="M11.3682 3.57884C11.3682 3.92766 11.6509 4.21042 11.9997 4.21042H12.8418C13.1907 4.21042 13.4734 3.92766 13.4734 3.57884C13.4734 3.23003 13.1907 2.94727 12.8418 2.94727H11.9997C11.6509 2.94727 11.3682 3.23003 11.3682 3.57884Z" fill="#648788"/>
<path fill-rule="evenodd" clip-rule="evenodd" d="M18.1051 12.6314C18.1051 13.0965 18.4821 13.4735 18.9472 13.4735H26.9472C27.4123 13.4735 27.7893 13.0965 27.7893 12.6314C27.7893 12.1663 27.4123 11.7893 26.9472 11.7893H18.9472C18.4821 11.7893 18.1051 12.1663 18.1051 12.6314Z" fill="white"/>
<path fill-rule="evenodd" clip-rule="evenodd" d="M18.1051 8.42096C18.1051 8.88604 18.4821 9.26307 18.9472 9.26307H26.9472C27.4123 9.26307 27.7893 8.88604 27.7893 8.42096C27.7893 7.95588 27.4123 7.57886 26.9472 7.57886H18.9472C18.4821 7.57886 18.1051 7.95588 18.1051 8.42096Z" fill="white"/>
<path fill-rule="evenodd" clip-rule="evenodd" d="M18.1051 16.8421C18.1051 17.3072 18.4821 17.6842 18.9472 17.6842H26.9472C27.4123 17.6842 27.7893 17.3072 27.7893 16.8421C27.7893 16.377 27.4123 16 26.9472 16H18.9472C18.4821 16 18.1051 16.377 18.1051 16.8421Z" fill="white"/>
<path fill-rule="evenodd" clip-rule="evenodd" d="M18.1051 21.0526C18.1051 21.5176 18.4821 21.8947 18.9472 21.8947H26.9472C27.4123 21.8947 27.7893 21.5176 27.7893 21.0526C27.7893 20.5875 27.4123 20.2104 26.9472 20.2104H18.9472C18.4821 20.2104 18.1051 20.5875 18.1051 21.0526Z" fill="white"/>
<path fill-rule="evenodd" clip-rule="evenodd" d="M18.1051 25.263C18.1051 25.7281 18.4821 26.1051 18.9472 26.1051H26.9472C27.4123 26.1051 27.7893 25.7281 27.7893 25.263C27.7893 24.7979 27.4123 24.4209 26.9472 24.4209H18.9472C18.4821 24.4209 18.1051 24.7979 18.1051 25.263Z" fill="white"/>
<path fill-rule="evenodd" clip-rule="evenodd" d="M18.1051 29.0526C18.1051 29.5176 18.4821 29.8947 18.9472 29.8947H26.9472C27.4123 29.8947 27.7893 29.5176 27.7893 29.0526C27.7893 28.5875 27.4123 28.2104 26.9472 28.2104H18.9472C18.4821 28.2104 18.1051 28.5875 18.1051 29.0526Z" fill="white"/>
<path fill-rule="evenodd" clip-rule="evenodd" d="M18.1051 32.8419C18.1051 33.3069 18.4821 33.684 18.9472 33.684H26.9472C27.4123 33.684 27.7893 33.3069 27.7893 32.8419C27.7893 32.3768 27.4123 31.9998 26.9472 31.9998H18.9472C18.4821 31.9998 18.1051 32.3768 18.1051 32.8419Z" fill="white"/>
<path fill-rule="evenodd" clip-rule="evenodd" d="M22.3153 2.52631H23.5785V0.631579C23.5785 0.282767 23.2957 0 22.9469 0C22.5981 0 22.3153 0.282767 22.3153 0.631579V2.52631Z" fill="#648788"/>
<path d="M15.5787 36.6316H31.5787V38.3158H15.5787V36.6316Z" fill="#7ADFF0"/>
<path fill-rule="evenodd" clip-rule="evenodd" d="M15.6596 38.3157C14.9206 38.3157 14.3159 37.297 14.3159 36.052V5.14746C14.3159 4.73815 14.7045 4.21045 14.9475 4.21045H29.8965C30.0796 4.21045 30.2367 4.39917 30.3028 4.66719C30.3395 4.8159 30.2961 4.98708 30.2125 5.0649C28.9594 6.22935 18.6264 16.2952 18.6264 31.571C18.6264 35.7561 20.3804 37.2471 21.6341 37.9484C21.8568 38.0729 21.6037 38.3157 21.3485 38.3157H15.6596Z" fill="#B7B9B9" fill-opacity="0.2" style="mix-blend-mode:multiply"/>
<path fill-rule="evenodd" clip-rule="evenodd" d="M5.47314 36.2105C5.47314 36.6756 5.85017 37.0526 6.31525 37.0526H13.8942C14.3593 37.0526 14.7363 36.6756 14.7363 36.2105V20.2105C14.7363 19.7454 14.3593 19.3684 13.8942 19.3684H6.31525C5.85017 19.3684 5.47314 19.7454 5.47314 20.2105V36.2105Z" fill="#C7DCE3"/>
<path fill-rule="evenodd" clip-rule="evenodd" d="M7.78809 22.3156C7.78809 22.5482 7.9766 22.7367 8.20914 22.7367H9.05124C9.28378 22.7367 9.4723 22.5482 9.4723 22.3156V21.4735C9.4723 21.241 9.28378 21.0525 9.05124 21.0525H8.20914C7.9766 21.0525 7.78809 21.241 7.78809 21.4735V22.3156Z" fill="white"/>
<path fill-rule="evenodd" clip-rule="evenodd" d="M10.7354 22.3156C10.7354 22.5482 10.9239 22.7367 11.1564 22.7367H11.9985C12.231 22.7367 12.4196 22.5482 12.4196 22.3156V21.4735C12.4196 21.241 12.231 21.0525 11.9985 21.0525H11.1564C10.9239 21.0525 10.7354 21.241 10.7354 21.4735V22.3156Z" fill="white"/>
<path fill-rule="evenodd" clip-rule="evenodd" d="M7.78809 25.6841C7.78809 25.9166 7.9766 26.1051 8.20914 26.1051H9.05124C9.28378 26.1051 9.4723 25.9166 9.4723 25.6841V24.842C9.4723 24.6094 9.28378 24.4209 9.05124 24.4209H8.20914C7.9766 24.4209 7.78809 24.6094 7.78809 24.842V25.6841Z" fill="white"/>
<path fill-rule="evenodd" clip-rule="evenodd" d="M10.7354 25.6841C10.7354 25.9166 10.9239 26.1051 11.1564 26.1051H11.9985C12.231 26.1051 12.4196 25.9166 12.4196 25.6841V24.842C12.4196 24.6094 12.231 24.4209 11.9985 24.4209H11.1564C10.9239 24.4209 10.7354 24.6094 10.7354 24.842V25.6841Z" fill="white"/>
<path fill-rule="evenodd" clip-rule="evenodd" d="M7.78809 28.6316C7.78809 28.8641 7.9766 29.0526 8.20914 29.0526H9.05124C9.28378 29.0526 9.4723 28.8641 9.4723 28.6316V27.7895C9.4723 27.5569 9.28378 27.3684 9.05124 27.3684H8.20914C7.9766 27.3684 7.78809 27.5569 7.78809 27.7895V28.6316Z" fill="white"/>
<path fill-rule="evenodd" clip-rule="evenodd" d="M10.7354 28.6316C10.7354 28.8641 10.9239 29.0526 11.1564 29.0526H11.9985C12.231 29.0526 12.4196 28.8641 12.4196 28.6316V27.7895C12.4196 27.5569 12.231 27.3684 11.9985 27.3684H11.1564C10.9239 27.3684 10.7354 27.5569 10.7354 27.7895V28.6316Z" fill="white"/>
<path fill-rule="evenodd" clip-rule="evenodd" d="M7.78809 31.5788C7.78809 31.8114 7.9766 31.9999 8.20914 31.9999H9.05124C9.28378 31.9999 9.4723 31.8114 9.4723 31.5788V30.7367C9.4723 30.5042 9.28378 30.3157 9.05124 30.3157H8.20914C7.9766 30.3157 7.78809 30.5042 7.78809 30.7367V31.5788Z" fill="white"/>
<path fill-rule="evenodd" clip-rule="evenodd" d="M10.7354 31.5788C10.7354 31.8114 10.9239 31.9999 11.1564 31.9999H11.9985C12.231 31.9999 12.4196 31.8114 12.4196 31.5788V30.7367C12.4196 30.5042 12.231 30.3157 11.9985 30.3157H11.1564C10.9239 30.3157 10.7354 30.5042 10.7354 30.7367V31.5788Z" fill="white"/>
<path fill-rule="evenodd" clip-rule="evenodd" d="M7.78809 34.9472C7.78809 35.1798 7.9766 35.3683 8.20914 35.3683H9.05124C9.28378 35.3683 9.4723 35.1798 9.4723 34.9472V34.1051C9.4723 33.8726 9.28378 33.6841 9.05124 33.6841H8.20914C7.9766 33.6841 7.78809 33.8726 7.78809 34.1051V34.9472Z" fill="white"/>
<path fill-rule="evenodd" clip-rule="evenodd" d="M10.7354 34.9472C10.7354 35.1798 10.9239 35.3683 11.1564 35.3683H11.9985C12.231 35.3683 12.4196 35.1798 12.4196 34.9472V34.1051C12.4196 33.8726 12.231 33.6841 11.9985 33.6841H11.1564C10.9239 33.6841 10.7354 33.8726 10.7354 34.1051V34.9472Z" fill="white"/>
<path fill-rule="evenodd" clip-rule="evenodd" d="M6.01892 35.243C6.01892 36.1732 6.77297 36.9272 7.70313 36.9272H12.5067C13.4368 36.9272 14.1909 36.1732 14.1909 35.243V21.1779C14.1909 20.2478 13.4368 19.4937 12.5067 19.4937H7.70313C6.77297 19.4937 6.01892 20.2478 6.01892 21.1779V35.243ZM4.63123 36.6315C4.63123 37.5617 5.38527 38.3157 6.31544 38.3157H13.8944C14.8245 38.3157 15.5786 37.5617 15.5786 36.6315V19.7894C15.5786 18.8593 14.8245 18.1052 13.8944 18.1052H6.31544C5.38527 18.1052 4.63123 18.8593 4.63123 19.7894V36.6315Z" fill="#C7DCE3"/>
<path d="M4.62988 36.6316H15.5772V38.3158H4.62988V36.6316Z" fill="#C7DCE3"/>
<path fill-rule="evenodd" clip-rule="evenodd" d="M34.1055 10.5262C34.1055 10.9913 34.4825 11.3683 34.9476 11.3683H39.5792C40.0442 11.3683 40.4213 10.9913 40.4213 10.5262V8.42096C40.4213 7.95588 40.0442 7.57886 39.5792 7.57886H34.9476C34.4825 7.57886 34.1055 7.95588 34.1055 8.42096V10.5262Z" fill="#C7DCE3"/>
<path fill-rule="evenodd" clip-rule="evenodd" d="M31.5798 36.2103C31.5798 36.6754 31.9569 37.0524 32.4219 37.0524H42.5272C42.9923 37.0524 43.3693 36.6754 43.3693 36.2103V11.3682C43.3693 10.9031 42.9923 10.5261 42.5272 10.5261H32.4219C31.9569 10.5261 31.5798 10.9031 31.5798 11.3682V36.2103Z" fill="#C7DCE3"/>
<path fill-rule="evenodd" clip-rule="evenodd" d="M31.6968 35.2626C31.6968 36.1928 32.4508 36.9468 33.381 36.9468H41.1456C42.0758 36.9468 42.8298 36.1928 42.8298 35.2626V12.3164C42.8298 11.3862 42.0758 10.6322 41.1456 10.6322H33.381C32.4508 10.6322 31.6968 11.3862 31.6968 12.3164V35.2626ZM30.3159 36.6316C30.3159 37.5618 31.07 38.3158 32.0001 38.3158H42.5264C43.4566 38.3158 44.2106 37.5618 44.2106 36.6316V10.9474C44.2106 10.0172 43.4566 9.26318 42.5264 9.26318H32.0001C31.07 9.26318 30.3159 10.0172 30.3159 10.9474V36.6316Z" fill="#C7DCE3"/>
<path fill-rule="evenodd" clip-rule="evenodd" d="M33.474 33.8946C33.474 34.2434 33.7568 34.5262 34.1056 34.5262C34.4544 34.5262 34.7372 34.2434 34.7372 33.8946V13.6841C34.7372 13.3353 34.4544 13.0525 34.1056 13.0525C33.7568 13.0525 33.474 13.3353 33.474 13.6841V33.8946Z" fill="white"/>
<path fill-rule="evenodd" clip-rule="evenodd" d="M36.8435 33.8946C36.8435 34.2434 37.1263 34.5262 37.4751 34.5262C37.8239 34.5262 38.1067 34.2434 38.1067 33.8946V13.6841C38.1067 13.3353 37.8239 13.0525 37.4751 13.0525C37.1263 13.0525 36.8435 13.3353 36.8435 13.6841V33.8946Z" fill="white"/>
<path fill-rule="evenodd" clip-rule="evenodd" d="M39.7908 33.8946C39.7908 34.2434 40.0735 34.5262 40.4224 34.5262C40.7712 34.5262 41.0539 34.2434 41.0539 33.8946V13.6841C41.0539 13.3353 40.7712 13.0525 40.4224 13.0525C40.0735 13.0525 39.7908 13.3353 39.7908 13.6841V33.8946Z" fill="white"/>
<path d="M30.3159 36.6316H44.2106V38.3158H30.3159V36.6316Z" fill="#C7DCE3"/>
</svg>
