
<svg width="112" height="126" viewBox="0 0 112 126" fill="none" xmlns="http://www.w3.org/2000/svg">
<g id="Group 35">
<path id="Fill 1" fill-rule="evenodd" clip-rule="evenodd" d="M106.512 36.6212H6.33154L13.162 25.2382H99.6815L106.512 36.6212Z" fill="#D4D5D6"/>
<g id="Group 34">
<path id="Fill 2" fill-rule="evenodd" clip-rule="evenodd" d="M89.3806 47.4452L74.1287 39.9824C71.6113 38.751 70.5694 35.712 71.8015 33.1953L85.2209 5.76933C86.4516 3.2526 89.4906 2.21068 92.0074 3.44203L107.26 10.9049C109.777 12.1362 110.819 15.1752 109.587 17.6926L96.1677 45.1179C94.9363 47.6346 91.8966 48.6772 89.3806 47.4452Z" fill="white"/>
<path id="Stroke 4" fill-rule="evenodd" clip-rule="evenodd" d="M89.3798 47.4452L74.128 39.9824C71.6106 38.751 70.5693 35.712 71.8007 33.1953L85.2201 5.76933C86.4515 3.2526 89.4905 2.21068 92.0073 3.44203L107.26 10.9049C109.776 12.1362 110.819 15.1752 109.587 17.6926L96.1676 45.1179C94.9362 47.6346 91.8965 48.6772 89.3798 47.4452Z" stroke="#D5DBDB" stroke-width="3.13082" stroke-linecap="round" stroke-dasharray="3.43 5.72"/>
<path id="Fill 6" fill-rule="evenodd" clip-rule="evenodd" d="M4.68689 19.4657C4.68689 19.4657 -0.337244 11.1051 3.35481 6.24172C7.04687 1.37767 11.6047 1.15488 13.8793 3.27873C16.1533 5.40258 19.7719 8.77513 17.2185 13.0955C15.7057 15.1253 15.1027 15.6089 14.4657 16.258C14.1448 17.1445 16.1659 19.7993 16.7589 20.489C17.3513 21.1794 21.4162 25.4858 22.8256 26.7258C24.2358 27.9651 27.3915 30.6753 28.4581 30.2504C28.925 29.6928 33.07 24.169 38.6251 28.0438C44.1795 31.9187 43.4038 36.9121 40.1913 39.9291C36.9775 42.9448 34.2507 43.5978 27.9952 41.3059C21.7397 39.0146 15.6837 33.0633 15.6837 33.0633C15.6837 33.0633 8.17349 26.1415 4.68689 19.4657Z" fill="white"/>
<path id="Stroke 8" fill-rule="evenodd" clip-rule="evenodd" d="M4.68689 19.4657C4.68689 19.4657 -0.337244 11.1051 3.35481 6.24172C7.04687 1.37767 11.6047 1.15488 13.8793 3.27873C16.1533 5.40258 19.7719 8.77513 17.2185 13.0955C15.7057 15.1253 15.1027 15.6089 14.4657 16.258C14.1448 17.1445 16.1659 19.7993 16.7589 20.489C17.3513 21.1794 21.4162 25.4858 22.8256 26.7258C24.2358 27.9651 27.3915 30.6753 28.4581 30.2504C28.925 29.6928 33.07 24.169 38.6251 28.0439C44.1795 31.9187 43.4038 36.9121 40.1913 39.9291C36.9775 42.9448 34.2507 43.5978 27.9952 41.3059C21.7397 39.0146 15.6837 33.0633 15.6837 33.0633C15.6837 33.0633 8.17349 26.1415 4.68689 19.4657Z" stroke="#D5DBDB" stroke-width="3.13082" stroke-linecap="round" stroke-dasharray="3.52 5.86"/>
<g id="Group 13">
<path id="Stroke 12" d="M52.0376 41.834H65.409" stroke="#D5DBDB" stroke-width="3.13082" stroke-linecap="round" stroke-dasharray="3.52 5.86"/>
</g>
<path id="Fill 14" fill-rule="evenodd" clip-rule="evenodd" d="M71.3424 35.6261H44.2126C40.4705 35.6261 37.4375 32.5931 37.4375 28.8516V15.8291C37.4375 12.0876 40.4705 9.05463 44.2126 9.05463H71.3424C75.0838 9.05463 78.1175 12.0876 78.1175 15.8297V28.8516C78.1175 32.5931 75.0838 35.6261 71.3424 35.6261Z" fill="white"/>
<path id="Stroke 16" fill-rule="evenodd" clip-rule="evenodd" d="M71.3424 35.6261H44.2126C40.4705 35.6261 37.4375 32.5931 37.4375 28.8516V15.8291C37.4375 12.0876 40.4705 9.05463 44.2126 9.05463H71.3424C75.0838 9.05463 78.1175 12.0876 78.1175 15.8297V28.8516C78.1175 32.5931 75.0838 35.6261 71.3424 35.6261Z" stroke="#D5DBDB" stroke-width="3.13082" stroke-linecap="round" stroke-dasharray="3.52 5.86"/>
<path id="Fill 18" fill-rule="evenodd" clip-rule="evenodd" d="M103.996 125.417H11.5592C6.97732 125.417 3.33063 121.578 3.56542 117.003L7.68705 36.6208H107.867L111.989 117.003C112.225 121.578 108.577 125.417 103.996 125.417Z" fill="#F0F0F1"/>
<path id="Fill 20" fill-rule="evenodd" clip-rule="evenodd" d="M74.8537 45.7287C77.3691 45.7287 79.4075 47.7678 79.4075 50.2826C79.4075 52.798 77.3691 54.8364 74.8537 54.8364C72.3383 54.8364 70.2998 52.798 70.2998 50.2826C70.2998 47.7678 72.3383 45.7287 74.8537 45.7287Z" fill="#D4D5D6"/>
<path id="Fill 22" fill-rule="evenodd" clip-rule="evenodd" d="M40.7012 45.7287C43.2166 45.7287 45.255 47.7678 45.255 50.2826C45.255 52.798 43.2166 54.8364 40.7012 54.8364C38.1858 54.8364 36.1479 52.798 36.1479 50.2826C36.1479 47.7678 38.1858 45.7287 40.7012 45.7287Z" fill="#D4D5D6"/>
<path id="Fill 24" fill-rule="evenodd" clip-rule="evenodd" d="M57.7773 84.4345C47.106 84.4345 38.4238 75.753 38.4238 65.0817V52.56C38.4238 51.3027 39.4444 50.2834 40.7004 50.2834C41.9578 50.2834 42.9777 51.3027 42.9777 52.56V65.0817C42.9777 73.2422 49.6167 79.8819 57.7773 79.8819C65.9371 79.8819 72.5768 73.2429 72.5768 65.0817V53.4372C72.4628 53.1677 72.4014 52.8709 72.4014 52.56C72.4014 51.3027 73.4213 50.2834 74.678 50.2834H74.8534C76.1095 50.2834 77.13 51.3027 77.13 52.56V65.0817C77.13 75.753 68.4485 84.4345 57.7773 84.4345Z" fill="#E3E4E6"/>
</g>
</g>
</svg>