<svg width="82" height="72" viewBox="0 0 82 72" fill="none" xmlns="http://www.w3.org/2000/svg">
<g id="Group 85">
<path id="Fill 1" fill-rule="evenodd" clip-rule="evenodd" d="M81.5587 8.79079L81.943 67.1637C82.3273 69.6945 80.2733 71.748 77.7425 71.748H6.43785C3.90705 71.748 1.85352 69.6945 1.85352 67.1637V8.79079C1.85352 6.25499 3.90705 4.20645 6.43785 4.20645H77.7425C80.2733 4.20645 81.943 6.25499 81.5587 8.79079Z" fill="#E1EEEF"/>
<path id="Fill 3" fill-rule="evenodd" clip-rule="evenodd" d="M80.4734 7.76332V66.1362C80.4734 68.667 78.4198 70.7205 75.889 70.7205H4.58434C2.05354 70.7205 0 68.667 0 66.1362V7.76332C0 5.22753 2.05354 3.17899 4.58434 3.17899H75.889C78.4198 3.17899 80.4734 5.22753 80.4734 7.76332Z" fill="#CAEFFB"/>
<path id="Fill 5" fill-rule="evenodd" clip-rule="evenodd" d="M80.4734 7.76332V15.9244H0V7.76332C0 5.22753 2.05354 3.17899 4.58434 3.17899H75.889C78.4198 3.17899 80.4734 5.22753 80.4734 7.76332Z" fill="#A8E5F9"/>
<path id="Fill 7" fill-rule="evenodd" clip-rule="evenodd" d="M21.7936 33.9473H12.125C11.6416 33.9473 11.25 33.5553 11.25 33.0727V23.4041C11.25 22.9207 11.6416 22.5287 12.125 22.5287H21.7936C22.277 22.5287 22.6682 22.9207 22.6682 23.4041V33.0727C22.6682 33.5553 22.277 33.9473 21.7936 33.9473Z" fill="#EBFBFF"/>
<path id="Fill 9" fill-rule="evenodd" clip-rule="evenodd" d="M38.0612 33.9473H28.3926C27.9091 33.9473 27.5176 33.5553 27.5176 33.0727V23.4041C27.5176 22.9207 27.9091 22.5287 28.3926 22.5287H38.0612C38.5442 22.5287 38.9358 22.9207 38.9358 23.4041V33.0727C38.9358 33.5553 38.5442 33.9473 38.0612 33.9473Z" fill="#EBFBFF"/>
<path id="Fill 11" fill-rule="evenodd" clip-rule="evenodd" d="M54.3287 33.9473H44.6598C44.1767 33.9473 43.7852 33.5553 43.7852 33.0727V23.4041C43.7852 22.9207 44.1767 22.5287 44.6598 22.5287H54.3287C54.8118 22.5287 55.2033 22.9207 55.2033 23.4041V33.0727C55.2033 33.5553 54.8118 33.9473 54.3287 33.9473Z" fill="#EBFBFF"/>
<path id="Fill 13" fill-rule="evenodd" clip-rule="evenodd" d="M70.5959 33.9473H60.9273C60.4443 33.9473 60.0527 33.5553 60.0527 33.0727V23.4041C60.0527 22.9207 60.4443 22.5287 60.9273 22.5287H70.5959C71.0794 22.5287 71.4709 22.9207 71.4709 23.4041V33.0727C71.4709 33.5553 71.0794 33.9473 70.5959 33.9473Z" fill="#EBFBFF"/>
<path id="Fill 15" fill-rule="evenodd" clip-rule="evenodd" d="M21.7936 49.2682H12.125C11.6416 49.2682 11.25 48.8762 11.25 48.3936V38.7246C11.25 38.2416 11.6416 37.8496 12.125 37.8496H21.7936C22.277 37.8496 22.6682 38.2416 22.6682 38.7246V48.3936C22.6682 48.8762 22.277 49.2682 21.7936 49.2682Z" fill="#EBFBFF"/>
<path id="Fill 17" fill-rule="evenodd" clip-rule="evenodd" d="M38.0612 49.2682H28.3926C27.9091 49.2682 27.5176 48.8762 27.5176 48.3936V38.7246C27.5176 38.2416 27.9091 37.8496 28.3926 37.8496H38.0612C38.5442 37.8496 38.9358 38.2416 38.9358 38.7246V48.3936C38.9358 48.8762 38.5442 49.2682 38.0612 49.2682Z" fill="#EBFBFF"/>
<path id="Fill 19" fill-rule="evenodd" clip-rule="evenodd" d="M54.3287 49.2682H44.6598C44.1767 49.2682 43.7852 48.8762 43.7852 48.3936V38.7246C43.7852 38.2416 44.1767 37.8496 44.6598 37.8496H54.3287C54.8118 37.8496 55.2033 38.2416 55.2033 38.7246V48.3936C55.2033 48.8762 54.8118 49.2682 54.3287 49.2682Z" fill="#EBFBFF"/>
<path id="Fill 21" fill-rule="evenodd" clip-rule="evenodd" d="M70.5959 49.2682H60.9273C60.4443 49.2682 60.0527 48.8762 60.0527 48.3936V38.7246C60.0527 38.2416 60.4443 37.8496 60.9273 37.8496H70.5959C71.0794 37.8496 71.4709 38.2416 71.4709 38.7246V48.3936C71.4709 48.8762 71.0794 49.2682 70.5959 49.2682Z" fill="#EBFBFF"/>
<path id="Fill 23" fill-rule="evenodd" clip-rule="evenodd" d="M21.7936 64.5891H12.125C11.6416 64.5891 11.25 64.1971 11.25 63.7141V54.0455C11.25 53.5625 11.6416 53.1705 12.125 53.1705H21.7936C22.277 53.1705 22.6682 53.5625 22.6682 54.0455V63.7141C22.6682 64.1971 22.277 64.5891 21.7936 64.5891Z" fill="#EBFBFF"/>
<path id="Fill 25" fill-rule="evenodd" clip-rule="evenodd" d="M38.0612 64.5891H28.3926C27.9091 64.5891 27.5176 64.1971 27.5176 63.7141V54.0455C27.5176 53.5625 27.9091 53.1705 28.3926 53.1705H38.0612C38.5442 53.1705 38.9358 53.5625 38.9358 54.0455V63.7141C38.9358 64.1971 38.5442 64.5891 38.0612 64.5891Z" fill="#EBFBFF"/>
<path id="Fill 27" fill-rule="evenodd" clip-rule="evenodd" d="M54.3287 64.5891H44.6598C44.1767 64.5891 43.7852 64.1971 43.7852 63.7141V54.0455C43.7852 53.5625 44.1767 53.1705 44.6598 53.1705H54.3287C54.8118 53.1705 55.2033 53.5625 55.2033 54.0455V63.7141C55.2033 64.1971 54.8118 64.5891 54.3287 64.5891Z" fill="#EBFBFF"/>
<path id="Fill 29" fill-rule="evenodd" clip-rule="evenodd" d="M70.5959 64.5891H60.9273C60.4443 64.5891 60.0527 64.1971 60.0527 63.7141V54.0455C60.0527 53.5625 60.4443 53.1705 60.9273 53.1705H70.5959C71.0794 53.1705 71.4709 53.5625 71.4709 54.0455V63.7141C71.4709 64.1971 71.0794 64.5891 70.5959 64.5891Z" fill="#EBFBFF"/>
<path id="Fill 31" fill-rule="evenodd" clip-rule="evenodd" d="M16.9882 10.3684C16.9882 11.668 15.9349 12.7209 14.6357 12.7209C13.3365 12.7209 12.2832 11.668 12.2832 10.3684C12.2832 9.06918 13.3365 8.0159 14.6357 8.0159C15.9349 8.0159 16.9882 9.06918 16.9882 10.3684Z" fill="#1B6677"/>
<path id="Stroke 33" d="M14.7058 9.82988V2" stroke="#5EC6DE" stroke-width="3.02305" stroke-linecap="round"/>
<path id="Fill 35" fill-rule="evenodd" clip-rule="evenodd" d="M34.953 10.3684C34.953 11.668 33.8998 12.7209 32.6005 12.7209C31.3013 12.7209 30.248 11.668 30.248 10.3684C30.248 9.06918 31.3013 8.0159 32.6005 8.0159C33.8998 8.0159 34.953 9.06918 34.953 10.3684Z" fill="#1B6677"/>
<path id="Stroke 37" d="M32.6707 9.82988V2" stroke="#5EC6DE" stroke-width="3.02305" stroke-linecap="round"/>
<path id="Fill 39" fill-rule="evenodd" clip-rule="evenodd" d="M52.9198 10.3684C52.9198 11.668 51.8669 12.7209 50.5673 12.7209C49.2681 12.7209 48.2148 11.668 48.2148 10.3684C48.2148 9.06918 49.2681 8.0159 50.5673 8.0159C51.8669 8.0159 52.9198 9.06918 52.9198 10.3684Z" fill="#1B6677"/>
<path id="Stroke 41" d="M50.6374 9.82988V2" stroke="#5EC6DE" stroke-width="3.02305" stroke-linecap="round"/>
<path id="Fill 43" fill-rule="evenodd" clip-rule="evenodd" d="M70.8851 10.3684C70.8851 11.668 69.8318 12.7209 68.5326 12.7209C67.233 12.7209 66.1797 11.668 66.1797 10.3684C66.1797 9.06918 67.233 8.0159 68.5326 8.0159C69.8318 8.0159 70.8851 9.06918 70.8851 10.3684Z" fill="#1B6677"/>
<path id="Stroke 45" d="M68.6023 9.82988V2" stroke="#5EC6DE" stroke-width="3.02305" stroke-linecap="round"/>
<path id="Stroke 47" d="M13.6094 29.0302L16.3627 31.3324L20.3299 25.8193" stroke="#7CD7F4" stroke-width="1.47022" stroke-linecap="round" stroke-linejoin="round"/>
<path id="Stroke 49" d="M29.3105 29.0302L32.0638 31.3324L36.031 25.8193" stroke="#7CD7F4" stroke-width="1.47022" stroke-linecap="round" stroke-linejoin="round"/>
<path id="Stroke 51" d="M45.7812 29.0302L48.5345 31.3324L52.5017 25.8193" stroke="#7CD7F4" stroke-width="1.47022" stroke-linecap="round" stroke-linejoin="round"/>
<path id="Stroke 53" d="M61.8672 29.0302L64.6205 31.3324L68.5877 25.8193" stroke="#7CD7F4" stroke-width="1.47022" stroke-linecap="round" stroke-linejoin="round"/>
<path id="Stroke 55" d="M13.6094 44.0167L16.3627 46.3189L20.3299 40.8058" stroke="#7CD7F4" stroke-width="1.47022" stroke-linecap="round" stroke-linejoin="round"/>
<path id="Stroke 57" d="M29.3105 44.0167L32.0638 46.3189L36.031 40.8058" stroke="#7CD7F4" stroke-width="1.47022" stroke-linecap="round" stroke-linejoin="round"/>
</g>
</svg>
