<svg width="176" height="151" viewBox="0 0 176 151" fill="none" xmlns="http://www.w3.org/2000/svg">
<g id="not_invoice">
<path id="Fill 1" fill-rule="evenodd" clip-rule="evenodd" d="M127.299 68.3678C127.385 64.2347 134.681 63.2034 141.47 63.344C146.731 63.4523 157.297 64.7109 157.297 68.7429C157.297 71.6908 156.433 72.9736 152.734 73.6647C150.514 74.0792 133.726 76.0173 129.606 73.1464C128.182 72.1536 127.251 70.6407 127.299 68.3678Z" fill="#E5FCFC"/>
<path id="Fill 3" fill-rule="evenodd" clip-rule="evenodd" d="M87.7345 78.745L151.156 80.2736C164.265 80.4645 166.754 83.2492 166.662 88.0671C166.512 95.9211 153.467 95.47 153.968 95.4989C153.909 95.4998 153.858 95.5076 153.801 95.5094C147.737 95.632 146.542 97.108 146.542 99.5012C146.542 102.003 147.833 103.504 154.638 103.504C155.676 103.504 156.57 103.466 157.367 103.398C157.411 103.402 157.65 103.406 158.276 103.405C158.537 103.413 158.831 103.42 159.111 103.425C159.511 103.431 159.904 103.431 160.266 103.426C172.851 103.695 175.191 106.466 175.135 111.211C175.085 115.461 173.089 118.495 163.62 118.495H81.082L87.7345 78.745Z" fill="#E5FCFC"/>
<path id="Fill 6" fill-rule="evenodd" clip-rule="evenodd" d="M157.297 103.091C157.328 103.087 157.361 103.085 157.393 103.082C157.411 103.083 157.427 103.085 157.447 103.086C157.392 103.087 157.342 103.089 157.297 103.091Z" fill="#E1F4F4"/>
<path id="Fill 8" fill-rule="evenodd" clip-rule="evenodd" d="M59.1877 24.5616C59.1013 20.4284 51.805 19.3981 45.0158 19.5377C39.7551 19.646 29.1895 20.9056 29.1895 24.9367C29.1895 27.8855 30.0529 29.1675 33.7526 29.8586C35.9724 30.273 52.7601 32.2112 56.8806 29.3402C58.304 28.3474 59.2353 26.8354 59.1877 24.5616Z" fill="#E5FCFC"/>
<path id="Fill 10" fill-rule="evenodd" clip-rule="evenodd" d="M87.4016 34.9389L23.9805 36.4675C10.8706 36.6576 8.38216 39.4423 8.47436 44.2612C8.62418 52.1154 21.6694 51.6642 21.1685 51.6923C21.2261 51.694 21.2784 51.7019 21.3352 51.7036C27.399 51.8263 28.594 53.3015 28.594 55.6947C28.594 58.1974 27.3032 59.6988 20.4983 59.698C19.4602 59.698 18.5657 59.6603 17.7696 59.592C17.7252 59.5963 17.4859 59.6007 16.86 59.5981C16.5994 59.6077 16.305 59.6147 16.0249 59.6191C15.6251 59.6253 15.2323 59.6244 14.8697 59.62C2.28554 59.8898 -0.0548868 62.6606 0.00096423 67.4058C0.0514961 71.6562 2.04706 74.6889 11.516 74.6889H94.0541L87.4016 34.9389Z" fill="#E5FCFC"/>
<path id="Fill 13" fill-rule="evenodd" clip-rule="evenodd" d="M17.9879 60.0957C17.9563 60.0925 17.9238 60.0901 17.8922 60.0868C17.8736 60.0876 17.8574 60.0901 17.8379 60.0909C17.893 60.0917 17.9425 60.0941 17.9879 60.0957Z" fill="#E1F4F4"/>
<path id="Fill 15" fill-rule="evenodd" clip-rule="evenodd" d="M42.1621 146.483C42.1621 148.499 62.127 150.133 86.7563 150.133C111.386 150.133 131.351 148.499 131.351 146.483C131.351 144.467 111.386 142.832 86.7563 142.832C62.127 142.832 42.1621 144.467 42.1621 146.483Z" fill="#E7EFF5"/>
<path id="Fill 17" fill-rule="evenodd" clip-rule="evenodd" d="M141.918 49.2455C140.727 51.8014 140.69 53.2255 142.582 54.0944C144.471 54.9624 145.542 54.0128 146.733 51.4577C147.923 48.9034 147.96 47.4776 146.07 46.6105C144.179 45.7416 143.109 46.6904 141.918 49.2455Z" fill="#FF7C9A"/>
<path id="Fill 19" fill-rule="evenodd" clip-rule="evenodd" d="M20.2434 91.7249C18.5828 91.7441 17.8209 92.6445 17.8382 94.1862C17.8555 95.7269 18.6366 96.6108 20.2981 96.5916C21.9587 96.5733 22.7198 95.6729 22.7025 94.1312C22.6861 92.5896 21.9041 91.7056 20.2434 91.7249Z" fill="#94E37A"/>
<path id="Fill 21" fill-rule="evenodd" clip-rule="evenodd" d="M29.8411 81.6973C26.1459 78.9954 24.8975 79.2012 23.9828 80.3982C23.0689 81.596 23.2198 82.8259 26.9158 85.5278C30.6118 88.2289 31.8602 88.0239 32.7741 86.826C33.6888 85.629 33.5362 84.3983 29.8411 81.6973Z" fill="#00C4EB"/>
<path id="Fill 23" fill-rule="evenodd" clip-rule="evenodd" d="M13.5507 27.6157C13.9692 28.0969 14.5755 28.3982 15.2203 28.443C15.8591 28.4886 16.5047 28.2751 16.9915 27.8585C17.48 27.4332 17.7875 26.816 17.8319 26.173C17.8763 25.5291 17.6568 24.8895 17.2417 24.3988C16.404 23.4157 14.7728 23.3012 13.8078 24.156C13.3295 24.5847 13.0229 25.1873 12.9785 25.8304C12.9332 26.4743 13.1527 27.1276 13.5678 27.6166L13.5507 27.6157Z" fill="#DAE7EF"/>
<path id="Fill 25" fill-rule="evenodd" clip-rule="evenodd" d="M22.278 19.7808C22.5575 20.1011 22.9616 20.3023 23.3912 20.3329C23.8169 20.3627 24.2473 20.2202 24.5723 19.9425C24.8973 19.6592 25.1017 19.2479 25.1321 18.8189C25.1616 18.3898 25.0147 17.964 24.7392 17.6364C24.1802 16.9812 23.0934 16.9048 22.4497 17.4754C22.1303 17.7604 21.9267 18.162 21.8963 18.5911C21.8668 19.0201 22.0129 19.4556 22.2892 19.7816L22.278 19.7808Z" fill="#EDF2F6"/>
<path id="Fill 27" fill-rule="evenodd" clip-rule="evenodd" d="M27.9539 97.6581C28.2335 97.9785 28.6368 98.1797 29.0674 98.2103C29.4931 98.2409 29.9236 98.0984 30.2479 97.8199C30.573 97.5366 30.7783 97.1253 30.8078 96.6971C30.8374 96.2673 30.6912 95.8415 30.4149 95.514C29.8565 94.8588 28.7694 94.7823 28.1248 95.353C27.8061 95.6379 27.6025 96.0395 27.5721 96.4685C27.5426 96.8975 27.6887 97.3338 27.9651 97.659L27.9539 97.6581Z" fill="#EDF2F6"/>
<path id="Fill 29" fill-rule="evenodd" clip-rule="evenodd" d="M156.062 47.3624C156.342 47.6827 156.745 47.884 157.175 47.9145C157.6 47.9443 158.03 47.8027 158.355 47.5242C158.68 47.2408 158.886 46.8295 158.915 46.4005C158.945 45.9715 158.799 45.5449 158.522 45.2181C157.963 44.5629 156.877 44.4864 156.233 45.0571C155.913 45.342 155.71 45.7437 155.68 46.1719C155.65 46.6017 155.797 47.0372 156.073 47.3632L156.062 47.3624Z" fill="#EDF2F6"/>
<path id="Fill 31" fill-rule="evenodd" clip-rule="evenodd" d="M127.312 130.663H47.0108C42.5599 130.663 38.918 127.029 38.918 122.587V11.6237C38.918 10.1633 40.104 8.97968 41.5673 8.97968H132.755C134.218 8.97968 135.404 10.1633 135.404 11.6237V122.587C135.404 127.029 131.762 130.663 127.312 130.663Z" fill="#6AE0F3"/>
<path id="Fill 33" fill-rule="evenodd" clip-rule="evenodd" d="M122.435 19.5903C122.015 19.6107 121.684 19.9272 121.609 20.341C121.355 21.7326 120.169 22.8184 118.695 22.89C117.221 22.9616 115.936 21.9961 115.548 20.6354C115.432 20.2313 115.073 19.9484 114.653 19.9688L109.988 20.1951C109.569 20.2154 109.238 20.532 109.163 20.9457C108.909 22.3374 107.723 23.4232 106.248 23.4957C104.773 23.5673 103.488 22.6009 103.102 21.2402C102.986 20.8361 102.627 20.5532 102.207 20.5735L97.5413 20.7999C97.1212 20.8202 96.7913 21.1376 96.7153 21.5505C96.4623 22.9431 95.2763 24.0288 93.802 24.1004C92.3268 24.172 91.0417 23.2057 90.6543 21.8449C90.5393 21.4409 90.1794 21.1579 89.7602 21.1783L85.0939 21.4046C84.6747 21.4258 84.3448 21.7424 84.2688 22.1553C84.0158 23.5478 82.8298 24.6336 81.3555 24.7052C79.8803 24.7768 78.5952 23.8104 78.2078 22.4497C78.0919 22.0456 77.7329 21.7627 77.3128 21.783L72.6474 22.0094C72.2273 22.0306 71.8974 22.3471 71.8223 22.76C71.5684 24.1526 70.3833 25.2383 68.909 25.31C67.4337 25.3816 66.1478 24.4161 65.7613 23.0545C65.6454 22.6504 65.2864 22.3675 64.8663 22.3878L60.2009 22.6142C59.7808 22.6354 59.4509 22.9519 59.3749 23.3648C59.1219 24.7574 57.9359 25.8431 56.4616 25.9147C54.9864 25.9863 53.7013 25.0208 53.3148 23.6592C53.1989 23.2552 52.8399 22.9722 52.4198 22.9926L51.1108 23.0562C50.6235 23.0801 50.2467 23.4948 50.2706 23.9828L54.5123 111.219C54.6724 114.497 57.4583 117.025 60.7369 116.865L123.264 113.827C126.542 113.667 129.071 110.881 128.911 107.604L124.669 20.3666C124.646 19.8795 124.231 19.5028 123.743 19.5267L122.435 19.5903Z" fill="#00ABE3" fill-opacity="0.3"/>
<path id="Fill 35" fill-rule="evenodd" clip-rule="evenodd" d="M120.813 18.7791C120.393 18.7994 120.063 19.116 119.987 19.5298C119.734 20.9214 118.548 22.0072 117.074 22.0788C115.599 22.1504 114.314 21.1849 113.926 19.8242C113.811 19.4201 113.452 19.1372 113.032 19.1575L108.367 19.3839C107.947 19.4051 107.617 19.7207 107.541 20.1345C107.288 21.5262 106.102 22.6119 104.627 22.6844C103.152 22.756 101.867 21.7897 101.48 20.4289C101.365 20.0249 101.006 19.742 100.586 19.7623L95.9202 19.9886C95.5001 20.0099 95.1694 20.3264 95.0942 20.7393C94.8404 22.1318 93.6552 23.2176 92.1809 23.2892C90.7057 23.3608 89.4206 22.3944 89.0323 21.0337C88.9182 20.6296 88.5583 20.3467 88.1391 20.3671L83.4728 20.5934C83.0536 20.6146 82.7229 20.9311 82.6477 21.344C82.3938 22.7366 81.2087 23.8223 79.7344 23.894C78.2592 23.9656 76.9741 22.9992 76.5858 21.6385C76.4709 21.2344 76.1118 20.9515 75.6917 20.9718L71.0263 21.1982C70.6062 21.2194 70.2755 21.5359 70.2003 21.9488C69.9465 23.3414 68.7613 24.4271 67.2879 24.4987C65.8127 24.5703 64.5267 23.6048 64.1393 22.2432C64.0243 21.8392 63.6653 21.5562 63.2452 21.5766L58.5798 21.8038C58.1597 21.8241 57.829 22.1407 57.7538 22.5536C57.4999 23.9461 56.3148 25.0319 54.8396 25.1035C53.3653 25.1751 52.0802 24.2096 51.6928 22.848C51.5778 22.4448 51.2188 22.161 50.7987 22.1813L49.4897 22.245C49.0024 22.2689 48.6256 22.6835 48.6495 23.1716L52.8912 110.408C53.0504 113.686 55.8372 116.213 59.1158 116.054L121.642 113.015C124.921 112.856 127.45 110.07 127.29 106.793L123.048 19.5554C123.024 19.0682 122.61 18.6916 122.121 18.7154L120.813 18.7791Z" fill="white"/>
<path id="Fill 37" fill-rule="evenodd" clip-rule="evenodd" d="M150.355 29.2608C147.31 29.2948 145.915 30.9469 145.946 33.7721C145.978 36.5973 147.41 38.2172 150.454 38.1832C153.499 38.1484 154.895 36.4972 154.864 33.672C154.832 30.8459 153.399 29.226 150.355 29.2608Z" fill="#5AD73C"/>
<path id="Fill 39" fill-rule="evenodd" clip-rule="evenodd" d="M87.0139 52.0258C75.7006 52.6863 70.7948 59.0729 71.4015 69.5732C72.01 80.0735 77.6191 85.8442 88.9324 85.1837C100.247 84.5223 105.152 78.1365 104.545 67.6363C103.936 57.136 98.3281 51.3644 87.0139 52.0258Z" fill="#FF406F"/>
<path id="Fill 41" fill-rule="evenodd" clip-rule="evenodd" d="M90.7245 60.3829C90.6668 60.4756 81.8621 74.0735 81.8105 74.1618C80.8547 75.7819 80.7686 76.7724 81.9783 77.5635C83.1629 78.3378 83.9915 77.876 84.9895 76.3813C85.0669 76.2657 93.8948 62.636 93.9731 62.5079C95.0795 60.7254 95.2456 59.6686 93.9697 58.8343C92.6938 58.0009 91.8309 58.6004 90.7245 60.3829Z" fill="white"/>
<path id="Fill 43" fill-rule="evenodd" clip-rule="evenodd" d="M81.0203 64.4224C81.1038 64.4983 93.205 75.9389 93.2849 76.0076C94.7425 77.2743 95.7208 77.5328 96.7242 76.4135C97.7061 75.3187 97.3866 74.382 96.0618 73.0928C95.9595 72.9924 83.8295 61.522 83.7147 61.418C82.1207 59.9669 81.0894 59.6161 80.0312 60.7951C78.974 61.9758 79.4263 62.9722 81.0203 64.4224Z" fill="white"/>
<path id="Fill 45" fill-rule="evenodd" clip-rule="evenodd" d="M127.312 130.877H47.0108C42.5599 130.877 38.918 127.13 38.918 122.551V127.205C38.918 131.784 42.5599 135.531 47.0108 135.531H127.312C131.762 135.531 135.404 131.784 135.404 127.205V122.552C135.404 127.13 131.762 130.877 127.312 130.877Z" fill="#3AD5F1"/>
<g id="Fill 47">
<path fill-rule="evenodd" clip-rule="evenodd" d="M67.9237 32.5052C67.6929 32.5052 67.4603 32.493 67.2276 32.4687C65.5577 32.2932 64.0588 31.5045 63.007 30.2475C61.9552 28.9905 61.4764 27.4156 61.6592 25.812L63.5609 8.97968L65.3975 8.98315L63.4586 26.0014C63.3292 27.1428 63.6695 28.2643 64.419 29.1599C65.1675 30.0555 66.2356 30.6167 67.4241 30.7418C68.6161 30.866 69.782 30.5394 70.7161 29.821C71.6484 29.1017 72.234 28.0767 72.3634 26.9361L74.4199 8.97968H76.2157L74.1637 27.1246C73.9809 28.7273 73.159 30.1658 71.8493 31.1752C70.7215 32.0439 69.3484 32.5052 67.9237 32.5052Z" fill="#00ABE3" fill-opacity="0.6" style="mix-blend-mode:multiply"/>
</g>
<path id="Fill 49" fill-rule="evenodd" clip-rule="evenodd" d="M69.384 8.97603L66.7623 8.97968L67.0857 5.89814C67.1462 5.31848 67.0086 4.75704 66.6983 4.31773C66.4108 3.91215 66.0093 3.6615 65.5658 3.61138C64.6068 3.50292 63.7268 4.35054 63.6058 5.50167L63.4244 7.22336L60.8105 6.92532L60.992 5.20455C61.2707 2.55412 63.4516 0.618252 65.8515 0.893503C67.0349 1.02839 68.0876 1.66822 68.816 2.69722C69.5181 3.68976 69.8328 4.93203 69.6995 6.19527L69.384 8.97603Z" fill="#4E525A"/>
<g id="Fill 52">
<path fill-rule="evenodd" clip-rule="evenodd" d="M47.0212 130.663C42.5646 130.663 38.918 127.029 38.918 122.587V11.6237C38.918 10.1633 40.1055 8.97968 41.5707 8.97968H132.875C133.98 8.97968 134.927 9.65302 135.325 10.6093C135.546 11.1399 135.285 11.7506 134.781 12.0282C127.224 16.1829 64.9121 52.0968 64.9121 106.599C64.9121 121.531 75.4894 126.851 83.0497 129.353C84.3902 129.796 83.9048 130.663 83.9048 130.663H47.0212Z" fill="#B7B9B9" fill-opacity="0.1" style="mix-blend-mode:multiply"/>
</g>
<path id="Fill 54" fill-rule="evenodd" clip-rule="evenodd" d="M65.7952 32.5052C65.556 32.5052 65.3167 32.492 65.0739 32.4665C63.3202 32.2757 61.7472 31.4203 60.6439 30.0558C59.5398 28.6923 59.0373 26.9832 59.2296 25.2442L61.3396 6.09869C61.4202 5.37514 62.0778 4.8538 62.8053 4.93116C63.5346 5.01117 64.0619 5.66175 63.9821 6.38617L61.8722 25.5308C61.7579 26.57 62.0574 27.5907 62.7167 28.4048C63.376 29.2198 64.3153 29.7306 65.3628 29.844C67.5268 30.0831 69.4728 28.5243 69.7094 26.3809L71.9434 6.10133C72.0232 5.3769 72.6843 4.8538 73.4101 4.9338C74.1394 5.01292 74.6666 5.6635 74.5869 6.38793L72.352 26.6676C71.9824 30.0163 69.1157 32.5052 65.7952 32.5052Z" fill="#4E525A"/>
</g>
</svg>
