<svg width="116" height="109" viewBox="0 0 116 109" fill="none" xmlns="http://www.w3.org/2000/svg">
<path fill-rule="evenodd" clip-rule="evenodd" d="M0.105469 104.575C0.105469 106.811 25.8495 108.624 57.6052 108.624C89.362 108.624 115.105 106.811 115.105 104.575C115.105 102.338 89.362 100.525 57.6052 100.525C25.8495 100.525 0.105469 102.338 0.105469 104.575Z" fill="#E8EAEA"/>
<path fill-rule="evenodd" clip-rule="evenodd" d="M94.5305 92.8894L34.2719 101.628C30.9319 102.112 27.8034 99.7808 27.32 96.4473L15.2443 13.1751C15.0854 12.0792 15.8465 11.0619 16.9446 10.9026L85.3729 0.97947C86.471 0.820231 87.4898 1.57943 87.6488 2.67538L99.7245 85.9476C100.208 89.2811 97.8705 92.405 94.5305 92.8894Z" fill="#E8EAEA"/>
<path fill-rule="evenodd" clip-rule="evenodd" d="M79.0402 10.4916C78.7276 10.5524 78.5141 10.8252 78.5027 11.1429C78.4635 12.2115 77.6926 13.1526 76.5956 13.3664C75.4987 13.5801 74.431 12.9975 73.9932 12.0217C73.8625 11.732 73.5628 11.5594 73.2502 11.6203L69.779 12.2965C69.4671 12.3573 69.2536 12.63 69.2421 12.9477C69.2029 14.0163 68.432 14.9574 67.3352 15.1719C66.2375 15.3857 65.1698 14.8024 64.7326 13.8265C64.602 13.5369 64.3022 13.3642 63.9896 13.4251L60.5184 14.1013C60.2059 14.1622 59.9931 14.4355 59.9809 14.7526C59.9424 15.8218 59.1716 16.7629 58.0746 16.9767C56.977 17.1906 55.9093 16.6073 55.4714 15.6315C55.3414 15.3417 55.041 15.1692 54.7291 15.2299L51.2572 15.9063C50.9454 15.9677 50.7326 16.2403 50.7204 16.5575C50.6819 17.6267 49.911 18.5678 48.814 18.7815C47.7164 18.9954 46.6487 18.4121 46.2108 17.4363C46.0802 17.1466 45.7804 16.974 45.4678 17.0349L41.9967 17.7111C41.6842 17.7726 41.4713 18.0453 41.4598 18.3623C41.4207 19.4316 40.6504 20.3726 39.5535 20.5864C38.4559 20.8002 37.3876 20.2177 36.9503 19.2411C36.8196 18.9515 36.5199 18.7788 36.2073 18.8397L32.7361 19.516C32.4236 19.5775 32.2108 19.8501 32.1986 20.1672C32.1601 21.2364 31.3892 22.1775 30.2923 22.3913C29.1947 22.6052 28.127 22.0225 27.6897 21.046C27.5591 20.7563 27.2593 20.5837 26.9467 20.6445L25.9728 20.8344C25.6103 20.9052 25.373 21.2563 25.4438 21.6188L38.0855 86.4161C38.561 88.8505 40.9228 90.4388 43.3621 89.9635L89.8839 80.8961C92.3233 80.4208 93.9157 78.0619 93.4402 75.6275L80.7984 10.8295C80.7283 10.4676 80.376 10.231 80.0134 10.3018L79.0402 10.4916Z" fill="#C5C5C5"/>
<path fill-rule="evenodd" clip-rule="evenodd" d="M77.4341 9.84275C77.1215 9.90361 76.9087 10.1762 76.8966 10.494C76.858 11.5626 76.0871 12.5037 74.9901 12.7174C73.8925 12.9313 72.8249 12.3487 72.387 11.3729C72.257 11.0831 71.9573 10.9105 71.6447 10.9713L68.1735 11.6476C67.8611 11.7091 67.6481 11.9811 67.636 12.2989C67.5974 13.3674 66.8265 14.3085 65.7297 14.5229C64.6321 14.7368 63.5643 14.1535 63.1265 13.1777C62.9965 12.8879 62.6967 12.7153 62.3842 12.7762L58.913 13.4524C58.6005 13.5139 58.387 13.7867 58.3754 14.1037C58.3363 15.173 57.5661 16.114 56.4691 16.3278C55.3715 16.5416 54.3038 15.9584 53.8652 14.9826C53.7359 14.6928 53.4355 14.5202 53.1236 14.581L49.6518 15.2574C49.3399 15.3188 49.1264 15.5915 49.1149 15.9086C49.0758 16.9778 48.3055 17.9188 47.2086 18.1326C46.111 18.3465 45.0432 17.7632 44.6047 16.7875C44.4747 16.4977 44.175 16.3251 43.8624 16.3859L40.3912 17.0622C40.0787 17.1237 39.8652 17.3964 39.8537 17.7135C39.8145 18.7828 39.0443 19.7238 37.948 19.9374C36.8504 20.1513 35.7821 19.5688 35.3441 18.5923C35.2141 18.3025 34.9144 18.1299 34.6018 18.1908L31.1307 18.8677C30.8182 18.9286 30.6046 19.2013 30.5931 19.5183C30.554 20.5876 29.7837 21.5286 28.6861 21.7425C27.5892 21.9562 26.5215 21.3736 26.0836 20.3972C25.9537 20.108 25.6538 19.9347 25.3413 19.9956L24.3674 20.1855C24.0048 20.2563 23.7675 20.6074 23.8383 20.9699L36.4801 85.7672C36.9549 88.2017 39.3173 89.7899 41.7566 89.3146L88.2778 80.2472C90.7178 79.7718 92.3103 77.413 91.8348 74.9786L79.1929 10.1806C79.1222 9.81878 78.7705 9.58209 78.4073 9.653L77.4341 9.84275Z" fill="white"/>
<path fill-rule="evenodd" clip-rule="evenodd" d="M94.5308 92.8898L34.2722 101.628C30.9322 102.113 27.8037 99.7812 27.3203 96.4478L27.8116 99.8355C28.295 103.169 31.4235 105.5 34.7635 105.016L95.0221 96.2775C98.3621 95.7932 100.699 92.6692 100.216 89.3357L99.7249 85.9487C100.208 89.2816 97.8708 92.4054 94.5308 92.8898Z" fill="#C5C5C5"/>
<path fill-rule="evenodd" clip-rule="evenodd" d="M39.3399 25.9408C39.1709 25.9653 38.9993 25.9807 38.8263 25.9869C37.5842 26.0306 36.3997 25.5892 35.4909 24.7438C34.582 23.8984 34.0576 22.7501 34.0144 21.5097L33.5482 8.4918L34.8932 8.29945L35.3527 21.4629C35.384 22.3457 35.757 23.1635 36.4046 23.7658C37.0515 24.3682 37.8955 24.6821 38.7794 24.6512C39.6659 24.6192 40.4834 24.2467 41.088 23.6005C41.6911 22.9539 42.0067 22.1113 41.9756 21.2291L41.4986 7.33887L42.8134 7.1482L43.3145 21.1815C43.3576 22.4212 42.9147 23.6037 42.0672 24.5114C41.3374 25.2925 40.383 25.7895 39.3399 25.9408Z" fill="#C5C5C5" style="mix-blend-mode:multiply"/>
<path fill-rule="evenodd" clip-rule="evenodd" d="M38.258 7.80904L36.2763 8.09912L36.1965 5.82745C36.1812 5.40017 36.0181 5.00783 35.7373 4.72305C35.4772 4.46025 35.1474 4.32237 34.8068 4.33462C34.0703 4.36105 33.4942 5.07264 33.5239 5.92126L33.5679 7.19055L31.5604 7.26084L31.5164 5.99222C31.4483 4.03829 32.8933 2.39437 34.7368 2.33099C35.6456 2.29914 36.5088 2.64803 37.1678 3.31489C37.8031 3.95818 38.1717 4.82518 38.204 5.75649L38.258 7.80904Z" fill="#4E525A"/>
<path fill-rule="evenodd" clip-rule="evenodd" d="M34.2719 101.628C30.9319 102.112 27.8034 99.7808 27.32 96.4473L15.2443 13.1751C15.0854 12.0792 15.8465 11.0619 16.9446 10.9026L85.3729 0.97947C86.2006 0.85944 86.9837 1.26183 87.3866 1.93611C87.61 2.31025 87.4803 2.79705 87.1328 3.06017C81.9215 6.99932 39.1302 40.7231 45.0615 81.6243C46.6865 92.8299 55.1926 95.6725 61.131 96.7286C62.1839 96.9156 61.9144 97.6192 61.9144 97.6192L34.2719 101.628Z" fill="#B7B9B9" fill-opacity="0.1" style="mix-blend-mode:multiply"/>
<path d="M32.1639 34.9686L44.1862 32.6106" stroke="#4E525A" stroke-width="1.11864" stroke-linecap="round"/>
<path d="M33.4528 41.5326L38.2471 40.5922" stroke="#4E525A" stroke-width="1.11864" stroke-linecap="round"/>
<path d="M73.4599 48.3588L81.0537 46.8693" stroke="#4E525A" stroke-width="1.11864" stroke-linecap="round"/>
<path d="M36.0307 54.6591L67.6687 48.4524" stroke="#4E525A" stroke-width="1.11864" stroke-linecap="round"/>
<path d="M37.3193 61.2231L68.9572 55.0164" stroke="#4E525A" stroke-width="1.11864" stroke-linecap="round"/>
<path d="M75.8921 60.4736L83.4858 58.9841" stroke="#4E525A" stroke-width="1.11864" stroke-linecap="round"/>
<path d="M38.6083 67.7866L70.2463 61.5798" stroke="#4E525A" stroke-width="1.11864" stroke-linecap="round"/>
<path d="M77.7207 70.9812L84.721 69.6088" stroke="#4E525A" stroke-width="2.23729" stroke-linecap="round"/>
<path d="M75.1534 26.4908L76.2396 26.2779" stroke="#4E525A" stroke-width="2.23729" stroke-linecap="round"/>
<path fill-rule="evenodd" clip-rule="evenodd" d="M37.7655 26.4018C37.5865 26.4278 37.4062 26.4438 37.2218 26.4509C35.8895 26.4976 34.6199 26.0246 33.646 25.1178C32.6715 24.2117 32.1093 22.9804 32.0634 21.6513L31.5525 7.01906C31.5339 6.46598 31.9687 6.00246 32.5213 5.98176C33.0754 5.96286 33.5407 6.39512 33.5601 6.94876L34.0708 21.5803C34.0987 22.3745 34.434 23.1099 35.0159 23.6509C35.5979 24.1925 36.356 24.4749 37.1517 24.4466C38.7961 24.3919 40.0814 23.0082 40.0245 21.37L39.4827 5.87109C39.4633 5.31745 39.9006 4.85222 40.4521 4.8337C41.0061 4.81414 41.4714 5.2464 41.4908 5.80004L42.0319 21.299C42.1209 23.8584 40.2486 26.0417 37.7655 26.4018Z" fill="#4E525A"/>
</svg>
