<svg width="162" height="210" viewBox="0 0 162 210" fill="none" xmlns="http://www.w3.org/2000/svg">
<path fill-rule="evenodd" clip-rule="evenodd" d="M1.0336 193.918C33.2296 204.395 86.756 204.395 119.159 193.918H1.0336Z" fill="#D4D5D6"/>
<mask id="mask0_18267_109549" style="mask-type:luminance" maskUnits="userSpaceOnUse" x="40" y="185" width="39" height="25">
<path fill-rule="evenodd" clip-rule="evenodd" d="M40.5493 185.313H78.9493V209.164H40.5493V185.313Z" fill="white"/>
</mask>
<g mask="url(#mask0_18267_109549)">
<path fill-rule="evenodd" clip-rule="evenodd" d="M78.9493 189.962C78.9493 200.565 70.3509 209.164 59.7477 209.164C49.1437 209.164 40.5493 200.565 40.5493 189.962C40.5493 179.359 49.1437 170.764 59.7477 170.764C70.3509 170.764 78.9493 179.359 78.9493 189.962Z" fill="#F0F0F1"/>
</g>
<mask id="mask1_18267_109549" style="mask-type:luminance" maskUnits="userSpaceOnUse" x="40" y="185" width="39" height="25">
<path fill-rule="evenodd" clip-rule="evenodd" d="M41.116 185.313C40.7456 186.801 40.5496 188.358 40.5496 189.962C40.5496 200.566 49.144 209.164 59.7472 209.164C70.3504 209.164 78.9488 200.566 78.9488 189.962C78.9488 188.358 78.752 186.801 78.3824 185.313" fill="white"/>
</mask>
<g mask="url(#mask1_18267_109549)">
<path fill-rule="evenodd" clip-rule="evenodd" d="M40.9367 193.918H49.6351C49.6351 193.918 50.0855 203.099 69.0967 206.735C54.9335 213.898 43.2775 204.395 40.9367 193.918Z" fill="#E3E4E6"/>
</g>
<mask id="mask2_18267_109549" style="mask-type:luminance" maskUnits="userSpaceOnUse" x="1" y="58" width="119" height="136">
<path fill-rule="evenodd" clip-rule="evenodd" d="M1.0336 58.1984H119.159V193.918H1.0336V58.1984Z" fill="white"/>
</mask>
<g mask="url(#mask2_18267_109549)">
<path fill-rule="evenodd" clip-rule="evenodd" d="M51.7641 73.5167C51.7641 69.1055 55.3337 65.5351 59.7457 65.5351C64.1561 65.5351 67.7313 69.1055 67.7313 73.5167V78.1823C65.3257 77.7839 62.8729 77.5207 60.3585 77.5207C57.4185 77.5207 54.5497 77.8231 51.7641 78.3703V73.5167ZM108.523 160.858C106.346 159.605 104.988 157.208 104.988 154.61V122.15C104.988 103.262 93.1737 87.1143 76.5625 80.6087L76.6417 74.9663C76.6417 65.7239 69.1153 58.1983 59.8681 58.1983C50.6201 58.1983 43.0945 65.7239 43.0945 74.9055L43.0113 81.0335C27.0001 87.8151 15.7289 103.695 15.7289 122.15V154.309C15.7289 156.981 14.3177 159.407 12.0449 160.656C5.25047 164.37 1.03207 171.49 1.03207 179.234V193.918H119.159V179.234C119.159 171.673 115.085 164.634 108.523 160.858Z" fill="#F0F0F1"/>
</g>
<mask id="mask3_18267_109549" style="mask-type:luminance" maskUnits="userSpaceOnUse" x="1" y="58" width="119" height="136">
<path fill-rule="evenodd" clip-rule="evenodd" d="M59.868 58.1984C50.6208 58.1984 43.0944 65.724 43.0944 74.9056L43.0112 81.0336C27 87.8152 15.7288 103.695 15.7288 122.15V154.309C15.7288 156.981 14.3184 159.407 12.0448 160.655C5.3224 164.331 1.1216 171.34 1.0336 178.989V193.918H119.159V179.234C119.159 171.673 115.085 164.634 108.524 160.857C106.346 159.605 104.989 157.208 104.989 154.61V122.15C104.989 103.262 93.1736 87.1144 76.5624 80.6088L76.6416 74.9672C76.6416 65.724 69.116 58.1984 59.868 58.1984ZM51.764 73.5168C51.764 69.1064 55.3336 65.536 59.7456 65.536C64.156 65.536 67.7312 69.1064 67.7312 73.5168V78.1824C65.3256 77.7832 62.8728 77.5208 60.3584 77.5208C57.4192 77.5208 54.5496 77.8232 51.764 78.3704V73.5168Z" fill="white"/>
</mask>
<g mask="url(#mask3_18267_109549)">
<path fill-rule="evenodd" clip-rule="evenodd" d="M1.0336 195.911H122.829V53.8176H1.0336V195.911Z" fill="#F0F0F1"/>
</g>
<mask id="mask4_18267_109549" style="mask-type:luminance" maskUnits="userSpaceOnUse" x="1" y="58" width="119" height="136">
<path fill-rule="evenodd" clip-rule="evenodd" d="M43.0944 74.9056L43.0112 81.0336C27 87.8152 15.7288 103.695 15.7288 122.15V154.309C15.7288 156.981 14.3184 159.407 12.0448 160.655C5.3224 164.332 1.1216 171.34 1.0336 178.989V193.918H119.159V179.234C119.159 171.673 115.085 164.634 108.524 160.857C106.346 159.605 104.989 157.208 104.989 154.61V122.15C104.989 103.262 93.1736 87.1144 76.5624 80.6088L76.6416 74.9672C76.6416 65.724 69.116 58.1984 59.868 58.1984C50.6208 58.1984 43.0944 65.724 43.0944 74.9056ZM51.764 73.5168C51.764 69.1064 55.3336 65.536 59.7456 65.536C64.156 65.536 67.7312 69.1064 67.7312 73.5168V78.1824C65.3256 77.7832 62.8728 77.5208 60.3584 77.5208C57.4192 77.5208 54.5496 77.8232 51.764 78.3704V73.5168Z" fill="white"/>
</mask>
<g mask="url(#mask4_18267_109549)">
<path fill-rule="evenodd" clip-rule="evenodd" d="M-32.8 227.75H152.991V24.3656H-32.8V227.75Z" fill="#F0F0F1"/>
</g>
<path fill-rule="evenodd" clip-rule="evenodd" d="M33.7477 86.3136C30.8341 97.58 10.2381 174.732 74.2693 193.918H0.98528C0.98528 182.613 -1.76352 168.004 11.9965 160.656C18.4133 157.229 14.7189 140.37 15.6805 125.219C15.2565 109.151 20.7733 96.1984 33.7477 86.3136Z" fill="#E3E4E6"/>
<path d="M110.396 79.2722L115.412 72.2762H110.528V70.2742H119.108V72.1002L114.114 79.0522H119.372V81.0542H110.396V79.2722Z" fill="#FF6173"/>
<path d="M128.486 58.813L134.642 50.227H128.648V47.77H139.178V50.011L133.049 58.543H139.502V61H128.486V58.813Z" fill="#FF6173"/>
<path d="M148.576 37.408L155.872 27.232H148.768V24.32H161.248V26.976L153.984 37.088H161.632V40H148.576V37.408Z" fill="#FF6173"/>
</svg>
