<svg width="12" height="14" viewBox="0 0 12 14" fill="none" xmlns="http://www.w3.org/2000/svg">
<g clip-path="url(#clip0_1_8037)">
<path d="M10.6407 13.4H1.17979C0.845879 13.4 0.62327 13.1774 0.511966 12.9548C0.400661 12.7322 0.400661 12.287 0.62327 12.0644L5.29805 7.16696L0.62327 1.93566C0.400661 1.71305 0.289357 1.37914 0.511966 1.04522C0.734574 0.71131 0.845879 0.600006 1.17979 0.600006H10.6407C11.0859 0.600006 11.4198 0.933919 11.4198 1.37914V3.38261C11.4198 3.82783 11.0859 4.16175 10.6407 4.16175C10.1954 4.16175 9.86153 3.82783 9.86153 3.38261V2.15827H2.96066L6.96762 6.61044C7.19023 6.94435 7.19023 7.38957 6.96762 7.72348L3.07197 11.8417H9.86153V11.2852C9.86153 10.84 10.1954 10.5061 10.6407 10.5061C11.0859 10.5061 11.4198 10.84 11.4198 11.2852V12.6209C11.4198 13.0661 11.0859 13.4 10.6407 13.4Z" fill="white"/>
</g>
<defs>
<clipPath id="clip0_1_8037">
<rect width="11.0191" height="12.8" fill="white" transform="translate(0.400391 0.600006)"/>
</clipPath>
</defs>
</svg>
