<svg width="146" height="125" viewBox="0 0 146 125" fill="none" xmlns="http://www.w3.org/2000/svg">
<path fill-rule="evenodd" clip-rule="evenodd" d="M106.122 56.2712C106.194 52.8257 112.276 51.966 117.936 52.0831C122.321 52.1734 131.129 53.2227 131.129 56.5839C131.129 59.0414 130.41 60.1108 127.325 60.6869C125.475 61.0324 111.48 62.6481 108.045 60.2548C106.858 59.4272 106.082 58.166 106.122 56.2712Z" fill="#E5FCFC"/>
<path fill-rule="evenodd" clip-rule="evenodd" d="M73.1386 64.9221L126.009 66.1963C136.938 66.3555 139.013 68.677 138.936 72.6934C138.811 79.2408 127.936 78.8647 128.353 78.8888C128.305 78.8896 128.262 78.8961 128.214 78.8976C123.159 78.9998 122.163 80.2303 122.163 82.2253C122.163 84.3109 123.239 85.5626 128.912 85.5626C129.777 85.5626 130.523 85.5304 131.187 85.4735C131.224 85.4771 131.423 85.4808 131.945 85.4793C132.162 85.4866 132.408 85.4925 132.641 85.4961C132.975 85.5012 133.302 85.5012 133.604 85.4969C144.095 85.7218 146.046 88.0316 145.999 91.9873C145.957 95.5305 144.294 98.0593 136.4 98.0593H67.5928L73.1386 64.9221Z" fill="#E5FCFC"/>
<path fill-rule="evenodd" clip-rule="evenodd" d="M131.13 85.2176C131.156 85.2149 131.183 85.2129 131.21 85.2102C131.225 85.2116 131.239 85.2129 131.255 85.2136C131.209 85.2149 131.168 85.2163 131.13 85.2176Z" fill="#E1F4F4"/>
<path fill-rule="evenodd" clip-rule="evenodd" d="M49.3418 19.7524C49.2698 16.3069 43.1873 15.4479 37.5275 15.5643C33.1419 15.6546 24.334 16.7046 24.334 20.0651C24.334 22.5234 25.0538 23.5921 28.138 24.1682C29.9886 24.5137 43.9835 26.1294 47.4185 23.7361C48.6051 22.9085 49.3815 21.648 49.3418 19.7524Z" fill="#E5FCFC"/>
<path fill-rule="evenodd" clip-rule="evenodd" d="M72.8617 28.4034L19.9912 29.6777C9.06222 29.8361 6.98773 32.1576 7.06459 36.1748C7.18949 42.7224 18.0645 42.3463 17.647 42.3697C17.695 42.3712 17.7386 42.3777 17.7859 42.3792C22.841 42.4814 23.8372 43.7112 23.8372 45.7063C23.8372 47.7926 22.7611 49.0443 17.0882 49.0436C16.2228 49.0436 15.4771 49.0122 14.8135 48.9552C14.7765 48.9589 14.577 48.9625 14.0552 48.9603C13.8379 48.9684 13.5926 48.9742 13.359 48.9779C13.0257 48.983 12.6983 48.9823 12.396 48.9786C1.90532 49.2035 -0.0457559 51.5134 0.000803823 55.4692C0.0429293 59.0125 1.70652 61.5406 9.60025 61.5406H78.4075L72.8617 28.4034Z" fill="#E5FCFC"/>
<path fill-rule="evenodd" clip-rule="evenodd" d="M14.9952 49.3752C14.9688 49.3725 14.9418 49.3705 14.9154 49.3678C14.8999 49.3684 14.8863 49.3705 14.8701 49.3711C14.9161 49.3718 14.9573 49.3739 14.9952 49.3752Z" fill="#E1F4F4"/>
<path fill-rule="evenodd" clip-rule="evenodd" d="M35.1484 121.391C35.1484 123.072 51.792 124.434 72.324 124.434C92.856 124.434 109.5 123.072 109.5 121.391C109.5 119.71 92.856 118.347 72.324 118.347C51.792 118.347 35.1484 119.71 35.1484 121.391Z" fill="#E7EFF5"/>
<path fill-rule="evenodd" clip-rule="evenodd" d="M118.308 40.33C117.315 42.4608 117.284 43.648 118.86 44.3723C120.436 45.0959 121.328 44.3042 122.321 42.1742C123.313 40.0449 123.344 38.8563 121.769 38.1334C120.192 37.409 119.3 38.2 118.308 40.33Z" fill="#FF7C9A"/>
<path fill-rule="evenodd" clip-rule="evenodd" d="M16.8755 75.7426C15.4911 75.7587 14.8559 76.5093 14.8704 77.7945C14.8848 79.0789 15.5359 79.8158 16.9211 79.7997C18.3054 79.7845 18.9399 79.0338 18.9254 77.7487C18.9118 76.4635 18.2598 75.7266 16.8755 75.7426Z" fill="#94E37A"/>
<path fill-rule="evenodd" clip-rule="evenodd" d="M24.8763 67.3832C21.7959 65.1308 20.7552 65.3024 19.9927 66.3002C19.2308 67.2988 19.3566 68.3241 22.4377 70.5765C25.5189 72.8282 26.5596 72.6573 27.3214 71.6588C28.084 70.6609 27.9568 69.6349 24.8763 67.3832Z" fill="#00C4EB"/>
<path fill-rule="evenodd" clip-rule="evenodd" d="M11.2963 22.2985C11.6452 22.6997 12.1507 22.9508 12.6882 22.9882C13.2207 23.0262 13.7589 22.8482 14.1648 22.5009C14.572 22.1464 14.8283 21.6318 14.8653 21.0958C14.9023 20.559 14.7194 20.0258 14.3734 19.6167C13.6749 18.7972 12.3151 18.7018 11.5106 19.4144C11.1119 19.7717 10.8563 20.2741 10.8193 20.8101C10.7816 21.3469 10.9646 21.8916 11.3106 22.2992L11.2963 22.2985Z" fill="#DAE7EF"/>
<path fill-rule="evenodd" clip-rule="evenodd" d="M18.5713 15.767C18.8043 16.034 19.1412 16.2018 19.4993 16.2273C19.8542 16.2521 20.213 16.1334 20.4839 15.9019C20.7549 15.6657 20.9253 15.3228 20.9506 14.9651C20.9752 14.6075 20.8527 14.2525 20.6231 13.9794C20.1571 13.4332 19.251 13.3694 18.7145 13.8452C18.4482 14.0827 18.2784 14.4176 18.2531 14.7752C18.2285 15.1329 18.3503 15.4959 18.5807 15.7676L18.5713 15.767Z" fill="#EDF2F6"/>
<path fill-rule="evenodd" clip-rule="evenodd" d="M23.3038 80.6889C23.5369 80.9559 23.8732 81.1237 24.2321 81.1492C24.587 81.1747 24.9459 81.0559 25.2162 80.8237C25.4872 80.5876 25.6584 80.2447 25.683 79.8877C25.7076 79.5294 25.5858 79.1745 25.3554 78.9014C24.8899 78.3552 23.9837 78.2915 23.4463 78.7672C23.1807 79.0047 23.0109 79.3395 22.9856 79.6972C22.9609 80.0548 23.0828 80.4185 23.3132 80.6895L23.3038 80.6889Z" fill="#EDF2F6"/>
<path fill-rule="evenodd" clip-rule="evenodd" d="M130.099 38.7602C130.332 39.0273 130.669 39.195 131.027 39.2205C131.381 39.2453 131.74 39.1272 132.011 38.8951C132.282 38.6589 132.453 38.316 132.478 37.9583C132.503 37.6007 132.381 37.245 132.15 36.9726C131.684 36.4264 130.778 36.3626 130.242 36.8384C129.976 37.0759 129.806 37.4108 129.78 37.7678C129.756 38.1261 129.878 38.4891 130.109 38.7609L130.099 38.7602Z" fill="#EDF2F6"/>
<path fill-rule="evenodd" clip-rule="evenodd" d="M106.133 108.203H39.1909C35.4804 108.203 32.4443 105.173 32.4443 101.47V8.9669C32.4443 7.74946 33.4331 6.76273 34.6529 6.76273H110.671C111.891 6.76273 112.88 7.74946 112.88 8.9669V101.47C112.88 105.173 109.843 108.203 106.133 108.203Z" fill="#6AE0F3"/>
<path fill-rule="evenodd" clip-rule="evenodd" d="M102.068 15.6082C101.717 15.6251 101.442 15.889 101.379 16.2339C101.167 17.3941 100.179 18.2992 98.9496 18.3589C97.7205 18.4186 96.6493 17.6137 96.3263 16.4794C96.2297 16.1425 95.9304 15.9067 95.5802 15.9236L91.6909 16.1123C91.3415 16.1293 91.0657 16.3931 91.0031 16.7381C90.7915 17.8982 89.8027 18.8034 88.5737 18.8638C87.3439 18.9235 86.2726 18.1179 85.9504 16.9835C85.8538 16.6467 85.5544 16.4108 85.2042 16.4278L81.315 16.6165C80.9648 16.6334 80.6898 16.898 80.6264 17.2423C80.4155 18.4031 79.4268 19.3083 78.1977 19.368C76.9679 19.4277 75.8966 18.6221 75.5737 17.4877C75.4779 17.1509 75.1778 16.915 74.8283 16.9319L70.9383 17.1206C70.5889 17.1383 70.3138 17.4022 70.2504 17.7464C70.0396 18.9073 69.0509 19.8124 67.8218 19.8721C66.592 19.9318 65.5207 19.1262 65.1978 17.9919C65.1012 17.655 64.8018 17.4191 64.4516 17.4361L60.5624 17.6248C60.2122 17.6425 59.9372 17.9064 59.8745 18.2506C59.6629 19.4115 58.6749 20.3166 57.4459 20.3763C56.216 20.436 55.144 19.6311 54.8218 18.496C54.7252 18.1592 54.4259 17.9233 54.0757 17.9403L50.1865 18.129C49.8362 18.1466 49.5612 18.4105 49.4978 18.7547C49.287 19.9156 48.2982 20.8207 47.0692 20.8804C45.8394 20.9401 44.7681 20.1353 44.4459 19.0002C44.3493 18.6633 44.05 18.4275 43.6997 18.4444L42.6086 18.4975C42.2023 18.5174 41.8882 18.8631 41.9081 19.2699L45.4442 91.9939C45.5776 94.7262 47.9001 96.8335 50.6333 96.7008L102.758 94.1675C105.492 94.0348 107.6 91.7123 107.466 88.98L103.93 16.2553C103.911 15.8492 103.564 15.5352 103.158 15.5551L102.068 15.6082Z" fill="#00ABE3" fill-opacity="0.3"/>
<path fill-rule="evenodd" clip-rule="evenodd" d="M100.714 14.932C100.364 14.9489 100.089 15.2128 100.026 15.5577C99.8148 16.7179 98.8261 17.623 97.5971 17.6827C96.3673 17.7424 95.296 16.9375 94.973 15.8032C94.8772 15.4663 94.5779 15.2305 94.2276 15.2474L90.3384 15.4361C89.9882 15.4538 89.7132 15.7169 89.6498 16.0619C89.4389 17.222 88.4502 18.1272 87.2211 18.1876C85.9913 18.2473 84.92 17.4417 84.5971 16.3073C84.5013 15.9705 84.2019 15.7346 83.8517 15.7516L79.9625 15.9403C79.6123 15.958 79.3365 16.2218 79.2738 16.566C79.0622 17.7269 78.0743 18.6321 76.8452 18.6918C75.6154 18.7515 74.5441 17.9458 74.2204 16.8115C74.1253 16.4746 73.8252 16.2388 73.4758 16.2557L69.5858 16.4444C69.2363 16.4621 68.9606 16.726 68.8979 17.0702C68.6863 18.2311 67.6983 19.1362 66.4693 19.1959C65.2394 19.2556 64.1682 18.45 63.8445 17.3156C63.7486 16.9788 63.4493 16.7429 63.0991 16.7599L59.2099 16.9486C58.8596 16.9663 58.5839 17.2301 58.5212 17.5744C58.3096 18.7352 57.3216 19.6404 56.0933 19.7001C54.8635 19.7598 53.7915 18.9549 53.4685 17.8198C53.3727 17.483 53.0734 17.2471 52.7231 17.2641L48.8339 17.4535C48.4837 17.4704 48.208 17.7343 48.1453 18.0785C47.9337 19.2394 46.9457 20.1445 45.7159 20.2042C44.4868 20.2639 43.4155 19.4591 43.0926 18.324C42.9968 17.9879 42.6974 17.7513 42.3472 17.7682L41.256 17.8213C40.8498 17.8412 40.5357 18.1869 40.5556 18.5937L44.0916 91.3177C44.2244 94.05 46.5476 96.1573 49.2807 96.0246L101.405 93.4913C104.139 93.3586 106.247 91.0361 106.114 88.3038L102.577 15.5791C102.558 15.173 102.212 14.859 101.805 14.8789L100.714 14.932Z" fill="white"/>
<path fill-rule="evenodd" clip-rule="evenodd" d="M125.342 23.67C122.804 23.6983 121.64 25.0755 121.666 27.4307C121.693 29.786 122.887 31.1364 125.425 31.1081C127.963 31.079 129.127 29.7025 129.101 27.3473C129.074 24.9914 127.88 23.6409 125.342 23.67Z" fill="#5AD73C"/>
<path fill-rule="evenodd" clip-rule="evenodd" d="M72.5392 42.6478C63.108 43.1984 59.0183 48.5225 59.524 57.276C60.0313 66.0295 64.7073 70.8402 74.1386 70.2896C83.5706 69.7382 87.6595 64.4148 87.1538 55.6613C86.6465 46.9078 81.9712 42.0964 72.5392 42.6478Z" fill="#52D835"/>
<path fill-rule="evenodd" clip-rule="evenodd" d="M106.133 108.382H39.1909C35.4804 108.382 32.4443 105.258 32.4443 101.441V105.32C32.4443 109.137 35.4804 112.261 39.1909 112.261H106.133C109.843 112.261 112.88 109.137 112.88 105.32V101.441C112.879 105.258 109.843 108.382 106.133 108.382Z" fill="#3AD5F1"/>
<path fill-rule="evenodd" clip-rule="evenodd" d="M56.6242 26.3746C56.4318 26.3746 56.2379 26.3645 56.044 26.3442C54.6518 26.1979 53.4023 25.5404 52.5254 24.4925C51.6486 23.4446 51.2495 22.1317 51.4019 20.7949L52.9872 6.76273L54.5183 6.76562L52.902 20.9528C52.7941 21.9043 53.0778 22.8392 53.7026 23.5858C54.3266 24.3324 55.217 24.8003 56.2077 24.9045C57.2015 25.0081 58.1734 24.7358 58.9521 24.1369C59.7293 23.5373 60.2175 22.6828 60.3254 21.732L62.0397 6.76273H63.5368L61.8262 21.8891C61.6738 23.2252 60.9886 24.4244 59.8968 25.2659C58.9566 25.9901 57.8119 26.3746 56.6242 26.3746Z" fill="#00ABE3" fill-opacity="0.6" style="mix-blend-mode:multiply"/>
<path fill-rule="evenodd" clip-rule="evenodd" d="M57.8415 6.75967L55.6559 6.76271L55.9256 4.19382C55.976 3.71058 55.8613 3.24254 55.6026 2.87632C55.3629 2.5382 55.0282 2.32926 54.6585 2.28747C53.8591 2.19705 53.1254 2.90367 53.0246 3.8633L52.8733 5.29857L50.6943 5.05012L50.8456 3.61561C51.078 1.4061 52.896 -0.207727 54.8967 0.021734C55.8832 0.134185 56.7608 0.667567 57.368 1.52539C57.9533 2.35281 58.2156 3.38842 58.1046 4.44151L57.8415 6.75967Z" fill="#4E525A"/>
<path fill-rule="evenodd" clip-rule="evenodd" d="M39.1995 108.203C35.4843 108.203 32.4443 105.173 32.4443 101.47V8.9669C32.4443 7.74946 33.4343 6.76273 34.6558 6.76273H110.771C111.692 6.76273 112.481 7.32406 112.814 8.12123C112.998 8.56354 112.78 9.0727 112.36 9.30414C106.06 12.7676 54.1142 42.707 54.1142 88.1425C54.1142 100.59 62.9319 105.025 69.2344 107.111C70.352 107.48 69.9473 108.203 69.9473 108.203H39.1995Z" fill="#B7B9B9" fill-opacity="0.1" style="mix-blend-mode:multiply"/>
<path fill-rule="evenodd" clip-rule="evenodd" d="M54.8496 26.3746C54.6502 26.3746 54.4507 26.3636 54.2483 26.3424C52.7863 26.1833 51.475 25.4702 50.5553 24.3327C49.6348 23.196 49.216 21.7712 49.3763 20.3215L51.1352 4.36102C51.2024 3.75784 51.7506 3.32323 52.3571 3.38772C52.9651 3.45442 53.4046 3.99677 53.3382 4.60068L51.5792 20.5605C51.4839 21.4268 51.7336 22.2777 52.2832 22.9563C52.8329 23.6357 53.6159 24.0615 54.4891 24.1561C56.2931 24.3554 57.9154 23.056 58.1127 21.2692L59.975 4.36322C60.0415 3.7593 60.5926 3.32323 61.1977 3.38992C61.8057 3.45588 62.2452 3.99823 62.1787 4.60215L60.3156 21.5081C60.0076 24.2997 57.6177 26.3746 54.8496 26.3746Z" fill="#4E525A"/>
<path d="M70.5424 63.0071C71.0662 63.6173 71.9999 63.6214 72.5289 63.0157L81.8382 52.3568C82.322 51.8028 82.2712 50.9562 81.7247 50.4657C81.1782 49.9753 80.343 50.0268 79.8592 50.5807L71.5662 60.1182L68.6496 56.7205C68.1705 56.1624 67.3357 56.1036 66.7851 56.5893C66.2345 57.075 66.1766 57.9211 66.6557 58.4793L70.5424 63.0071Z" fill="white"/>
</svg>
