<svg width="24" height="24" viewBox="0 0 24 24" fill="none" xmlns="http://www.w3.org/2000/svg">
<path fill-rule="evenodd" clip-rule="evenodd" d="M15.2777 13.4314V6.60444C15.2777 4.34206 14.1793 3.24075 11.9169 3.24075C9.65453 3.24075 8.55606 4.33921 8.55606 6.60444V13.4314C8.55606 15.6938 9.65453 16.7951 11.9169 16.7951C14.1793 16.7951 15.2777 15.6938 15.2777 13.4314ZM11.9169 2C14.885 2 16.5185 3.63631 16.5185 6.60444V13.4314C16.5185 16.3995 14.885 18.0359 11.9169 18.0359C8.94878 18.0359 7.31531 16.3995 7.31531 13.4314V6.60444C7.31531 3.63631 8.94878 2 11.9169 2ZM11.9397 20.0563C12.4747 20.0563 12.9101 20.4917 12.9101 21.0296C12.9101 21.5646 12.4747 22 11.9397 22C11.4047 22 10.9693 21.5646 10.9693 21.0296C10.9693 20.4917 11.4047 20.0563 11.9397 20.0563ZM15.3204 19.0859C15.8554 19.0859 16.2908 19.5213 16.2908 20.0563C16.2908 20.5942 15.8554 21.0296 15.3204 21.0296C14.7854 21.0296 14.35 20.5942 14.35 20.0563C14.35 19.5213 14.7854 19.0859 15.3204 19.0859ZM18.0353 16.7695C18.5703 16.7695 19.0057 17.2049 19.0057 17.7399C19.0057 18.2777 18.5703 18.7103 18.0353 18.7103C17.5003 18.7103 17.0649 18.2749 17.0649 17.7399C17.0649 17.2049 17.5003 16.7695 18.0353 16.7695ZM19.0057 13.4627C19.4639 13.4627 19.8338 13.8327 19.8338 14.2908C19.8338 14.749 19.4639 15.119 19.0057 15.119C18.5475 15.119 18.1776 14.749 18.1776 14.2908C18.1776 13.8355 18.5475 13.4627 19.0057 13.4627ZM8.51338 19.0859C9.04838 19.0859 9.48378 19.5213 9.48378 20.0563C9.48378 20.5942 9.04838 21.0296 8.51338 21.0296C7.97837 21.0296 7.54297 20.5942 7.54297 20.0563C7.54013 19.5213 7.97837 19.0859 8.51338 19.0859ZM5.79852 16.7695C6.33352 16.7695 6.76892 17.2049 6.76892 17.7399C6.76892 18.2777 6.33352 18.7103 5.79852 18.7103C5.26352 18.7103 4.82812 18.2749 4.82812 17.7399C4.82812 17.2049 5.26352 16.7695 5.79852 16.7695ZM5.65623 14.2937C5.65623 14.7519 5.28628 15.1218 4.82812 15.1218C4.36995 15.1218 4 14.7519 4 14.2937C4 13.8355 4.36995 13.4656 4.82812 13.4656C5.28628 13.4627 5.65623 13.8355 5.65623 14.2937Z" fill="#0B2739"/>
</svg>
