<svg width="24" height="24" viewBox="0 0 24 24" fill="none" xmlns="http://www.w3.org/2000/svg">
<path d="M11.9972 21.9434C8.82193 21.9434 6.35104 21.1141 4.65266 19.4782C2.89179 17.7798 2 15.2464 2 11.9462C2 8.646 2.89463 6.10979 4.6555 4.41141C6.35388 2.77551 8.82193 1.94336 11.9972 1.94336C15.1724 1.94336 17.6433 2.77267 19.3417 4.40857C21.1054 6.10695 21.9972 8.64316 21.9972 11.9434C21.9972 15.2436 21.1025 17.7798 19.3417 19.4753C17.6461 21.114 15.1752 21.9434 11.9972 21.9434ZM11.9972 3.0794C6.11815 3.0794 3.13604 6.06151 3.13604 11.9462C3.13604 17.8252 6.11815 20.8073 11.9972 20.8073C17.879 20.8073 20.864 17.8252 20.864 11.9462C20.864 6.06435 17.8819 3.0794 11.9972 3.0794Z" fill="#0B2739"/>
<path d="M11.946 21.8525C11.6336 21.8525 11.378 21.5969 11.378 21.2845V2.5483C11.378 2.23589 11.6336 1.98028 11.946 1.98028C12.2584 1.98028 12.514 2.23589 12.514 2.5483V21.2873C12.514 21.5997 12.2613 21.8525 11.946 21.8525Z" fill="#0B2739"/>
<path d="M20.8725 9.2055H3.03951C2.7271 9.2055 2.47149 8.94989 2.47149 8.63748C2.47149 8.32507 2.7271 8.06946 3.03951 8.06946H20.8725C21.1849 8.06946 21.4405 8.32507 21.4405 8.63748C21.4405 8.94989 21.1878 9.2055 20.8725 9.2055Z" fill="#0B2739"/>
<path d="M11.8381 21.8496C11.0031 21.8496 10.1994 21.5628 9.45242 21.0004C8.76227 20.4807 8.14881 19.748 7.62907 18.8192C6.5896 16.9675 6.01589 14.5193 6.01589 11.9263C6.01589 9.33331 6.5896 6.8823 7.62907 5.03339C8.15165 4.10468 8.76511 3.37193 9.45242 2.85219C10.2022 2.28985 11.0031 2.003 11.8381 2.003C12.6731 2.003 13.4768 2.28985 14.2238 2.85219C14.9139 3.37193 15.5274 4.10468 16.0471 5.03339C17.0866 6.88514 17.6603 9.33331 17.6603 11.9263C17.6603 14.5193 17.0866 16.9703 16.0471 18.8192C15.5246 19.748 14.9111 20.4807 14.2238 21.0004C13.4768 21.5628 12.6731 21.8496 11.8381 21.8496ZM11.8381 3.13904C10.6481 3.13904 9.50638 4.00811 8.61743 5.59005C7.67167 7.27423 7.15194 9.52359 7.15194 11.9263C7.15194 14.329 7.67167 16.5784 8.61743 18.2626C9.50354 19.8417 10.6481 20.7136 11.8381 20.7136C13.0281 20.7136 14.1698 19.8445 15.0588 18.2626C16.0045 16.5784 16.5243 14.329 16.5243 11.9263C16.5243 9.52359 16.0045 7.27423 15.0588 5.59005C14.1698 4.00811 13.0281 3.13904 11.8381 3.13904Z" fill="#0B2739"/>
<path d="M20.8753 16.4108H3.16161C2.84919 16.4108 2.59359 16.1552 2.59359 15.8428C2.59359 15.5304 2.84919 15.2748 3.16161 15.2748H20.8782C21.1906 15.2748 21.4462 15.5304 21.4462 15.8428C21.4462 16.1552 21.1906 16.4108 20.8753 16.4108Z" fill="#0B2739"/>
</svg>
