<svg width="32" height="32" viewBox="0 0 32 32" fill="none" xmlns="http://www.w3.org/2000/svg">
<path d="M0 16.0009C0 5.0769 5.86644 0 16 0C26.1336 0 32 5.0769 32 16.0009C32 26.9248 26.1336 32 16 32C5.86644 32 0 26.9231 0 16.0009Z" fill="#0B2739"/>
<path d="M15.9972 25.9434C12.8219 25.9434 10.351 25.1141 8.65266 23.4782C6.89179 21.7798 6 19.2464 6 15.9462C6 12.646 6.89463 10.1098 8.6555 8.41141C10.3539 6.77551 12.8219 5.94336 15.9972 5.94336C19.1724 5.94336 21.6433 6.77267 23.3417 8.40857C25.1054 10.1069 25.9972 12.6432 25.9972 15.9434C25.9972 19.2436 25.1025 21.7798 23.3417 23.4753C21.6461 25.114 19.1752 25.9434 15.9972 25.9434ZM15.9972 7.0794C10.1181 7.0794 7.13604 10.0615 7.13604 15.9462C7.13604 21.8252 10.1181 24.8073 15.9972 24.8073C21.879 24.8073 24.864 21.8252 24.864 15.9462C24.864 10.0643 21.8819 7.0794 15.9972 7.0794Z" fill="white"/>
<path d="M15.946 25.8525C15.6336 25.8525 15.378 25.5969 15.378 25.2845V6.5483C15.378 6.23589 15.6336 5.98028 15.946 5.98028C16.2584 5.98028 16.514 6.23589 16.514 6.5483V25.2873C16.514 25.5997 16.2613 25.8525 15.946 25.8525Z" fill="white"/>
<path d="M24.8725 13.2055H7.03951C6.7271 13.2055 6.47149 12.9499 6.47149 12.6375C6.47149 12.3251 6.7271 12.0695 7.03951 12.0695H24.8725C25.1849 12.0695 25.4405 12.3251 25.4405 12.6375C25.4405 12.9499 25.1878 13.2055 24.8725 13.2055Z" fill="white"/>
<path d="M15.8381 25.8496C15.0031 25.8496 14.1994 25.5628 13.4524 25.0004C12.7623 24.4807 12.1488 23.748 11.6291 22.8192C10.5896 20.9675 10.0159 18.5193 10.0159 15.9263C10.0159 13.3333 10.5896 10.8823 11.6291 9.03339C12.1517 8.10468 12.7651 7.37193 13.4524 6.85219C14.2022 6.28985 15.0031 6.003 15.8381 6.003C16.6731 6.003 17.4768 6.28985 18.2238 6.85219C18.9139 7.37193 19.5274 8.10468 20.0471 9.03339C21.0866 10.8851 21.6603 13.3333 21.6603 15.9263C21.6603 18.5193 21.0866 20.9703 20.0471 22.8192C19.5246 23.748 18.9111 24.4807 18.2238 25.0004C17.4768 25.5628 16.6731 25.8496 15.8381 25.8496ZM15.8381 7.13904C14.6481 7.13904 13.5064 8.00811 12.6174 9.59005C11.6717 11.2742 11.1519 13.5236 11.1519 15.9263C11.1519 18.329 11.6717 20.5784 12.6174 22.2626C13.5035 23.8417 14.6481 24.7136 15.8381 24.7136C17.0281 24.7136 18.1698 23.8445 19.0588 22.2626C20.0045 20.5784 20.5243 18.329 20.5243 15.9263C20.5243 13.5236 20.0045 11.2742 19.0588 9.59005C18.1698 8.00811 17.0281 7.13904 15.8381 7.13904Z" fill="white"/>
<path d="M24.8753 20.4108H7.16161C6.84919 20.4108 6.59359 20.1552 6.59359 19.8428C6.59359 19.5304 6.84919 19.2748 7.16161 19.2748H24.8782C25.1906 19.2748 25.4462 19.5304 25.4462 19.8428C25.4462 20.1552 25.1906 20.4108 24.8753 20.4108Z" fill="white"/>
</svg>
