<svg width="32" height="32" viewBox="0 0 32 32" fill="none" xmlns="http://www.w3.org/2000/svg">
<path d="M0 16.0009C0 5.0769 5.86644 0 16 0C26.1336 0 32 5.0769 32 16.0009C32 26.9248 26.1336 32 16 32C5.86644 32 0 26.9231 0 16.0009Z" fill="#0B2739"/>
<path fill-rule="evenodd" clip-rule="evenodd" d="M19.2777 17.4314V10.6044C19.2777 8.34206 18.1793 7.24075 15.9169 7.24075C13.6545 7.24075 12.5561 8.33921 12.5561 10.6044V17.4314C12.5561 19.6938 13.6545 20.7951 15.9169 20.7951C18.1793 20.7951 19.2777 19.6938 19.2777 17.4314ZM15.9169 6C18.885 6 20.5185 7.63631 20.5185 10.6044V17.4314C20.5185 20.3995 18.885 22.0359 15.9169 22.0359C12.9488 22.0359 11.3153 20.3995 11.3153 17.4314V10.6044C11.3153 7.63631 12.9488 6 15.9169 6ZM15.9397 24.0563C16.4747 24.0563 16.9101 24.4917 16.9101 25.0296C16.9101 25.5646 16.4747 26 15.9397 26C15.4047 26 14.9693 25.5646 14.9693 25.0296C14.9693 24.4917 15.4047 24.0563 15.9397 24.0563ZM19.3204 23.0859C19.8554 23.0859 20.2908 23.5213 20.2908 24.0563C20.2908 24.5942 19.8554 25.0296 19.3204 25.0296C18.7854 25.0296 18.35 24.5942 18.35 24.0563C18.35 23.5213 18.7854 23.0859 19.3204 23.0859ZM22.0353 20.7695C22.5703 20.7695 23.0057 21.2049 23.0057 21.7399C23.0057 22.2777 22.5703 22.7103 22.0353 22.7103C21.5003 22.7103 21.0649 22.2749 21.0649 21.7399C21.0649 21.2049 21.5003 20.7695 22.0353 20.7695ZM23.0057 17.4627C23.4639 17.4627 23.8338 17.8327 23.8338 18.2908C23.8338 18.749 23.4639 19.119 23.0057 19.119C22.5475 19.119 22.1776 18.749 22.1776 18.2908C22.1776 17.8355 22.5475 17.4627 23.0057 17.4627ZM12.5134 23.0859C13.0484 23.0859 13.4838 23.5213 13.4838 24.0563C13.4838 24.5942 13.0484 25.0296 12.5134 25.0296C11.9784 25.0296 11.543 24.5942 11.543 24.0563C11.5401 23.5213 11.9784 23.0859 12.5134 23.0859ZM9.79852 20.7695C10.3335 20.7695 10.7689 21.2049 10.7689 21.7399C10.7689 22.2777 10.3335 22.7103 9.79852 22.7103C9.26352 22.7103 8.82812 22.2749 8.82812 21.7399C8.82812 21.2049 9.26352 20.7695 9.79852 20.7695ZM9.65623 18.2937C9.65623 18.7519 9.28628 19.1218 8.82812 19.1218C8.36995 19.1218 8 18.7519 8 18.2937C8 17.8355 8.36995 17.4656 8.82812 17.4656C9.28628 17.4627 9.65623 17.8355 9.65623 18.2937Z" fill="white"/>
</svg>
