<svg width="24" height="24" viewBox="0 0 24 24" fill="none" xmlns="http://www.w3.org/2000/svg">
<path d="M19.638 10.5536L10.8472 10.548C10.0779 10.548 9.48253 10.3401 9.07468 9.93179C8.6823 9.53848 8.48515 8.9766 8.48515 8.25928V4.26997C8.48515 2.80535 9.32403 2 10.8472 2L19.638 2.00562C21.1611 2.00562 22 2.81097 22 4.27559V8.2649C22 8.98035 21.8009 9.54222 21.4105 9.93741C21.0026 10.3476 20.4073 10.5536 19.638 10.5536ZM10.8472 2.74542C10.2924 2.74542 9.88264 2.87465 9.62749 3.12749C9.38008 3.37285 9.25444 3.75679 9.25444 4.26997V8.25928C9.25444 9.31186 9.76086 9.80256 10.8472 9.80256L19.638 9.80818C20.7243 9.80818 21.2307 9.31747 21.2307 8.2649V4.27559C21.2307 3.76241 21.1051 3.37846 20.8577 3.13311C20.6025 2.88027 20.1908 2.75104 19.638 2.75104L10.8472 2.74542Z" fill="#A13EA1"/>
<path d="M16.8852 12.0257L13.6 12.0201C13.3874 12.0201 13.2153 11.8534 13.2153 11.6474C13.2153 11.4414 13.3874 11.2747 13.6 11.2747L16.8852 11.2803C17.0978 11.2803 17.2698 11.447 17.2698 11.653C17.2698 11.859 17.0978 12.0257 16.8852 12.0257Z" fill="#A13EA1"/>
<path d="M12.6245 22C12.0296 22 11.348 21.8552 10.6144 21.5657C9.11452 20.9734 7.47216 19.821 5.86639 18.2324L5.86254 18.2286L5.81055 18.1791L5.8067 18.1753C4.20093 16.5868 3.03607 14.962 2.43727 13.4783C1.86736 12.0573 1.85388 10.844 2.40069 10.0612L2.41995 10.0326C2.48733 9.94117 2.68757 9.66499 2.89744 9.4669C3.49431 8.9031 4.10466 8.6231 4.70731 8.63263C5.28877 8.64405 5.86447 8.92595 6.41705 9.47261C6.62499 9.67451 6.80791 9.90308 6.95809 10.1526C7.2546 10.625 7.36242 11.1126 7.2777 11.6021C7.19298 12.0916 6.91765 12.5697 6.45556 13.0268C6.34774 13.1335 6.23414 13.2344 6.11477 13.3278C6.07048 13.4078 6.09744 13.6592 6.45556 14.1773C6.86952 14.7754 7.56266 15.482 8.04786 15.962L8.10562 16.0192C8.59082 16.4991 9.30513 17.1829 9.90971 17.5944C10.4315 17.9486 10.6876 17.9753 10.7684 17.9315C10.8628 17.8134 10.9629 17.701 11.0726 17.5944C11.5347 17.1372 12.018 16.8649 12.5128 16.781C13.0077 16.6972 13.5006 16.8039 13.9781 17.0972C14.2284 17.2458 14.4594 17.4248 14.6654 17.6325C15.218 18.1791 15.503 18.7467 15.5145 19.3239C15.5261 19.92 15.243 20.5238 14.6712 21.1143C14.471 21.3219 14.1918 21.52 14.0994 21.5867L14.0878 21.5943C14.082 21.5981 14.0762 21.6019 14.0705 21.6076C13.6815 21.8686 13.1906 22 12.6245 22ZM6.41127 17.6972C7.94196 19.2115 9.49382 20.3048 10.8974 20.8591C12.0642 21.3181 13.0577 21.3619 13.6238 20.981L13.6469 20.9657C13.8548 20.8172 14.0108 20.6895 14.1109 20.5867C14.9504 19.7181 14.9523 18.9943 14.1167 18.1696C13.9569 18.0077 13.7778 17.8686 13.5833 17.7525L13.5718 17.7467C13.2522 17.5506 12.946 17.4801 12.638 17.5315C12.3049 17.5867 11.9602 17.7886 11.6137 18.1315C11.5155 18.2267 11.425 18.3277 11.3422 18.4363C11.3287 18.4515 11.3152 18.4667 11.3018 18.4801C11.1381 18.6305 10.8435 18.7848 10.3776 18.6667C10.1138 18.6001 9.81729 18.4553 9.47264 18.221C8.81609 17.7753 8.06711 17.0572 7.56073 16.5563L7.50297 16.4991C6.99659 15.9982 6.27072 15.2573 5.82018 14.6058C5.58336 14.2649 5.4351 13.9716 5.36964 13.7106C5.25219 13.2497 5.40815 12.9583 5.55833 12.7964C5.57181 12.7811 5.58721 12.7678 5.60261 12.7564C5.71236 12.6745 5.8144 12.5849 5.91067 12.4878C6.25724 12.1449 6.46134 11.804 6.51717 11.4745C6.56916 11.1678 6.49792 10.8669 6.2996 10.5507L6.29383 10.5393C6.17638 10.3469 6.03582 10.1678 5.87217 10.0116C5.03847 9.1869 4.30683 9.18881 3.42885 10.0193C3.32488 10.1183 3.19588 10.2726 3.0457 10.4783L3.02837 10.5012C2.64329 11.0612 2.6895 12.044 3.15352 13.1983C3.71381 14.5868 4.81898 16.122 6.34966 17.6363L6.41127 17.6972Z" fill="#A13EA1"/>
</svg>
