<svg width="24" height="24" viewBox="0 0 24 24" fill="none" xmlns="http://www.w3.org/2000/svg">
<path d="M17.7227 22C16.8423 22 15.8336 21.7834 14.748 21.3503C12.5284 20.464 10.098 18.7399 7.72169 16.3632L7.71599 16.3575L7.63906 16.2834L7.63336 16.2777C5.25705 13.901 3.53323 11.4701 2.6471 9.25015C1.80371 7.12423 1.78377 5.30893 2.59296 4.13768L2.61006 4.11203L2.62146 4.09493C2.72118 3.95814 3.01751 3.54492 3.32808 3.24855C4.21136 2.40502 5.11459 1.9861 6.00642 2.00035C6.8669 2.01745 7.71884 2.43922 8.53659 3.2571C8.84431 3.55917 9.115 3.90114 9.33724 4.27446C9.77603 4.98121 9.93559 5.71075 9.81022 6.44313C9.68485 7.17552 9.2774 7.89082 8.59357 8.57476C8.43401 8.73435 8.26591 8.88538 8.08925 9.02502C8.02372 9.14471 8.06361 9.52088 8.59357 10.296C9.20617 11.1908 10.2319 12.2481 10.9499 12.9662L11.0354 13.0517C11.7534 13.7699 12.8105 14.7929 13.7052 15.4085C14.4774 15.9386 14.8563 15.9784 14.976 15.9129C15.1156 15.7362 15.2638 15.5681 15.4262 15.4085C16.11 14.7246 16.8252 14.317 17.5574 14.1916C18.2897 14.0663 19.0191 14.2258 19.7258 14.6647C20.0962 14.887 20.4381 15.1549 20.743 15.4655C21.5607 16.2834 21.9824 17.1326 21.9995 17.9961C22.0166 18.8881 21.5977 19.7914 20.7515 20.6749C20.4552 20.9855 20.042 21.2819 19.9053 21.3816L19.8882 21.393C19.8796 21.3987 19.8711 21.4044 19.8625 21.4129C19.287 21.8034 18.5604 22 17.7227 22ZM8.52804 15.5624C10.7932 17.8279 13.0898 19.4637 15.1669 20.293C16.8936 20.9798 18.3638 21.0453 19.2015 20.4754L19.2357 20.4526C19.5434 20.2303 19.7742 20.0394 19.9224 19.8855C21.1647 18.586 21.1675 17.5031 19.9309 16.2691C19.6944 16.0269 19.4294 15.8189 19.1417 15.645L19.1246 15.6365C18.6516 15.3429 18.1985 15.2375 17.7427 15.3145C17.2497 15.3971 16.7397 15.6992 16.2268 16.2121C16.0815 16.3546 15.9476 16.5057 15.8251 16.6681C15.8051 16.6909 15.7852 16.7137 15.7652 16.7336C15.5231 16.9588 15.0871 17.1896 14.3976 17.0129C14.0072 16.9132 13.5684 16.6966 13.0584 16.3461C12.0868 15.6792 10.9784 14.6049 10.2291 13.8554L10.1436 13.7699C9.39423 13.0204 8.32004 11.9118 7.65331 10.9372C7.30285 10.4271 7.08345 9.98824 6.98657 9.59782C6.81277 8.90818 7.04356 8.47217 7.2658 8.22994C7.28575 8.20714 7.30854 8.18719 7.33134 8.17009C7.49375 8.04755 7.64476 7.91361 7.78722 7.76828C8.3001 7.25532 8.60212 6.74521 8.68475 6.2522C8.76168 5.79339 8.65626 5.34313 8.36278 4.87006L8.35423 4.85297C8.18043 4.56514 7.97243 4.29726 7.73024 4.06358C6.4965 2.82963 5.41376 2.83248 4.11449 4.07498C3.96062 4.22317 3.76972 4.454 3.54748 4.76177L3.52183 4.79597C2.95198 5.6338 3.02036 7.10428 3.70704 8.83124C4.53618 10.9087 6.17168 13.2056 8.43686 15.4712L8.47675 15.5111L8.48815 15.5225L8.52804 15.5624Z" fill="#A13EA1"/>
</svg>
