<svg width="24" height="24" viewBox="0 0 24 24" fill="none" xmlns="http://www.w3.org/2000/svg">
<path d="M16.7158 4.43478C16.7885 4.43478 16.8611 4.40876 16.9167 4.35536C17.0278 4.24855 17.0278 4.07463 16.9167 3.96782L16.9081 3.95823C16.2671 3.34611 15.5236 2.86546 14.6974 2.52859C13.8371 2.17802 12.9226 2 11.9782 2C11.0423 2 10.1321 2.17528 9.27464 2.52174C8.45559 2.85313 7.71774 3.32557 7.0853 3.92537C6.97277 4.03218 6.97134 4.20473 7.08245 4.31291C7.19355 4.42109 7.37303 4.42246 7.48556 4.31565C8.06672 3.76515 8.74333 3.33105 9.49542 3.02705C10.2831 2.70935 11.1193 2.54776 11.9782 2.54776C12.8457 2.54776 13.6847 2.71072 14.4752 3.03252C15.2344 3.34201 15.9181 3.78295 16.5064 4.34577L16.515 4.35399C16.5705 4.4074 16.6432 4.43478 16.7158 4.43478Z" fill="#A13EA1"/>
<path d="M15.4595 5.93153C15.5321 5.93153 15.6034 5.90551 15.6589 5.85347C15.7714 5.74803 15.7729 5.57412 15.6618 5.46594L15.6518 5.45635C15.1789 5.00445 14.629 4.64841 14.0194 4.39781C13.3741 4.13351 12.6876 3.99931 11.9796 3.99931C11.2802 3.99931 10.6022 4.13078 9.96121 4.38959C9.35583 4.63471 8.8117 4.98254 8.34164 5.42622C8.22911 5.53167 8.22769 5.70558 8.33737 5.81376C8.44705 5.92194 8.62795 5.92331 8.74048 5.81787C9.15926 5.42348 9.64356 5.11263 10.182 4.8949C10.7518 4.66347 11.3571 4.54707 11.9796 4.54707C12.6106 4.54707 13.2217 4.66621 13.7958 4.90174C14.3399 5.12496 14.8299 5.44266 15.2515 5.84526L15.2572 5.85074C15.3128 5.90414 15.3854 5.93153 15.4595 5.93153ZM14.2031 7.42691C14.2758 7.42691 14.3484 7.39952 14.404 7.34611C14.5151 7.2393 14.5151 7.06539 14.404 6.95858C14.0963 6.66279 13.7402 6.42862 13.3428 6.26429C12.9126 6.0849 12.454 5.99452 11.9825 5.99452C11.521 5.99452 11.0723 6.08216 10.6492 6.25334C10.2589 6.41082 9.90566 6.63677 9.59941 6.9216C9.48688 7.02704 9.48403 7.20096 9.59371 7.30914C9.70339 7.41732 9.88429 7.42006 9.99682 7.31462C10.2518 7.07634 10.5466 6.88874 10.8714 6.75727C11.2232 6.61349 11.5979 6.54091 11.9825 6.54091C12.377 6.54091 12.7588 6.61623 13.1163 6.76549C13.4468 6.90243 13.7445 7.09825 14.0009 7.34474C14.0564 7.40089 14.1291 7.42691 14.2031 7.42691Z" fill="#A13EA1"/>
<path d="M12.001 10C12.3414 10 12.6121 9.90962 12.8058 9.73023C13.0066 9.54399 13.1092 9.27559 13.1092 8.93461C13.1092 8.59363 13.0066 8.32523 12.8058 8.13899C12.6121 7.9596 12.3414 7.86922 12.001 7.86922C11.6606 7.86922 11.3899 7.9596 11.1962 8.13899C10.9953 8.32523 10.8928 8.59363 10.8928 8.93461C10.8928 9.27559 10.9953 9.54399 11.1962 9.73023C11.3885 9.90962 11.6591 10 12.001 10ZM12.001 8.41698C12.3827 8.41698 12.5394 8.56761 12.5394 8.93461C12.5394 9.30161 12.3827 9.45224 12.001 9.45224C11.6192 9.45224 11.4626 9.30161 11.4626 8.93461C11.4626 8.747 11.5053 8.6128 11.5922 8.53338C11.6748 8.45532 11.8115 8.41698 12.001 8.41698Z" fill="#A13EA1"/>
<path d="M10.2523 17.8987L3.74771 17.8945C3.17849 17.8945 2.73799 17.739 2.43621 17.4336C2.14588 17.1394 2 16.719 2 16.1824V13.1981C2 12.1025 2.62071 11.5 3.74771 11.5L10.2523 11.5042C11.3793 11.5042 12 12.1067 12 13.2023V16.1866C12 16.7218 11.8527 17.1422 11.5638 17.4378C11.262 17.7446 10.8215 17.8987 10.2523 17.8987ZM3.74771 12.0576C3.33724 12.0576 3.03404 12.1543 2.84525 12.3435C2.66219 12.527 2.56922 12.8142 2.56922 13.1981V16.1824C2.56922 16.9698 2.94394 17.3369 3.74771 17.3369L10.2523 17.3411C11.0561 17.3411 11.4308 16.974 11.4308 16.1866V13.2023C11.4308 12.8184 11.3378 12.5312 11.1547 12.3477C10.966 12.1585 10.6613 12.0618 10.2523 12.0618L3.74771 12.0576Z" fill="#A13EA1"/>
<path d="M8.21539 19L5.78461 18.9958C5.62729 18.9958 5.5 18.8711 5.5 18.717C5.5 18.5629 5.62729 18.4382 5.78461 18.4382L8.21539 18.4424C8.37271 18.4424 8.5 18.5671 8.5 18.7212C8.5 18.8753 8.37271 19 8.21539 19Z" fill="#A13EA1"/>
<path d="M22 14.1386C22 14.5789 21.8917 15.0832 21.6751 15.626C21.232 16.7358 20.3699 17.951 19.1816 19.1392L19.1787 19.142L19.1417 19.1805L19.1388 19.1833C17.9505 20.3715 16.7351 21.2334 15.6251 21.6764C14.5621 22.0981 13.6545 22.1081 13.0688 21.7035L13.0475 21.6893C12.9791 21.6394 12.7725 21.4912 12.6243 21.336C12.2025 20.8943 11.9931 20.4427 12.0002 19.9968C12.0087 19.5665 12.2196 19.1406 12.6285 18.7317C12.7796 18.5778 12.9506 18.4425 13.1372 18.3314C13.4906 18.112 13.8554 18.0322 14.2216 18.0949C14.5878 18.1576 14.9454 18.3613 15.2874 18.7032C15.3672 18.783 15.4427 18.867 15.5125 18.9554C15.5724 18.9881 15.7604 18.9682 16.148 18.7032C16.5954 18.3969 17.1241 17.884 17.4831 17.525L17.5259 17.4823C17.8849 17.1233 18.3965 16.5947 18.7042 16.1474C18.9693 15.7613 18.9892 15.5718 18.9565 15.512C18.8681 15.4422 18.784 15.3681 18.7042 15.2869C18.3623 14.945 18.1585 14.5874 18.0958 14.2213C18.0331 13.8551 18.1129 13.4904 18.3324 13.1371C18.4435 12.9519 18.5774 12.781 18.7327 12.6285C19.1417 12.2196 19.5663 12.0088 19.998 12.0003C20.444 11.9917 20.8957 12.2011 21.3374 12.6242C21.4927 12.7724 21.6409 12.979 21.6908 13.0474L21.6965 13.0559C21.6994 13.0602 21.7022 13.0645 21.7065 13.0687C21.9017 13.3565 22 13.7198 22 14.1386ZM18.7812 18.736C19.914 17.6034 20.7319 16.4551 21.1465 15.4166C21.4899 14.5532 21.5227 13.8181 21.2377 13.3993L21.2263 13.3822C21.1151 13.2283 21.0197 13.1129 20.9427 13.0388C20.293 12.4177 19.7515 12.4162 19.1346 13.0345C19.0134 13.1528 18.9094 13.2853 18.8225 13.4292L18.8182 13.4377C18.6715 13.6742 18.6188 13.9007 18.6572 14.1287C18.6985 14.3751 18.8496 14.6301 19.1061 14.8866C19.1773 14.9592 19.2528 15.0262 19.334 15.0875C19.3454 15.0974 19.3568 15.1074 19.3668 15.1174C19.4794 15.2385 19.5948 15.4564 19.5065 15.8012C19.4566 15.9964 19.3483 16.2158 19.173 16.4708C18.8396 16.9566 18.3024 17.5108 17.9277 17.8855L17.8849 17.9282C17.5102 18.3029 16.9559 18.84 16.4686 19.1733C16.2136 19.3486 15.9941 19.4583 15.7989 19.5067C15.4541 19.5936 15.2361 19.4782 15.115 19.3671C15.1036 19.3571 15.0936 19.3457 15.085 19.3343C15.0238 19.2531 14.9568 19.1776 14.8841 19.1064C14.6277 18.85 14.3726 18.6989 14.1261 18.6576C13.8967 18.6192 13.6716 18.6719 13.435 18.8186L13.4265 18.8229C13.2826 18.9098 13.1486 19.0138 13.0318 19.1349C12.4148 19.7518 12.4162 20.2931 13.0375 20.9428C13.1116 21.0197 13.227 21.1151 13.3809 21.2263L13.398 21.2391C13.8169 21.524 14.5521 21.4898 15.4156 21.1465C16.4544 20.7319 17.6028 19.9142 18.7356 18.7816L18.7812 18.736Z" fill="#A13EA1"/>
</svg>
