<svg width="32" height="32" viewBox="0 0 32 32" fill="none" xmlns="http://www.w3.org/2000/svg">
<path d="M0 16.0009C0 5.0769 5.86644 0 16 0C26.1336 0 32 5.0769 32 16.0009C32 26.9248 26.1336 32 16 32C5.86644 32 0 26.9231 0 16.0009Z" fill="#0B2739"/>
<path d="M20.8373 26.0781C20.4868 26.0781 20.1362 25.9898 19.8141 25.8131L16.0205 23.7352C16.0091 23.7295 15.9948 23.7295 15.9834 23.7352L12.1898 25.8131C11.4715 26.2064 10.605 26.1579 9.93524 25.6819C9.22553 25.1803 8.87495 24.3252 9.02032 23.4531L9.74427 19.0523C9.74997 19.0181 9.73857 18.9868 9.71862 18.964L6.65178 15.8487C6.04754 15.2359 5.84517 14.3438 6.12164 13.5172C6.38671 12.7191 7.05651 12.1491 7.86598 12.0265L12.1043 11.3852C12.1242 11.3824 12.1413 11.3681 12.1499 11.351C12.1499 11.3482 12.1499 11.3482 12.1527 11.3453L14.0481 7.34077C14.4129 6.55981 15.1654 6.07812 16.0034 6.07812C16.8413 6.07812 17.5938 6.55981 17.9615 7.33792L19.8569 11.3425C19.8569 11.3453 19.8569 11.3453 19.8597 11.3482C19.8683 11.3653 19.8854 11.3795 19.9053 11.3824L24.1436 12.0237C24.9531 12.1462 25.6229 12.7191 25.8879 13.5172C26.1615 14.3438 25.9592 15.2359 25.3549 15.8487L22.2881 18.964C22.2653 18.9868 22.2567 19.0181 22.2624 19.0523L22.9864 23.4559C23.1289 24.3281 22.7783 25.1832 22.0715 25.6848C21.701 25.947 21.2706 26.0781 20.8373 26.0781ZM16.0034 22.6237C16.1943 22.6237 16.3824 22.6721 16.5563 22.7662L20.3471 24.844C20.8516 25.1205 21.2734 24.8924 21.4302 24.7813C21.7124 24.5818 21.9803 24.177 21.8919 23.6355L21.168 19.2347C21.1053 18.8585 21.225 18.468 21.4929 18.1944L21.4957 18.1916L24.5654 15.0734C24.936 14.6972 24.9474 14.2041 24.8362 13.8678C24.6994 13.4602 24.3802 13.1809 23.9783 13.121L19.7371 12.4769H19.7314C19.3467 12.4142 19.0189 12.169 18.8564 11.8156L16.961 7.81391C16.7758 7.42058 16.4166 7.18686 16.0034 7.18686C15.5901 7.18686 15.2338 7.42058 15.0485 7.81391L13.1531 11.8156C12.9878 12.169 12.6629 12.4142 12.2781 12.4769H12.2724L8.03129 13.1182C7.62941 13.178 7.30733 13.4573 7.17337 13.8649C7.06221 14.2013 7.07361 14.6943 7.44414 15.0706L10.511 18.1887L10.5138 18.1916C10.7818 18.4652 10.9015 18.8557 10.8388 19.2347L10.1148 23.6355C10.0264 24.1742 10.2944 24.5818 10.5765 24.7813C10.7333 24.8924 11.1523 25.1205 11.6596 24.844L15.4533 22.7662C15.6243 22.6721 15.8124 22.6237 16.0034 22.6237Z" fill="white"/>
</svg>
