<svg width="32" height="32" viewBox="0 0 32 32" fill="none" xmlns="http://www.w3.org/2000/svg">
<path d="M0 16.0009C0 5.0769 5.86644 0 16 0C26.1336 0 32 5.0769 32 16.0009C32 26.9248 26.1336 32 16 32C5.86644 32 0 26.9231 0 16.0009Z" fill="#0B2739"/>
<path d="M23.638 14.5536L14.8472 14.548C14.0779 14.548 13.4825 14.3401 13.0747 13.9318C12.6823 13.5385 12.4851 12.9766 12.4851 12.2593V8.26997C12.4851 6.80535 13.324 6 14.8472 6L23.638 6.00562C25.1611 6.00562 26 6.81097 26 8.27559V12.2649C26 12.9803 25.8009 13.5422 25.4105 13.9374C25.0026 14.3476 24.4073 14.5536 23.638 14.5536ZM14.8472 6.74542C14.2924 6.74542 13.8826 6.87465 13.6275 7.12749C13.3801 7.37285 13.2544 7.75679 13.2544 8.26997V12.2593C13.2544 13.3119 13.7609 13.8026 14.8472 13.8026L23.638 13.8082C24.7243 13.8082 25.2307 13.3175 25.2307 12.2649V8.27559C25.2307 7.76241 25.1051 7.37846 24.8577 7.13311C24.6025 6.88027 24.1908 6.75104 23.638 6.75104L14.8472 6.74542Z" fill="white"/>
<path d="M20.8852 16.0257L17.6 16.0201C17.3874 16.0201 17.2153 15.8534 17.2153 15.6474C17.2153 15.4414 17.3874 15.2747 17.6 15.2747L20.8852 15.2803C21.0978 15.2803 21.2698 15.447 21.2698 15.653C21.2698 15.859 21.0978 16.0257 20.8852 16.0257Z" fill="white"/>
<path d="M16.6245 26C16.0296 26 15.348 25.8552 14.6144 25.5657C13.1145 24.9734 11.4722 23.821 9.86639 22.2324L9.86254 22.2286L9.81055 22.1791L9.8067 22.1753C8.20093 20.5868 7.03607 18.962 6.43727 17.4783C5.86736 16.0573 5.85388 14.844 6.40069 14.0612L6.41995 14.0326C6.48733 13.9412 6.68757 13.665 6.89744 13.4669C7.49431 12.9031 8.10466 12.6231 8.70731 12.6326C9.28877 12.6441 9.86447 12.926 10.4171 13.4726C10.625 13.6745 10.8079 13.9031 10.9581 14.1526C11.2546 14.625 11.3624 15.1126 11.2777 15.6021C11.193 16.0916 10.9177 16.5697 10.4556 17.0268C10.3477 17.1335 10.2341 17.2344 10.1148 17.3278C10.0705 17.4078 10.0974 17.6592 10.4556 18.1773C10.8695 18.7754 11.5627 19.482 12.0479 19.962L12.1056 20.0192C12.5908 20.4991 13.3051 21.1829 13.9097 21.5944C14.4315 21.9486 14.6876 21.9753 14.7684 21.9315C14.8628 21.8134 14.9629 21.701 15.0726 21.5944C15.5347 21.1372 16.018 20.8649 16.5128 20.781C17.0077 20.6972 17.5006 20.8039 17.9781 21.0972C18.2284 21.2458 18.4594 21.4248 18.6654 21.6325C19.218 22.1791 19.503 22.7467 19.5145 23.3239C19.5261 23.92 19.243 24.5238 18.6712 25.1143C18.471 25.3219 18.1918 25.52 18.0994 25.5867L18.0878 25.5943C18.082 25.5981 18.0762 25.6019 18.0705 25.6076C17.6815 25.8686 17.1906 26 16.6245 26ZM10.4113 21.6972C11.942 23.2115 13.4938 24.3048 14.8974 24.8591C16.0642 25.3181 17.0577 25.3619 17.6238 24.981L17.6469 24.9657C17.8548 24.8172 18.0108 24.6895 18.1109 24.5867C18.9504 23.7181 18.9523 22.9943 18.1167 22.1696C17.9569 22.0077 17.7778 21.8686 17.5833 21.7525L17.5718 21.7467C17.2522 21.5506 16.946 21.4801 16.638 21.5315C16.3049 21.5867 15.9602 21.7886 15.6137 22.1315C15.5155 22.2267 15.425 22.3277 15.3422 22.4363C15.3287 22.4515 15.3152 22.4667 15.3018 22.4801C15.1381 22.6305 14.8435 22.7848 14.3776 22.6667C14.1138 22.6001 13.8173 22.4553 13.4726 22.221C12.8161 21.7753 12.0671 21.0572 11.5607 20.5563L11.503 20.4991C10.9966 19.9982 10.2707 19.2573 9.82018 18.6058C9.58336 18.2649 9.4351 17.9716 9.36964 17.7106C9.25219 17.2497 9.40815 16.9583 9.55833 16.7964C9.57181 16.7811 9.58721 16.7678 9.60261 16.7564C9.71236 16.6745 9.8144 16.5849 9.91067 16.4878C10.2572 16.1449 10.4613 15.804 10.5172 15.4745C10.5692 15.1678 10.4979 14.8669 10.2996 14.5507L10.2938 14.5393C10.1764 14.3469 10.0358 14.1678 9.87217 14.0116C9.03847 13.1869 8.30683 13.1888 7.42885 14.0193C7.32488 14.1183 7.19588 14.2726 7.0457 14.4783L7.02837 14.5012C6.64329 15.0612 6.6895 16.044 7.15352 17.1983C7.71381 18.5868 8.81898 20.122 10.3497 21.6363L10.4113 21.6972Z" fill="white"/>
</svg>

