<svg width="32" height="32" viewBox="0 0 32 32" fill="none" xmlns="http://www.w3.org/2000/svg">
<path d="M0 16.0009C0 5.0769 5.86644 0 16 0C26.1336 0 32 5.0769 32 16.0009C32 26.9248 26.1336 32 16 32C5.86644 32 0 26.9231 0 16.0009Z" fill="#954B97"/>
<path fill-rule="evenodd" clip-rule="evenodd" d="M19.6272 24.7726L21.9124 24.7698C22.1969 24.7698 22.4274 24.5877 22.4274 24.3629V16.705C22.4331 16.3606 22.7177 16.0846 23.0649 16.0903H24.2117C24.4821 16.0903 24.6414 15.948 24.6983 15.8114C24.7382 15.7147 24.7581 15.5752 24.6101 15.4272L16.3973 7.35671C16.1981 7.16035 15.7968 7.16035 15.5976 7.35671L7.38768 15.4329C7.2397 15.5781 7.25962 15.7203 7.30231 15.8171C7.35922 15.9508 7.51859 16.0931 7.78893 16.0931H8.82194C9.16627 16.0874 9.45084 16.3606 9.45654 16.7078V24.3657C9.45654 24.5905 9.68704 24.7726 9.96877 24.7726H12.4246C12.2053 24.7726 12.7149 24.767 13.0621 24.7726H18.9926C19.337 24.767 20 24.7722 19.6272 24.7726ZM21.9124 25.9992H18.9898C18.6454 26.0049 18 26 18.3552 25.9992H13.6967C14.5 25.9992 13.4064 26.0049 13.0621 25.9992H9.96877C8.98414 25.9992 8.18164 25.265 8.18164 24.3657V17.3225H7.78893C7.05473 17.3225 6.40021 16.9184 6.12986 16.2923C5.8709 15.7004 6.00465 15.0402 6.48273 14.5764L14.6927 6.49729C15.3643 5.83424 16.6335 5.83424 17.3079 6.49729L25.5179 14.5735C25.9931 15.0402 26.1297 15.6976 25.8708 16.2895C25.6004 16.9156 24.9459 17.3197 24.2117 17.3197H23.6995V24.3629C23.6995 25.265 22.897 25.9992 21.9124 25.9992Z" fill="white"/>
<path fill-rule="evenodd" clip-rule="evenodd" d="M15.3163 22.6792C15.4977 22.8571 15.7459 22.933 16.0001 22.933C16.2542 22.933 16.5057 22.8556 16.6856 22.6792C16.8645 22.5036 16.942 22.2706 16.942 22.0197C16.942 21.7649 16.8616 21.5265 16.6806 21.3527C16.5012 21.1805 16.259 21.1063 16.0017 21.1063C15.7445 21.1063 15.5021 21.1804 15.3224 21.3523C15.141 21.5259 15.0598 21.7643 15.0598 22.0197C15.0598 22.2679 15.135 22.5015 15.3163 22.6792Z" fill="white"/>
<path fill-rule="evenodd" clip-rule="evenodd" d="M12.4796 23.688C12.8747 24.0608 13.4278 24.2167 14.1083 24.2167H17.8919C18.5729 24.2167 19.1237 24.0605 19.5201 23.6885C19.9201 23.3092 20.0918 22.7691 20.0918 22.106V14.894C20.0918 14.2369 19.9244 13.7033 19.5255 13.3213C19.1287 12.9412 18.5749 12.7833 17.8919 12.7833H14.1083C13.4271 12.7833 12.8744 12.9473 12.4758 13.331C12.0794 13.7145 11.9084 14.2435 11.9084 14.894V22.106C11.9084 22.7682 12.077 23.3081 12.4796 23.688ZM13.1552 14.894C13.1552 14.5048 13.2398 14.3062 13.3553 14.1962C13.4742 14.0829 13.692 13.9997 14.1083 13.9997H17.8919C18.3266 13.9997 18.5467 14.0871 18.6526 14.1888C18.7563 14.2885 18.845 14.4897 18.845 14.894V22.106C18.845 22.5139 18.7633 22.7084 18.6541 22.8124C18.541 22.9202 18.3271 23.0003 17.8919 23.0003H14.1083C13.6731 23.0003 13.4592 22.9202 13.3462 22.8124C13.2369 22.7084 13.1552 22.5139 13.1552 22.106V14.894Z" fill="white"/>
</svg>
