<svg width="32" height="32" viewBox="0 0 32 32" fill="none" xmlns="http://www.w3.org/2000/svg">
<path d="M0 16.0009C0 5.0769 5.86644 0 16 0C26.1336 0 32 5.0769 32 16.0009C32 26.9248 26.1336 32 16 32C5.86644 32 0 26.9231 0 16.0009Z" fill="#0B2739"/>
<path d="M19.4925 26H12.5075C11.3284 26 10.4687 25.7297 9.8806 25.175C9.28657 24.6145 9 23.7895 9 22.6572V9.34282C9 8.23898 9.28657 7.42817 9.87761 6.85633C10.4746 6.28165 11.3343 6 12.5075 6H19.4925C20.6746 6 21.5343 6.27312 22.1254 6.83926C22.7164 7.40541 23 8.22191 23 9.34282V22.6572C23 23.7895 22.7104 24.6145 22.1194 25.175C21.5284 25.7297 20.6716 26 19.4925 26ZM12.5075 7.13798C10.8657 7.13798 10.194 7.77809 10.194 9.34282V22.6572C10.194 24.2646 10.8209 24.862 12.5075 24.862H19.4925C21.1791 24.862 21.806 24.2646 21.806 22.6572V9.34282C21.806 8.5377 21.6328 7.98009 21.2806 7.64154C20.9284 7.30299 20.3403 7.13798 19.4925 7.13798H12.5075Z" fill="white"/>
<path d="M16 21.6472C15.4627 21.6472 15.1134 21.9175 15.1134 22.495C15.1134 22.7738 15.194 22.9787 15.3373 23.1181C15.4925 23.2688 15.7194 23.3428 16 23.3428C16.2806 23.3428 16.5075 23.2688 16.6627 23.1181C16.806 22.9787 16.8866 22.771 16.8866 22.495C16.8836 21.9175 16.5373 21.6472 16 21.6472Z" fill="white"/>
<path d="M16 23.6302C15.6358 23.6302 15.3313 23.522 15.1254 23.3201C14.9194 23.1181 14.8179 22.8421 14.8179 22.4979C14.8179 21.7895 15.2597 21.3656 16.003 21.3656C16.7463 21.3656 17.1851 21.7895 17.1851 22.4979C17.1851 22.8449 17.0806 23.1209 16.8776 23.3201C16.6746 23.5192 16.3642 23.6302 16 23.6302ZM16 21.9346C15.594 21.9346 15.4119 22.1081 15.4119 22.4979C15.4119 22.6913 15.4597 22.8336 15.5493 22.9218C15.6388 23.01 15.794 23.0612 15.997 23.0612C16.2 23.0612 16.3522 23.0156 16.4448 22.9218C16.5373 22.8279 16.5821 22.6885 16.5821 22.4979C16.5851 22.1081 16.406 21.9317 16 21.9346Z" fill="white"/>
</svg>
