<svg width="32" height="32" viewBox="0 0 32 32" fill="none" xmlns="http://www.w3.org/2000/svg">
<path d="M0 16.0009C0 5.0769 5.86644 0 16 0C26.1336 0 32 5.0769 32 16.0009C32 26.9248 26.1336 32 16 32C5.86644 32 0 26.9231 0 16.0009Z" fill="#0B2739"/>
<path d="M20.7158 8.43478C20.7885 8.43478 20.8611 8.40876 20.9167 8.35536C21.0278 8.24855 21.0278 8.07463 20.9167 7.96782L20.9081 7.95823C20.2671 7.34611 19.5236 6.86546 18.6974 6.52859C17.8371 6.17802 16.9226 6 15.9782 6C15.0423 6 14.1321 6.17528 13.2746 6.52174C12.4556 6.85313 11.7177 7.32557 11.0853 7.92537C10.9728 8.03218 10.9713 8.20473 11.0824 8.31291C11.1936 8.42109 11.373 8.42246 11.4856 8.31565C12.0667 7.76515 12.7433 7.33105 13.4954 7.02705C14.2831 6.70935 15.1193 6.54776 15.9782 6.54776C16.8457 6.54776 17.6847 6.71072 18.4752 7.03252C19.2344 7.34201 19.9181 7.78295 20.5064 8.34577L20.515 8.35399C20.5705 8.4074 20.6432 8.43478 20.7158 8.43478Z" fill="white"/>
<path d="M19.4595 9.93153C19.5321 9.93153 19.6034 9.90551 19.6589 9.85347C19.7714 9.74803 19.7729 9.57412 19.6618 9.46594L19.6518 9.45635C19.1789 9.00445 18.629 8.64841 18.0194 8.39781C17.3741 8.13351 16.6876 7.99931 15.9796 7.99931C15.2802 7.99931 14.6022 8.13078 13.9612 8.38959C13.3558 8.63471 12.8117 8.98254 12.3416 9.42622C12.2291 9.53167 12.2277 9.70558 12.3374 9.81376C12.447 9.92194 12.6279 9.92331 12.7405 9.81787C13.1593 9.42348 13.6436 9.11263 14.182 8.8949C14.7518 8.66347 15.3571 8.54707 15.9796 8.54707C16.6106 8.54707 17.2217 8.66621 17.7958 8.90174C18.3399 9.12496 18.8299 9.44266 19.2515 9.84526L19.2572 9.85074C19.3128 9.90414 19.3854 9.93153 19.4595 9.93153ZM18.2031 11.4269C18.2758 11.4269 18.3484 11.3995 18.404 11.3461C18.5151 11.2393 18.5151 11.0654 18.404 10.9586C18.0963 10.6628 17.7402 10.4286 17.3428 10.2643C16.9126 10.0849 16.454 9.99452 15.9825 9.99452C15.521 9.99452 15.0723 10.0822 14.6492 10.2533C14.2589 10.4108 13.9057 10.6368 13.5994 10.9216C13.4869 11.027 13.484 11.201 13.5937 11.3091C13.7034 11.4173 13.8843 11.4201 13.9968 11.3146C14.2518 11.0763 14.5466 10.8887 14.8714 10.7573C15.2232 10.6135 15.5979 10.5409 15.9825 10.5409C16.377 10.5409 16.7588 10.6162 17.1163 10.7655C17.4468 10.9024 17.7445 11.0983 18.0009 11.3447C18.0564 11.4009 18.1291 11.4269 18.2031 11.4269Z" fill="white"/>
<path d="M16.001 14C16.3414 14 16.6121 13.9096 16.8058 13.7302C17.0066 13.544 17.1092 13.2756 17.1092 12.9346C17.1092 12.5936 17.0066 12.3252 16.8058 12.139C16.6121 11.9596 16.3414 11.8692 16.001 11.8692C15.6606 11.8692 15.3899 11.9596 15.1962 12.139C14.9953 12.3252 14.8928 12.5936 14.8928 12.9346C14.8928 13.2756 14.9953 13.544 15.1962 13.7302C15.3885 13.9096 15.6591 14 16.001 14ZM16.001 12.417C16.3827 12.417 16.5394 12.5676 16.5394 12.9346C16.5394 13.3016 16.3827 13.4522 16.001 13.4522C15.6192 13.4522 15.4626 13.3016 15.4626 12.9346C15.4626 12.747 15.5053 12.6128 15.5922 12.5334C15.6748 12.4553 15.8115 12.417 16.001 12.417Z" fill="white"/>
<path d="M14.2523 21.8987L7.74771 21.8945C7.17849 21.8945 6.73799 21.739 6.43621 21.4336C6.14588 21.1394 6 20.719 6 20.1824V17.1981C6 16.1025 6.62071 15.5 7.74771 15.5L14.2523 15.5042C15.3793 15.5042 16 16.1067 16 17.2023V20.1866C16 20.7218 15.8527 21.1422 15.5638 21.4378C15.262 21.7446 14.8215 21.8987 14.2523 21.8987ZM7.74771 16.0576C7.33724 16.0576 7.03404 16.1543 6.84525 16.3435C6.66219 16.527 6.56922 16.8142 6.56922 17.1981V20.1824C6.56922 20.9698 6.94394 21.3369 7.74771 21.3369L14.2523 21.3411C15.0561 21.3411 15.4308 20.974 15.4308 20.1866V17.2023C15.4308 16.8184 15.3378 16.5312 15.1547 16.3477C14.966 16.1585 14.6613 16.0618 14.2523 16.0618L7.74771 16.0576Z" fill="white"/>
<path d="M12.2154 23L9.78461 22.9958C9.62729 22.9958 9.5 22.8711 9.5 22.717C9.5 22.5629 9.62729 22.4382 9.78461 22.4382L12.2154 22.4424C12.3727 22.4424 12.5 22.5671 12.5 22.7212C12.5 22.8753 12.3727 23 12.2154 23Z" fill="white"/>
<path d="M26 18.1386C26 18.5789 25.8917 19.0832 25.6751 19.626C25.232 20.7358 24.3699 21.951 23.1816 23.1392L23.1787 23.142L23.1417 23.1805L23.1388 23.1833C21.9505 24.3715 20.7351 25.2334 19.6251 25.6764C18.5621 26.0981 17.6545 26.1081 17.0688 25.7035L17.0475 25.6893C16.9791 25.6394 16.7725 25.4912 16.6243 25.336C16.2025 24.8943 15.9931 24.4427 16.0002 23.9968C16.0087 23.5665 16.2196 23.1406 16.6285 22.7317C16.7796 22.5778 16.9506 22.4425 17.1372 22.3314C17.4906 22.112 17.8554 22.0322 18.2216 22.0949C18.5878 22.1576 18.9454 22.3613 19.2874 22.7032C19.3672 22.783 19.4427 22.867 19.5125 22.9554C19.5724 22.9881 19.7604 22.9682 20.148 22.7032C20.5954 22.3969 21.1241 21.884 21.4831 21.525L21.5259 21.4823C21.8849 21.1233 22.3965 20.5947 22.7042 20.1474C22.9693 19.7613 22.9892 19.5718 22.9565 19.512C22.8681 19.4422 22.784 19.3681 22.7042 19.2869C22.3623 18.945 22.1585 18.5874 22.0958 18.2213C22.0331 17.8551 22.1129 17.4904 22.3324 17.1371C22.4435 16.9519 22.5774 16.781 22.7327 16.6285C23.1417 16.2196 23.5663 16.0088 23.998 16.0003C24.444 15.9917 24.8957 16.2011 25.3374 16.6242C25.4927 16.7724 25.6409 16.979 25.6908 17.0474L25.6965 17.0559C25.6994 17.0602 25.7022 17.0645 25.7065 17.0687C25.9017 17.3565 26 17.7198 26 18.1386ZM22.7812 22.736C23.914 21.6034 24.7319 20.4551 25.1465 19.4166C25.4899 18.5532 25.5227 17.8181 25.2377 17.3993L25.2263 17.3822C25.1151 17.2283 25.0197 17.1129 24.9427 17.0388C24.293 16.4177 23.7515 16.4162 23.1346 17.0345C23.0134 17.1528 22.9094 17.2853 22.8225 17.4292L22.8182 17.4377C22.6715 17.6742 22.6188 17.9007 22.6572 18.1287C22.6985 18.3751 22.8496 18.6301 23.1061 18.8866C23.1773 18.9592 23.2528 19.0262 23.334 19.0875C23.3454 19.0974 23.3568 19.1074 23.3668 19.1174C23.4794 19.2385 23.5948 19.4564 23.5065 19.8012C23.4566 19.9964 23.3483 20.2158 23.173 20.4708C22.8396 20.9566 22.3024 21.5108 21.9277 21.8855L21.8849 21.9282C21.5102 22.3029 20.9559 22.84 20.4686 23.1733C20.2136 23.3486 19.9941 23.4583 19.7989 23.5067C19.4541 23.5936 19.2361 23.4782 19.115 23.3671C19.1036 23.3571 19.0936 23.3457 19.085 23.3343C19.0238 23.2531 18.9568 23.1776 18.8841 23.1064C18.6277 22.85 18.3726 22.6989 18.1261 22.6576C17.8967 22.6192 17.6716 22.6719 17.435 22.8186L17.4265 22.8229C17.2826 22.9098 17.1486 23.0138 17.0318 23.1349C16.4148 23.7518 16.4162 24.2931 17.0375 24.9428C17.1116 25.0197 17.227 25.1151 17.3809 25.2263L17.398 25.2391C17.8169 25.524 18.5521 25.4898 19.4156 25.1465C20.4544 24.7319 21.6028 23.9142 22.7356 22.7816L22.7812 22.736Z" fill="white"/>
</svg>
