<svg width="16" height="16" viewBox="0 0 16 16" fill="none" xmlns="http://www.w3.org/2000/svg">
<g clip-path="url(#clip0_13_4792)">
<path fill-rule="evenodd" clip-rule="evenodd" d="M11.7364 9.56449C11.5421 9.45794 10.5813 8.94019 10.4019 8.86729C10.2224 8.79439 10.0897 8.75701 9.94953 8.94953C9.80934 9.14393 9.41121 9.57757 9.29159 9.70467C9.17009 9.83364 9.0542 9.84486 8.85794 9.73832C8.66355 9.63178 8.02991 9.39626 7.29533 8.69159C6.72336 8.14206 6.34953 7.47664 6.24112 7.2729C6.13271 7.06916 6.24112 6.96635 6.34392 6.87103C6.43738 6.78505 6.5514 6.64486 6.65607 6.53271C6.75888 6.42056 6.79626 6.33832 6.86729 6.20935C6.93832 6.07851 6.91028 5.96262 6.86355 5.85981C6.81682 5.75888 6.45607 4.76449 6.30654 4.36075C6.15514 3.95701 5.98692 4.01682 5.87103 4.01121C5.75514 4.00748 5.62243 3.98505 5.48972 3.98131C5.35701 3.9757 5.13832 4.01869 4.94953 4.20935C4.75888 4.40187 4.22804 4.86355 4.19065 5.84299C4.15327 6.82243 4.83178 7.79439 4.92523 7.93084C5.02056 8.06729 6.21869 10.1888 8.21121 11.0617C10.2037 11.9346 10.215 11.6692 10.5794 11.6486C10.9458 11.6299 11.7738 11.2112 11.9589 10.7533C12.1421 10.2953 12.157 9.8972 12.1103 9.81122C12.0635 9.7271 11.9327 9.67103 11.7383 9.56449H11.7364ZM8.08224 14.2822C6.76449 14.2822 5.53832 13.8878 4.51402 13.2093L2.02056 14.0075L2.83178 11.5981C2.05421 10.529 1.59626 9.21495 1.59626 7.79439C1.59439 4.21495 4.50467 1.30467 8.08224 1.30467C11.6598 1.30467 14.5701 4.21495 14.5701 7.79252C14.5701 11.3701 11.6598 14.2804 8.08224 14.2804V14.2822ZM8.08224 0C3.77757 0 0.28785 3.48972 0.28785 7.79439C0.28785 9.26729 0.697196 10.6449 1.40561 11.8187L0 16L4.31402 14.6187C5.43178 15.2355 6.71402 15.5888 8.08037 15.5888C12.385 15.5888 15.8748 12.0991 15.8748 7.79439C15.8748 3.48972 12.3869 0 8.08224 0Z" fill="#30BF39"/>
</g>
<defs>
<clipPath id="clip0_13_4792">
<rect width="15.8766" height="16" fill="white"/>
</clipPath>
</defs>
</svg>
