<svg width="36" height="32" viewBox="0 0 36 32" fill="none" xmlns="http://www.w3.org/2000/svg">
<g id="Group 85">
<path id="Fill 1" fill-rule="evenodd" clip-rule="evenodd" d="M35.0797 4.92104L35.245 30.0284C35.4103 31.1169 34.5268 32.0002 33.4383 32.0002H2.76869C1.68014 32.0002 0.796875 31.1169 0.796875 30.0284V4.92104C0.796875 3.83034 1.68014 2.94922 2.76869 2.94922H33.4383C34.5268 2.94922 35.245 3.83034 35.0797 4.92104Z" fill="#E1EEEF"/>
<path id="Fill 3" fill-rule="evenodd" clip-rule="evenodd" d="M34.6132 4.47914V29.5865C34.6132 30.675 33.73 31.5583 32.6414 31.5583H1.97182C0.883268 31.5583 0 30.675 0 29.5865V4.47914C0 3.38844 0.883268 2.50732 1.97182 2.50732H32.6414C33.73 2.50732 34.6132 3.38844 34.6132 4.47914Z" fill="#CAEFFB"/>
<path id="Fill 5" fill-rule="evenodd" clip-rule="evenodd" d="M34.6132 4.47914V7.9894H0V4.47914C0 3.38844 0.883268 2.50732 1.97182 2.50732H32.6414C33.73 2.50732 34.6132 3.38844 34.6132 4.47914Z" fill="#A8E5F9"/>
<path id="Fill 7" fill-rule="evenodd" clip-rule="evenodd" d="M9.3729 15.7414H5.21424C5.00631 15.7414 4.83789 15.5729 4.83789 15.3653V11.2066C4.83789 10.9987 5.00631 10.8301 5.21424 10.8301H9.3729C9.58083 10.8301 9.74909 10.9987 9.74909 11.2066V15.3653C9.74909 15.5729 9.58083 15.7414 9.3729 15.7414Z" fill="#EBFBFF"/>
<path id="Fill 9" fill-rule="evenodd" clip-rule="evenodd" d="M16.371 15.7414H12.2123C12.0044 15.7414 11.8359 15.5729 11.8359 15.3653V11.2066C11.8359 10.9987 12.0044 10.8301 12.2123 10.8301H16.371C16.5787 10.8301 16.7471 10.9987 16.7471 11.2066V15.3653C16.7471 15.5729 16.5787 15.7414 16.371 15.7414Z" fill="#EBFBFF"/>
<path id="Fill 11" fill-rule="evenodd" clip-rule="evenodd" d="M23.367 15.7414H19.2082C19.0005 15.7414 18.832 15.5729 18.832 15.3653V11.2066C18.832 10.9987 19.0005 10.8301 19.2082 10.8301H23.367C23.5748 10.8301 23.7432 10.9987 23.7432 11.2066V15.3653C23.7432 15.5729 23.5748 15.7414 23.367 15.7414Z" fill="#EBFBFF"/>
<path id="Fill 13" fill-rule="evenodd" clip-rule="evenodd" d="M30.3649 15.7414H26.2063C25.9985 15.7414 25.8301 15.5729 25.8301 15.3653V11.2066C25.8301 10.9987 25.9985 10.8301 26.2063 10.8301H30.3649C30.5729 10.8301 30.7413 10.9987 30.7413 11.2066V15.3653C30.7413 15.5729 30.5729 15.7414 30.3649 15.7414Z" fill="#EBFBFF"/>
<path id="Fill 15" fill-rule="evenodd" clip-rule="evenodd" d="M9.3729 22.3308H5.21424C5.00631 22.3308 4.83789 22.1622 4.83789 21.9546V17.7958C4.83789 17.588 5.00631 17.4194 5.21424 17.4194H9.3729C9.58083 17.4194 9.74909 17.588 9.74909 17.7958V21.9546C9.74909 22.1622 9.58083 22.3308 9.3729 22.3308Z" fill="#EBFBFF"/>
<path id="Fill 17" fill-rule="evenodd" clip-rule="evenodd" d="M16.371 22.3308H12.2123C12.0044 22.3308 11.8359 22.1622 11.8359 21.9546V17.7958C11.8359 17.588 12.0044 17.4194 12.2123 17.4194H16.371C16.5787 17.4194 16.7471 17.588 16.7471 17.7958V21.9546C16.7471 22.1622 16.5787 22.3308 16.371 22.3308Z" fill="#EBFBFF"/>
<path id="Fill 19" fill-rule="evenodd" clip-rule="evenodd" d="M23.367 22.3308H19.2082C19.0005 22.3308 18.832 22.1622 18.832 21.9546V17.7958C18.832 17.588 19.0005 17.4194 19.2082 17.4194H23.367C23.5748 17.4194 23.7432 17.588 23.7432 17.7958V21.9546C23.7432 22.1622 23.5748 22.3308 23.367 22.3308Z" fill="#EBFBFF"/>
<path id="Fill 21" fill-rule="evenodd" clip-rule="evenodd" d="M30.3649 22.3308H26.2063C25.9985 22.3308 25.8301 22.1622 25.8301 21.9546V17.7958C25.8301 17.588 25.9985 17.4194 26.2063 17.4194H30.3649C30.5729 17.4194 30.7413 17.588 30.7413 17.7958V21.9546C30.7413 22.1622 30.5729 22.3308 30.3649 22.3308Z" fill="#EBFBFF"/>
<path id="Fill 23" fill-rule="evenodd" clip-rule="evenodd" d="M9.3729 28.9211H5.21424C5.00631 28.9211 4.83789 28.7525 4.83789 28.5448V24.3861C4.83789 24.1784 5.00631 24.0098 5.21424 24.0098H9.3729C9.58083 24.0098 9.74909 24.1784 9.74909 24.3861V28.5448C9.74909 28.7525 9.58083 28.9211 9.3729 28.9211Z" fill="#EBFBFF"/>
<path id="Fill 25" fill-rule="evenodd" clip-rule="evenodd" d="M16.371 28.9211H12.2123C12.0044 28.9211 11.8359 28.7525 11.8359 28.5448V24.3861C11.8359 24.1784 12.0044 24.0098 12.2123 24.0098H16.371C16.5787 24.0098 16.7471 24.1784 16.7471 24.3861V28.5448C16.7471 28.7525 16.5787 28.9211 16.371 28.9211Z" fill="#EBFBFF"/>
<path id="Fill 27" fill-rule="evenodd" clip-rule="evenodd" d="M23.367 28.9211H19.2082C19.0005 28.9211 18.832 28.7525 18.832 28.5448V24.3861C18.832 24.1784 19.0005 24.0098 19.2082 24.0098H23.367C23.5748 24.0098 23.7432 24.1784 23.7432 24.3861V28.5448C23.7432 28.7525 23.5748 28.9211 23.367 28.9211Z" fill="#EBFBFF"/>
<path id="Fill 29" fill-rule="evenodd" clip-rule="evenodd" d="M30.3649 28.9211H26.2063C25.9985 28.9211 25.8301 28.7525 25.8301 28.5448V24.3861C25.8301 24.1784 25.9985 24.0098 26.2063 24.0098H30.3649C30.5729 24.0098 30.7413 24.1784 30.7413 24.3861V28.5448C30.7413 28.7525 30.5729 28.9211 30.3649 28.9211Z" fill="#EBFBFF"/>
<path id="Fill 31" fill-rule="evenodd" clip-rule="evenodd" d="M7.30692 5.59926C7.30692 6.15824 6.85388 6.61112 6.29506 6.61112C5.73624 6.61112 5.2832 6.15824 5.2832 5.59926C5.2832 5.04044 5.73624 4.5874 6.29506 4.5874C6.85388 4.5874 7.30692 5.04044 7.30692 5.59926Z" fill="#1B6677"/>
<path id="Stroke 33" d="M6.32678 5.36779V2" stroke="#5EC6DE" stroke-width="3.02305" stroke-linecap="round"/>
<path id="Fill 35" fill-rule="evenodd" clip-rule="evenodd" d="M15.0335 5.59926C15.0335 6.15824 14.5804 6.61112 14.0216 6.61112C13.4628 6.61112 13.0098 6.15824 13.0098 5.59926C13.0098 5.04044 13.4628 4.5874 14.0216 4.5874C14.5804 4.5874 15.0335 5.04044 15.0335 5.59926Z" fill="#1B6677"/>
<path id="Stroke 37" d="M14.0533 5.36779V2" stroke="#5EC6DE" stroke-width="3.02305" stroke-linecap="round"/>
<path id="Fill 39" fill-rule="evenodd" clip-rule="evenodd" d="M22.762 5.59926C22.762 6.15824 22.3091 6.61112 21.7501 6.61112C21.1913 6.61112 20.7383 6.15824 20.7383 5.59926C20.7383 5.04044 21.1913 4.5874 21.7501 4.5874C22.3091 4.5874 22.762 5.04044 22.762 5.59926Z" fill="#1B6677"/>
<path id="Stroke 41" d="M21.7799 5.36779V2" stroke="#5EC6DE" stroke-width="3.02305" stroke-linecap="round"/>
<path id="Fill 43" fill-rule="evenodd" clip-rule="evenodd" d="M30.4907 5.59926C30.4907 6.15824 30.0376 6.61112 29.4788 6.61112C28.9198 6.61112 28.4668 6.15824 28.4668 5.59926C28.4668 5.04044 28.9198 4.5874 29.4788 4.5874C30.0376 4.5874 30.4907 5.04044 30.4907 5.59926Z" fill="#1B6677"/>
<path id="Stroke 45" d="M29.5084 5.36779V2" stroke="#5EC6DE" stroke-width="3.02305" stroke-linecap="round"/>
<path id="Stroke 47" d="M5.85352 13.6262L7.03776 14.6164L8.74414 12.2451" stroke="#7CD7F4" stroke-width="1.47022" stroke-linecap="round" stroke-linejoin="round"/>
<path id="Stroke 49" d="M12.6074 13.6262L13.7917 14.6164L15.498 12.2451" stroke="#7CD7F4" stroke-width="1.47022" stroke-linecap="round" stroke-linejoin="round"/>
<path id="Stroke 51" d="M19.6914 13.6262L20.8757 14.6164L22.582 12.2451" stroke="#7CD7F4" stroke-width="1.47022" stroke-linecap="round" stroke-linejoin="round"/>
<path id="Stroke 53" d="M26.6094 13.6262L27.7936 14.6164L29.5 12.2451" stroke="#7CD7F4" stroke-width="1.47022" stroke-linecap="round" stroke-linejoin="round"/>
<path id="Stroke 55" d="M5.85352 20.072L7.03776 21.0622L8.74414 18.6909" stroke="#7CD7F4" stroke-width="1.47022" stroke-linecap="round" stroke-linejoin="round"/>
<path id="Stroke 57" d="M12.6074 20.072L13.7917 21.0622L15.498 18.6909" stroke="#7CD7F4" stroke-width="1.47022" stroke-linecap="round" stroke-linejoin="round"/>
</g>
</svg>
