<svg width="62" height="45" viewBox="0 0 62 45" fill="none" xmlns="http://www.w3.org/2000/svg">
<path d="M11.4672 5.73184C8.64006 5.7764 3.42425 7.13431 1.04095 16.6187C0.00263024 20.7501 -0.398172 25.0597 0.489511 30.1846C1.30995 34.9137 2.75983 38.9953 3.73897 41.2444C4.07521 42.0204 4.59975 42.8278 5.00325 43.3259C6.16261 44.7572 8.09669 44.6654 8.90905 44.2748C9.79405 43.8502 10.8108 42.8252 10.445 40.4816C10.2675 39.3492 9.7537 37.695 9.46587 36.7749C8.57819 33.9516 7.3973 30.5464 7.29508 28.1189C7.1579 24.8736 8.47059 24.4489 9.34214 24.2602C10.8082 23.9456 12.0375 25.5158 13.2049 27.4819C14.5983 29.8281 16.9897 33.9883 18.9372 37.1655C20.6964 40.0333 23.9432 43.103 29.1563 42.8933C34.4716 42.6784 38.3909 40.7018 40.4084 34.4785C41.9174 29.8228 42.9477 26.3442 44.6047 22.7817C46.5092 18.6844 49.0512 16.4928 51.1924 17.1613C53.1802 17.7826 53.6752 19.6753 53.6994 22.4566C53.7209 24.9181 53.4277 27.6313 53.2018 29.6236C53.1184 30.3471 52.9704 31.802 53.0323 32.6094C53.1533 34.198 53.8581 35.784 55.6927 36.0357C57.6482 36.3057 59.2165 34.7852 59.8432 32.945C60.0907 32.2188 60.3005 31.11 60.4135 30.3235C60.9892 26.3468 61.1371 23.673 60.8789 19.6045C60.5749 14.8466 59.62 10.5081 57.9522 6.7542C56.3571 3.16283 53.7962 0.861205 50.5118 0.659355C46.875 0.433911 42.7029 2.78534 40.5133 7.34664C38.4958 11.5514 36.8818 15.8663 35.9027 18.0709C34.9101 20.3044 33.4495 21.6807 31.206 21.9114C28.4623 22.1918 26.0978 20.252 24.3655 17.4837C22.8564 15.072 19.8652 10.4793 18.2647 8.93523C16.761 7.49082 15.0448 5.67679 11.4672 5.73184Z" fill="white"/>
</svg>
