<svg width="119" height="55" viewBox="0 0 119 55" fill="none" xmlns="http://www.w3.org/2000/svg">
<path fill-rule="evenodd" clip-rule="evenodd" d="M116.193 22.9155C116.153 20.7344 112.729 20.1901 109.544 20.2643C107.076 20.3215 102.119 20.9858 102.119 23.1135C102.119 24.67 102.524 25.3471 104.26 25.7114C105.301 25.9306 113.177 26.9536 115.11 25.4383C115.778 24.9138 116.215 24.1157 116.193 22.9155Z" fill="#E7EFF5"/>
<path fill-rule="evenodd" clip-rule="evenodd" d="M84.8513 52.0926L106.164 51.9003C112.282 51.7973 113.444 50.2952 113.401 47.6964C113.331 43.4594 107.243 43.7032 107.476 43.6876C107.449 43.6871 107.424 43.6829 107.398 43.6819C104.568 43.6158 104.01 42.8196 104.01 41.5287C104.01 40.1792 104.612 39.3693 107.789 39.3693C108.273 39.3693 108.691 39.3901 109.062 39.4265C109.083 39.4241 109.195 39.4222 109.487 39.4232C109.609 39.4184 109.747 39.4142 109.877 39.4123C110.063 39.409 110.247 39.409 110.416 39.4118C116.289 39.2658 117.382 37.7713 117.355 35.2121C117.332 32.9195 116.4 31.2832 111.981 31.2832L81.9619 32.1385L84.8513 52.0926Z" fill="#E7EFF5"/>
<path fill-rule="evenodd" clip-rule="evenodd" d="M109.119 39.4316C109.135 39.4335 109.151 39.4349 109.167 39.4368C109.177 39.4359 109.185 39.4349 109.195 39.4345C109.167 39.4335 109.141 39.4326 109.119 39.4316Z" fill="#E1F4F4"/>
<path fill-rule="evenodd" clip-rule="evenodd" d="M38.0884 7.5957L13.7502 7.78802C6.76319 7.89102 5.43638 9.39314 5.48599 11.992C5.56538 16.229 12.5184 15.9852 12.2519 16.0008C12.2831 16.0012 12.3105 16.0055 12.3407 16.0064C15.5727 16.0726 16.2092 16.8688 16.2092 18.1597C16.2092 19.5092 15.5217 20.319 11.8942 20.319C11.3414 20.319 10.8641 20.2983 10.4398 20.2619C10.4167 20.2642 10.2886 20.2661 9.95549 20.2652C9.8161 20.2699 9.65922 20.2742 9.51038 20.276C9.2968 20.2794 9.08748 20.2794 8.89422 20.2765C2.18738 20.4225 0.939952 21.9171 0.969248 24.4762C0.996181 26.7688 2.06028 28.4051 7.10766 28.4051L41.388 27.5499L38.0884 7.5957Z" fill="#E7EFF5"/>
<path fill-rule="evenodd" clip-rule="evenodd" d="M10.3762 20.2572C10.3578 20.2553 10.3389 20.2538 10.321 20.252C10.3096 20.2529 10.3002 20.2538 10.2893 20.2543C10.321 20.2553 10.3503 20.2562 10.3762 20.2572Z" fill="#E1F4F4"/>
<path fill-rule="evenodd" clip-rule="evenodd" d="M98.7632 49.2755H96.5051L96.4985 13.7733C96.5051 2.37441 94.315 1.85938 84.0624 1.85938H33.8391C23.5856 1.85938 21.3964 2.37441 21.4021 13.7733L21.3964 49.2755H18.2835C15.1838 49.2755 15.4551 50.514 15.5732 50.8523C16.918 54.7004 19.9954 54.9527 27.0396 54.9527H90.0071C97.0513 54.9527 100.129 54.7004 101.473 50.8523C101.591 50.514 101.863 49.2755 98.7632 49.2755Z" fill="#D3D5D4"/>
<path fill-rule="evenodd" clip-rule="evenodd" d="M69.3 1.85938H33.8389C23.5858 1.85938 21.3962 2.37441 21.4023 13.7733L21.3962 49.2755H18.2833C15.1841 49.2755 15.4553 50.514 15.5734 50.8523C16.9182 54.7004 19.9952 54.9523 27.0394 54.9523H47.9826L69.3 1.85938Z" fill="#B7B9B9"/>
<path fill-rule="evenodd" clip-rule="evenodd" d="M92.4833 49.2747L92.4776 16.2282C92.4837 6.22368 90.5275 5.77148 81.3693 5.77148H36.509C27.3512 5.77148 25.3955 6.22368 25.4007 16.2282L25.3955 49.2747H92.4833Z" fill="white"/>
<path fill-rule="evenodd" clip-rule="evenodd" d="M102.489 16.3548C102.34 17.2025 102.139 17.5734 101.66 17.4893C101.182 17.4052 101.12 16.9884 101.269 16.1403C101.418 15.2926 101.619 14.9217 102.097 15.0058C102.576 15.0899 102.637 15.5071 102.489 16.3548Z" fill="#B7B9B9"/>
<path fill-rule="evenodd" clip-rule="evenodd" d="M107.975 10.0072C106.886 9.42458 106.263 9.37213 105.835 10.1721C105.406 10.9716 105.795 11.4611 106.884 12.0447C107.973 12.6277 108.596 12.6797 109.024 11.8797C109.452 11.0803 109.063 10.5903 107.975 10.0072Z" fill="#D3D5D4"/>
<path fill-rule="evenodd" clip-rule="evenodd" d="M49.662 17.4525C35.9746 31.1399 35.44 31.6745 44.2961 40.5306C53.1525 49.387 52.9966 48.6713 66.6841 34.9839C80.4092 21.2587 81.6356 20.9039 72.7792 12.0475C63.9231 3.19141 63.3872 3.72733 49.662 17.4525Z" fill="white"/>
<path fill-rule="evenodd" clip-rule="evenodd" d="M17.9809 48.7085C17.9875 48.709 17.9932 48.7099 17.9993 48.7109C17.9804 48.7113 17.9639 48.7123 17.9488 48.7132C17.9592 48.7118 17.9705 48.7104 17.9809 48.7085Z" fill="white"/>
<path fill-rule="evenodd" clip-rule="evenodd" d="M116.194 43.8334C116.194 42.8813 116.702 42.4395 117.581 42.4395C118.46 42.4395 118.969 42.8813 118.969 43.8334C118.969 44.785 118.46 45.2268 117.581 45.2268C116.702 45.2268 116.194 44.785 116.194 43.8334Z" fill="#B7B9B9"/>
<path fill-rule="evenodd" clip-rule="evenodd" d="M6.88264 33.9436C5.59174 33.9582 4.99968 34.6552 5.01291 35.8473C5.02614 37.0399 5.63379 37.7237 6.92517 37.709C8.21607 37.6944 8.80813 36.9974 8.7949 35.8048C8.78167 34.6127 8.17355 33.9294 6.88264 33.9436Z" fill="#B7B9B9"/>
<path fill-rule="evenodd" clip-rule="evenodd" d="M17.4627 0.672442C15.9091 1.59006 15.7967 2.07297 16.1005 2.58706C16.4043 3.10163 16.8815 3.23629 18.4352 2.3182C19.9883 1.40058 20.1008 0.918621 19.7965 0.404055C19.4931 -0.110511 19.0164 -0.245177 17.4627 0.672442Z" fill="#D3D5D4"/>
<path fill-rule="evenodd" clip-rule="evenodd" d="M58.3341 27.1648C55.3318 24.1625 55.3407 19.2861 58.3539 16.2729C60.8564 13.7703 64.6412 13.3473 67.5734 14.9938C68.1714 15.3297 68.737 15.7446 69.2456 16.2532C72.2477 19.2553 72.2388 24.1318 69.2258 27.1448C68.5361 27.8345 67.7457 28.3592 66.9054 28.7339C64.0754 29.9965 60.6489 29.4796 58.3341 27.1648ZM70.8906 14.6083C67.0155 10.7333 60.4334 11.0324 56.1892 15.2766C51.9451 19.5207 51.6461 26.1026 55.5212 29.9777C59.3963 33.8528 65.978 33.5536 70.2221 29.3095C74.4663 25.0653 74.7656 18.4834 70.8906 14.6083Z" fill="#D3D5D4"/>
<path fill-rule="evenodd" clip-rule="evenodd" d="M66.6952 28.7088C63.8241 30.0123 60.3685 29.5247 58.0539 27.2102C55.0518 24.208 55.1097 19.2827 58.1834 16.209C60.7361 13.6563 64.563 13.1911 67.5078 14.8243C68.1084 15.1576 68.6757 15.5712 69.1843 16.0798C72.1862 19.0818 72.1281 24.0069 69.0547 27.0804C68.3511 27.7839 67.5477 28.3216 66.6952 28.7088ZM71.1516 14.704C67.4476 10.6649 61.0987 10.4714 56.9716 14.2713C52.8445 18.0717 52.5013 24.4266 56.2052 28.4655C59.9096 32.5045 66.2582 32.6978 70.3854 28.8979C74.5127 25.0978 74.8555 18.7428 71.1516 14.704Z" fill="#B7B9B9"/>
<path fill-rule="evenodd" clip-rule="evenodd" d="M68.9552 16.0716C68.4393 15.5558 67.866 15.1347 67.26 14.7935C64.2887 13.1214 60.4581 13.5427 57.9293 16.0714C54.8845 19.1162 54.8845 24.0527 57.9293 27.0975C60.2769 29.4451 63.7466 29.9746 66.6091 28.7017C67.4592 28.3238 68.2582 27.7942 68.9552 27.0973C71.9997 24.0527 71.9997 19.1162 68.9552 16.0716Z" fill="#E7EFF5"/>
<path fill-rule="evenodd" clip-rule="evenodd" d="M66.1676 19.1133C66.629 18.6519 66.6289 17.904 66.1676 17.4427C65.7062 16.9814 64.9584 16.9813 64.497 17.4427C64.0356 17.9041 64.0357 18.652 64.497 19.1133C64.9583 19.5746 65.7061 19.5747 66.1676 19.1133Z" fill="white"/>
<path fill-rule="evenodd" clip-rule="evenodd" d="M67.3892 17.9719C67.4814 17.8797 67.4815 17.73 67.3891 17.6377C67.297 17.5455 67.1473 17.5455 67.0551 17.6378C66.9629 17.73 66.9629 17.8796 67.055 17.9718C67.1474 18.0641 67.297 18.0641 67.3892 17.9719Z" fill="white" fill-opacity="0.5"/>
<path fill-rule="evenodd" clip-rule="evenodd" d="M54.9912 29.0742C55.1872 28.8782 55.4533 28.7731 55.6712 28.8232C55.9008 28.8761 56.1983 28.9962 56.4689 29.2667C56.724 29.5219 56.8458 29.8011 56.903 30.0246C56.9623 30.2554 56.8702 30.5364 56.6601 30.7465L53.8193 33.5873C53.5298 33.8768 53.1172 33.9339 52.898 33.7147L52.0213 32.838C51.8021 32.6188 51.8592 32.2062 52.1487 31.9167L54.9912 29.0742Z" fill="#B7B9B9"/>
<path fill-rule="evenodd" clip-rule="evenodd" d="M47.9709 33.7567C51.7626 29.9649 53.233 29.9976 54.4862 31.2509C55.7395 32.5042 55.772 33.9743 51.9803 37.7661C48.1885 41.5578 46.7184 41.5253 45.4651 40.272C44.2118 39.0188 44.1791 37.5484 47.9709 33.7567Z" fill="#B7B9B9"/>
<path fill-rule="evenodd" clip-rule="evenodd" d="M47.2927 38.2067C46.1539 37.0678 46.0103 35.7631 48.7725 32.7552C48.4703 33.0324 48.1516 33.3384 47.8135 33.6764C44.1099 37.3801 44.1593 38.8337 45.4125 40.0869C46.6659 41.3403 48.1193 41.3895 51.8229 37.6858C52.161 37.3478 52.467 37.0291 52.7442 36.7269C49.7365 39.4893 48.4316 39.3455 47.2927 38.2067Z" fill="#D3D5D4"/>
</svg>
