<svg width="10" height="10" viewBox="0 0 10 10" fill="none" xmlns="http://www.w3.org/2000/svg">
<path fill-rule="evenodd" clip-rule="evenodd" d="M5.56559 5.00005L8.8827 1.68289C9.0391 1.52649 9.0391 1.2737 8.8827 1.1173C8.72631 0.9609 8.47351 0.9609 8.31712 1.1173L5 4.43446L1.68288 1.1173C1.52649 0.9609 1.27369 0.9609 1.1173 1.1173C0.960901 1.2737 0.960901 1.52649 1.1173 1.68289L4.43441 5.00005L1.1173 8.31721C0.960901 8.47361 0.960901 8.7264 1.1173 8.8828C1.1953 8.9608 1.29769 9 1.40009 9C1.50249 9 1.60488 8.9608 1.68288 8.8828L5 5.56564L8.31712 8.8828C8.39512 8.9608 8.49751 9 8.59991 9C8.70231 9 8.8047 8.9608 8.8827 8.8828C9.0391 8.7264 9.0391 8.47361 8.8827 8.31721L5.56559 5.00005Z" fill="#E9426D" stroke="#E9426D"/>
</svg>
