<svg width="120" height="19" viewBox="0 0 120 19" fill="none" xmlns="http://www.w3.org/2000/svg">
<path d="M60 18C64.9706 18 69 13.9706 69 9C69 4.02944 64.9706 0 60 0C55.0294 0 51 4.02944 51 9C51 13.9706 55.0294 18 60 18Z" fill="url(#paint0_linear_8259_47272)"/>
<path d="M58.5096 5.99036L59.0159 7.36848C59.044 7.42473 59.044 7.50911 58.9877 7.56536C58.8752 7.73411 58.7627 7.87473 58.6221 8.01536C58.5377 8.07161 58.5096 8.21223 58.594 8.29661C58.9034 8.71848 59.719 9.73098 60.7877 10.0966C60.8721 10.1247 60.9565 10.0966 61.0127 10.0122L61.4346 9.44973C61.4909 9.36536 61.6034 9.33723 61.6877 9.39348L63.0096 10.0685C63.094 10.1247 63.1502 10.2372 63.1221 10.3216C62.9815 10.7435 62.5315 11.756 61.5471 11.5872C60.2534 11.3904 59.1002 10.7435 58.2565 9.73098C57.4409 8.71848 55.8659 6.15911 58.3127 5.84973C58.369 5.84973 58.4815 5.90598 58.5096 5.99036Z" fill="white"/>
<path fill-rule="evenodd" clip-rule="evenodd" d="M57.0187 13.7527C57.975 14.259 59.0156 14.5402 60.0844 14.5402C63.4031 14.5402 66.1312 11.9246 66.1312 8.71836C66.1312 5.51211 63.4312 2.89648 60.0844 2.89648C56.7375 2.89648 54.0375 5.51211 54.0375 8.71836C54.0375 9.89961 54.4031 11.0527 55.0781 12.009L53.9531 14.5402L57.0187 13.7527ZM57.3844 12.7682L57.1875 12.6557L55.3594 13.4432L56.2875 11.8682L56.0906 11.6151C55.4438 10.7994 55.0781 9.78695 55.0781 8.7182C55.0781 6.07445 57.3281 3.90882 60.0844 3.90882C62.8406 3.90882 65.0906 6.07445 65.0906 8.7182C65.0906 11.3619 62.8406 13.5276 60.0844 13.5276C59.1281 13.5276 58.2 13.2744 57.3844 12.7682Z" fill="white"/>
<path d="M9 18C13.9706 18 18 13.9706 18 9C18 4.02944 13.9706 0 9 0C4.02944 0 0 4.02944 0 9C0 13.9706 4.02944 18 9 18Z" fill="#3F65A6"/>
<path d="M7.42559 5.90642C7.42559 6.15955 7.42559 7.31267 7.42559 7.31267H6.41309V9.0283H7.42559V13.697H9.53496V9.00017H10.9412C10.9412 9.00017 11.0818 8.18455 11.1381 7.28455C10.9412 7.28455 9.53496 7.28455 9.53496 7.28455C9.53496 7.28455 9.53496 6.30017 9.53496 6.13142C9.53496 5.96267 9.75996 5.73767 9.98496 5.73767C10.21 5.73767 10.6881 5.73767 11.1381 5.73767C11.1381 5.51267 11.1381 4.69705 11.1381 3.9658C10.5475 3.9658 9.87246 3.9658 9.59121 3.9658C7.36934 3.93767 7.42559 5.6533 7.42559 5.90642Z" fill="white"/>
<path d="M34.7812 18C39.7518 18 43.7812 13.9706 43.7812 9C43.7812 4.02944 39.7518 0 34.7812 0C29.8107 0 25.7812 4.02944 25.7812 9C25.7812 13.9706 29.8107 18 34.7812 18Z" fill="url(#paint1_radial_8259_47272)"/>
<path fill-rule="evenodd" clip-rule="evenodd" d="M40.902 6.39025C40.812 4.41025 39.192 2.88025 37.392 2.88025H32.262C30.282 2.97025 28.752 4.59025 28.752 6.39025V11.5202C28.842 13.5002 30.462 15.0302 32.262 15.0302H37.392C39.372 14.9402 40.902 13.3202 40.902 11.5202V6.39025ZM29.6516 6.39044C29.6516 4.95044 30.9116 3.69044 32.3516 3.69044H37.4816C38.9216 3.69044 40.1816 5.04044 40.1816 6.39044V11.5204C40.1816 13.0504 38.8316 14.2204 37.4816 14.2204H32.3516C30.8216 14.2204 29.6516 12.8704 29.6516 11.5204V6.39044Z" fill="white"/>
<path fill-rule="evenodd" clip-rule="evenodd" d="M37.8409 8.27985C37.5709 6.92985 36.3109 5.84985 34.8709 5.84985C33.2509 5.93985 31.9009 7.28985 31.8109 8.63985C31.7209 9.89985 32.6209 11.1599 33.7909 11.6099C34.8709 12.0599 36.1309 11.7899 36.9409 10.9799C37.6609 10.3499 38.0209 9.26985 37.8409 8.27985ZM32.7117 8.45993C32.8917 7.55993 33.8817 6.74993 34.8717 6.74993C35.1417 6.74993 35.5017 6.74993 35.7717 6.92993C36.8517 7.46993 37.3917 8.81993 36.8517 9.89993C36.3117 10.8899 34.9617 11.4299 33.9717 10.9799C33.0717 10.5299 32.5317 9.44993 32.7117 8.45993Z" fill="white"/>
<path d="M38.7414 5.67028C38.7414 5.49028 38.6514 5.31028 38.5614 5.22028C38.4714 5.13028 38.2914 5.04028 38.1114 5.04028C37.9314 5.04028 37.7514 5.13028 37.6614 5.22028C37.5714 5.31028 37.4814 5.49028 37.4814 5.67028C37.4814 5.85028 37.5714 6.03028 37.6614 6.12028C37.7514 6.21028 37.9314 6.30028 38.1114 6.30028C38.4714 6.30028 38.7414 6.03028 38.7414 5.67028Z" fill="white"/>
<path d="M85 18C89.9706 18 94 13.9706 94 9C94 4.02944 89.9706 0 85 0C80.0294 0 76 4.02944 76 9C76 13.9706 80.0294 18 85 18Z" fill="#007FFF"/>
<path fill-rule="evenodd" clip-rule="evenodd" d="M78.9531 8.74499C78.9531 5.75722 81.5894 3.34692 84.8031 3.34692C88.042 3.34692 90.6531 5.73212 90.6531 8.74499C90.6531 11.7579 88.042 14.1682 84.8031 14.1682C84.2257 14.1682 83.6482 14.0928 83.1209 13.9422L81.1375 15.0218V12.963C79.8068 11.9587 78.9531 10.4523 78.9531 8.74499ZM83.8998 9.04621L85.3812 10.628L88.5698 7.23848L85.7076 8.82024L84.176 7.23848L80.9874 10.628L83.8998 9.04621Z" fill="white"/>
<path fill-rule="evenodd" clip-rule="evenodd" d="M119.78 9.01466C119.78 6.52892 118.773 4.27893 117.145 2.6507C115.516 1.02201 113.266 0.0146484 110.781 0.0146484C108.296 0.0146484 106.046 1.02202 104.417 2.6507C102.789 4.2794 101.781 6.52938 101.781 9.01466C101.781 11.4999 102.789 13.7499 104.417 15.3786C106.046 17.0073 108.296 18.0146 110.781 18.0146C113.266 18.0146 115.517 17.0073 117.145 15.3786C118.774 13.7499 119.781 11.4999 119.781 9.01466H119.781H119.78Z" fill="#1DD069"/>
<path fill-rule="evenodd" clip-rule="evenodd" d="M116.882 6.4051C116.579 6.22821 116.266 6.06808 115.945 5.92299C115.63 5.78038 115.304 5.65199 114.968 5.53622C114.156 5.25571 113.331 5.05309 112.497 4.91466C111.664 4.77652 110.82 4.70201 109.967 4.6776C109.621 4.66769 109.275 4.6678 108.929 4.67827C108.583 4.68873 108.237 4.70963 107.891 4.74121C107.559 4.77148 107.234 4.80901 106.919 4.85655C106.598 4.90492 106.276 4.96476 105.954 5.03925C105.825 5.06902 105.696 5.10025 105.567 5.13451C105.434 5.16995 105.304 5.20755 105.18 5.24839C104.972 5.31699 104.801 5.45085 104.683 5.62137C104.564 5.79337 104.499 6.00308 104.505 6.22053C104.512 6.44172 104.587 6.64662 104.714 6.81152C104.841 6.97726 105.02 7.10308 105.232 7.16504C105.328 7.19325 105.424 7.20572 105.52 7.20466C105.617 7.2036 105.71 7.18965 105.803 7.16498L105.896 7.14002C106.118 7.08042 106.34 7.02076 106.565 6.97226C106.91 6.89774 107.257 6.84109 107.607 6.79855C107.961 6.75538 108.314 6.72667 108.665 6.7085C108.977 6.69235 109.286 6.68535 109.593 6.68704C109.898 6.68874 110.207 6.69924 110.52 6.71806C110.817 6.73585 111.115 6.76216 111.413 6.79719C111.705 6.83137 111.998 6.8742 112.291 6.92585C112.715 7.0008 113.132 7.09129 113.537 7.2018C113.944 7.3129 114.347 7.44557 114.743 7.60468C114.944 7.68506 115.138 7.77228 115.327 7.86504C115.516 7.95781 115.705 8.05863 115.894 8.16556C116.059 8.25883 116.232 8.30186 116.401 8.30255C116.583 8.3033 116.758 8.25479 116.909 8.16688C117.061 8.07873 117.19 7.95095 117.279 7.7935C117.361 7.64768 117.41 7.47675 117.41 7.28882L117.409 7.26414C117.408 7.2563 117.406 7.23481 117.403 7.21296C117.398 7.16707 117.394 7.12118 117.382 7.0702C117.349 6.921 117.287 6.79182 117.201 6.6803C117.116 6.56992 117.009 6.47905 116.882 6.4051L116.882 6.4051Z" fill="#FFFFFE"/>
<path fill-rule="evenodd" clip-rule="evenodd" d="M113.446 8.34425C112.686 8.10076 111.917 7.92745 111.139 7.82263C110.361 7.71786 109.574 7.68145 108.777 7.71168C108.402 7.7259 108.033 7.75405 107.671 7.79836C107.308 7.84275 106.943 7.90451 106.576 7.98607C106.425 8.01954 106.277 8.0553 106.132 8.09339C105.989 8.13092 105.845 8.17173 105.7 8.21591C105.522 8.27043 105.376 8.37764 105.272 8.51725C105.167 8.65855 105.106 8.83293 105.1 9.01887C105.094 9.19821 105.146 9.37187 105.241 9.51716C105.336 9.66201 105.474 9.77964 105.642 9.84752C105.744 9.88894 105.848 9.90866 105.954 9.91024C106.057 9.91177 106.157 9.89609 106.257 9.86666C106.733 9.72512 107.216 9.62336 107.699 9.55554C108.218 9.48257 108.736 9.44863 109.246 9.44645C109.644 9.44816 110.03 9.4662 110.41 9.50136C110.787 9.53627 111.16 9.58861 111.532 9.65912C112.013 9.75007 112.485 9.86785 112.947 10.0187C113.406 10.1686 113.854 10.3516 114.291 10.574C114.43 10.6453 114.568 10.7239 114.705 10.8024L114.855 10.887C115.067 11.0066 115.302 11.0349 115.514 10.9827C115.73 10.9298 115.923 10.7955 116.047 10.5909C116.163 10.4009 116.202 10.1547 116.146 9.92473C116.095 9.71776 115.969 9.5231 115.754 9.39188L115.749 9.38861C115.713 9.36638 115.676 9.34393 115.65 9.3288C115.304 9.12252 114.945 8.93807 114.576 8.77381C114.207 8.61014 113.831 8.46753 113.446 8.34425V8.34425Z" fill="#FFFFFE"/>
<path fill-rule="evenodd" clip-rule="evenodd" d="M111.147 10.6937C110.576 10.6058 109.994 10.5631 109.403 10.5569H109.391C109.259 10.5643 109.144 10.5699 109.028 10.5756C108.75 10.5892 108.472 10.6029 108.212 10.6249C107.862 10.6545 107.509 10.6991 107.154 10.7562C106.804 10.8127 106.456 10.881 106.11 10.9585C106.083 10.9646 106.054 10.9713 106.021 10.9805H106.02C105.987 10.9898 105.954 11.0004 105.921 11.0134C105.757 11.0792 105.631 11.1964 105.553 11.3422C105.476 11.4866 105.448 11.6577 105.48 11.833C105.511 12.0043 105.602 12.1528 105.729 12.2575C105.856 12.3612 106.017 12.4224 106.193 12.4204C106.246 12.4199 106.298 12.4145 106.35 12.4065C106.398 12.3991 106.444 12.3894 106.49 12.3793C106.902 12.2881 107.317 12.213 107.737 12.1564C108.155 12.1001 108.575 12.0624 108.997 12.0458C109.321 12.0331 109.646 12.0353 109.971 12.053C110.292 12.0705 110.615 12.1039 110.939 12.1536C111.464 12.234 111.971 12.3575 112.46 12.5282C112.949 12.6988 113.422 12.9173 113.878 13.1875L113.878 13.1873L113.901 13.2009C113.947 13.2284 113.993 13.2561 114.044 13.2785C114.213 13.3533 114.397 13.3593 114.562 13.3072C114.728 13.255 114.875 13.1438 114.969 12.9849C115.065 12.8234 115.094 12.6396 115.061 12.4675C115.028 12.2958 114.933 12.1359 114.783 12.0219C114.731 11.9822 114.685 11.9548 114.639 11.9275L114.625 11.9194L114.625 11.9197C114.345 11.7527 114.056 11.6015 113.76 11.4659C113.465 11.3302 113.162 11.2104 112.853 11.1062C112.291 10.9166 111.722 10.7821 111.147 10.6937L111.147 10.6937Z" fill="#FFFFFE"/>
<defs>
<linearGradient id="paint0_linear_8259_47272" x1="51.4567" y1="1.12353" x2="51.4567" y2="18.2201" gradientUnits="userSpaceOnUse">
<stop stop-color="#1DF47C"/>
<stop offset="0.31" stop-color="#12DF63"/>
<stop offset="0.75" stop-color="#05C443"/>
<stop offset="1" stop-color="#00BA37"/>
</linearGradient>
<radialGradient id="paint1_radial_8259_47272" cx="0" cy="0" r="1" gradientUnits="userSpaceOnUse" gradientTransform="translate(25.9012 22.0794) scale(28.7877)">
<stop stop-color="#FF8100"/>
<stop offset="0.19" stop-color="#FF7209"/>
<stop offset="0.32" stop-color="#F55E16"/>
<stop offset="0.48" stop-color="#D92938"/>
<stop offset="1" stop-color="#9100FF"/>
</radialGradient>
</defs>
</svg>
