<svg width="247" height="247" viewBox="0 0 247 247" fill="none" xmlns="http://www.w3.org/2000/svg">
<path fill-rule="evenodd" clip-rule="evenodd" d="M158.646 174.407C162.546 171.407 165.946 168.107 168.946 164.507C169.646 163.607 170.946 163.507 171.746 164.207L216.446 198.907C217.346 199.607 217.446 200.807 216.746 201.707C210.546 209.407 203.346 216.507 195.146 222.707C186.946 228.907 178.146 234.007 169.146 237.907C168.146 238.307 166.946 237.807 166.546 236.807L145.146 184.307C144.746 183.307 145.246 182.107 146.246 181.707C150.546 179.707 154.746 177.307 158.646 174.407Z" fill="#A13EA1" fill-opacity="0.6"/>
<path fill-rule="evenodd" clip-rule="evenodd" d="M126.549 186.107C131.449 185.907 136.149 185.107 140.649 183.807C141.749 183.507 142.849 184.107 143.149 185.107L160.449 239.107C160.749 240.207 160.249 241.307 159.149 241.607C149.749 244.507 139.749 246.207 129.449 246.707C119.149 247.207 109.049 246.407 99.4486 244.507C98.3486 244.307 97.6486 243.207 97.9486 242.107L109.949 186.707C110.149 185.607 111.249 184.907 112.349 185.107C116.949 186.007 121.649 186.307 126.549 186.107Z" fill="#A13EA1" fill-opacity="0.6"/>
<path fill-rule="evenodd" clip-rule="evenodd" d="M92.0461 176.707C96.3461 179.107 100.746 181.007 105.246 182.307C106.346 182.607 106.946 183.707 106.646 184.807L92.2461 239.607C91.9461 240.707 90.8461 241.307 89.8461 241.007C80.3461 238.307 71.0461 234.507 62.0461 229.407C53.0461 224.307 45.0461 218.207 37.8461 211.407C37.0461 210.607 37.0461 209.407 37.8461 208.607L77.7461 168.307C78.5461 167.507 79.7461 167.507 80.5461 168.307C83.9461 171.507 87.8461 174.307 92.0461 176.707Z" fill="#A13EA1" fill-opacity="0.5"/>
<path opacity="0.4" fill-rule="evenodd" clip-rule="evenodd" d="M67.2466 150.907C69.4465 155.307 72.0465 159.307 74.9465 162.907C75.6465 163.807 75.5466 165.007 74.7466 165.707L32.0466 203.007C31.2466 203.707 29.9466 203.607 29.2466 202.807C22.8466 195.307 17.3466 186.807 12.7466 177.607C8.14655 168.307 4.94655 158.807 2.84655 149.107C2.64655 148.007 3.34655 147.007 4.44655 146.807L60.0466 135.807C61.1465 135.607 62.1466 136.307 62.4466 137.407C63.5466 142.007 65.1466 146.507 67.2466 150.907Z" fill="#A13EA1"/>
<path fill-rule="evenodd" clip-rule="evenodd" d="M61.2469 116.907C60.5469 121.807 60.5469 126.507 60.9469 131.207C61.0469 132.307 60.2469 133.307 59.1469 133.407L2.94689 140.607C1.84689 140.707 0.846888 140.007 0.746888 138.907C-0.353113 129.107 -0.253112 119.007 1.14689 108.807C2.54689 98.6068 5.14689 88.8068 8.74689 79.7068C9.14689 78.7068 10.3469 78.2068 11.3469 78.6068L63.6469 100.407C64.6469 100.807 65.1469 102.007 64.7469 103.007C63.1469 107.407 61.9469 112.007 61.2469 116.907Z" fill="#A13EA1" fill-opacity="0.3"/>
<path fill-rule="evenodd" clip-rule="evenodd" d="M74.3486 83.5071C71.2486 87.3071 68.6486 91.3071 66.5486 95.5071C66.0486 96.5071 64.8486 96.9071 63.8486 96.5071L12.3486 72.7071C11.3486 72.2071 10.9486 71.0071 11.3486 70.1071C15.6486 61.2071 21.0486 52.7071 27.6486 44.8071C34.2486 36.9071 41.6486 30.0071 49.5486 24.1071C50.4486 23.5071 51.6486 23.7071 52.3486 24.6071L85.0486 70.9071C85.6486 71.8071 85.4486 73.0071 84.5486 73.7071C80.9486 76.4071 77.4486 79.7071 74.3486 83.5071Z" fill="#A13EA1" fill-opacity="0.2"/>
<path fill-rule="evenodd" clip-rule="evenodd" d="M104.447 64.007C99.8469 65.607 95.4469 67.607 91.4469 70.107C90.5469 70.707 89.2469 70.407 88.6469 69.507L57.4469 22.207C56.8469 21.307 57.0469 20.007 58.0469 19.407C66.3469 14.107 75.4469 9.70702 85.2469 6.40702C95.0469 3.10702 104.947 1.10702 114.747 0.407017C115.847 0.307017 116.847 1.20702 116.847 2.30702L120.347 58.907C120.447 60.007 119.547 60.907 118.447 61.107C113.847 61.507 109.147 62.407 104.447 64.007Z" fill="#A13EA1" fill-opacity="0.15"/>
<path fill-rule="evenodd" clip-rule="evenodd" d="M138.848 62.3069C134.048 61.2069 129.348 60.6069 124.648 60.6069C123.548 60.6069 122.648 59.7069 122.548 58.6069L120.848 2.10689C120.848 1.00689 121.648 0.106888 122.748 0.106888C132.648 0.00688793 142.648 1.00689 152.748 3.40689C162.748 5.80689 172.248 9.30689 181.048 13.8069C182.048 14.3069 182.348 15.5069 181.848 16.5069L154.948 66.4069C154.448 67.4069 153.248 67.7069 152.248 67.2069C148.148 65.1069 143.648 63.5069 138.848 62.3069Z" fill="#A13EA1" fill-opacity="0.1"/>
<path fill-rule="evenodd" clip-rule="evenodd" d="M168.648 80.6071C165.248 77.1071 161.548 74.0071 157.648 71.5071C156.748 70.9071 156.448 69.7071 156.948 68.7071L186.048 20.2071C186.648 19.2071 187.848 18.9071 188.748 19.5071C197.148 24.7071 204.948 31.0071 212.148 38.5071C219.348 46.0071 225.348 54.0071 230.248 62.6071C230.848 63.6071 230.448 64.8071 229.448 65.3071L179.948 92.7071C178.948 93.2071 177.748 92.9071 177.148 91.9071C174.948 88.0071 172.048 84.1071 168.648 80.6071Z" fill="white"/>
<path fill-rule="evenodd" clip-rule="evenodd" d="M169.646 80.2067C172.946 83.7067 175.846 87.5067 178.246 91.4067C178.546 91.9067 179.146 92.1067 179.646 91.8067L229.146 64.4067C229.646 64.1067 229.746 63.5067 229.546 63.1067C224.646 54.6067 218.646 46.6067 211.546 39.2067C204.446 31.8067 196.646 25.6067 188.346 20.4067C187.846 20.1067 187.246 20.3067 186.946 20.7067L157.846 69.2067C157.546 69.7067 157.746 70.3067 158.246 70.6067C162.246 73.2067 166.046 76.3067 169.446 79.8067L169.646 80.2067ZM156.946 68.8067L186.046 20.3067C186.646 19.3067 187.846 19.0067 188.746 19.6067C197.146 24.8067 204.946 31.1067 212.146 38.6067C219.346 46.1067 225.346 54.1067 230.246 62.7067C230.846 63.7067 230.446 64.9067 229.446 65.4067L179.946 92.8067C178.946 93.3067 177.746 93.0067 177.146 92.0067C174.746 88.0067 171.846 84.2067 168.446 80.7067C165.046 77.2067 161.346 74.1067 157.446 71.6067C156.646 70.9067 156.346 69.7067 156.946 68.8067Z" fill="#50535A"/>
<path fill-rule="evenodd" clip-rule="evenodd" d="M181.247 97.007C180.847 96.007 181.247 94.807 182.247 94.307L233.447 70.307C234.447 69.807 235.647 70.307 236.047 71.307C240.047 80.307 242.947 89.907 244.747 100.007C246.547 110.107 246.947 120.207 246.247 130.007C246.147 131.107 245.247 131.907 244.147 131.807L187.947 127.107C186.847 127.007 186.047 126.007 186.047 124.907C186.347 120.207 186.047 115.507 185.247 110.707C184.447 105.907 183.047 101.307 181.247 97.007Z" fill="white"/>
<path fill-rule="evenodd" clip-rule="evenodd" d="M181.247 97.0071C181.347 97.3071 181.547 97.7071 181.647 98.0071C183.247 102.007 184.447 106.207 185.247 110.707C186.047 115.507 186.347 120.207 186.047 124.907C185.947 126.007 186.847 127.007 187.947 127.107L244.147 131.807C245.247 131.907 246.247 131.107 246.247 130.007C246.947 120.207 246.547 110.107 244.747 100.007C242.947 89.9071 240.047 80.3071 236.047 71.3071C235.647 70.3071 234.447 69.9071 233.447 70.3071L182.247 94.3071C181.547 94.6071 181.147 95.3071 181.147 96.0071C181.047 96.4071 181.147 96.7071 181.247 97.0071ZM182.747 98.0071C184.347 102.007 185.547 106.107 186.247 110.507C187.047 115.407 187.347 120.207 187.047 124.907C187.047 125.507 187.447 126.007 187.947 126.007L244.147 130.707C244.647 130.707 245.147 130.307 245.247 129.807C245.947 120.107 245.547 110.107 243.747 100.007C242.047 90.0071 239.047 80.4071 235.147 71.6071C234.947 71.1071 234.347 70.9071 233.847 71.1071L182.647 95.1071C182.147 95.3071 181.947 95.9071 182.147 96.5071L182.747 98.0071Z" fill="#50535A"/>
<path fill-rule="evenodd" clip-rule="evenodd" d="M181.248 146.207C183.048 141.607 184.148 137.007 184.848 132.407C184.948 131.307 185.948 130.507 187.048 130.607L243.348 136.607C244.448 136.707 245.248 137.707 245.148 138.807C243.948 148.607 241.548 158.407 237.848 168.007C234.148 177.607 229.348 186.507 223.748 194.607C223.148 195.507 221.848 195.707 220.948 195.107L175.148 161.807C174.248 161.207 174.048 159.907 174.648 159.007C177.248 155.107 179.448 150.807 181.248 146.207Z" fill="#A13EA1" fill-opacity="0.7"/>
<path d="M215.848 159.107C215.848 159.807 215.648 160.407 215.348 160.907C215.048 161.407 214.548 161.707 214.048 162.007C213.548 162.207 212.848 162.407 212.248 162.407C211.548 162.407 210.948 162.307 210.448 162.007C209.948 161.807 209.448 161.407 209.148 160.907C208.848 160.407 208.648 159.807 208.648 159.107C208.648 158.707 208.748 158.207 208.948 157.907C209.148 157.507 209.348 157.207 209.648 156.907C209.948 156.607 210.348 156.407 210.748 156.207C211.148 156.007 211.648 156.007 212.248 156.007C212.948 156.007 213.548 156.107 214.148 156.407C214.748 156.707 215.148 157.007 215.448 157.507C215.648 157.907 215.848 158.507 215.848 159.107ZM214.348 159.007C214.348 158.607 214.248 158.207 214.048 157.907C213.848 157.607 213.648 157.307 213.248 157.107C212.848 156.907 212.548 156.807 212.148 156.807C211.748 156.807 211.348 156.907 211.048 157.107C210.748 157.307 210.448 157.507 210.348 157.907C210.148 158.207 210.048 158.607 210.048 159.007C210.048 159.407 210.148 159.807 210.348 160.107C210.548 160.407 210.748 160.607 211.148 160.807C211.448 161.007 211.848 161.007 212.348 161.007C212.748 161.007 213.148 160.907 213.548 160.807C213.848 160.607 214.148 160.407 214.248 160.107C214.248 159.907 214.348 159.507 214.348 159.007ZM215.548 153.707C215.548 154.307 215.348 154.807 215.148 155.207C214.848 155.607 214.448 156.007 213.948 156.307C213.448 156.607 212.848 156.707 212.248 156.707C211.648 156.707 211.048 156.607 210.548 156.307C210.048 156.007 209.648 155.707 209.348 155.207C209.048 154.807 208.948 154.307 208.948 153.707C208.948 153.007 209.048 152.507 209.348 152.007C209.648 151.507 210.048 151.207 210.548 150.907C211.048 150.707 211.648 150.507 212.248 150.507C212.848 150.507 213.448 150.607 213.948 150.907C214.448 151.107 214.848 151.507 215.148 152.007C215.448 152.507 215.548 153.107 215.548 153.707ZM214.148 153.807C214.148 153.407 214.048 153.107 213.948 152.807C213.748 152.507 213.548 152.307 213.248 152.107C212.948 151.907 212.648 151.807 212.248 151.807C211.848 151.807 211.548 151.907 211.248 152.007C210.948 152.207 210.748 152.407 210.548 152.707C210.348 153.007 210.348 153.307 210.348 153.707C210.348 154.107 210.448 154.407 210.548 154.707C210.748 155.007 210.948 155.207 211.248 155.407C211.548 155.607 211.848 155.607 212.248 155.607C212.648 155.607 212.948 155.507 213.248 155.407C213.548 155.207 213.748 155.007 213.948 154.707C214.048 154.507 214.148 154.107 214.148 153.807Z" fill="#50535A"/>
<path d="M182.548 193.907V194.707L177.848 205.307H176.348L181.048 195.107H174.848V193.907H182.548Z" fill="#50535A"/>
<path d="M130.448 209.707H130.548V210.907H130.448C129.648 210.907 129.048 211.007 128.548 211.307C128.048 211.507 127.648 211.907 127.348 212.307C127.048 212.707 126.848 213.207 126.648 213.707C126.548 214.207 126.448 214.707 126.448 215.307V217.007C126.448 217.507 126.548 217.907 126.648 218.307C126.748 218.707 126.948 219.007 127.148 219.307C127.348 219.607 127.548 219.807 127.848 219.907C128.148 220.007 128.348 220.107 128.648 220.107C128.948 220.107 129.248 220.007 129.548 219.907C129.848 219.807 130.048 219.607 130.248 219.407C130.448 219.207 130.548 218.907 130.648 218.607C130.748 218.307 130.748 217.907 130.748 217.507C130.748 217.207 130.748 216.807 130.648 216.507C130.548 216.207 130.448 215.907 130.248 215.707C130.048 215.507 129.848 215.307 129.648 215.107C129.348 215.007 129.048 214.907 128.748 214.907C128.348 214.907 127.948 215.007 127.648 215.207C127.348 215.407 127.048 215.607 126.748 216.007C126.548 216.307 126.448 216.607 126.348 217.007H125.548C125.648 216.407 125.748 215.907 125.948 215.507C126.148 215.107 126.348 214.707 126.748 214.507C127.048 214.207 127.348 214.007 127.748 213.907C128.148 213.807 128.548 213.707 128.948 213.707C129.548 213.707 130.048 213.807 130.448 214.007C130.848 214.207 131.248 214.507 131.448 214.907C131.748 215.207 131.948 215.707 132.048 216.107C132.148 216.507 132.248 217.007 132.248 217.507C132.248 218.007 132.148 218.507 132.048 219.007C131.848 219.507 131.648 219.907 131.348 220.207C131.048 220.507 130.648 220.807 130.248 221.007C129.848 221.207 129.248 221.307 128.748 221.307C128.148 221.307 127.548 221.207 127.148 220.907C126.648 220.607 126.348 220.307 126.048 219.907C125.748 219.507 125.548 219.007 125.348 218.507C125.248 218.007 125.148 217.507 125.148 216.907V216.207C125.148 215.407 125.248 214.607 125.348 213.807C125.548 213.007 125.748 212.307 126.148 211.707C126.548 211.107 127.148 210.607 127.848 210.207C128.448 209.907 129.348 209.707 130.448 209.707Z" fill="#50535A"/>
<path d="M74.6469 201.707L73.4469 201.407L74.0469 195.707H79.8469V197.007H75.2469L74.9469 200.107C75.1469 200.007 75.4469 199.907 75.7469 199.807C76.0469 199.707 76.4469 199.607 76.8469 199.607C77.3469 199.607 77.8469 199.707 78.2469 199.907C78.6469 200.107 79.0469 200.307 79.3469 200.707C79.6469 201.007 79.8469 201.407 80.0469 201.907C80.2469 202.407 80.2469 202.907 80.2469 203.507C80.2469 204.107 80.1469 204.607 80.0469 205.007C79.8469 205.507 79.6469 205.907 79.3469 206.207C79.0469 206.507 78.6469 206.807 78.2469 207.007C77.8469 207.207 77.2469 207.307 76.6469 207.307C76.1469 207.307 75.7469 207.207 75.3469 207.107C74.9469 207.007 74.5469 206.807 74.2469 206.507C73.9469 206.207 73.6469 205.907 73.4469 205.507C73.2469 205.107 73.1469 204.607 73.0469 204.107H74.4469C74.5469 204.507 74.6469 204.907 74.8469 205.207C75.0469 205.507 75.2469 205.707 75.5469 205.907C75.8469 206.107 76.2469 206.107 76.6469 206.107C76.9469 206.107 77.3469 206.007 77.5469 205.907C77.8469 205.807 78.0469 205.607 78.2469 205.407C78.4469 205.207 78.5469 204.907 78.6469 204.607C78.7469 204.307 78.8469 203.907 78.8469 203.507C78.8469 203.107 78.7469 202.807 78.6469 202.507C78.5469 202.207 78.4469 201.907 78.2469 201.707C78.0469 201.507 77.8469 201.307 77.5469 201.207C77.2469 201.107 76.9469 201.007 76.5469 201.007C76.0469 201.007 75.7469 201.107 75.4469 201.207C75.1469 201.307 74.9469 201.507 74.6469 201.707Z" fill="#50535A"/>
<path d="M43.1477 164.807V166.007H34.8477V165.107L39.9477 157.207H41.1477L39.8477 159.507L36.4477 164.807H43.1477ZM41.5477 157.307V168.707H40.1477V157.307H41.5477Z" fill="#50535A"/>
<path d="M29.0484 110.807H30.0484C30.5484 110.807 30.9484 110.707 31.2484 110.607C31.5484 110.407 31.8484 110.207 31.9484 109.907C32.1484 109.607 32.1484 109.307 32.1484 108.907C32.1484 108.507 32.0484 108.107 31.9484 107.807C31.8484 107.507 31.5484 107.307 31.2484 107.107C30.9484 106.907 30.5484 106.907 30.1484 106.907C29.7484 106.907 29.3484 107.007 29.0484 107.107C28.7484 107.307 28.5484 107.507 28.3484 107.807C28.1484 108.107 28.0484 108.407 28.0484 108.807H26.8484C26.8484 108.207 27.0484 107.707 27.2484 107.207C27.5484 106.707 27.9484 106.407 28.4484 106.107C28.9484 105.807 29.5484 105.707 30.2484 105.707C30.9484 105.707 31.5484 105.807 32.0484 106.107C32.5484 106.307 32.9484 106.707 33.2484 107.207C33.5484 107.707 33.6484 108.307 33.6484 109.007C33.6484 109.307 33.5484 109.607 33.4484 109.907C33.3484 110.207 33.1484 110.507 32.8484 110.807C32.5484 111.107 32.2484 111.307 31.7484 111.507C31.3484 111.707 30.7484 111.807 30.1484 111.807H28.9484L29.0484 110.807ZM29.0484 111.907V111.007H30.2484C30.9484 111.007 31.5484 111.107 32.0484 111.307C32.5484 111.507 32.9484 111.707 33.1484 112.007C33.4484 112.307 33.6484 112.607 33.7484 112.907C33.8484 113.207 33.9484 113.607 33.9484 113.907C33.9484 114.407 33.8484 114.907 33.6484 115.307C33.4484 115.707 33.2484 116.107 32.8484 116.307C32.5484 116.607 32.1484 116.807 31.7484 117.007C31.3484 117.107 30.8484 117.207 30.3484 117.207C29.8484 117.207 29.3484 117.107 28.9484 117.007C28.5484 116.907 28.1484 116.707 27.7484 116.407C27.4484 116.107 27.1484 115.807 26.9484 115.407C26.7484 115.007 26.6484 114.607 26.6484 114.107H28.1484C28.1484 114.507 28.2484 114.807 28.4484 115.107C28.6484 115.407 28.8484 115.607 29.2484 115.807C29.5484 116.007 29.9484 116.007 30.4484 116.007C30.8484 116.007 31.2484 115.907 31.5484 115.807C31.8484 115.607 32.1484 115.407 32.2484 115.107C32.4484 114.807 32.5484 114.407 32.5484 113.907C32.5484 113.407 32.4484 113.007 32.2484 112.707C32.0484 112.407 31.7484 112.207 31.4484 112.007C31.1484 111.807 30.6484 111.807 30.1484 111.807L29.0484 111.907Z" fill="#50535A"/>
<path d="M55.9484 69.1069V70.3069H48.4484V69.3069L52.1484 65.1069C52.6484 64.6069 52.9484 64.2069 53.2484 63.8069C53.5484 63.4069 53.6484 63.1069 53.7484 62.8069C53.8484 62.5069 53.9484 62.2069 53.9484 61.9069C53.9484 61.5069 53.8484 61.2069 53.7484 60.9069C53.6484 60.6069 53.3484 60.4069 53.0484 60.2069C52.7484 60.0069 52.3484 59.9069 51.9484 59.9069C51.4484 59.9069 51.0484 60.0069 50.6484 60.2069C50.3484 60.4069 50.0484 60.7069 49.8484 61.0069C49.6484 61.4069 49.6484 61.8069 49.6484 62.2069H48.1484C48.1484 61.6069 48.2484 61.0069 48.5484 60.4069C48.8484 59.9069 49.2484 59.5069 49.7484 59.1069C50.2484 58.8069 50.9484 58.6069 51.7484 58.6069C52.4484 58.6069 53.0484 58.7069 53.5484 59.0069C54.0484 59.3069 54.4484 59.6069 54.7484 60.1069C55.0484 60.5069 55.1484 61.1069 55.1484 61.7069C55.1484 62.0069 55.0484 62.4069 54.9484 62.7069C54.8484 63.0069 54.6484 63.4069 54.4484 63.7069C54.2484 64.0069 54.0484 64.4069 53.7484 64.7069C53.4484 65.0069 53.2484 65.4069 52.9484 65.7069L49.9484 69.0069L55.9484 69.1069Z" fill="#50535A"/>
<path d="M96.7453 27.5068V38.9068H95.2453V29.4068L92.4453 30.4068V29.1068L96.5453 27.5068H96.7453Z" fill="#50535A"/>
<path d="M150.145 30.2068V31.9068C150.145 32.8068 150.045 33.6068 149.945 34.3068C149.845 35.0068 149.545 35.5068 149.245 35.8068C148.945 36.2068 148.545 36.5068 148.145 36.7068C147.745 36.9068 147.245 37.0068 146.645 37.0068C146.245 37.0068 145.845 37.0068 145.445 36.8068C145.045 36.7068 144.745 36.5068 144.445 36.3068C144.145 36.1068 143.945 35.7068 143.645 35.4068C143.445 35.0068 143.245 34.5068 143.145 34.0068C143.045 33.4068 142.945 32.8068 142.945 32.0068V30.3068C142.945 29.4068 143.045 28.6068 143.145 28.0068C143.245 27.4068 143.545 26.9068 143.845 26.5068C144.145 26.1068 144.545 25.8068 144.945 25.7068C145.345 25.5068 145.845 25.5068 146.445 25.5068C146.845 25.5068 147.245 25.5068 147.645 25.7068C148.045 25.8068 148.345 26.0068 148.645 26.2068C148.945 26.4068 149.145 26.7068 149.345 27.1068C149.545 27.5068 149.745 27.9068 149.845 28.5068C150.045 28.8068 150.145 29.5068 150.145 30.2068ZM148.645 32.2068V30.0068C148.645 29.5068 148.645 29.0068 148.545 28.7068C148.445 28.3068 148.445 28.0068 148.245 27.7068C148.145 27.4068 147.945 27.2068 147.845 27.0068C147.645 26.8068 147.445 26.7068 147.245 26.6068C147.045 26.5068 146.745 26.5068 146.445 26.5068C146.145 26.5068 145.745 26.6068 145.545 26.7068C145.245 26.8068 145.045 27.0068 144.845 27.3068C144.645 27.6068 144.545 27.9068 144.445 28.4068C144.345 28.9068 144.345 29.4068 144.345 30.0068V32.2068C144.345 32.7068 144.345 33.2068 144.445 33.5068C144.545 33.9068 144.645 34.2068 144.745 34.5068C144.845 34.8068 145.045 35.0068 145.145 35.2068C145.245 35.4068 145.545 35.5068 145.745 35.6068C145.945 35.7068 146.245 35.7068 146.545 35.7068C146.945 35.7068 147.245 35.6068 147.445 35.5068C147.745 35.4068 147.945 35.1068 148.145 34.9068C148.345 34.6068 148.445 34.2068 148.545 33.8068C148.645 33.4068 148.645 32.8068 148.645 32.2068Z" fill="#50535A"/>
<path d="M189.046 53.4067V64.8067H187.646V55.2067L184.746 56.3067V55.0067L188.846 53.4067H189.046ZM200.446 58.3067V60.0067C200.446 60.9067 200.346 61.7067 200.246 62.4067C200.046 63.0067 199.846 63.6067 199.546 63.9067C199.246 64.2067 198.846 64.6067 198.446 64.7067C198.046 64.9067 197.546 65.0067 196.946 65.0067C196.546 65.0067 196.146 64.9067 195.746 64.8067C195.346 64.7067 195.046 64.5067 194.746 64.3067C194.446 64.1067 194.246 63.7067 193.946 63.4067C193.746 63.0067 193.546 62.5067 193.446 62.0067C193.346 61.4067 193.246 60.8067 193.246 60.1067V58.4067C193.246 57.5067 193.346 56.7067 193.446 56.1067C193.646 55.5067 193.846 55.0067 194.146 54.6067C194.446 54.2067 194.846 53.9067 195.246 53.8067C195.846 53.4067 196.346 53.4067 196.846 53.4067C197.246 53.4067 197.746 53.4067 198.046 53.6067C198.446 53.7067 198.746 53.9067 199.046 54.1067C199.346 54.3067 199.546 54.6067 199.746 55.0067C199.946 55.4067 200.146 55.9067 200.246 56.4067C200.446 56.9067 200.446 57.6067 200.446 58.3067ZM199.046 60.3067V58.1067C199.046 57.6067 199.046 57.1067 198.946 56.8067C198.846 56.4067 198.846 56.1067 198.646 55.8067C198.546 55.5067 198.346 55.3067 198.246 55.1067C198.046 54.9067 197.846 54.8067 197.646 54.7067C197.446 54.6067 197.146 54.6067 196.846 54.6067C196.546 54.6067 196.246 54.7067 195.946 54.8067C195.646 54.9067 195.446 55.1067 195.246 55.4067C195.046 55.7067 194.946 56.0067 194.846 56.5067C194.746 57.0067 194.746 57.5067 194.746 58.1067V60.3067C194.746 60.8067 194.746 61.3067 194.846 61.6067C194.946 61.9067 194.946 62.3067 195.146 62.6067C195.246 62.9067 195.446 63.1067 195.546 63.3067C195.746 63.5067 195.946 63.6067 196.146 63.7067C196.346 63.8067 196.646 63.8067 196.946 63.8067C197.346 63.8067 197.646 63.7067 197.846 63.6067C198.146 63.5067 198.346 63.3067 198.546 63.0067C198.746 62.7067 198.846 62.3067 198.946 61.9067C198.946 61.5067 199.046 60.9067 199.046 60.3067Z" fill="#50535A"/>
<path d="M214.645 109.607H214.845C215.645 109.607 216.345 109.507 216.845 109.307C217.345 109.107 217.745 108.707 218.045 108.307C218.345 107.907 218.545 107.507 218.645 107.007C218.745 106.507 218.845 106.007 218.845 105.507V103.807C218.845 103.307 218.745 102.807 218.645 102.407C218.545 102.007 218.345 101.707 218.145 101.407C217.945 101.107 217.745 100.907 217.445 100.807C217.145 100.707 216.945 100.607 216.645 100.607C216.345 100.607 216.045 100.707 215.745 100.807C215.445 100.907 215.245 101.107 215.045 101.407C214.845 101.607 214.745 101.907 214.645 102.207C214.545 102.507 214.545 102.907 214.545 103.307C214.545 103.607 214.545 104.007 214.645 104.307C214.745 104.607 214.845 104.907 215.045 105.207C215.245 105.507 215.445 105.707 215.645 105.807C215.945 106.007 216.245 106.007 216.545 106.007C216.845 106.007 217.145 105.907 217.445 105.807C217.745 105.707 217.945 105.507 218.245 105.307C218.545 105.107 218.645 104.807 218.745 104.507C218.845 104.207 218.945 103.907 218.945 103.607H219.645C219.645 104.007 219.545 104.507 219.345 104.907C219.145 105.307 218.945 105.707 218.645 106.007C218.345 106.307 217.945 106.607 217.545 106.807C217.145 107.007 216.645 107.107 216.245 107.107C215.645 107.107 215.145 107.007 214.745 106.807C214.345 106.607 213.945 106.307 213.745 105.907C213.445 105.507 213.245 105.107 213.145 104.707C213.045 104.207 212.945 103.807 212.945 103.307C212.945 102.807 213.045 102.307 213.145 101.807C213.245 101.307 213.545 100.907 213.845 100.607C214.145 100.207 214.545 99.9068 214.945 99.8068C215.345 99.6068 215.845 99.5068 216.445 99.5068C217.045 99.5068 217.645 99.6068 218.145 99.9068C218.645 100.207 218.945 100.507 219.245 101.007C219.545 101.407 219.745 101.907 219.845 102.507C219.945 103.107 220.045 103.607 220.045 104.207V104.707C220.045 105.307 220.045 105.907 219.945 106.507C219.845 107.107 219.745 107.707 219.545 108.207C219.345 108.807 219.045 109.307 218.645 109.707C218.245 110.107 217.745 110.507 217.045 110.707C216.445 110.907 215.645 111.107 214.645 111.107H214.445V109.607H214.645Z" fill="#50535A"/>
</svg>
