<svg width="248" height="247" viewBox="0 0 248 247" fill="none" xmlns="http://www.w3.org/2000/svg">
<g clip-path="url(#clip0_3_238)">
<path fill-rule="evenodd" clip-rule="evenodd" d="M61.8701 229.39C52.9401 224.23 44.9001 218.13 37.8001 211.27C37.0101 210.5 37.0101 209.23 37.7901 208.45L77.8001 168.46C78.5801 167.68 79.8501 167.68 80.6501 168.44C84.0701 171.65 87.9101 174.51 92.1401 176.95C96.3801 179.39 100.78 181.29 105.26 182.65C106.32 182.97 106.95 184.06 106.66 185.13L92.0301 239.77C91.7401 240.84 90.6501 241.47 89.5801 241.17C80.0901 238.46 70.7901 234.55 61.8501 229.39H61.8701Z" fill="white" stroke="#DDDDDD"/>
<path fill-rule="evenodd" clip-rule="evenodd" d="M13.39 178.05C8.87003 168.78 5.62003 159.22 3.57003 149.57C3.34003 148.49 4.05003 147.44 5.14003 147.23L60.67 136.45C61.75 136.24 62.8 136.95 63.05 138.03C64.09 142.6 65.68 147.12 67.82 151.52C69.96 155.91 72.55 159.94 75.51 163.58C76.21 164.44 76.12 165.7 75.29 166.42L32.6 203.54C31.77 204.26 30.5 204.18 29.79 203.33C23.44 195.78 17.91 187.33 13.39 178.06V178.05Z" fill="white" stroke="#DDDDDD"/>
<path fill-rule="evenodd" clip-rule="evenodd" d="M50.8301 23.66C51.7201 23.01 52.9701 23.23 53.6101 24.14L86.2601 70.79C86.8901 71.7 86.6701 72.94 85.7901 73.6C82.0401 76.41 78.5501 79.7 75.4201 83.45C72.2801 87.2 69.6601 91.21 67.5501 95.4C67.0501 96.39 65.8601 96.83 64.8601 96.36L13.4001 72.21C12.4001 71.74 11.9701 70.56 12.4501 69.57C16.7501 60.67 22.2101 52.16 28.8301 44.24C35.4501 36.32 42.8601 29.46 50.8401 23.66H50.8301Z" fill="white" stroke="#DDDDDD"/>
<path fill-rule="evenodd" clip-rule="evenodd" d="M1.40006 109.14C2.64006 98.9 5.11006 89.11 8.65006 79.9C9.05006 78.87 10.2101 78.37 11.2401 78.79L64.0301 100.14C65.0501 100.55 65.5501 101.72 65.1701 102.76C63.5601 107.16 62.4301 111.82 61.8401 116.67C61.2501 121.52 61.2401 126.32 61.7501 130.98C61.8701 132.08 61.1101 133.1 60.0101 133.25L3.70006 141.02C2.61006 141.17 1.60006 140.41 1.46006 139.32C0.220056 129.51 0.160056 119.4 1.40006 109.15V109.14Z" fill="white" stroke="#DDDDDD"/>
<path fill-rule="evenodd" clip-rule="evenodd" d="M57.9199 21.66C57.3199 20.73 57.5799 19.49 58.5199 18.91C66.8899 13.68 76.0299 9.38 85.8399 6.21C95.6599 3.04 105.6 1.17 115.46 0.509997C116.56 0.439997 117.5 1.28 117.56 2.38L120.68 59.14C120.74 60.25 119.89 61.19 118.78 61.28C114.1 61.66 109.4 62.59 104.75 64.1C100.09 65.6 95.74 67.61 91.7299 70.03C90.7899 70.6 89.5499 70.34 88.9499 69.41L57.9199 21.66Z" fill="white" stroke="#DDDDDD"/>
<path fill-rule="evenodd" clip-rule="evenodd" d="M121.83 2.74C121.81 1.64 122.69 0.729996 123.79 0.729996C133.64 0.689996 143.64 1.84 153.61 4.3C163.58 6.75 172.95 10.36 181.62 14.95C182.6 15.47 182.95 16.69 182.41 17.66L154.87 67.09C154.33 68.05 153.12 68.4 152.14 67.9C147.99 65.78 143.52 64.11 138.8 62.95C134.08 61.79 129.34 61.2 124.68 61.14C123.57 61.13 122.65 60.25 122.64 59.14L121.84 2.75L121.83 2.74Z" fill="white" stroke="#DDDDDD"/>
<path fill-rule="evenodd" clip-rule="evenodd" d="M169.36 80.74C165.96 77.22 162.25 74.19 158.32 71.65C157.39 71.05 157.08 69.83 157.65 68.88L186.77 20.38C187.34 19.43 188.57 19.12 189.51 19.71C197.88 24.93 205.75 31.26 212.91 38.68C220.07 46.1 226.12 54.18 231.05 62.73C231.6 63.69 231.25 64.91 230.29 65.44L180.81 92.86C179.84 93.39 178.63 93.04 178.06 92.1C175.66 88.08 172.75 84.26 169.36 80.75V80.74Z" fill="white" stroke="#DDDDDD"/>
<g filter="url(#filter0_ddd_3_238)">
<path fill-rule="evenodd" clip-rule="evenodd" d="M182.015 97.15C182.017 97.15 182.019 97.1476 182.018 97.1454C181.591 96.1364 182.022 94.9493 183.01 94.48L234.24 70.46C235.24 69.99 236.44 70.42 236.89 71.44C240.86 80.41 243.81 90.01 245.56 100.12C247.31 110.24 247.77 120.3 247.04 130.12C246.96 131.22 245.99 132.03 244.9 131.94L188.7 127.2C187.59 127.11 186.78 126.13 186.84 125.02C187.11 120.36 186.85 115.59 186.02 110.81C185.19 106.012 183.831 101.443 182.012 97.1546C182.011 97.1524 182.013 97.15 182.015 97.15V97.15Z" fill="#A13EA1" fill-opacity="0.6" shape-rendering="crispEdges"/>
</g>
<g filter="url(#filter1_ddd_3_238)">
<path fill-rule="evenodd" clip-rule="evenodd" d="M181.95 146.36C183.7 141.79 184.88 137.15 185.52 132.51C185.67 131.41 186.65 130.62 187.75 130.73L244.09 136.68C245.19 136.8 245.99 137.78 245.85 138.88C244.66 148.68 242.26 158.49 238.56 168.12C234.87 177.75 230.09 186.65 224.43 194.73C223.8 195.63 222.54 195.83 221.65 195.18L175.8 161.87C174.91 161.22 174.71 159.97 175.33 159.06C177.96 155.18 180.19 150.94 181.94 146.38L181.95 146.36Z" fill="#A13EA1" fill-opacity="0.6" shape-rendering="crispEdges"/>
</g>
<path fill-rule="evenodd" clip-rule="evenodd" d="M146.44 184.48C146.02 183.46 146.52 182.29 147.53 181.84C151.82 179.95 155.96 177.53 159.86 174.59C163.77 171.65 167.23 168.34 170.23 164.74C170.94 163.89 172.19 163.73 173.06 164.42L217.72 199.31C218.59 199.99 218.75 201.25 218.05 202.11C211.85 209.78 204.61 216.83 196.37 223.03C188.13 229.24 179.36 234.25 170.27 238.1C169.25 238.53 168.09 238.03 167.67 237.01L146.42 184.49L146.44 184.48Z" fill="white" stroke="#DDDDDD"/>
<path fill-rule="evenodd" clip-rule="evenodd" d="M110.08 186.63C110.31 185.55 111.37 184.87 112.46 185.06C117.05 185.87 121.81 186.17 126.67 185.9C131.53 185.63 136.22 184.81 140.71 183.5C141.77 183.19 142.91 183.76 143.25 184.82L160.66 239C160.91 239.78 160.48 240.61 159.71 240.86C150.16 243.87 140.09 245.74 129.66 246.32C119.41 246.89 109.39 246.18 99.76 244.32C98.67 244.11 97.98 243.04 98.21 241.96L110.09 186.64L110.08 186.63Z" fill="white" stroke="#DDDDDD"/>
<path d="M184.44 198.95C184.44 199.64 184.28 200.23 183.96 200.72C183.64 201.2 183.21 201.56 182.66 201.81C182.12 202.06 181.51 202.19 180.82 202.19C180.13 202.19 179.52 202.07 178.98 201.81C178.43 201.56 178 201.2 177.68 200.72C177.36 200.24 177.2 199.65 177.2 198.95C177.2 198.5 177.29 198.08 177.46 197.71C177.64 197.33 177.88 197 178.2 196.72C178.52 196.44 178.9 196.22 179.34 196.07C179.78 195.91 180.27 195.84 180.8 195.84C181.5 195.84 182.12 195.98 182.67 196.25C183.22 196.52 183.65 196.88 183.96 197.35C184.28 197.82 184.44 198.36 184.44 198.96V198.95ZM182.99 198.92C182.99 198.5 182.9 198.13 182.72 197.8C182.54 197.47 182.28 197.22 181.95 197.03C181.62 196.84 181.24 196.76 180.81 196.76C180.38 196.76 179.99 196.85 179.66 197.03C179.34 197.21 179.09 197.47 178.92 197.8C178.74 198.12 178.65 198.5 178.65 198.92C178.65 199.34 178.74 199.73 178.91 200.04C179.09 200.35 179.34 200.58 179.66 200.75C179.99 200.91 180.38 200.99 180.82 200.99C181.26 200.99 181.65 200.91 181.98 200.75C182.3 200.58 182.55 200.35 182.72 200.04C182.9 199.73 182.99 199.35 182.99 198.92ZM184.18 193.62C184.18 194.17 184.03 194.67 183.74 195.11C183.45 195.55 183.05 195.9 182.54 196.16C182.04 196.42 181.46 196.54 180.82 196.54C180.18 196.54 179.59 196.41 179.08 196.16C178.58 195.9 178.18 195.56 177.89 195.11C177.6 194.67 177.46 194.17 177.46 193.62C177.46 192.96 177.6 192.4 177.89 191.93C178.18 191.47 178.58 191.11 179.09 190.87C179.59 190.63 180.17 190.5 180.82 190.5C181.47 190.5 182.05 190.62 182.56 190.87C183.06 191.11 183.46 191.47 183.75 191.93C184.04 192.39 184.19 192.96 184.19 193.62H184.18ZM182.73 193.64C182.73 193.26 182.65 192.92 182.49 192.63C182.33 192.34 182.11 192.11 181.82 191.94C181.53 191.77 181.2 191.68 180.82 191.68C180.44 191.68 180.11 191.76 179.82 191.92C179.54 192.08 179.32 192.3 179.16 192.59C179 192.88 178.93 193.23 178.93 193.63C178.93 194.03 179.01 194.36 179.16 194.65C179.32 194.94 179.55 195.17 179.83 195.33C180.11 195.49 180.45 195.57 180.83 195.57C181.21 195.57 181.54 195.49 181.82 195.33C182.11 195.17 182.33 194.94 182.49 194.65C182.65 194.36 182.73 194.02 182.73 193.63V193.64Z" fill="#86888C"/>
<path d="M130.36 209.9V210.71L125.65 221.27H124.13L128.83 211.08H122.67V209.89H130.36V209.9Z" fill="#86888C"/>
<path d="M38.96 161.28L37.8 160.98L38.37 155.32H44.2V156.66H39.59L39.25 159.75C39.46 159.63 39.72 159.52 40.04 159.41C40.36 159.31 40.73 159.25 41.15 159.25C41.68 159.25 42.15 159.34 42.56 159.52C42.98 159.7 43.33 159.95 43.62 160.29C43.92 160.62 44.14 161.02 44.3 161.49C44.46 161.96 44.53 162.48 44.53 163.06C44.53 163.61 44.46 164.11 44.3 164.57C44.15 165.03 43.93 165.43 43.64 165.77C43.34 166.11 42.97 166.37 42.52 166.56C42.07 166.75 41.54 166.84 40.93 166.84C40.47 166.84 40.04 166.78 39.63 166.65C39.22 166.52 38.86 166.32 38.54 166.06C38.22 165.79 37.96 165.47 37.76 165.07C37.56 164.68 37.44 164.21 37.38 163.68H38.76C38.82 164.11 38.95 164.47 39.14 164.76C39.33 165.05 39.57 165.27 39.88 165.42C40.19 165.57 40.54 165.64 40.95 165.64C41.29 165.64 41.6 165.58 41.86 165.46C42.13 165.34 42.35 165.17 42.53 164.94C42.71 164.72 42.85 164.45 42.94 164.13C43.04 163.81 43.09 163.45 43.09 163.06C43.09 162.7 43.04 162.37 42.94 162.06C42.84 161.75 42.69 161.48 42.49 161.25C42.3 161.02 42.06 160.84 41.78 160.72C41.5 160.59 41.17 160.52 40.81 160.52C40.32 160.52 39.96 160.59 39.71 160.72C39.46 160.85 39.21 161.03 38.95 161.25L38.96 161.28Z" fill="#86888C"/>
<path d="M30.05 113.98V115.17H21.83V114.32L26.92 106.44H28.1L26.83 108.72L23.46 113.99H30.04L30.05 113.98ZM28.46 106.43V117.81H27.02V106.43H28.46Z" fill="#86888C"/>
<path d="M48.14 63.15H49.17C49.68 63.15 50.09 63.07 50.42 62.9C50.75 62.73 51 62.5 51.16 62.2C51.33 61.9 51.41 61.57 51.41 61.2C51.41 60.76 51.34 60.4 51.19 60.1C51.05 59.8 50.83 59.58 50.53 59.43C50.24 59.28 49.87 59.2 49.42 59.2C49.01 59.2 48.65 59.28 48.34 59.44C48.03 59.6 47.79 59.82 47.61 60.11C47.44 60.4 47.35 60.75 47.35 61.14H45.9C45.9 60.56 46.05 60.03 46.34 59.56C46.63 59.09 47.04 58.71 47.57 58.43C48.1 58.15 48.72 58.01 49.41 58.01C50.1 58.01 50.7 58.13 51.21 58.38C51.73 58.62 52.13 58.98 52.41 59.46C52.7 59.93 52.84 60.53 52.84 61.23C52.84 61.52 52.77 61.82 52.64 62.15C52.51 62.47 52.3 62.77 52.02 63.06C51.74 63.34 51.39 63.57 50.94 63.75C50.5 63.93 49.97 64.02 49.35 64.02H48.12V63.14L48.14 63.15ZM48.14 64.34V63.47H49.37C50.09 63.47 50.69 63.56 51.17 63.73C51.64 63.9 52.02 64.13 52.29 64.42C52.57 64.71 52.76 65.02 52.87 65.36C52.98 65.7 53.04 66.04 53.04 66.38C53.04 66.91 52.95 67.38 52.77 67.79C52.59 68.2 52.34 68.55 52.01 68.84C51.69 69.13 51.31 69.34 50.87 69.49C50.43 69.63 49.96 69.71 49.44 69.71C48.92 69.71 48.48 69.64 48.04 69.5C47.61 69.36 47.22 69.16 46.89 68.89C46.56 68.62 46.3 68.29 46.11 67.9C45.92 67.5 45.83 67.05 45.83 66.55H47.28C47.28 66.95 47.36 67.29 47.54 67.59C47.72 67.89 47.97 68.12 48.29 68.29C48.62 68.45 49 68.53 49.45 68.53C49.9 68.53 50.27 68.45 50.59 68.3C50.91 68.14 51.16 67.91 51.33 67.6C51.51 67.29 51.6 66.89 51.6 66.42C51.6 65.95 51.5 65.56 51.3 65.26C51.1 64.95 50.82 64.73 50.46 64.58C50.1 64.43 49.68 64.35 49.19 64.35H48.16L48.14 64.34Z" fill="#86888C"/>
<path d="M99.06 38.13V39.32H91.61V38.28L95.34 34.13C95.8 33.62 96.15 33.19 96.4 32.83C96.66 32.47 96.83 32.15 96.93 31.87C97.03 31.58 97.09 31.29 97.09 30.99C97.09 30.61 97.01 30.28 96.86 29.97C96.71 29.66 96.48 29.42 96.19 29.24C95.89 29.06 95.53 28.97 95.11 28.97C94.6 28.97 94.18 29.07 93.84 29.27C93.51 29.46 93.26 29.73 93.09 30.08C92.92 30.43 92.84 30.83 92.84 31.28H91.39C91.39 30.64 91.53 30.05 91.81 29.52C92.09 28.99 92.51 28.57 93.06 28.25C93.61 27.93 94.29 27.77 95.1 27.77C95.82 27.77 96.43 27.9 96.94 28.15C97.45 28.4 97.84 28.75 98.11 29.21C98.39 29.66 98.52 30.19 98.52 30.8C98.52 31.13 98.46 31.47 98.35 31.81C98.24 32.15 98.09 32.49 97.89 32.83C97.7 33.17 97.47 33.5 97.21 33.83C96.95 34.16 96.68 34.48 96.39 34.8L93.34 38.1H99.04L99.06 38.13Z" fill="#86888C"/>
<path d="M148.96 26.61V38.05H147.51V28.42L144.6 29.48V28.18L148.73 26.62H148.96V26.61Z" fill="#86888C"/>
<path d="M211.57 98.44V109.88H210.12V100.25L207.21 101.31V100.01L211.34 98.45H211.57V98.44ZM222.96 103.28V105.01C222.96 105.94 222.88 106.73 222.71 107.37C222.54 108.01 222.3 108.53 221.99 108.92C221.68 109.31 221.3 109.59 220.86 109.77C220.42 109.94 219.93 110.03 219.38 110.03C218.94 110.03 218.54 109.98 218.17 109.87C217.8 109.76 217.47 109.59 217.17 109.35C216.88 109.11 216.63 108.79 216.42 108.4C216.21 108.01 216.05 107.54 215.94 106.98C215.83 106.42 215.78 105.77 215.78 105.03V103.3C215.78 102.37 215.86 101.59 216.03 100.96C216.2 100.33 216.44 99.82 216.76 99.44C217.07 99.05 217.45 98.78 217.88 98.61C218.32 98.44 218.82 98.36 219.36 98.36C219.8 98.36 220.21 98.41 220.58 98.52C220.96 98.62 221.29 98.79 221.58 99.03C221.87 99.26 222.12 99.57 222.32 99.95C222.53 100.33 222.69 100.8 222.8 101.35C222.91 101.9 222.96 102.55 222.96 103.3V103.28ZM221.51 105.25V103.04C221.51 102.53 221.48 102.08 221.42 101.7C221.36 101.31 221.28 100.98 221.16 100.7C221.05 100.42 220.9 100.2 220.72 100.03C220.55 99.86 220.35 99.73 220.12 99.65C219.9 99.57 219.64 99.53 219.36 99.53C219.02 99.53 218.71 99.6 218.45 99.73C218.18 99.85 217.96 100.06 217.78 100.33C217.6 100.61 217.47 100.97 217.37 101.42C217.28 101.87 217.23 102.41 217.23 103.05V105.26C217.23 105.77 217.26 106.22 217.32 106.61C217.38 107 217.47 107.34 217.59 107.63C217.71 107.91 217.86 108.14 218.03 108.33C218.2 108.51 218.4 108.65 218.62 108.74C218.85 108.82 219.1 108.86 219.38 108.86C219.73 108.86 220.04 108.79 220.31 108.66C220.58 108.52 220.8 108.31 220.97 108.03C221.15 107.74 221.29 107.37 221.38 106.91C221.47 106.45 221.51 105.9 221.51 105.27V105.25Z" fill="white"/>
<path d="M209.57 162.22H209.72C210.55 162.22 211.23 162.1 211.75 161.87C212.27 161.64 212.67 161.32 212.95 160.92C213.23 160.52 213.42 160.08 213.53 159.58C213.63 159.08 213.69 158.57 213.69 158.04V156.3C213.69 155.78 213.63 155.33 213.51 154.92C213.4 154.52 213.23 154.18 213.03 153.91C212.83 153.64 212.6 153.43 212.34 153.29C212.08 153.15 211.8 153.08 211.51 153.08C211.18 153.08 210.88 153.15 210.61 153.28C210.35 153.41 210.13 153.6 209.95 153.83C209.77 154.07 209.64 154.35 209.54 154.67C209.45 154.99 209.4 155.34 209.4 155.72C209.4 156.06 209.44 156.39 209.52 156.7C209.6 157.01 209.73 157.3 209.9 157.56C210.07 157.82 210.29 158.02 210.54 158.17C210.8 158.32 211.11 158.39 211.45 158.39C211.77 158.39 212.07 158.33 212.36 158.2C212.65 158.07 212.9 157.9 213.12 157.68C213.34 157.46 213.52 157.2 213.65 156.92C213.79 156.64 213.86 156.34 213.88 156.04H214.57C214.57 156.47 214.48 156.9 214.31 157.32C214.14 157.74 213.91 158.12 213.61 158.46C213.31 158.8 212.95 159.08 212.55 159.29C212.14 159.49 211.7 159.59 211.22 159.59C210.66 159.59 210.17 159.48 209.76 159.26C209.35 159.04 209.01 158.75 208.75 158.38C208.49 158.02 208.29 157.61 208.16 157.16C208.04 156.71 207.97 156.25 207.97 155.78C207.97 155.24 208.05 154.73 208.2 154.26C208.35 153.79 208.58 153.37 208.87 153.01C209.17 152.65 209.53 152.36 209.97 152.16C210.41 151.96 210.92 151.86 211.5 151.86C212.15 151.86 212.71 151.99 213.17 152.25C213.63 152.51 214 152.86 214.29 153.3C214.58 153.74 214.79 154.23 214.93 154.78C215.07 155.33 215.13 155.89 215.13 156.47V156.99C215.13 157.58 215.09 158.18 215.01 158.79C214.94 159.39 214.79 159.97 214.58 160.52C214.37 161.07 214.07 161.57 213.67 162C213.27 162.43 212.75 162.78 212.1 163.03C211.46 163.28 210.67 163.41 209.72 163.41H209.57V162.18V162.22Z" fill="white"/>
<path d="M76.68 194.15H76.8V195.38H76.68C75.92 195.38 75.27 195.5 74.76 195.76C74.24 196.01 73.84 196.34 73.53 196.75C73.23 197.16 73.01 197.63 72.87 198.14C72.74 198.65 72.67 199.18 72.67 199.71V201.38C72.67 201.89 72.73 202.33 72.85 202.72C72.97 203.11 73.13 203.43 73.34 203.7C73.55 203.97 73.78 204.17 74.04 204.3C74.31 204.44 74.58 204.5 74.87 204.5C75.2 204.5 75.5 204.44 75.76 204.31C76.02 204.18 76.24 204 76.42 203.77C76.6 203.54 76.74 203.26 76.83 202.94C76.92 202.62 76.97 202.27 76.97 201.89C76.97 201.55 76.93 201.23 76.85 200.91C76.77 200.59 76.64 200.31 76.47 200.07C76.3 199.82 76.08 199.62 75.82 199.48C75.56 199.33 75.26 199.26 74.91 199.26C74.51 199.26 74.13 199.36 73.79 199.56C73.45 199.75 73.16 200.01 72.94 200.33C72.72 200.64 72.6 200.98 72.56 201.35H71.79C71.86 200.76 72 200.26 72.2 199.85C72.4 199.43 72.65 199.09 72.95 198.83C73.25 198.56 73.59 198.37 73.96 198.25C74.34 198.13 74.73 198.06 75.15 198.06C75.72 198.06 76.21 198.17 76.62 198.38C77.03 198.59 77.37 198.88 77.64 199.24C77.91 199.59 78.1 199.99 78.23 200.44C78.36 200.88 78.43 201.34 78.43 201.81C78.43 202.35 78.35 202.85 78.2 203.32C78.05 203.79 77.82 204.2 77.52 204.55C77.22 204.9 76.86 205.18 76.42 205.38C75.98 205.58 75.47 205.68 74.9 205.68C74.29 205.68 73.75 205.56 73.29 205.3C72.83 205.04 72.45 204.71 72.15 204.29C71.85 203.87 71.62 203.4 71.47 202.88C71.32 202.37 71.24 201.84 71.24 201.31V200.63C71.24 199.83 71.32 199.04 71.48 198.27C71.64 197.5 71.92 196.8 72.32 196.18C72.72 195.56 73.28 195.06 73.98 194.69C74.69 194.32 75.59 194.13 76.69 194.13L76.68 194.15Z" fill="#86888C"/>
<path d="M197.71 53.12V54.86C197.71 55.79 197.63 56.58 197.46 57.22C197.29 57.86 197.05 58.38 196.74 58.77C196.43 59.16 196.05 59.44 195.61 59.62C195.17 59.79 194.68 59.88 194.13 59.88C193.69 59.88 193.29 59.83 192.92 59.72C192.55 59.61 192.22 59.44 191.92 59.2C191.63 58.96 191.38 58.64 191.17 58.25C190.96 57.86 190.8 57.38 190.69 56.83C190.58 56.27 190.53 55.62 190.53 54.88V53.14C190.53 52.21 190.61 51.43 190.78 50.8C190.95 50.17 191.19 49.67 191.51 49.29C191.82 48.9 192.2 48.63 192.63 48.46C193.07 48.29 193.57 48.21 194.11 48.21C194.55 48.21 194.96 48.26 195.33 48.37C195.71 48.47 196.04 48.64 196.33 48.88C196.62 49.11 196.87 49.42 197.07 49.8C197.28 50.18 197.44 50.65 197.55 51.2C197.66 51.75 197.71 52.4 197.71 53.15V53.12ZM196.26 55.09V52.88C196.26 52.37 196.23 51.92 196.17 51.54C196.11 51.15 196.03 50.82 195.91 50.54C195.8 50.26 195.65 50.04 195.47 49.87C195.3 49.7 195.1 49.57 194.87 49.49C194.65 49.41 194.39 49.37 194.11 49.37C193.77 49.37 193.46 49.44 193.2 49.57C192.93 49.69 192.71 49.9 192.53 50.17C192.35 50.45 192.22 50.81 192.12 51.26C192.03 51.71 191.98 52.25 191.98 52.89V55.1C191.98 55.61 192.01 56.06 192.07 56.45C192.13 56.84 192.22 57.18 192.34 57.46C192.46 57.74 192.61 57.97 192.78 58.15C192.95 58.33 193.15 58.47 193.37 58.56C193.6 58.64 193.85 58.68 194.13 58.68C194.48 58.68 194.79 58.61 195.06 58.48C195.33 58.34 195.55 58.13 195.72 57.85C195.9 57.56 196.04 57.19 196.13 56.73C196.22 56.27 196.26 55.72 196.26 55.09Z" fill="#86888C"/>
</g>
<defs>
<filter id="filter0_ddd_3_238" x="169.854" y="63.27" width="89.5193" height="86.6768" filterUnits="userSpaceOnUse" color-interpolation-filters="sRGB">
<feFlood flood-opacity="0" result="BackgroundImageFix"/>
<feColorMatrix in="SourceAlpha" type="matrix" values="0 0 0 0 0 0 0 0 0 0 0 0 0 0 0 0 0 0 127 0" result="hardAlpha"/>
<feOffset dy="8"/>
<feGaussianBlur stdDeviation="5"/>
<feColorMatrix type="matrix" values="0 0 0 0 0.0431373 0 0 0 0 0.152941 0 0 0 0 0.223529 0 0 0 0.14 0"/>
<feBlend mode="normal" in2="BackgroundImageFix" result="effect1_dropShadow_3_238"/>
<feColorMatrix in="SourceAlpha" type="matrix" values="0 0 0 0 0 0 0 0 0 0 0 0 0 0 0 0 0 0 127 0" result="hardAlpha"/>
<feOffset dy="5"/>
<feGaussianBlur stdDeviation="6"/>
<feColorMatrix type="matrix" values="0 0 0 0 0.0431373 0 0 0 0 0.152941 0 0 0 0 0.223529 0 0 0 0.02 0"/>
<feBlend mode="normal" in2="effect1_dropShadow_3_238" result="effect2_dropShadow_3_238"/>
<feColorMatrix in="SourceAlpha" type="matrix" values="0 0 0 0 0 0 0 0 0 0 0 0 0 0 0 0 0 0 127 0" result="hardAlpha"/>
<feOffset dy="4"/>
<feGaussianBlur stdDeviation="2"/>
<feComposite in2="hardAlpha" operator="out"/>
<feColorMatrix type="matrix" values="0 0 0 0 0.0431373 0 0 0 0 0.152941 0 0 0 0 0.223529 0 0 0 0.15 0"/>
<feBlend mode="normal" in2="effect2_dropShadow_3_238" result="effect3_dropShadow_3_238"/>
<feBlend mode="normal" in="SourceGraphic" in2="effect3_dropShadow_3_238" result="shape"/>
</filter>
<filter id="filter1_ddd_3_238" x="162.971" y="123.72" width="94.8949" height="89.8419" filterUnits="userSpaceOnUse" color-interpolation-filters="sRGB">
<feFlood flood-opacity="0" result="BackgroundImageFix"/>
<feColorMatrix in="SourceAlpha" type="matrix" values="0 0 0 0 0 0 0 0 0 0 0 0 0 0 0 0 0 0 127 0" result="hardAlpha"/>
<feOffset dy="8"/>
<feGaussianBlur stdDeviation="5"/>
<feColorMatrix type="matrix" values="0 0 0 0 0.0431373 0 0 0 0 0.152941 0 0 0 0 0.223529 0 0 0 0.14 0"/>
<feBlend mode="normal" in2="BackgroundImageFix" result="effect1_dropShadow_3_238"/>
<feColorMatrix in="SourceAlpha" type="matrix" values="0 0 0 0 0 0 0 0 0 0 0 0 0 0 0 0 0 0 127 0" result="hardAlpha"/>
<feOffset dy="5"/>
<feGaussianBlur stdDeviation="6"/>
<feColorMatrix type="matrix" values="0 0 0 0 0.0431373 0 0 0 0 0.152941 0 0 0 0 0.223529 0 0 0 0.02 0"/>
<feBlend mode="normal" in2="effect1_dropShadow_3_238" result="effect2_dropShadow_3_238"/>
<feColorMatrix in="SourceAlpha" type="matrix" values="0 0 0 0 0 0 0 0 0 0 0 0 0 0 0 0 0 0 127 0" result="hardAlpha"/>
<feOffset dy="4"/>
<feGaussianBlur stdDeviation="2"/>
<feComposite in2="hardAlpha" operator="out"/>
<feColorMatrix type="matrix" values="0 0 0 0 0.0431373 0 0 0 0 0.152941 0 0 0 0 0.223529 0 0 0 0.15 0"/>
<feBlend mode="normal" in2="effect2_dropShadow_3_238" result="effect3_dropShadow_3_238"/>
<feBlend mode="normal" in="SourceGraphic" in2="effect3_dropShadow_3_238" result="shape"/>
</filter>
<clipPath id="clip0_3_238">
<rect width="247.38" height="247" fill="white"/>
</clipPath>
</defs>
</svg>
