<svg width="208" height="178" viewBox="0 0 208 178" fill="none" xmlns="http://www.w3.org/2000/svg">
<path d="M99.0442 88.1609C97.3848 85.7519 97.6766 84.0364 98.4242 83.3794C100.722 81.3719 113.322 92.6138 109.074 81.6092C104.807 70.6045 112.63 74.51 115.821 75.9334C119.012 77.3569 136.408 90.1318 129.661 76.2802C122.914 62.4286 146.037 72.5937 148.881 72.9405C151.726 73.2872 149.811 70.0935 147.222 59.2531C144.085 46.1314 185.37 85.8614 188.215 76.9737C190.695 69.2175 204.535 84.2189 208 88.1426H99.0442V88.1609Z" fill="#F5F5F5"/>
<path d="M68 85.9909C68 85.9909 57.0121 75.4973 55.4063 77.3223C53.8005 79.1472 55.298 81.3007 53.8005 80.7897C52.2849 80.2787 44.2379 73.9643 43.0291 74.4753C41.8202 74.9863 43.5343 79.3662 41.6217 78.6545C39.7092 77.9428 15.5322 58.0687 11.4004 60.3134C7.26867 62.5581 19.0505 83.144 14.63 82.3227C10.1916 81.5015 1.2244 76.209 0.232063 78.6545C-0.778328 81.1 1.83785 85.9909 1.83785 85.9909H68Z" fill="#F5F5F5"/>
<path d="M76.019 137.959C72.919 139.857 70.0196 140.697 68.0319 141.646C63.4731 143.836 62.9625 146.354 63.0902 148.489C63.2543 151.099 64.7678 150.679 67.5578 148.179C70.9313 145.168 72.4996 143.58 77.2225 142.576C81.9272 141.573 80.1402 135.422 76.019 137.959Z" fill="#F8CCCC"/>
<path d="M67.4667 141.847C67.4667 141.847 62.2332 145.04 64.4944 148.143C65.6614 149.749 68.1597 147.687 68.1597 147.687C68.1597 147.687 65.1326 150.625 63.5461 150.844C62.7985 150.953 61.8685 150.661 61.5038 150.114C61.0114 149.366 60.8108 148.654 61.1208 147.358C61.3214 146.555 62.3608 144.803 63.6373 143.836C65.3697 142.522 67.4667 141.847 67.4667 141.847Z" fill="#E95D4E"/>
<path d="M109.572 177.817C110.082 177.397 107.949 172.67 106.216 169.969C106.545 171.01 106.691 172.214 105.341 171.594C103.353 170.681 100.272 167.177 100.217 165.151C99.0864 165.681 97.9741 166.794 97.2811 167.633C96.4059 168.674 107.529 179.532 109.572 177.817Z" fill="#E95D4E"/>
<path d="M105.341 171.576C106.691 172.196 106.545 170.992 106.217 169.952C105.141 168.273 104.211 166.94 104.028 166.594C103.591 165.681 103.955 164.86 103.955 164.86L103.354 164.075C103.354 164.075 100.545 164.969 100.217 165.115C100.272 167.178 103.354 170.682 105.341 171.576Z" fill="#F8CCCC"/>
<path d="M103.682 167.141L100.217 165.133C100.217 165.133 103.335 158.253 105.56 145.515C105.907 143.58 112.307 150.26 112.307 150.26C112.307 150.26 108.551 158.49 103.682 167.141Z" fill="#F8CCCC"/>
<path d="M120.75 92.8093C120.75 92.8093 130.232 128.524 124.014 139.529C117.796 150.534 112.435 150.023 105.779 163.418L102.46 158.855C102.46 158.855 102.971 137.175 115.334 129.984L105.05 92.791L120.75 92.8093Z" fill="#0B2739"/>
<g opacity="0.2">
<g opacity="0.2">
<path opacity="0.2" d="M112.325 143.798C108.788 146.609 105.724 149.547 103.117 152.449C104.247 145.459 107.274 134.655 115.316 129.965L105.031 92.7715H112.289L115.389 93.9395C115.389 93.9577 129.667 130.074 112.325 143.798Z" fill="#1D1D1B"/>
</g>
</g>
<path d="M95.7498 86.166C95.7498 86.166 83.3863 95.4369 99.6704 126.06C99.6704 126.06 92.9416 125.166 82.9669 133.944C82.9669 133.944 79.028 136.225 76.6939 137.083L77.2775 142.996C77.2775 142.996 97.1174 139.93 110.557 139.729C123.996 139.529 109.736 92.809 109.736 92.809L95.7498 86.166Z" fill="#0B2739"/>
<g opacity="0.1">
<g opacity="0.1">
<path opacity="0.1" d="M111.195 135.679C111.487 133.982 105.524 126.737 108.022 114.583C110.521 102.428 106.29 91.168 106.29 91.168L109.736 92.8105C109.736 92.8105 124.015 139.548 110.557 139.731C110.046 139.731 109.536 139.749 109.025 139.767C110.758 138.38 111.031 136.665 111.195 135.679Z" fill="white"/>
</g>
</g>
<path d="M114.495 47.4217C114.824 46.8925 116.118 44.6295 115.371 42.2205C114.185 38.4246 108.769 36.8368 106.216 38.3516C103.682 39.848 105.122 43.717 102.551 45.2865C100.217 46.71 96.7706 45.25 93.5065 43.79C85.8659 40.3408 84.4253 36.4353 82.1095 37.0741C78.6448 38.0596 76.3471 48.4437 80.523 56.1452C84.4618 63.3904 92.4853 65.1606 94.8741 65.5256C103.226 66.8213 114.623 63.4816 116.41 56.1452C117.267 52.5682 115.571 49.1555 114.495 47.4217Z" fill="#0B2739"/>
<g opacity="0.3">
<g opacity="0.3">
<path opacity="0.3" d="M80.9245 37.8232C82.821 38.9 84.2981 40.9622 85.0092 44.2837C88.3281 59.9968 96.151 45.6524 96.151 45.6524C96.151 45.6524 94.1086 54.6861 91.2275 64.614C87.8357 63.4825 83.2404 61.0918 80.5416 56.1461C76.8398 49.3936 78.1892 40.5242 80.9245 37.8232Z" fill="black"/>
</g>
</g>
<path d="M97.0443 38.8811C99.3237 44.0276 101.986 48.5353 104.958 51.0903L107.621 49.1375C107.621 49.1375 113.073 46.9293 121.151 37.7861C123.868 39.7571 125.965 42.7136 127.424 45.3051C124.598 50.9808 121.625 56.5835 118.781 61.2919C118.781 61.2919 116.118 67.9531 119.747 74.7056C123.394 81.458 128.245 79.5053 127.515 81.9508C126.786 84.378 123.394 98.7224 113.438 97.4997C103.481 96.2769 95.9502 90.218 92.7955 93.3752C89.6408 96.5324 87.0331 88.758 89.7867 79.2863C90.972 75.2348 89.9508 62.0767 88.3825 48.3163C90.972 44.1188 94.3272 40.9799 97.0443 38.8811Z" fill="#A13EA1"/>
<g opacity="0.1">
<g opacity="0.1">
<path opacity="0.1" d="M97.0449 38.8831C99.3243 44.0295 101.987 48.5372 104.959 51.0922L107.621 49.1395C107.621 49.1395 113.074 46.9313 121.152 37.7881C121.571 38.0983 121.991 38.4268 122.374 38.7918C120.167 46.0735 115.462 57.2242 106.874 59.2499C98.4125 61.2574 96.0966 48.9205 95.5131 40.1241C96.0602 39.6678 96.5707 39.2663 97.0449 38.8831Z" fill="white"/>
</g>
</g>
<path d="M104.849 57.8973L111.742 38.4795C113.383 39.2095 114.824 40.4687 115.352 42.2207C116.1 44.6297 114.805 46.8927 114.477 47.4219C115.535 49.1739 117.249 52.5684 116.374 56.1454C115.954 57.8791 115.006 59.3756 113.675 60.6531C110.739 63.5183 105.742 61.9488 104.849 57.8973Z" fill="#0B2739"/>
<path d="M105.268 48.7354C105.268 48.7354 105.123 49.1368 104.411 49.8486C101.056 53.2066 100.801 58.6268 104.028 62.076C104.393 62.4775 104.813 62.8425 105.25 63.171C109.7 66.456 107.858 54.9221 107.858 54.9221L109.536 52.4218L105.268 48.7354Z" fill="#F8CCCC"/>
<g opacity="0.1">
<g opacity="0.1">
<path opacity="0.1" d="M105.396 52.1671C105.724 51.2181 105.943 50.3056 106.126 49.4844L109.408 52.3131L109.481 52.5138L107.858 54.9411C107.858 54.9411 108.113 59.4123 106.892 59.2663C105.67 59.0838 104.047 56.1638 105.396 52.1671Z" fill="black"/>
</g>
</g>
<path d="M114.477 44.9582C114.477 44.9582 116.046 52.0574 110.757 54.9591C109.955 55.3971 108.952 55.2876 108.259 54.6853C107.001 53.5721 105.159 51.4734 105.433 48.8454C105.433 48.8454 104.703 42.8229 110.064 42.4579C113.675 42.2207 114.477 44.9582 114.477 44.9582Z" fill="#F8CCCC"/>
<path d="M114.678 46.4728C114.204 44.4835 113.018 43.0418 111.559 42.7863C110.666 42.6221 109.9 42.9505 109.718 43.0418C107.657 43.9725 108.095 46.3998 106.308 47.0385C106.308 47.0385 106.144 47.0933 103.718 47.148L105.797 40.8701L113.565 40.3408C113.693 41.0708 115.206 43.4798 115.334 44.2098C115.571 45.5238 115.079 45.5603 114.678 46.4728Z" fill="#0B2739"/>
<path d="M105.269 48.7363C105.269 48.7363 105.487 52.3315 101.895 51.784C98.3028 51.2365 101.366 45.9258 101.366 45.9258L104.539 48.8275L105.269 48.7363Z" fill="#0B2739"/>
<path d="M137.873 15.9228C137.928 15.6855 138.001 15.4118 138.074 15.1198C138.11 13.2583 137.563 9.55358 138.055 9.60832C138.402 9.64482 138.967 11.3786 139.314 12.5648C140.153 11.4881 140.353 7.58259 141.265 7.27234C142.213 6.94385 143.034 8.14834 143.034 11.8713C143.034 14.8278 140.809 16.2148 139.879 16.671C139.405 17.8208 133.734 31.4352 127.114 44.8306C125.71 42.4216 123.777 39.8118 121.334 37.9686C125.893 32.8951 132.384 26.1609 137.873 15.9228Z" fill="#F8CCCC"/>
<path d="M82.3648 4.57129C82.5289 0.86657 83.386 -0.301421 84.316 0.0635765C85.2277 0.410324 85.246 4.33404 86.0483 5.44728C86.4495 4.27929 87.0877 2.58206 87.4342 2.54556C87.9265 2.50906 87.2336 6.19553 87.1971 8.05701C87.2701 8.38551 87.343 8.71401 87.3977 8.95125C88.0177 11.78 91.9201 29.2816 96.333 39.465C93.9989 41.3447 91.3183 43.9362 89.0936 47.2394C87.416 32.2746 85.2095 11.3055 85.0089 9.31625C84.006 8.69576 82.2554 7.21752 82.3648 4.57129Z" fill="#F8CCCC"/>
<g opacity="0.1">
<g opacity="0.1">
<path opacity="0.1" d="M93.4516 42.0205C92.8681 49.3387 91.8286 74.268 103.536 81.9329C109.426 85.7837 113.912 84.0499 114.969 86.8786C115.844 89.2146 113.437 92.6091 108.952 96.6058C101.238 94.5801 95.4757 90.6929 92.8133 93.3573C89.6586 96.5146 87.0328 88.7401 89.8045 79.2685C90.9898 75.217 89.9686 62.0589 88.4004 48.2985C89.9139 45.853 91.6828 43.7542 93.4516 42.0205Z" fill="#1D1D1B"/>
</g>
</g>
<g opacity="0.1">
<g opacity="0.1">
<path opacity="0.1" d="M114.696 40.8323C111.888 38.3685 110.484 38.2955 109.7 38.624C108.369 39.208 108.77 41.106 107.11 44.0625C105.597 46.727 103.135 48.9535 102.387 48.5337C101.822 48.2235 102.369 46.3985 102.551 45.2853C105.123 43.7158 103.682 39.8468 106.217 38.3503C108.423 37.0363 112.818 38.0583 114.696 40.8323Z" fill="white"/>
</g>
</g>
<path d="M105.998 46.6737C105.852 46.3817 105.487 45.8889 105.049 45.9437C104.594 45.9984 104.32 46.6189 104.284 47.0752C104.211 47.9876 105.086 48.9549 105.596 48.8271C106.107 48.6994 106.417 47.4949 105.998 46.6737Z" fill="#F8CCCC"/>
</svg>
