<svg width="135" height="32" viewBox="0 0 135 32" fill="none" xmlns="http://www.w3.org/2000/svg">
<path fill-rule="evenodd" clip-rule="evenodd" d="M4.80177 9.5524C7.45371 9.5524 9.60354 7.41402 9.60354 4.7762C9.60354 2.13838 7.45371 0 4.80177 0C2.14983 0 0 2.13838 0 4.7762C0 7.41402 2.14983 9.5524 4.80177 9.5524ZM16.085 9.5524C18.7369 9.5524 20.8868 7.41402 20.8868 4.7762C20.8868 2.13838 18.7369 0 16.085 0C13.4331 0 11.2832 2.13838 11.2832 4.7762C11.2832 7.41402 13.4331 9.5524 16.085 9.5524ZM32.1713 4.7762C32.1713 7.41402 30.0215 9.5524 27.3696 9.5524C24.7176 9.5524 22.5678 7.41402 22.5678 4.7762C22.5678 2.13838 24.7176 0 27.3696 0C30.0215 0 32.1713 2.13838 32.1713 4.7762ZM16.085 20.7755C18.7369 20.7755 20.8868 18.6371 20.8868 15.9993C20.8868 13.3615 18.7369 11.2231 16.085 11.2231C13.4331 11.2231 11.2832 13.3615 11.2832 15.9993C11.2832 18.6371 13.4331 20.7755 16.085 20.7755ZM20.8868 27.2238C20.8868 29.8616 18.7369 32 16.085 32C13.4331 32 11.2832 29.8616 11.2832 27.2238C11.2832 24.586 13.4331 22.4476 16.085 22.4476C18.7369 22.4476 20.8868 24.586 20.8868 27.2238ZM42.4062 12.2779H37.9316V9.62844H49.6505V12.2779H45.1758V24.4651H42.4062V12.2779ZM53.9978 24.6757C57.4282 24.6757 58.7701 22.133 59.0046 21.2849H56.2351C56.022 21.7303 55.2552 22.4503 53.9978 22.4503C52.4843 22.4503 51.3556 21.4129 51.121 19.9075H59.2178L59.2607 19.6102C59.2652 19.5705 59.2706 19.528 59.2763 19.4829V19.4828C59.2982 19.3111 59.325 19.0998 59.325 18.8475C59.325 15.7754 56.9818 13.4433 53.9978 13.4433C50.802 13.4433 48.4574 15.774 48.4574 19.0595C48.4574 22.345 50.802 24.6757 53.9978 24.6757ZM53.9978 15.6687C55.5112 15.6687 56.4268 16.7287 56.6614 18.1061H51.121C51.4414 16.7287 52.3784 15.6687 53.9978 15.6687ZM60.9216 9.62844H63.5852V24.4651H60.9216V9.62844ZM70.7222 24.6757C74.1526 24.6757 75.4945 22.133 75.729 21.2849H72.9595C72.7464 21.7303 71.9796 22.4503 70.7222 22.4503C69.2087 22.4503 68.08 21.4129 67.8454 19.9075H75.9422L75.9851 19.6102C75.9896 19.5705 75.995 19.528 76.0007 19.4829V19.4828C76.0226 19.3111 76.0494 19.0998 76.0494 18.8475C76.0494 15.7754 73.7049 13.4433 70.7222 13.4433C67.525 13.4433 65.1818 15.774 65.1818 19.0595C65.1818 22.345 67.5264 24.6757 70.7222 24.6757ZM70.7208 15.6687C72.2343 15.6687 73.1499 16.7287 73.3845 18.1061H67.8441C68.1645 16.7287 69.1015 15.6687 70.7208 15.6687ZM78.4973 16.1994H76.6862V13.6566H78.4973V12.0659C78.4973 10.4551 79.5415 9.41644 81.1609 9.41644H83.5041V11.7485H81.9062C81.4799 11.7485 81.1609 12.0659 81.1609 12.4899V13.6553H83.5041V16.1981H81.1609V24.4637H78.4973V16.1994ZM89.444 24.6757C92.6412 24.6757 94.9844 22.345 94.9844 19.0595C94.9844 15.7754 92.6398 13.4433 89.444 13.4433C86.2482 13.4433 83.9036 15.774 83.9036 19.0595C83.9036 22.345 86.2482 24.6757 89.444 24.6757ZM89.444 15.8807C91.0419 15.8807 92.3208 17.1514 92.3208 19.0595C92.3208 20.9676 91.0419 22.2396 89.444 22.2383C87.8461 22.2383 86.5672 20.9676 86.5672 19.0595C86.5672 17.1528 87.8461 15.8807 89.444 15.8807ZM96.581 13.6553H99.0314L99.2446 14.7153H99.3505C99.5422 14.482 99.7982 14.27 100.074 14.0793C100.565 13.7606 101.31 13.4433 102.333 13.4433C104.784 13.4433 106.595 15.2447 106.595 18.0008V24.4651H103.931V18.2128C103.931 16.8354 102.973 15.882 101.588 15.882C100.203 15.882 99.2446 16.8354 99.2446 18.2128V24.4651H96.581V13.6553ZM118.434 24.677C121.865 24.677 123.208 22.1343 123.548 20.4382H120.885C120.65 21.1796 120.032 22.2396 118.434 22.2396C116.836 22.2396 115.557 20.9689 115.557 19.0608C115.557 17.1541 116.836 15.882 118.434 15.882C120.032 15.882 120.65 16.9634 120.885 17.5781H123.548C123.208 15.9887 121.865 13.4446 118.434 13.4446C115.237 13.4446 112.894 15.7753 112.894 19.0608C112.894 22.3463 115.238 24.677 118.434 24.677ZM131.602 23.405H131.496C131.305 23.6384 131.049 23.8504 130.751 24.041C130.239 24.3597 129.494 24.6771 128.406 24.6771C125.934 24.6771 124.465 23.1717 124.465 21.3916C124.465 19.2715 125.957 17.7888 128.94 17.7888H131.39V17.5768C131.39 16.3901 130.667 15.5634 129.472 15.5634C128.279 15.5634 127.661 16.3261 127.554 16.9408H124.89C125.125 15.1607 126.574 13.4433 129.472 13.4433C132.242 13.4433 134.054 15.266 134.054 17.5768V24.4651H131.817L131.602 23.405ZM131.389 19.8022H129.152C127.767 19.8022 127.128 20.3316 127.128 21.1796C127.128 22.0276 127.746 22.557 128.833 22.557C130.452 22.557 131.39 21.6236 131.39 20.1195V19.8022H131.389ZM111.299 13.6553H108.635V24.4651H111.299V13.6553ZM109.966 12.1019C110.837 12.1019 111.543 11.3998 111.543 10.5338C111.543 9.66778 110.837 8.96573 109.966 8.96573C109.095 8.96573 108.39 9.66778 108.39 10.5338C108.39 11.3998 109.095 12.1019 109.966 12.1019ZM93.1733 9.09905H90.4025L88.3783 12.1712H90.6156L93.1733 9.09905Z" fill="white"/>
</svg>

